<svg width="138" height="149" viewBox="0 0 138 149" fill="none" xmlns="http://www.w3.org/2000/svg">
<path d="M103.012 115.603H34.2181V72.9705H102.947L103.012 115.603ZM68.5392 76.3907C62.6674 76.3968 56.888 77.8596 51.7139 80.649C46.5399 83.4384 42.1313 87.4683 38.8795 92.3808C38.4493 92.8798 38.2125 93.5178 38.2125 94.178C38.2125 94.8382 38.4493 95.4763 38.8795 95.9753C42.1522 100.865 46.5692 104.873 51.7429 107.648C56.9167 110.423 62.6891 111.88 68.5537 111.891C74.4184 111.901 80.1961 110.466 85.3798 107.71C90.5636 104.954 94.9951 100.962 98.2855 96.0842C98.7548 95.557 99.0143 94.8745 99.0143 94.1671C99.0143 93.4598 98.7548 92.7773 98.2855 92.2501C95.0041 87.3576 90.5733 83.3531 85.385 80.5907C80.1967 77.8283 74.4108 76.3933 68.5392 76.4125V76.3907Z" fill="white"/>
<path d="M68.7344 68.9838C62.9002 68.9721 57.1558 67.5389 51.9938 64.807C46.8318 62.0752 42.4062 58.1263 39.0964 53.2987C38.5446 52.7089 38.2373 51.9298 38.2373 51.1203C38.2373 50.3107 38.5446 49.5316 39.0964 48.9418C42.4044 44.123 46.8329 40.1883 51.9976 37.4793C57.1622 34.7703 62.9069 33.369 68.7329 33.3969C74.5588 33.4248 80.29 34.8811 85.4287 37.6394C90.5674 40.3978 94.9584 44.3747 98.2205 49.2249C98.6883 49.7486 98.947 50.4274 98.947 51.1311C98.947 51.8348 98.6883 52.5136 98.2205 53.0373C94.9624 57.8999 90.5754 61.8928 85.4382 64.671C80.3011 67.4493 74.5682 68.9295 68.7344 68.9838ZM81.5695 51.3381C81.6298 48.7408 80.9185 46.1843 79.5263 43.9951C78.134 41.8058 76.1241 40.0832 73.753 39.0469C71.3819 38.0107 68.7573 37.7079 66.2142 38.1773C63.6711 38.6467 61.3249 39.8669 59.4752 41.6821C57.6254 43.4974 56.356 45.8254 55.8289 48.3688C55.3019 50.9123 55.5412 53.5559 56.5163 55.9621C57.4913 58.3683 59.1578 60.428 61.3032 61.8782C63.4485 63.3284 65.9753 64.1033 68.5609 64.104C71.959 64.1049 75.2227 62.7698 77.6537 60.3841C80.0848 57.9984 81.4902 54.7515 81.5695 51.3381Z" fill="white"/>
<path d="M68.6037 107.042C66.0825 106.999 63.6301 106.208 61.5548 104.769C59.4794 103.33 57.8737 101.306 56.9394 98.953C56.005 96.5997 55.7836 94.0215 56.3032 91.5422C56.8227 89.0629 58.06 86.7931 59.8594 85.0182C61.6589 83.2433 63.9403 82.0423 66.417 81.5663C68.8937 81.0902 71.4551 81.3602 73.7795 82.3424C76.1039 83.3247 78.0876 84.9753 79.4812 87.0868C80.8748 89.1983 81.6162 91.6767 81.6123 94.2103C81.6068 95.914 81.2648 97.5997 80.6061 99.1696C79.9475 100.739 78.9852 102.162 77.7752 103.356C76.5652 104.549 75.1315 105.49 73.5571 106.122C71.9828 106.755 70.2991 107.068 68.6037 107.042Z" fill="white"/>
</svg>
