<svg width="1072" height="408" viewBox="0 0 1072 408" fill="none" xmlns="http://www.w3.org/2000/svg">
<g clip-path="url(#clip0_1694_2933)">
<path d="M855.065 139.418L854.984 139.911L855.436 139.985L855.55 139.542L855.065 139.418ZM892.25 -5.98242L892.373 -6.46683L891.889 -6.59071L891.765 -6.1063L892.25 -5.98242ZM653.797 106.362L653.878 105.869L653.797 106.362ZM382.797 61.8541L382.716 62.3475L382.797 61.8541ZM301.297 48.4688L301.378 47.9755L301.297 48.4688ZM210.97 33.634L210.868 34.1233L210.878 34.1256L210.889 34.1274L210.97 33.634ZM68.1426 3.67013L68.2453 3.18078L67.7559 3.07812L67.6533 3.56747L68.1426 3.67013ZM64.8575 19.3292L64.3681 19.2266L64.2655 19.7159L64.7548 19.8186L64.8575 19.3292ZM200.289 47.7415L200.782 47.8275L200.865 47.3514L200.392 47.2522L200.289 47.7415ZM173.229 202.757L173.118 203.244L173.631 203.361L173.721 202.843L173.229 202.757ZM45.8337 173.803L45.3376 173.742L45.2816 174.191L45.7229 174.291L45.8337 173.803ZM62.9387 36.4886L63.4348 36.5504L63.4967 36.0542L63.0005 35.9924L62.9387 36.4886ZM47.0614 34.5108L47.1232 34.0146L46.627 33.9528L46.5652 34.449L47.0614 34.5108ZM30.2682 169.323L30.1101 169.797L30.6889 169.99L30.7643 169.385L30.2682 169.323ZM-17.4701 153.41L-17.312 152.936L-17.7864 152.778L-17.9445 153.252L-17.4701 153.41ZM-22.5298 168.589L-23.0041 168.431L-23.1622 168.905L-22.6879 169.063L-22.5298 168.589ZM34.4702 187.589L34.3121 188.063L34.3121 188.064L34.4702 187.589ZM34.8434 187.714L34.6853 188.188L34.7087 188.196L34.7326 188.201L34.8434 187.714ZM35.2271 187.801L35.1163 188.288L35.2271 187.801ZM170.474 218.539L170.966 218.625L171.048 218.156L170.584 218.051L170.474 218.539ZM161.229 271.497L161.701 271.66L161.714 271.622L161.721 271.583L161.229 271.497ZM109.436 421.895L108.963 421.732L108.8 422.205L109.273 422.368L109.436 421.895ZM124.564 427.105L124.401 427.577L124.874 427.74L125.037 427.267L124.564 427.105ZM174.428 282.309L174.495 281.813L174.088 281.758L173.955 282.146L174.428 282.309ZM256.425 293.427L256.492 292.932H256.492L256.425 293.427ZM256.458 293.432L256.39 293.927L256.395 293.928L256.458 293.432ZM256.49 293.436L256.553 292.94H256.553L256.49 293.436ZM350.99 305.458L350.927 305.954L350.99 305.458ZM621.859 339.919L621.939 339.425L621.931 339.424L621.922 339.423L621.859 339.919ZM825.237 372.672L825.733 372.733L825.792 372.255L825.316 372.178L825.237 372.672ZM815.06 455.019L814.564 454.957L814.503 455.453L814.999 455.515L815.06 455.019ZM830.94 456.981L830.878 457.477L831.375 457.538L831.436 457.042L830.94 456.981ZM842.062 366.981L842.558 367.042L842.062 366.981ZM856.829 247.481L856.333 247.42L856.829 247.481ZM868.877 149.987L868.393 149.864L868.385 149.895L868.381 149.926L868.877 149.987ZM907.751 -2.0182L908.235 -1.89432L908.359 -2.37873L907.875 -2.50261L907.751 -2.0182ZM852.118 155.148L852.614 155.209L852.673 154.733L852.199 154.655L852.118 155.148ZM659.323 123.484L659.404 122.991L658.896 122.907L658.827 123.417L659.323 123.484ZM841.969 237.273L841.889 237.767L842.401 237.85L842.465 237.334L841.969 237.273ZM648.164 205.85L647.668 205.783L647.603 206.266L648.084 206.344L648.164 205.85ZM840.005 253.164L840.501 253.225L840.56 252.747L840.085 252.67L840.005 253.164ZM646.015 221.711L646.095 221.217L645.589 221.135L645.52 221.644L646.015 221.711ZM827.2 356.782L827.121 357.276L827.633 357.358L827.697 356.843L827.2 356.782ZM631.975 325.342L631.48 325.275L631.414 325.758L631.896 325.836L631.975 325.342ZM643.528 120.89L644.024 120.957L644.089 120.475L643.609 120.397L643.528 120.89ZM388.371 78.9839L388.452 78.4905L387.941 78.4067L387.875 78.9197L388.371 78.9839ZM631.262 211.426L630.767 211.359L631.262 211.426ZM616.138 323.062L616.075 323.558L616.567 323.621L616.633 323.129L616.138 323.062ZM360.964 290.598L360.468 290.534L360.403 291.031L360.901 291.094L360.964 290.598ZM345.091 288.579L345.028 289.075L345.523 289.138L345.587 288.643L345.091 288.579ZM372.573 76.3894L373.069 76.4536L373.131 75.9743L372.654 75.896L372.573 76.3894ZM266.91 278.632L266.419 278.541L266.322 279.062L266.847 279.128L266.91 278.632ZM306.437 65.5274L306.518 65.034L306.034 64.9546L305.945 65.4362L306.437 65.5274ZM251.024 276.548L250.957 277.044L251.429 277.108L251.515 276.64L251.024 276.548ZM290.645 62.9338L291.136 63.025L291.23 62.5231L290.726 62.4404L290.645 62.9338ZM178.31 266.689L177.817 266.603L177.728 267.115L178.243 267.184L178.31 266.689ZM216.019 50.6775L216.1 50.1841L215.611 50.1039L215.526 50.5915L216.019 50.6775ZM938.787 9.63091L938.877 9.13916L938.367 9.04536L938.292 9.55846L938.787 9.63091ZM946.947 11.1316L947.038 10.6399L946.947 11.1316ZM937.585 17.8404L938.079 17.9128V17.9128L937.585 17.8404ZM876.585 434.34L876.09 434.268L876.017 434.763L876.512 434.835L876.585 434.34ZM892.416 436.659L892.343 437.154L892.838 437.226L892.91 436.731L892.416 436.659ZM952.213 28.3685L952.304 27.8767L951.794 27.7829L951.719 28.296L952.213 28.3685ZM987.553 34.8677L987.463 35.3595L987.954 35.4499L988.045 34.9582L987.553 34.8677ZM990.447 19.1316L990.939 19.2221L991.029 18.7303L990.538 18.6399L990.447 19.1316ZM855.55 139.542L892.734 -5.85854L891.765 -6.1063L854.581 139.294L855.55 139.542ZM653.716 106.856L854.984 139.911L855.146 138.924L653.878 105.869L653.716 106.856ZM382.716 62.3475L653.716 106.856L653.878 105.869L382.878 61.3607L382.716 62.3475ZM301.216 48.9622L382.716 62.3475L382.878 61.3607L301.378 47.9755L301.216 48.9622ZM210.889 34.1274L301.216 48.9622L301.378 47.9755L211.051 33.1406L210.889 34.1274ZM68.0399 4.15948L210.868 34.1233L211.073 33.1446L68.2453 3.18078L68.0399 4.15948ZM65.3468 19.4319L68.632 3.77279L67.6533 3.56747L64.3681 19.2266L65.3468 19.4319ZM200.392 47.2522L64.9601 18.8399L64.7548 19.8186L200.187 48.2309L200.392 47.2522ZM173.721 202.843L200.782 47.8275L199.797 47.6556L172.736 202.671L173.721 202.843ZM45.7229 174.291L173.118 203.244L173.339 202.269L45.9445 173.316L45.7229 174.291ZM62.4425 36.4268L45.3376 173.742L46.3299 173.865L63.4348 36.5504L62.4425 36.4268ZM46.9996 35.007L62.8769 36.9848L63.0005 35.9924L47.1232 34.0146L46.9996 35.007ZM30.7643 169.385L47.5576 34.5726L46.5652 34.449L29.772 169.261L30.7643 169.385ZM-17.6283 153.885L30.1101 169.797L30.4263 168.849L-17.312 152.936L-17.6283 153.885ZM-22.0554 168.747L-16.9958 153.568L-17.9445 153.252L-23.0041 168.431L-22.0554 168.747ZM34.6283 187.115L-22.3717 168.115L-22.6879 169.063L34.3121 188.063L34.6283 187.115ZM35.0015 187.239L34.6283 187.115L34.3121 188.064L34.6853 188.188L35.0015 187.239ZM35.3379 187.313L34.9542 187.226L34.7326 188.201L35.1163 188.288L35.3379 187.313ZM170.584 218.051L35.3379 187.313L35.1163 188.288L170.363 219.026L170.584 218.051ZM161.721 271.583L170.966 218.625L169.981 218.453L160.736 271.411L161.721 271.583ZM109.909 422.058L161.701 271.66L160.756 271.334L108.963 421.732L109.909 422.058ZM124.727 426.632L109.599 421.422L109.273 422.368L124.401 427.577L124.727 426.632ZM173.955 282.146L124.091 426.942L125.037 427.267L174.9 282.472L173.955 282.146ZM256.492 292.932L174.495 281.813L174.36 282.804L256.358 293.923L256.492 292.932ZM256.525 292.936L256.492 292.932L256.358 293.923L256.39 293.927L256.525 292.936ZM256.553 292.94L256.521 292.936L256.395 293.928L256.427 293.932L256.553 292.94ZM351.053 304.962L256.553 292.94L256.427 293.932L350.927 305.954L351.053 304.962ZM621.922 339.423L351.053 304.962L350.927 305.954L621.796 340.415L621.922 339.423ZM825.316 372.178L621.939 339.425L621.78 340.413L825.157 373.165L825.316 372.178ZM815.557 455.08L825.733 372.733L824.74 372.611L814.564 454.957L815.557 455.08ZM831.001 456.485L815.122 454.522L814.999 455.515L830.878 457.477L831.001 456.485ZM841.565 366.92L830.443 456.92L831.436 457.042L842.558 367.042L841.565 366.92ZM856.333 247.42L841.565 366.92L842.558 367.042L857.325 247.542L856.333 247.42ZM868.381 149.926L856.333 247.42L857.325 247.542L869.373 150.049L868.381 149.926ZM907.266 -2.14208L868.393 149.864L869.361 150.111L908.235 -1.89432L907.266 -2.14208ZM892.126 -5.49801L907.627 -1.53379L907.875 -2.50261L892.373 -6.46683L892.126 -5.49801ZM852.199 154.655L659.404 122.991L659.242 123.978L852.037 155.641L852.199 154.655ZM842.465 237.334L852.614 155.209L851.621 155.087L841.473 237.212L842.465 237.334ZM648.084 206.344L841.889 237.767L842.049 236.78L648.244 205.357L648.084 206.344ZM658.827 123.417L647.668 205.783L648.659 205.917L659.818 123.551L658.827 123.417ZM840.085 252.67L646.095 221.217L645.935 222.204L839.925 253.657L840.085 252.67ZM827.697 356.843L840.501 253.225L839.509 253.102L826.704 356.721L827.697 356.843ZM631.896 325.836L827.121 357.276L827.28 356.288L632.055 324.848L631.896 325.836ZM645.52 221.644L631.48 325.275L632.471 325.409L646.511 221.778L645.52 221.644ZM643.609 120.397L388.452 78.4905L388.29 79.4773L643.447 121.383L643.609 120.397ZM631.758 211.493L644.024 120.957L643.033 120.823L630.767 211.359L631.758 211.493ZM616.633 323.129L631.758 211.493L630.767 211.359L615.642 322.995L616.633 323.129ZM360.901 291.094L616.075 323.558L616.201 322.566L361.027 290.102L360.901 291.094ZM387.875 78.9197L360.468 290.534L361.459 290.662L388.867 79.0482L387.875 78.9197ZM345.587 288.643L373.069 76.4536L372.077 76.3252L344.596 288.515L345.587 288.643ZM266.847 279.128L345.028 289.075L345.155 288.083L266.973 278.136L266.847 279.128ZM305.945 65.4362L266.419 278.541L267.402 278.724L306.928 65.6186L305.945 65.4362ZM372.654 75.896L306.518 65.034L306.356 66.0208L372.492 76.8828L372.654 75.896ZM251.515 276.64L291.136 63.025L290.153 62.8426L250.532 276.457L251.515 276.64ZM178.243 267.184L250.957 277.044L251.091 276.053L178.377 266.193L178.243 267.184ZM215.526 50.5915L177.817 266.603L178.803 266.775L216.511 50.7635L215.526 50.5915ZM290.726 62.4404L216.1 50.1841L215.938 51.1709L290.564 63.4272L290.726 62.4404ZM938.696 10.1227L946.857 11.6234L947.038 10.6399L938.877 9.13916L938.696 10.1227ZM938.079 17.9128L939.282 9.70337L938.292 9.55846L937.09 17.7679L938.079 17.9128ZM877.079 434.413L938.079 17.9128L937.09 17.7679L876.09 434.268L877.079 434.413ZM892.488 436.164L876.657 433.846L876.512 434.835L892.343 437.154L892.488 436.164ZM951.719 28.296L891.921 436.587L892.91 436.731L952.708 28.4409L951.719 28.296ZM987.643 34.376L952.304 27.8767L952.123 28.8602L987.463 35.3595L987.643 34.376ZM989.955 19.0412L987.061 34.7773L988.045 34.9582L990.939 19.2221L989.955 19.0412ZM946.857 11.6234L990.357 19.6234L990.538 18.6399L947.038 10.6399L946.857 11.6234Z" fill="black"/>
<rect width="125" height="28" transform="translate(592 202)" fill="black"/>
<path d="M608.786 213.429C608.786 216.63 603 224.357 603 224.357C603 224.357 597.214 216.63 597.214 213.429C597.214 211.894 597.824 210.423 598.909 209.338C599.994 208.253 601.466 207.643 603 207.643C604.534 207.643 606.006 208.253 607.091 209.338C608.176 210.423 608.786 211.894 608.786 213.429Z" fill="white"/>
<path d="M603 215.357C604.065 215.357 604.929 214.494 604.929 213.429C604.929 212.363 604.065 211.5 603 211.5C601.935 211.5 601.071 212.363 601.071 213.429C601.071 214.494 601.935 215.357 603 215.357Z" fill="black"/>
<path d="M626.594 214.028C626.594 213.711 626.529 213.431 626.398 213.188C626.277 212.945 626.109 212.745 625.894 212.586C625.679 212.427 625.432 212.306 625.152 212.222C624.872 212.138 624.578 212.096 624.27 212.096C623.999 212.096 623.743 212.133 623.5 212.208C623.257 212.273 623.038 212.371 622.842 212.502C622.655 212.633 622.506 212.796 622.394 212.992C622.282 213.179 622.226 213.398 622.226 213.65V213.734C622.226 214.005 622.282 214.238 622.394 214.434C622.506 214.621 622.669 214.784 622.884 214.924C623.108 215.055 623.383 215.167 623.71 215.26C624.037 215.344 624.419 215.419 624.858 215.484C625.885 215.643 626.641 215.946 627.126 216.394C627.611 216.833 627.854 217.425 627.854 218.172V218.34C627.854 218.76 627.779 219.147 627.63 219.502C627.49 219.847 627.275 220.146 626.986 220.398C626.706 220.65 626.356 220.846 625.936 220.986C625.516 221.126 625.031 221.196 624.48 221.196C623.855 221.196 623.299 221.107 622.814 220.93C622.338 220.743 621.937 220.491 621.61 220.174C621.293 219.847 621.05 219.469 620.882 219.04C620.714 218.601 620.63 218.125 620.63 217.612V217.192H621.806V217.528C621.806 218.387 622.039 219.031 622.506 219.46C622.982 219.889 623.64 220.104 624.48 220.104C625.208 220.104 625.754 219.945 626.118 219.628C626.491 219.301 626.678 218.872 626.678 218.34V218.256C626.678 217.743 626.487 217.351 626.104 217.08C625.731 216.809 625.119 216.613 624.27 216.492C623.775 216.427 623.327 216.329 622.926 216.198C622.534 216.058 622.198 215.881 621.918 215.666C621.638 215.442 621.423 215.176 621.274 214.868C621.125 214.56 621.05 214.196 621.05 213.776V213.608C621.05 213.225 621.129 212.875 621.288 212.558C621.447 212.241 621.666 211.965 621.946 211.732C622.235 211.499 622.576 211.321 622.968 211.2C623.369 211.069 623.808 211.004 624.284 211.004C624.835 211.004 625.325 211.083 625.754 211.242C626.193 211.401 626.561 211.615 626.86 211.886C627.159 212.147 627.383 212.46 627.532 212.824C627.691 213.179 627.77 213.552 627.77 213.944V214.532H626.594V214.028ZM631.61 211.2H632.786V219.908H637.91V221H631.61V211.2ZM641.625 215.008C641.625 213.739 641.928 212.754 642.535 212.054C643.141 211.354 643.986 211.004 645.069 211.004C646.151 211.004 646.996 211.354 647.603 212.054C648.209 212.754 648.513 213.739 648.513 215.008V217.192C648.513 218.499 648.209 219.493 647.603 220.174C646.996 220.855 646.151 221.196 645.069 221.196C643.986 221.196 643.141 220.855 642.535 220.174C641.928 219.493 641.625 218.499 641.625 217.192V215.008ZM645.069 220.104C645.825 220.104 646.389 219.847 646.763 219.334C647.145 218.811 647.337 218.069 647.337 217.108V215.092C647.337 214.196 647.145 213.473 646.763 212.922C646.389 212.371 645.825 212.096 645.069 212.096C644.313 212.096 643.743 212.371 643.361 212.922C642.987 213.473 642.801 214.196 642.801 215.092V217.108C642.801 218.069 642.987 218.811 643.361 219.334C643.743 219.847 644.313 220.104 645.069 220.104ZM658.597 221H656.455L655.545 211.704H655.377L654.467 221H652.325L651.331 211.2H652.395L653.333 220.496H653.501L654.383 211.2H656.539L657.421 220.496H657.589L658.527 211.2H659.591L658.597 221ZM665.909 220.104C666.31 220.104 666.651 220.039 666.931 219.908C667.22 219.768 667.454 219.586 667.631 219.362C667.818 219.129 667.953 218.867 668.037 218.578C668.13 218.279 668.177 217.967 668.177 217.64V217.472H669.353V217.64C669.353 218.135 669.278 218.601 669.129 219.04C668.98 219.469 668.76 219.847 668.471 220.174C668.182 220.491 667.822 220.743 667.393 220.93C666.964 221.107 666.469 221.196 665.909 221.196C664.826 221.196 663.982 220.855 663.375 220.174C662.768 219.493 662.465 218.499 662.465 217.192V215.008C662.465 213.739 662.768 212.754 663.375 212.054C663.982 211.354 664.826 211.004 665.909 211.004C666.469 211.004 666.964 211.097 667.393 211.284C667.822 211.461 668.182 211.713 668.471 212.04C668.76 212.357 668.98 212.735 669.129 213.174C669.278 213.603 669.353 214.065 669.353 214.56V214.728H668.177V214.56C668.168 214.243 668.116 213.935 668.023 213.636C667.939 213.337 667.804 213.076 667.617 212.852C667.44 212.619 667.211 212.437 666.931 212.306C666.651 212.166 666.31 212.096 665.909 212.096C665.153 212.096 664.584 212.371 664.201 212.922C663.828 213.473 663.641 214.196 663.641 215.092V217.108C663.641 218.069 663.828 218.811 664.201 219.334C664.584 219.847 665.153 220.104 665.909 220.104ZM672.801 215.008C672.801 213.739 673.105 212.754 673.711 212.054C674.318 211.354 675.163 211.004 676.245 211.004C677.328 211.004 678.173 211.354 678.779 212.054C679.386 212.754 679.689 213.739 679.689 215.008V217.192C679.689 218.499 679.386 219.493 678.779 220.174C678.173 220.855 677.328 221.196 676.245 221.196C675.163 221.196 674.318 220.855 673.711 220.174C673.105 219.493 672.801 218.499 672.801 217.192V215.008ZM676.245 220.104C677.001 220.104 677.566 219.847 677.939 219.334C678.322 218.811 678.513 218.069 678.513 217.108V215.092C678.513 214.196 678.322 213.473 677.939 212.922C677.566 212.371 677.001 212.096 676.245 212.096C675.489 212.096 674.92 212.371 674.537 212.922C674.164 213.473 673.977 214.196 673.977 215.092V217.108C673.977 218.069 674.164 218.811 674.537 219.334C674.92 219.847 675.489 220.104 676.245 220.104ZM682.998 211.2H685.238L686.554 220.496H686.722L688.038 211.2H690.278V221H689.186V211.704H689.018L687.702 221H685.574L684.258 211.704H684.09V221H682.998V211.2ZM693.544 219.908H694.384V212.292H693.544V211.2H697.506C697.973 211.2 698.383 211.265 698.738 211.396C699.102 211.527 699.405 211.704 699.648 211.928C699.9 212.152 700.087 212.423 700.208 212.74C700.339 213.048 700.404 213.384 700.404 213.748V213.916C700.404 214.187 700.362 214.434 700.278 214.658C700.194 214.882 700.077 215.083 699.928 215.26C699.779 215.437 699.601 215.591 699.396 215.722C699.2 215.843 698.985 215.937 698.752 216.002V216.17C699.219 216.301 699.611 216.553 699.928 216.926C700.245 217.29 700.404 217.738 700.404 218.27V218.438C700.404 218.802 700.339 219.143 700.208 219.46C700.087 219.768 699.9 220.039 699.648 220.272C699.405 220.496 699.102 220.673 698.738 220.804C698.383 220.935 697.973 221 697.506 221H693.544V219.908ZM695.56 219.908H697.422C697.973 219.908 698.421 219.773 698.766 219.502C699.111 219.222 699.284 218.839 699.284 218.354V218.27C699.284 217.766 699.121 217.369 698.794 217.08C698.467 216.781 698.024 216.632 697.464 216.632H695.56V219.908ZM695.56 215.54H697.464C698.024 215.54 698.467 215.395 698.794 215.106C699.121 214.817 699.284 214.42 699.284 213.916V213.832C699.284 213.356 699.111 212.983 698.766 212.712C698.421 212.432 697.973 212.292 697.422 212.292H695.56V215.54ZM703.978 215.008C703.978 213.739 704.281 212.754 704.888 212.054C705.495 211.354 706.339 211.004 707.422 211.004C708.505 211.004 709.349 211.354 709.956 212.054C710.563 212.754 710.866 213.739 710.866 215.008V217.192C710.866 218.499 710.563 219.493 709.956 220.174C709.349 220.855 708.505 221.196 707.422 221.196C706.339 221.196 705.495 220.855 704.888 220.174C704.281 219.493 703.978 218.499 703.978 217.192V215.008ZM707.422 220.104C708.178 220.104 708.743 219.847 709.116 219.334C709.499 218.811 709.69 218.069 709.69 217.108V215.092C709.69 214.196 709.499 213.473 709.116 212.922C708.743 212.371 708.178 212.096 707.422 212.096C706.666 212.096 706.097 212.371 705.714 212.922C705.341 213.473 705.154 214.196 705.154 215.092V217.108C705.154 218.069 705.341 218.811 705.714 219.334C706.097 219.847 706.666 220.104 707.422 220.104Z" fill="white"/>
<rect width="144" height="40" transform="translate(122 134)" fill="#F7F7F7"/>
<path d="M126.34 148.104C126.741 148.104 127.082 148.039 127.362 147.908C127.651 147.768 127.885 147.586 128.062 147.362C128.249 147.129 128.384 146.867 128.468 146.578C128.561 146.279 128.608 145.967 128.608 145.64V145.472H129.784V145.64C129.784 146.135 129.709 146.601 129.56 147.04C129.411 147.469 129.191 147.847 128.902 148.174C128.613 148.491 128.253 148.743 127.824 148.93C127.395 149.107 126.9 149.196 126.34 149.196C125.257 149.196 124.413 148.855 123.806 148.174C123.199 147.493 122.896 146.499 122.896 145.192V143.008C122.896 141.739 123.199 140.754 123.806 140.054C124.413 139.354 125.257 139.004 126.34 139.004C126.9 139.004 127.395 139.097 127.824 139.284C128.253 139.461 128.613 139.713 128.902 140.04C129.191 140.357 129.411 140.735 129.56 141.174C129.709 141.603 129.784 142.065 129.784 142.56V142.728H128.608V142.56C128.599 142.243 128.547 141.935 128.454 141.636C128.37 141.337 128.235 141.076 128.048 140.852C127.871 140.619 127.642 140.437 127.362 140.306C127.082 140.166 126.741 140.096 126.34 140.096C125.584 140.096 125.015 140.371 124.632 140.922C124.259 141.473 124.072 142.196 124.072 143.092V145.108C124.072 146.069 124.259 146.811 124.632 147.334C125.015 147.847 125.584 148.104 126.34 148.104ZM133.414 139.2H134.59V143.54H138.762V139.2H139.938V149H138.762V144.632H134.59V149H133.414V139.2ZM144.885 139.2V145.696C144.885 146.489 145.067 147.091 145.431 147.502C145.804 147.903 146.35 148.104 147.069 148.104C147.787 148.104 148.329 147.903 148.693 147.502C149.066 147.091 149.253 146.489 149.253 145.696V139.2H150.429V145.696C150.429 146.835 150.13 147.703 149.533 148.3C148.935 148.897 148.114 149.196 147.069 149.196C146.023 149.196 145.202 148.897 144.605 148.3C144.007 147.703 143.709 146.835 143.709 145.696V139.2H144.885ZM154.395 139.2H155.571V147.908H160.695V149H154.395V139.2ZM169.953 146.564H165.753L165.039 149H163.779L166.747 139.2H168.959L171.927 149H170.667L169.953 146.564ZM167.769 139.704L166.075 145.472H169.631L167.937 139.704H167.769ZM175.179 139.2H176.355V147.908H181.479V149H175.179V139.2ZM185.194 143.008C185.194 141.739 185.497 140.754 186.104 140.054C186.71 139.354 187.555 139.004 188.638 139.004C189.72 139.004 190.565 139.354 191.172 140.054C191.778 140.754 192.082 141.739 192.082 143.008V145.192C192.082 146.499 191.778 147.493 191.172 148.174C190.565 148.855 189.72 149.196 188.638 149.196C187.555 149.196 186.71 148.855 186.104 148.174C185.497 147.493 185.194 146.499 185.194 145.192V143.008ZM188.638 148.104C189.394 148.104 189.958 147.847 190.332 147.334C190.714 146.811 190.906 146.069 190.906 145.108V143.092C190.906 142.196 190.714 141.473 190.332 140.922C189.958 140.371 189.394 140.096 188.638 140.096C187.882 140.096 187.312 140.371 186.93 140.922C186.556 141.473 186.37 142.196 186.37 143.092V145.108C186.37 146.069 186.556 146.811 186.93 147.334C187.312 147.847 187.882 148.104 188.638 148.104ZM200.948 148.496H201.116V139.2H202.292V149H199.94L197.112 139.704H196.944V149H195.768V139.2H198.12L200.948 148.496ZM208.484 144.296H212.852V149H211.76V147.824H211.592C211.433 148.235 211.153 148.566 210.752 148.818C210.351 149.07 209.884 149.196 209.352 149.196C208.297 149.196 207.467 148.855 206.86 148.174C206.263 147.493 205.964 146.499 205.964 145.192V143.008C205.964 141.739 206.267 140.754 206.874 140.054C207.481 139.354 208.325 139.004 209.408 139.004C209.968 139.004 210.463 139.097 210.892 139.284C211.321 139.461 211.681 139.713 211.97 140.04C212.259 140.357 212.479 140.735 212.628 141.174C212.777 141.603 212.852 142.065 212.852 142.56V142.728H211.676V142.56C211.676 142.243 211.629 141.935 211.536 141.636C211.452 141.337 211.317 141.076 211.13 140.852C210.953 140.619 210.719 140.437 210.43 140.306C210.15 140.166 209.809 140.096 209.408 140.096C208.652 140.096 208.083 140.371 207.7 140.922C207.327 141.473 207.14 142.196 207.14 143.092V145.108C207.14 146.069 207.327 146.811 207.7 147.334C208.083 147.847 208.661 148.104 209.436 148.104C210.136 148.104 210.682 147.88 211.074 147.432C211.475 146.984 211.676 146.359 211.676 145.556V145.388H208.484V144.296ZM217.952 149H216.776V139.2H217.952V143.54H218.274L222.04 139.2H223.496V139.284L219.436 144.016V144.184L223.664 148.916V149H222.18L218.274 144.632H217.952V149ZM226.763 143.008C226.763 141.739 227.066 140.754 227.673 140.054C228.279 139.354 229.124 139.004 230.207 139.004C231.289 139.004 232.134 139.354 232.741 140.054C233.347 140.754 233.651 141.739 233.651 143.008V145.192C233.651 146.499 233.347 147.493 232.741 148.174C232.134 148.855 231.289 149.196 230.207 149.196C229.124 149.196 228.279 148.855 227.673 148.174C227.066 147.493 226.763 146.499 226.763 145.192V143.008ZM230.207 148.104C230.963 148.104 231.527 147.847 231.901 147.334C232.283 146.811 232.475 146.069 232.475 145.108V143.092C232.475 142.196 232.283 141.473 231.901 140.922C231.527 140.371 230.963 140.096 230.207 140.096C229.451 140.096 228.881 140.371 228.499 140.922C228.125 141.473 227.939 142.196 227.939 143.092V145.108C227.939 146.069 228.125 146.811 228.499 147.334C228.881 147.847 229.451 148.104 230.207 148.104ZM243.665 149H242.489V145.724C242.489 145.481 242.433 145.295 242.321 145.164C242.209 145.033 242.013 144.968 241.733 144.968H238.681V149H237.505V139.2H241.005C241.509 139.2 241.948 139.275 242.321 139.424C242.694 139.564 243.002 139.755 243.245 139.998C243.497 140.241 243.684 140.525 243.805 140.852C243.936 141.169 244.001 141.505 244.001 141.86V142.28C244.001 142.644 243.898 143.008 243.693 143.372C243.497 143.736 243.189 144.016 242.769 144.212V144.38C243.049 144.427 243.268 144.539 243.427 144.716C243.586 144.893 243.665 145.145 243.665 145.472V149ZM238.681 143.876H240.865C241.528 143.876 242.018 143.736 242.335 143.456C242.662 143.167 242.825 142.747 242.825 142.196V141.944C242.825 141.449 242.662 141.053 242.335 140.754C242.018 140.446 241.528 140.292 240.865 140.292H238.681V143.876ZM252.909 148.496H253.077V139.2H254.253V149H251.901L249.073 139.704H248.905V149H247.729V139.2H250.081L252.909 148.496ZM125.766 167.908V159.718H125.598L123.988 163.4H122.826V163.316L124.66 159.2H126.942V167.908H129.714V169H122.994V167.908H125.766ZM136.158 167.908V159.718H135.99L134.38 163.4H133.218V163.316L135.052 159.2H137.334V167.908H140.106V169H133.386V167.908H136.158ZM159.561 166.564H155.361L154.647 169H153.387L156.355 159.2H158.567L161.535 169H160.275L159.561 166.564ZM157.377 159.704L155.683 165.472H159.239L157.545 159.704H157.377ZM164.787 159.2H165.963V167.908H171.087V169H164.787V159.2ZM175.179 159.2H176.355V167.908H181.479V169H175.179V159.2ZM185.194 163.008C185.194 161.739 185.497 160.754 186.104 160.054C186.71 159.354 187.555 159.004 188.638 159.004C189.72 159.004 190.565 159.354 191.172 160.054C191.778 160.754 192.082 161.739 192.082 163.008V165.192C192.082 166.499 191.778 167.493 191.172 168.174C190.565 168.855 189.72 169.196 188.638 169.196C187.555 169.196 186.71 168.855 186.104 168.174C185.497 167.493 185.194 166.499 185.194 165.192V163.008ZM188.638 168.104C189.394 168.104 189.958 167.847 190.332 167.334C190.714 166.811 190.906 166.069 190.906 165.108V163.092C190.906 162.196 190.714 161.473 190.332 160.922C189.958 160.371 189.394 160.096 188.638 160.096C187.882 160.096 187.312 160.371 186.93 160.922C186.556 161.473 186.37 162.196 186.37 163.092V165.108C186.37 166.069 186.556 166.811 186.93 167.334C187.312 167.847 187.882 168.104 188.638 168.104ZM198.442 165.556H198.19L195.124 159.2H196.44L198.946 164.548H199.114L201.62 159.2H202.936L199.87 165.556H199.618V169H198.442V165.556Z" fill="black"/>
<rect width="144" height="40" transform="translate(340 110)" fill="#F7F7F7"/>
<path d="M344.34 124.104C344.741 124.104 345.082 124.039 345.362 123.908C345.651 123.768 345.885 123.586 346.062 123.362C346.249 123.129 346.384 122.867 346.468 122.578C346.561 122.279 346.608 121.967 346.608 121.64V121.472H347.784V121.64C347.784 122.135 347.709 122.601 347.56 123.04C347.411 123.469 347.191 123.847 346.902 124.174C346.613 124.491 346.253 124.743 345.824 124.93C345.395 125.107 344.9 125.196 344.34 125.196C343.257 125.196 342.413 124.855 341.806 124.174C341.199 123.493 340.896 122.499 340.896 121.192V119.008C340.896 117.739 341.199 116.754 341.806 116.054C342.413 115.354 343.257 115.004 344.34 115.004C344.9 115.004 345.395 115.097 345.824 115.284C346.253 115.461 346.613 115.713 346.902 116.04C347.191 116.357 347.411 116.735 347.56 117.174C347.709 117.603 347.784 118.065 347.784 118.56V118.728H346.608V118.56C346.599 118.243 346.547 117.935 346.454 117.636C346.37 117.337 346.235 117.076 346.048 116.852C345.871 116.619 345.642 116.437 345.362 116.306C345.082 116.166 344.741 116.096 344.34 116.096C343.584 116.096 343.015 116.371 342.632 116.922C342.259 117.473 342.072 118.196 342.072 119.092V121.108C342.072 122.069 342.259 122.811 342.632 123.334C343.015 123.847 343.584 124.104 344.34 124.104ZM351.414 115.2H352.59V119.54H356.762V115.2H357.938V125H356.762V120.632H352.59V125H351.414V115.2ZM362.885 115.2V121.696C362.885 122.489 363.067 123.091 363.431 123.502C363.804 123.903 364.35 124.104 365.069 124.104C365.787 124.104 366.329 123.903 366.693 123.502C367.066 123.091 367.253 122.489 367.253 121.696V115.2H368.429V121.696C368.429 122.835 368.13 123.703 367.533 124.3C366.935 124.897 366.114 125.196 365.069 125.196C364.023 125.196 363.202 124.897 362.605 124.3C362.007 123.703 361.709 122.835 361.709 121.696V115.2H362.885ZM372.395 115.2H373.571V123.908H378.695V125H372.395V115.2ZM387.953 122.564H383.753L383.039 125H381.779L384.747 115.2H386.959L389.927 125H388.667L387.953 122.564ZM385.769 115.704L384.075 121.472H387.631L385.937 115.704H385.769ZM393.179 115.2H394.355V123.908H399.479V125H393.179V115.2ZM403.194 119.008C403.194 117.739 403.497 116.754 404.104 116.054C404.71 115.354 405.555 115.004 406.638 115.004C407.72 115.004 408.565 115.354 409.172 116.054C409.778 116.754 410.082 117.739 410.082 119.008V121.192C410.082 122.499 409.778 123.493 409.172 124.174C408.565 124.855 407.72 125.196 406.638 125.196C405.555 125.196 404.71 124.855 404.104 124.174C403.497 123.493 403.194 122.499 403.194 121.192V119.008ZM406.638 124.104C407.394 124.104 407.958 123.847 408.332 123.334C408.714 122.811 408.906 122.069 408.906 121.108V119.092C408.906 118.196 408.714 117.473 408.332 116.922C407.958 116.371 407.394 116.096 406.638 116.096C405.882 116.096 405.312 116.371 404.93 116.922C404.556 117.473 404.37 118.196 404.37 119.092V121.108C404.37 122.069 404.556 122.811 404.93 123.334C405.312 123.847 405.882 124.104 406.638 124.104ZM418.948 124.496H419.116V115.2H420.292V125H417.94L415.112 115.704H414.944V125H413.768V115.2H416.12L418.948 124.496ZM426.484 120.296H430.852V125H429.76V123.824H429.592C429.433 124.235 429.153 124.566 428.752 124.818C428.351 125.07 427.884 125.196 427.352 125.196C426.297 125.196 425.467 124.855 424.86 124.174C424.263 123.493 423.964 122.499 423.964 121.192V119.008C423.964 117.739 424.267 116.754 424.874 116.054C425.481 115.354 426.325 115.004 427.408 115.004C427.968 115.004 428.463 115.097 428.892 115.284C429.321 115.461 429.681 115.713 429.97 116.04C430.259 116.357 430.479 116.735 430.628 117.174C430.777 117.603 430.852 118.065 430.852 118.56V118.728H429.676V118.56C429.676 118.243 429.629 117.935 429.536 117.636C429.452 117.337 429.317 117.076 429.13 116.852C428.953 116.619 428.719 116.437 428.43 116.306C428.15 116.166 427.809 116.096 427.408 116.096C426.652 116.096 426.083 116.371 425.7 116.922C425.327 117.473 425.14 118.196 425.14 119.092V121.108C425.14 122.069 425.327 122.811 425.7 123.334C426.083 123.847 426.661 124.104 427.436 124.104C428.136 124.104 428.682 123.88 429.074 123.432C429.475 122.984 429.676 122.359 429.676 121.556V121.388H426.484V120.296ZM435.952 125H434.776V115.2H435.952V119.54H436.274L440.04 115.2H441.496V115.284L437.436 120.016V120.184L441.664 124.916V125H440.18L436.274 120.632H435.952V125ZM444.763 119.008C444.763 117.739 445.066 116.754 445.673 116.054C446.279 115.354 447.124 115.004 448.207 115.004C449.289 115.004 450.134 115.354 450.741 116.054C451.347 116.754 451.651 117.739 451.651 119.008V121.192C451.651 122.499 451.347 123.493 450.741 124.174C450.134 124.855 449.289 125.196 448.207 125.196C447.124 125.196 446.279 124.855 445.673 124.174C445.066 123.493 444.763 122.499 444.763 121.192V119.008ZM448.207 124.104C448.963 124.104 449.527 123.847 449.901 123.334C450.283 122.811 450.475 122.069 450.475 121.108V119.092C450.475 118.196 450.283 117.473 449.901 116.922C449.527 116.371 448.963 116.096 448.207 116.096C447.451 116.096 446.881 116.371 446.499 116.922C446.125 117.473 445.939 118.196 445.939 119.092V121.108C445.939 122.069 446.125 122.811 446.499 123.334C446.881 123.847 447.451 124.104 448.207 124.104ZM461.665 125H460.489V121.724C460.489 121.481 460.433 121.295 460.321 121.164C460.209 121.033 460.013 120.968 459.733 120.968H456.681V125H455.505V115.2H459.005C459.509 115.2 459.948 115.275 460.321 115.424C460.694 115.564 461.002 115.755 461.245 115.998C461.497 116.241 461.684 116.525 461.805 116.852C461.936 117.169 462.001 117.505 462.001 117.86V118.28C462.001 118.644 461.898 119.008 461.693 119.372C461.497 119.736 461.189 120.016 460.769 120.212V120.38C461.049 120.427 461.268 120.539 461.427 120.716C461.586 120.893 461.665 121.145 461.665 121.472V125ZM456.681 119.876H458.865C459.528 119.876 460.018 119.736 460.335 119.456C460.662 119.167 460.825 118.747 460.825 118.196V117.944C460.825 117.449 460.662 117.053 460.335 116.754C460.018 116.446 459.528 116.292 458.865 116.292H456.681V119.876ZM470.909 124.496H471.077V115.2H472.253V125H469.901L467.073 115.704H466.905V125H465.729V115.2H468.081L470.909 124.496ZM344.116 135.2H346.398V142.06H347.91V143.152H346.398V145H345.222V143.152H340.686V141.528L344.116 135.2ZM341.694 141.892V142.06H345.222V135.704H345.054L341.694 141.892ZM354.55 145.196C354.056 145.196 353.608 145.131 353.206 145C352.805 144.86 352.46 144.673 352.17 144.44C351.881 144.197 351.657 143.917 351.498 143.6C351.349 143.273 351.274 142.919 351.274 142.536V142.368C351.274 142.032 351.326 141.733 351.428 141.472C351.531 141.211 351.666 140.982 351.834 140.786C352.002 140.59 352.194 140.427 352.408 140.296C352.632 140.165 352.861 140.067 353.094 140.002V139.834C352.88 139.769 352.679 139.671 352.492 139.54C352.306 139.409 352.138 139.255 351.988 139.078C351.848 138.901 351.736 138.7 351.652 138.476C351.568 138.243 351.526 137.991 351.526 137.72V137.552C351.526 137.179 351.601 136.838 351.75 136.53C351.9 136.213 352.11 135.942 352.38 135.718C352.66 135.494 352.987 135.321 353.36 135.2C353.743 135.069 354.168 135.004 354.634 135.004H354.718C355.176 135.004 355.596 135.069 355.978 135.2C356.361 135.321 356.688 135.494 356.958 135.718C357.238 135.942 357.453 136.213 357.602 136.53C357.752 136.838 357.826 137.179 357.826 137.552V137.72C357.826 137.991 357.784 138.243 357.7 138.476C357.616 138.7 357.5 138.901 357.35 139.078C357.21 139.255 357.042 139.409 356.846 139.54C356.66 139.671 356.464 139.769 356.258 139.834V140.002C356.492 140.067 356.716 140.165 356.93 140.296C357.154 140.427 357.35 140.59 357.518 140.786C357.686 140.982 357.822 141.211 357.924 141.472C358.027 141.733 358.078 142.032 358.078 142.368V142.536C358.078 142.919 357.999 143.273 357.84 143.6C357.691 143.917 357.472 144.197 357.182 144.44C356.893 144.673 356.548 144.86 356.146 145C355.745 145.131 355.297 145.196 354.802 145.196H354.55ZM354.76 144.132C355.395 144.132 355.908 143.969 356.3 143.642C356.702 143.315 356.902 142.891 356.902 142.368V142.284C356.902 141.705 356.697 141.257 356.286 140.94C355.885 140.623 355.362 140.464 354.718 140.464H354.634C353.99 140.464 353.463 140.623 353.052 140.94C352.651 141.257 352.45 141.705 352.45 142.284V142.368C352.45 142.891 352.646 143.315 353.038 143.642C353.44 143.969 353.958 144.132 354.592 144.132H354.76ZM354.676 139.372C355.264 139.372 355.74 139.218 356.104 138.91C356.468 138.602 356.65 138.215 356.65 137.748V137.664C356.65 137.188 356.468 136.805 356.104 136.516C355.75 136.217 355.274 136.068 354.676 136.068C354.079 136.068 353.598 136.217 353.234 136.516C352.88 136.805 352.702 137.188 352.702 137.664V137.748C352.702 138.215 352.884 138.602 353.248 138.91C353.612 139.218 354.088 139.372 354.676 139.372ZM377.561 142.564H373.361L372.647 145H371.387L374.355 135.2H376.567L379.535 145H378.275L377.561 142.564ZM375.377 135.704L373.683 141.472H377.239L375.545 135.704H375.377ZM382.787 135.2H383.963V143.908H389.087V145H382.787V135.2ZM393.179 135.2H394.355V143.908H399.479V145H393.179V135.2ZM403.194 139.008C403.194 137.739 403.497 136.754 404.104 136.054C404.71 135.354 405.555 135.004 406.638 135.004C407.72 135.004 408.565 135.354 409.172 136.054C409.778 136.754 410.082 137.739 410.082 139.008V141.192C410.082 142.499 409.778 143.493 409.172 144.174C408.565 144.855 407.72 145.196 406.638 145.196C405.555 145.196 404.71 144.855 404.104 144.174C403.497 143.493 403.194 142.499 403.194 141.192V139.008ZM406.638 144.104C407.394 144.104 407.958 143.847 408.332 143.334C408.714 142.811 408.906 142.069 408.906 141.108V139.092C408.906 138.196 408.714 137.473 408.332 136.922C407.958 136.371 407.394 136.096 406.638 136.096C405.882 136.096 405.312 136.371 404.93 136.922C404.556 137.473 404.37 138.196 404.37 139.092V141.108C404.37 142.069 404.556 142.811 404.93 143.334C405.312 143.847 405.882 144.104 406.638 144.104ZM416.442 141.556H416.19L413.124 135.2H414.44L416.946 140.548H417.114L419.62 135.2H420.936L417.87 141.556H417.618V145H416.442V141.556Z" fill="black"/>
<rect width="124" height="40" transform="translate(419 290)" fill="#F7F7F7"/>
<path d="M422.864 305.14C421.987 305.14 421.315 304.925 420.848 304.496C420.381 304.067 420.148 303.427 420.148 302.578V301.696C420.148 301.145 420.241 300.721 420.428 300.422C420.615 300.114 420.825 299.825 421.058 299.554C421.198 299.395 421.324 299.251 421.436 299.12C421.548 298.98 421.609 298.84 421.618 298.7L421.576 298.672C421.473 298.747 421.352 298.812 421.212 298.868C421.081 298.915 420.932 298.938 420.764 298.938C420.428 298.938 420.153 298.826 419.938 298.602C419.723 298.369 419.616 298.042 419.616 297.622V297.328H420.708C420.708 297.608 420.741 297.813 420.806 297.944C420.881 298.065 420.997 298.126 421.156 298.126C421.259 298.126 421.366 298.107 421.478 298.07C421.59 298.033 421.693 297.977 421.786 297.902L422.052 297.328H422.738V297.958C422.738 298.229 422.729 298.467 422.71 298.672C422.691 298.877 422.64 299.078 422.556 299.274C422.472 299.461 422.332 299.68 422.136 299.932C421.996 300.109 421.87 300.273 421.758 300.422C421.646 300.562 421.557 300.721 421.492 300.898C421.427 301.075 421.394 301.309 421.394 301.598V302.508C421.394 302.947 421.464 303.283 421.604 303.516C421.744 303.749 421.926 303.908 422.15 303.992C422.374 304.076 422.612 304.118 422.864 304.118C423.349 304.118 423.723 304.011 423.984 303.796C424.245 303.572 424.376 303.231 424.376 302.774V300.814C424.376 300.469 424.292 300.207 424.124 300.03C423.965 299.843 423.709 299.75 423.354 299.75H423.298V298.952H423.368C423.751 298.952 424.021 298.863 424.18 298.686C424.339 298.509 424.432 298.294 424.46 298.042C424.497 297.781 424.516 297.543 424.516 297.328H425.762C425.762 297.823 425.697 298.238 425.566 298.574C425.435 298.91 425.165 299.157 424.754 299.316V299.372C425.109 299.475 425.342 299.661 425.454 299.932C425.566 300.203 425.622 300.539 425.622 300.94V302.844C425.622 303.563 425.384 304.127 424.908 304.538C424.432 304.939 423.751 305.14 422.864 305.14ZM431.903 304.216C431.903 303.945 431.997 303.717 432.183 303.53C432.379 303.334 432.613 303.236 432.883 303.236C433.154 303.236 433.383 303.334 433.569 303.53C433.765 303.717 433.863 303.945 433.863 304.216C433.863 304.487 433.765 304.72 433.569 304.916C433.383 305.103 433.154 305.196 432.883 305.196C432.613 305.196 432.379 305.103 432.183 304.916C431.997 304.72 431.903 304.487 431.903 304.216ZM451.442 305V301.584H450.378V300.604H452.632V303.992H452.814C453.234 303.992 453.584 303.899 453.864 303.712C454.144 303.525 454.354 303.222 454.494 302.802C454.634 302.382 454.704 301.827 454.704 301.136C454.704 300.445 454.624 299.885 454.466 299.456C454.316 299.027 454.069 298.714 453.724 298.518C453.388 298.322 452.93 298.224 452.352 298.224C451.913 298.224 451.488 298.285 451.078 298.406C450.676 298.518 450.289 298.695 449.916 298.938V297.776C450.196 297.608 450.564 297.468 451.022 297.356C451.479 297.244 451.974 297.188 452.506 297.188C453.355 297.188 454.032 297.347 454.536 297.664C455.049 297.972 455.418 298.42 455.642 299.008C455.866 299.596 455.978 300.31 455.978 301.15C455.978 301.962 455.866 302.657 455.642 303.236C455.427 303.805 455.072 304.244 454.578 304.552C454.092 304.851 453.439 305 452.618 305H451.442ZM456.057 308.654V307.17C456.057 306.937 455.954 306.82 455.749 306.82C455.702 306.82 455.655 306.825 455.609 306.834C455.553 306.843 455.501 306.857 455.455 306.876L455.357 306.036C455.497 305.989 455.651 305.952 455.819 305.924C455.977 305.905 456.108 305.896 456.211 305.896C456.537 305.896 456.78 305.971 456.939 306.12C457.088 306.279 457.163 306.493 457.163 306.764V308.654H456.057ZM462.239 305L461.049 297.328H462.309L462.757 300.954C462.794 301.234 462.836 301.579 462.883 301.99C462.939 302.391 462.972 302.867 462.981 303.418H463.037C463.112 303.138 463.177 302.895 463.233 302.69C463.298 302.475 463.354 302.284 463.401 302.116C463.457 301.939 463.513 301.775 463.569 301.626C463.625 301.467 463.681 301.304 463.737 301.136L464.647 298.63H465.585L466.509 301.136C466.584 301.341 466.654 301.551 466.719 301.766C466.794 301.971 466.868 302.205 466.943 302.466C467.027 302.727 467.116 303.045 467.209 303.418H467.279C467.279 303.063 467.298 302.671 467.335 302.242C467.382 301.803 467.442 301.374 467.517 300.954L467.825 299.288C467.946 298.653 467.876 298.196 467.615 297.916C467.363 297.627 466.92 297.482 466.285 297.482H465.641V296.572H466.775C467.438 296.572 467.886 296.441 468.119 296.18C468.352 295.909 468.469 295.541 468.469 295.074V295.004H469.729V295.074C469.729 295.606 469.612 296.063 469.379 296.446C469.155 296.819 468.763 297.062 468.203 297.174V297.216C468.483 297.337 468.688 297.51 468.819 297.734C468.95 297.949 469.029 298.182 469.057 298.434C469.085 298.686 469.08 298.924 469.043 299.148L468.007 305H466.789L465.725 301.92C465.632 301.649 465.552 301.411 465.487 301.206C465.422 300.991 465.361 300.777 465.305 300.562C465.249 300.338 465.193 300.086 465.137 299.806H465.081C465.025 300.114 464.969 300.385 464.913 300.618C464.866 300.851 464.81 301.071 464.745 301.276C464.689 301.481 464.619 301.701 464.535 301.934L463.443 305H462.239ZM474.951 305V299.554C474.951 299.097 474.843 298.761 474.629 298.546C474.423 298.331 474.073 298.224 473.579 298.224C473.243 298.224 472.925 298.271 472.627 298.364C472.337 298.448 472.057 298.569 471.787 298.728V297.608C471.973 297.515 472.239 297.421 472.585 297.328C472.93 297.235 473.341 297.188 473.817 297.188C474.302 297.188 474.722 297.258 475.077 297.398C475.431 297.538 475.707 297.771 475.903 298.098C476.099 298.415 476.197 298.84 476.197 299.372V305H474.951ZM484.782 305V299.89C484.782 299.283 484.642 298.854 484.362 298.602C484.091 298.341 483.634 298.21 482.99 298.21C482.523 298.21 482.075 298.275 481.646 298.406C481.226 298.527 480.825 298.7 480.442 298.924V297.762C480.713 297.622 481.077 297.491 481.534 297.37C482.001 297.249 482.523 297.188 483.102 297.188C483.597 297.188 484.026 297.244 484.39 297.356C484.754 297.459 485.053 297.617 485.286 297.832C485.529 298.047 485.711 298.322 485.832 298.658C485.953 298.985 486.014 299.372 486.014 299.82V305H484.782ZM482.374 305.14C481.553 305.14 480.923 304.953 480.484 304.58C480.055 304.197 479.84 303.651 479.84 302.942C479.84 302.167 480.12 301.57 480.68 301.15C481.249 300.73 482.169 300.483 483.438 300.408L485.034 300.31V301.346L483.606 301.444C482.654 301.509 481.996 301.659 481.632 301.892C481.277 302.125 481.1 302.466 481.1 302.914C481.1 303.334 481.231 303.642 481.492 303.838C481.763 304.034 482.136 304.132 482.612 304.132C482.771 304.132 482.915 304.123 483.046 304.104C483.177 304.076 483.303 304.043 483.424 304.006L483.62 304.944C483.443 305.009 483.247 305.056 483.032 305.084C482.827 305.121 482.607 305.14 482.374 305.14ZM491.366 305L488.972 297.328H490.232L492.304 303.922H492.472C492.696 303.922 492.915 303.871 493.13 303.768C493.345 303.656 493.527 303.516 493.676 303.348C493.956 303.04 494.161 302.653 494.292 302.186C494.423 301.71 494.488 301.243 494.488 300.786C494.488 300.011 494.311 299.405 493.956 298.966C493.611 298.518 493.13 298.294 492.514 298.294C492.393 298.294 492.271 298.303 492.15 298.322C492.038 298.341 491.945 298.364 491.87 298.392L491.562 297.398C491.758 297.342 491.94 297.305 492.108 297.286C492.285 297.267 492.444 297.258 492.584 297.258C493.051 297.258 493.466 297.328 493.83 297.468C494.203 297.599 494.521 297.795 494.782 298.056C495.109 298.373 495.347 298.77 495.496 299.246C495.655 299.722 495.734 300.249 495.734 300.828C495.734 301.556 495.622 302.205 495.398 302.774C495.174 303.334 494.894 303.782 494.558 304.118C494.287 304.389 493.956 304.603 493.564 304.762C493.172 304.921 492.673 305 492.066 305H491.366ZM499.376 305V302.34C499.376 301.752 499.506 301.327 499.768 301.066C500.029 300.795 500.36 300.609 500.762 300.506L500.776 300.464L499.236 299.876V299.414C499.236 299.031 499.362 298.672 499.614 298.336C499.866 297.991 500.225 297.715 500.692 297.51C501.168 297.295 501.732 297.188 502.386 297.188C502.955 297.188 503.482 297.281 503.968 297.468C504.453 297.645 504.84 297.93 505.13 298.322C505.428 298.705 505.578 299.209 505.578 299.834V305H504.332V299.96C504.332 299.335 504.14 298.891 503.758 298.63C503.384 298.359 502.922 298.224 502.372 298.224C501.802 298.224 501.35 298.345 501.014 298.588C500.678 298.821 500.51 299.12 500.51 299.484L502.022 300.24L501.91 300.912C501.564 300.912 501.261 301.029 501 301.262C500.748 301.486 500.622 301.845 500.622 302.34V305H499.376ZM511.816 305.14C511.266 305.14 510.752 305.089 510.276 304.986C509.81 304.874 509.413 304.743 509.086 304.594L509.45 303.586C509.646 303.661 509.87 303.74 510.122 303.824C510.374 303.908 510.645 303.978 510.934 304.034C511.233 304.081 511.536 304.104 511.844 304.104C512.339 304.104 512.75 304.011 513.076 303.824C513.403 303.637 513.566 303.367 513.566 303.012C513.566 302.797 513.506 302.615 513.384 302.466C513.272 302.307 513.095 302.163 512.852 302.032C512.61 301.901 512.297 301.775 511.914 301.654C511.326 301.467 510.827 301.271 510.416 301.066C510.015 300.851 509.707 300.599 509.492 300.31C509.287 300.011 509.184 299.643 509.184 299.204C509.184 298.812 509.287 298.467 509.492 298.168C509.707 297.86 510.034 297.622 510.472 297.454C510.92 297.277 511.49 297.188 512.18 297.188C512.628 297.188 513.048 297.23 513.44 297.314C513.842 297.389 514.154 297.496 514.378 297.636V298.686C514.22 298.611 514.019 298.537 513.776 298.462C513.543 298.387 513.286 298.327 513.006 298.28C512.726 298.233 512.437 298.21 512.138 298.21C511.513 298.21 511.07 298.308 510.808 298.504C510.556 298.691 510.43 298.905 510.43 299.148C510.43 299.353 510.486 299.526 510.598 299.666C510.72 299.806 510.92 299.941 511.2 300.072C511.49 300.203 511.877 300.352 512.362 300.52C512.81 300.669 513.221 300.842 513.594 301.038C513.968 301.234 514.262 301.481 514.476 301.78C514.7 302.069 514.812 302.443 514.812 302.9C514.812 303.292 514.714 303.661 514.518 304.006C514.332 304.342 514.019 304.617 513.58 304.832C513.142 305.037 512.554 305.14 511.816 305.14ZM519.898 305.14C519.637 305.14 519.385 305.098 519.142 305.014C518.909 304.93 518.717 304.781 518.568 304.566C518.428 304.351 518.358 304.053 518.358 303.67V302.312C518.358 301.733 518.479 301.313 518.722 301.052C518.974 300.791 519.301 300.609 519.702 300.506L519.716 300.464L518.106 299.876V299.414C518.106 299.003 518.227 298.63 518.47 298.294C518.722 297.958 519.072 297.692 519.52 297.496C519.977 297.291 520.509 297.188 521.116 297.188C521.629 297.188 522.115 297.272 522.572 297.44C523.039 297.608 523.417 297.888 523.706 298.28C523.995 298.663 524.14 299.176 524.14 299.82V302.494C524.14 303.054 524.266 303.46 524.518 303.712C524.779 303.964 525.125 304.09 525.554 304.09C525.927 304.09 526.254 303.997 526.534 303.81C526.814 303.614 527.033 303.348 527.192 303.012C527.351 302.667 527.43 302.265 527.43 301.808V297.328H528.676V305H527.654L527.584 303.782H527.514C527.355 304.211 527.071 304.547 526.66 304.79C526.259 305.023 525.806 305.14 525.302 305.14C524.593 305.14 524.014 304.944 523.566 304.552C523.118 304.16 522.894 303.507 522.894 302.592V299.946C522.894 299.498 522.81 299.148 522.642 298.896C522.474 298.644 522.25 298.471 521.97 298.378C521.699 298.275 521.41 298.224 521.102 298.224C520.607 298.224 520.197 298.331 519.87 298.546C519.553 298.761 519.389 299.073 519.38 299.484L520.976 300.24L520.864 300.912C520.519 300.912 520.22 301.019 519.968 301.234C519.725 301.449 519.604 301.803 519.604 302.298V303.53C519.604 303.735 519.651 303.885 519.744 303.978C519.837 304.071 519.987 304.118 520.192 304.118C520.285 304.118 520.374 304.113 520.458 304.104C520.551 304.085 520.635 304.062 520.71 304.034L520.892 304.93C520.715 305.014 520.542 305.07 520.374 305.098C520.215 305.126 520.057 305.14 519.898 305.14ZM528.189 296.516C528.123 296.413 528.072 296.283 528.035 296.124C527.988 295.956 527.965 295.793 527.965 295.634C527.965 295.438 528.007 295.256 528.091 295.088C528.175 294.911 528.324 294.766 528.539 294.654C528.753 294.542 529.052 294.486 529.435 294.486H531.353V295.452H529.757C529.57 295.452 529.421 295.489 529.309 295.564C529.197 295.629 529.141 295.746 529.141 295.914C529.141 295.979 529.155 296.049 529.183 296.124C529.201 296.199 529.229 296.273 529.267 296.348L528.189 296.516ZM420.092 320.38V315.2H426.224V316.292H421.24V319.792H421.408C421.501 319.605 421.623 319.428 421.772 319.26C421.921 319.083 422.094 318.929 422.29 318.798C422.495 318.667 422.724 318.565 422.976 318.49C423.228 318.406 423.508 318.364 423.816 318.364C424.264 318.364 424.675 318.439 425.048 318.588C425.431 318.737 425.757 318.947 426.028 319.218C426.299 319.489 426.509 319.815 426.658 320.198C426.817 320.581 426.896 321.005 426.896 321.472V321.724C426.896 322.191 426.821 322.634 426.672 323.054C426.523 323.465 426.303 323.833 426.014 324.16C425.725 324.477 425.365 324.729 424.936 324.916C424.507 325.103 424.012 325.196 423.452 325.196C422.883 325.196 422.379 325.112 421.94 324.944C421.501 324.776 421.133 324.543 420.834 324.244C420.535 323.945 420.307 323.595 420.148 323.194C419.999 322.783 419.924 322.34 419.924 321.864V321.472H421.1V321.78C421.1 322.555 421.315 323.138 421.744 323.53C422.183 323.913 422.752 324.104 423.452 324.104C423.825 324.104 424.152 324.039 424.432 323.908C424.721 323.768 424.959 323.586 425.146 323.362C425.342 323.129 425.487 322.863 425.58 322.564C425.673 322.256 425.72 321.939 425.72 321.612V321.528C425.72 321.239 425.669 320.968 425.566 320.716C425.473 320.464 425.337 320.245 425.16 320.058C424.992 319.871 424.782 319.727 424.53 319.624C424.287 319.512 424.021 319.456 423.732 319.456C423.536 319.456 423.354 319.484 423.186 319.54C423.027 319.596 422.887 319.671 422.766 319.764C422.645 319.848 422.542 319.946 422.458 320.058C422.383 320.17 422.332 320.277 422.304 320.38H420.092ZM430.232 319.008C430.232 317.739 430.536 316.754 431.142 316.054C431.749 315.354 432.594 315.004 433.676 315.004C434.759 315.004 435.604 315.354 436.21 316.054C436.817 316.754 437.12 317.739 437.12 319.008V321.192C437.12 322.499 436.817 323.493 436.21 324.174C435.604 324.855 434.759 325.196 433.676 325.196C432.594 325.196 431.749 324.855 431.142 324.174C430.536 323.493 430.232 322.499 430.232 321.192V319.008ZM433.676 324.132C434.432 324.132 434.997 323.871 435.37 323.348C435.753 322.816 435.944 322.069 435.944 321.108V319.092C435.944 318.644 435.898 318.238 435.804 317.874C435.711 317.501 435.566 317.183 435.37 316.922C435.184 316.651 434.946 316.441 434.656 316.292C434.376 316.143 434.05 316.068 433.676 316.068C433.294 316.068 432.962 316.143 432.682 316.292C432.402 316.441 432.164 316.651 431.968 316.922C431.782 317.183 431.642 317.501 431.548 317.874C431.455 318.238 431.408 318.644 431.408 319.092V321.108C431.408 322.069 431.595 322.816 431.968 323.348C432.351 323.871 432.92 324.132 433.676 324.132ZM432.78 320.1C432.78 319.857 432.869 319.647 433.046 319.47C433.224 319.293 433.434 319.204 433.676 319.204C433.919 319.204 434.129 319.293 434.306 319.47C434.484 319.647 434.572 319.857 434.572 320.1C434.572 320.343 434.484 320.553 434.306 320.73C434.129 320.907 433.919 320.996 433.676 320.996C433.434 320.996 433.224 320.907 433.046 320.73C432.869 320.553 432.78 320.343 432.78 320.1Z" fill="black"/>
<rect width="93" height="24" transform="translate(926 60)" fill="#F7F7F7"/>
<path d="M946 72C946 70.9 945.1 70 944 70V67C944 65.9 943.1 65 942 65H934C932.9 65 932 65.9 932 67V70C930.9 70 930 70.9 930 72V77H931.33L932 79H933L933.67 77H942.34L943 79H944L944.67 77H946V72ZM942 70H939V67H942V70ZM934 67H937V70H934V67ZM932 72H944V75H932V72Z" fill="black"/>
<path d="M958.84 67.2H965.728V68.292H962.872V77H961.696V68.292H958.84V67.2ZM975.742 77H974.566V73.724C974.566 73.4813 974.51 73.2947 974.398 73.164C974.286 73.0333 974.09 72.968 973.81 72.968H970.758V77H969.582V67.2H973.082C973.586 67.2 974.025 67.2747 974.398 67.424C974.772 67.564 975.08 67.7553 975.322 67.998C975.574 68.2407 975.761 68.5253 975.882 68.852C976.013 69.1693 976.078 69.5053 976.078 69.86V70.28C976.078 70.644 975.976 71.008 975.77 71.372C975.574 71.736 975.266 72.016 974.846 72.212V72.38C975.126 72.4267 975.346 72.5387 975.504 72.716C975.663 72.8933 975.742 73.1453 975.742 73.472V77ZM970.758 71.876H972.942C973.605 71.876 974.095 71.736 974.412 71.456C974.739 71.1667 974.902 70.7467 974.902 70.196V69.944C974.902 69.4493 974.739 69.0527 974.412 68.754C974.095 68.446 973.605 68.292 972.942 68.292H970.758V71.876ZM979.961 67.2H986.177V68.292H983.657V75.908H986.177V77H979.961V75.908H982.481V68.292H979.961V67.2ZM991.543 72.968V77H990.367V67.2H993.867C994.371 67.2 994.809 67.2747 995.183 67.424C995.556 67.564 995.864 67.7553 996.107 67.998C996.359 68.2407 996.545 68.5253 996.667 68.852C996.797 69.1693 996.863 69.5053 996.863 69.86V70.28C996.863 70.6347 996.797 70.9753 996.667 71.302C996.545 71.6287 996.359 71.918 996.107 72.17C995.855 72.4127 995.542 72.6087 995.169 72.758C994.795 72.898 994.361 72.968 993.867 72.968H991.543ZM991.543 71.876H993.727C995.033 71.876 995.687 71.316 995.687 70.196V69.944C995.687 69.4493 995.523 69.0527 995.197 68.754C994.879 68.446 994.389 68.292 993.727 68.292H991.543V71.876ZM1000.79 67.2H1001.96V75.908H1007.09V77H1000.79V67.2ZM1011.28 67.2H1017.21V68.292H1012.45V71.54H1017.13V72.632H1012.45V75.908H1017.3V77H1011.28V67.2Z" fill="black"/>
</g>
<rect x="0.5" y="0.5" width="1071" height="407" rx="203.5" stroke="black"/>
<defs>
<clipPath id="clip0_1694_2933">
<rect width="1072" height="408" rx="204" fill="white"/>
</clipPath>
</defs>
</svg>
