<svg width="1072" height="408" viewBox="0 0 1072 408" fill="none"
    xmlns="http://www.w3.org/2000/svg">
    <g clip-path="url(#clip0_2157_3641)">
        <path d="M864.5 246.5H922L931 359.5L939.5 436L763.5 427.5L739.5 227.5L864.5 225V246.5Z" fill="#C3F1D5"/>
        <path d="M710.5 -6.5L762.5 421.5" stroke="black"/>
        <path d="M936 417.5L922 247.5L952 202L971.5 96.5V-7.5" stroke="black"/>
        <path d="M885 253H922L930.5 358.5L934.5 401.5H920.5L888 423L876 265L885 253Z" fill="#8FDAEE"/>
        <path d="M583 400.5L616.5 219L451.5 212L397.5 322.5L583 400.5Z" fill="#C3F1D5"/>
        <rect width="113" height="40" transform="translate(786 298)" fill="#F5F5F5"/>
        <path d="M786.798 311.908H787.638V304.292H786.798V303.2H790.76C791.227 303.2 791.637 303.265 791.992 303.396C792.356 303.527 792.659 303.704 792.902 303.928C793.154 304.152 793.341 304.423 793.462 304.74C793.593 305.048 793.658 305.384 793.658 305.748V305.916C793.658 306.187 793.616 306.434 793.532 306.658C793.448 306.882 793.331 307.083 793.182 307.26C793.033 307.437 792.855 307.591 792.65 307.722C792.454 307.843 792.239 307.937 792.006 308.002V308.17C792.473 308.301 792.865 308.553 793.182 308.926C793.499 309.29 793.658 309.738 793.658 310.27V310.438C793.658 310.802 793.593 311.143 793.462 311.46C793.341 311.768 793.154 312.039 792.902 312.272C792.659 312.496 792.356 312.673 791.992 312.804C791.637 312.935 791.227 313 790.76 313H786.798V311.908ZM788.814 311.908H790.676C791.227 311.908 791.675 311.773 792.02 311.502C792.365 311.222 792.538 310.839 792.538 310.354V310.27C792.538 309.766 792.375 309.369 792.048 309.08C791.721 308.781 791.278 308.632 790.718 308.632H788.814V311.908ZM788.814 307.54H790.718C791.278 307.54 791.721 307.395 792.048 307.106C792.375 306.817 792.538 306.42 792.538 305.916V305.832C792.538 305.356 792.365 304.983 792.02 304.712C791.675 304.432 791.227 304.292 790.676 304.292H788.814V307.54ZM797.708 303.2H803.644V304.292H798.884V307.54H803.56V308.632H798.884V311.908H803.728V313H797.708V303.2ZM812.987 312.496H813.155V303.2H814.331V313H811.979L809.151 303.704H808.983V313H807.807V303.2H810.159L812.987 312.496ZM821.517 312.104C821.918 312.104 822.259 312.039 822.539 311.908C822.828 311.768 823.061 311.586 823.239 311.362C823.425 311.129 823.561 310.867 823.645 310.578C823.738 310.279 823.785 309.967 823.785 309.64V309.472H824.961V309.64C824.961 310.135 824.886 310.601 824.737 311.04C824.587 311.469 824.368 311.847 824.079 312.174C823.789 312.491 823.43 312.743 823.001 312.93C822.571 313.107 822.077 313.196 821.517 313.196C820.434 313.196 819.589 312.855 818.983 312.174C818.376 311.493 818.073 310.499 818.073 309.192V307.008C818.073 305.739 818.376 304.754 818.983 304.054C819.589 303.354 820.434 303.004 821.517 303.004C822.077 303.004 822.571 303.097 823.001 303.284C823.43 303.461 823.789 303.713 824.079 304.04C824.368 304.357 824.587 304.735 824.737 305.174C824.886 305.603 824.961 306.065 824.961 306.56V306.728H823.785V306.56C823.775 306.243 823.724 305.935 823.631 305.636C823.547 305.337 823.411 305.076 823.225 304.852C823.047 304.619 822.819 304.437 822.539 304.306C822.259 304.166 821.918 304.096 821.517 304.096C820.761 304.096 820.191 304.371 819.809 304.922C819.435 305.473 819.249 306.196 819.249 307.092V309.108C819.249 310.069 819.435 310.811 819.809 311.334C820.191 311.847 820.761 312.104 821.517 312.104ZM828.591 303.2H829.767V307.54H833.939V303.2H835.115V313H833.939V308.632H829.767V313H828.591V303.2ZM844.345 310.564H840.145L839.431 313H838.171L841.139 303.2H843.351L846.319 313H845.059L844.345 310.564ZM842.161 303.704L840.467 309.472H844.023L842.329 303.704H842.161ZM850.776 313H849.6V303.2H850.776V307.54H851.098L854.864 303.2H856.32V303.284L852.26 308.016V308.184L856.488 312.916V313H855.004L851.098 308.632H850.776V313ZM859.922 303.2H866.138V304.292H863.618V311.908H866.138V313H859.922V311.908H862.442V304.292H859.922V303.2ZM869.978 303.2H876.866V304.292H874.01V313H872.834V304.292H869.978V303.2ZM880.37 303.2H887.258V304.292H884.402V313H883.226V304.292H880.37V303.2ZM891.099 303.2H897.315V304.292H894.795V311.908H897.315V313H891.099V311.908H893.619V304.292H891.099V303.2ZM788.366 328.968V333H787.19V323.2H790.69C791.194 323.2 791.633 323.275 792.006 323.424C792.379 323.564 792.687 323.755 792.93 323.998C793.182 324.241 793.369 324.525 793.49 324.852C793.621 325.169 793.686 325.505 793.686 325.86V326.28C793.686 326.635 793.621 326.975 793.49 327.302C793.369 327.629 793.182 327.918 792.93 328.17C792.678 328.413 792.365 328.609 791.992 328.758C791.619 328.898 791.185 328.968 790.69 328.968H788.366ZM788.366 327.876H790.55C791.857 327.876 792.51 327.316 792.51 326.196V325.944C792.51 325.449 792.347 325.053 792.02 324.754C791.703 324.446 791.213 324.292 790.55 324.292H788.366V327.876ZM802.776 330.564H798.576L797.862 333H796.602L799.57 323.2H801.782L804.75 333H803.49L802.776 330.564ZM800.592 323.704L798.898 329.472H802.454L800.76 323.704H800.592ZM814.135 333H812.959V329.724C812.959 329.481 812.903 329.295 812.791 329.164C812.679 329.033 812.483 328.968 812.203 328.968H809.151V333H807.975V323.2H811.475C811.979 323.2 812.417 323.275 812.791 323.424C813.164 323.564 813.472 323.755 813.715 323.998C813.967 324.241 814.153 324.525 814.275 324.852C814.405 325.169 814.471 325.505 814.471 325.86V326.28C814.471 326.644 814.368 327.008 814.163 327.372C813.967 327.736 813.659 328.016 813.239 328.212V328.38C813.519 328.427 813.738 328.539 813.897 328.716C814.055 328.893 814.135 329.145 814.135 329.472V333ZM809.151 327.876H811.335C811.997 327.876 812.487 327.736 812.805 327.456C813.131 327.167 813.295 326.747 813.295 326.196V325.944C813.295 325.449 813.131 325.053 812.805 324.754C812.487 324.446 811.997 324.292 811.335 324.292H809.151V327.876ZM819.599 333H818.423V323.2H819.599V327.54H819.921L823.687 323.2H825.143V323.284L821.083 328.016V328.184L825.311 332.916V333H823.827L819.921 328.632H819.599V333Z" fill="black"/>
        <rect width="61" height="20" transform="translate(874 376)" fill="#F5F5F5"/>
        <path d="M875.022 381.2H878.242C879.455 381.2 880.342 381.489 880.902 382.068C881.462 382.647 881.742 383.571 881.742 384.84V387.36C881.742 388.629 881.462 389.553 880.902 390.132C880.342 390.711 879.455 391 878.242 391H875.022V389.894H875.862V382.292H875.022V381.2ZM878.074 389.908C878.503 389.908 878.872 389.866 879.18 389.782C879.497 389.698 879.759 389.558 879.964 389.362C880.169 389.157 880.319 388.886 880.412 388.55C880.515 388.214 880.566 387.789 880.566 387.276V384.924C880.566 384.411 880.515 383.986 880.412 383.65C880.319 383.314 880.169 383.048 879.964 382.852C879.759 382.647 879.497 382.502 879.18 382.418C878.872 382.334 878.503 382.292 878.074 382.292H877.038V389.908H878.074ZM885.708 381.2H891.644V382.292H886.884V385.54H891.56V386.632H886.884V389.908H891.728V391H885.708V381.2ZM895.163 381.2H896.423L898.985 390.496H899.153L901.715 381.2H902.975L900.203 391H897.935L895.163 381.2ZM909.517 390.104C909.918 390.104 910.259 390.039 910.539 389.908C910.828 389.768 911.061 389.586 911.239 389.362C911.425 389.129 911.561 388.867 911.645 388.578C911.738 388.279 911.785 387.967 911.785 387.64V387.472H912.961V387.64C912.961 388.135 912.886 388.601 912.737 389.04C912.587 389.469 912.368 389.847 912.079 390.174C911.789 390.491 911.43 390.743 911.001 390.93C910.571 391.107 910.077 391.196 909.517 391.196C908.434 391.196 907.589 390.855 906.983 390.174C906.376 389.493 906.073 388.499 906.073 387.192V385.008C906.073 383.739 906.376 382.754 906.983 382.054C907.589 381.354 908.434 381.004 909.517 381.004C910.077 381.004 910.571 381.097 911.001 381.284C911.43 381.461 911.789 381.713 912.079 382.04C912.368 382.357 912.587 382.735 912.737 383.174C912.886 383.603 912.961 384.065 912.961 384.56V384.728H911.785V384.56C911.775 384.243 911.724 383.935 911.631 383.636C911.547 383.337 911.411 383.076 911.225 382.852C911.047 382.619 910.819 382.437 910.539 382.306C910.259 382.166 909.918 382.096 909.517 382.096C908.761 382.096 908.191 382.371 907.809 382.922C907.435 383.473 907.249 384.196 907.249 385.092V387.108C907.249 388.069 907.435 388.811 907.809 389.334C908.191 389.847 908.761 390.104 909.517 390.104ZM916.409 385.008C916.409 383.739 916.712 382.754 917.319 382.054C917.926 381.354 918.77 381.004 919.853 381.004C920.936 381.004 921.78 381.354 922.387 382.054C922.994 382.754 923.297 383.739 923.297 385.008V387.192C923.297 388.499 922.994 389.493 922.387 390.174C921.78 390.855 920.936 391.196 919.853 391.196C918.77 391.196 917.926 390.855 917.319 390.174C916.712 389.493 916.409 388.499 916.409 387.192V385.008ZM919.853 390.104C920.609 390.104 921.174 389.847 921.547 389.334C921.93 388.811 922.121 388.069 922.121 387.108V385.092C922.121 384.196 921.93 383.473 921.547 382.922C921.174 382.371 920.609 382.096 919.853 382.096C919.097 382.096 918.528 382.371 918.145 382.922C917.772 383.473 917.585 384.196 917.585 385.092V387.108C917.585 388.069 917.772 388.811 918.145 389.334C918.528 389.847 919.097 390.104 919.853 390.104ZM932.163 390.496H932.331V381.2H933.507V391H931.155L928.327 381.704H928.159V391H926.983V381.2H929.335L932.163 390.496Z" fill="black"/>
        <path d="M270.5 -1.5L237.5 253.5L-2.5 300" stroke="black"/>
        <path d="M387.5 -8L342.5 295.5" stroke="black"/>
        <path d="M5 154L634.5 422" stroke="black"/>
        <path d="M659.5 -9.5L616.774 219.5M577.5 430L616.774 219.5M616.774 219.5L453 212.5" stroke="black"/>
        <path d="M215.5 415L226.5 392.5L394 332.5L453 211L491.5 -35.5" stroke="black"/>
        <path d="M1100 269.5L773 33L462.5 -22" stroke="black"/>
        <rect width="125" height="28" transform="translate(185 182)" fill="black"/>
        <path d="M201.786 193.428C201.786 196.63 196 204.357 196 204.357C196 204.357 190.214 196.63 190.214 193.428C190.214 191.894 190.824 190.422 191.909 189.337C192.994 188.252 194.466 187.643 196 187.643C197.535 187.643 199.006 188.252 200.091 189.337C201.176 190.422 201.786 191.894 201.786 193.428Z" fill="white"/>
        <path d="M196 195.357C197.065 195.357 197.929 194.494 197.929 193.429C197.929 192.363 197.065 191.5 196 191.5C194.935 191.5 194.072 192.363 194.072 193.429C194.072 194.494 194.935 195.357 196 195.357Z" fill="black"/>
        <path d="M219.594 194.028C219.594 193.711 219.529 193.431 219.398 193.188C219.277 192.945 219.109 192.745 218.894 192.586C218.679 192.427 218.432 192.306 218.152 192.222C217.872 192.138 217.578 192.096 217.27 192.096C216.999 192.096 216.743 192.133 216.5 192.208C216.257 192.273 216.038 192.371 215.842 192.502C215.655 192.633 215.506 192.796 215.394 192.992C215.282 193.179 215.226 193.398 215.226 193.65V193.734C215.226 194.005 215.282 194.238 215.394 194.434C215.506 194.621 215.669 194.784 215.884 194.924C216.108 195.055 216.383 195.167 216.71 195.26C217.037 195.344 217.419 195.419 217.858 195.484C218.885 195.643 219.641 195.946 220.126 196.394C220.611 196.833 220.854 197.425 220.854 198.172V198.34C220.854 198.76 220.779 199.147 220.63 199.502C220.49 199.847 220.275 200.146 219.986 200.398C219.706 200.65 219.356 200.846 218.936 200.986C218.516 201.126 218.031 201.196 217.48 201.196C216.855 201.196 216.299 201.107 215.814 200.93C215.338 200.743 214.937 200.491 214.61 200.174C214.293 199.847 214.05 199.469 213.882 199.04C213.714 198.601 213.63 198.125 213.63 197.612V197.192H214.806V197.528C214.806 198.387 215.039 199.031 215.506 199.46C215.982 199.889 216.64 200.104 217.48 200.104C218.208 200.104 218.754 199.945 219.118 199.628C219.491 199.301 219.678 198.872 219.678 198.34V198.256C219.678 197.743 219.487 197.351 219.104 197.08C218.731 196.809 218.119 196.613 217.27 196.492C216.775 196.427 216.327 196.329 215.926 196.198C215.534 196.058 215.198 195.881 214.918 195.666C214.638 195.442 214.423 195.176 214.274 194.868C214.125 194.56 214.05 194.196 214.05 193.776V193.608C214.05 193.225 214.129 192.875 214.288 192.558C214.447 192.241 214.666 191.965 214.946 191.732C215.235 191.499 215.576 191.321 215.968 191.2C216.369 191.069 216.808 191.004 217.284 191.004C217.835 191.004 218.325 191.083 218.754 191.242C219.193 191.401 219.561 191.615 219.86 191.886C220.159 192.147 220.383 192.46 220.532 192.824C220.691 193.179 220.77 193.552 220.77 193.944V194.532H219.594V194.028ZM224.61 191.2H225.786V199.908H230.91V201H224.61V191.2ZM234.625 195.008C234.625 193.739 234.928 192.754 235.535 192.054C236.141 191.354 236.986 191.004 238.069 191.004C239.151 191.004 239.996 191.354 240.603 192.054C241.209 192.754 241.513 193.739 241.513 195.008V197.192C241.513 198.499 241.209 199.493 240.603 200.174C239.996 200.855 239.151 201.196 238.069 201.196C236.986 201.196 236.141 200.855 235.535 200.174C234.928 199.493 234.625 198.499 234.625 197.192V195.008ZM238.069 200.104C238.825 200.104 239.389 199.847 239.763 199.334C240.145 198.811 240.337 198.069 240.337 197.108V195.092C240.337 194.196 240.145 193.473 239.763 192.922C239.389 192.371 238.825 192.096 238.069 192.096C237.313 192.096 236.743 192.371 236.361 192.922C235.987 193.473 235.801 194.196 235.801 195.092V197.108C235.801 198.069 235.987 198.811 236.361 199.334C236.743 199.847 237.313 200.104 238.069 200.104ZM251.597 201H249.455L248.545 191.704H248.377L247.467 201H245.325L244.331 191.2H245.395L246.333 200.496H246.501L247.383 191.2H249.539L250.421 200.496H250.589L251.527 191.2H252.591L251.597 201ZM258.909 200.104C259.31 200.104 259.651 200.039 259.931 199.908C260.22 199.768 260.454 199.586 260.631 199.362C260.818 199.129 260.953 198.867 261.037 198.578C261.13 198.279 261.177 197.967 261.177 197.64V197.472H262.353V197.64C262.353 198.135 262.278 198.601 262.129 199.04C261.98 199.469 261.76 199.847 261.471 200.174C261.182 200.491 260.822 200.743 260.393 200.93C259.964 201.107 259.469 201.196 258.909 201.196C257.826 201.196 256.982 200.855 256.375 200.174C255.768 199.493 255.465 198.499 255.465 197.192V195.008C255.465 193.739 255.768 192.754 256.375 192.054C256.982 191.354 257.826 191.004 258.909 191.004C259.469 191.004 259.964 191.097 260.393 191.284C260.822 191.461 261.182 191.713 261.471 192.04C261.76 192.357 261.98 192.735 262.129 193.174C262.278 193.603 262.353 194.065 262.353 194.56V194.728H261.177V194.56C261.168 194.243 261.116 193.935 261.023 193.636C260.939 193.337 260.804 193.076 260.617 192.852C260.44 192.619 260.211 192.437 259.931 192.306C259.651 192.166 259.31 192.096 258.909 192.096C258.153 192.096 257.584 192.371 257.201 192.922C256.828 193.473 256.641 194.196 256.641 195.092V197.108C256.641 198.069 256.828 198.811 257.201 199.334C257.584 199.847 258.153 200.104 258.909 200.104ZM265.801 195.008C265.801 193.739 266.105 192.754 266.711 192.054C267.318 191.354 268.163 191.004 269.245 191.004C270.328 191.004 271.173 191.354 271.779 192.054C272.386 192.754 272.689 193.739 272.689 195.008V197.192C272.689 198.499 272.386 199.493 271.779 200.174C271.173 200.855 270.328 201.196 269.245 201.196C268.163 201.196 267.318 200.855 266.711 200.174C266.105 199.493 265.801 198.499 265.801 197.192V195.008ZM269.245 200.104C270.001 200.104 270.566 199.847 270.939 199.334C271.322 198.811 271.513 198.069 271.513 197.108V195.092C271.513 194.196 271.322 193.473 270.939 192.922C270.566 192.371 270.001 192.096 269.245 192.096C268.489 192.096 267.92 192.371 267.537 192.922C267.164 193.473 266.977 194.196 266.977 195.092V197.108C266.977 198.069 267.164 198.811 267.537 199.334C267.92 199.847 268.489 200.104 269.245 200.104ZM275.998 191.2H278.238L279.554 200.496H279.722L281.038 191.2H283.278V201H282.186V191.704H282.018L280.702 201H278.574L277.258 191.704H277.09V201H275.998V191.2ZM286.544 199.908H287.384V192.292H286.544V191.2H290.506C290.973 191.2 291.383 191.265 291.738 191.396C292.102 191.527 292.405 191.704 292.648 191.928C292.9 192.152 293.087 192.423 293.208 192.74C293.339 193.048 293.404 193.384 293.404 193.748V193.916C293.404 194.187 293.362 194.434 293.278 194.658C293.194 194.882 293.077 195.083 292.928 195.26C292.779 195.437 292.601 195.591 292.396 195.722C292.2 195.843 291.985 195.937 291.752 196.002V196.17C292.219 196.301 292.611 196.553 292.928 196.926C293.245 197.29 293.404 197.738 293.404 198.27V198.438C293.404 198.802 293.339 199.143 293.208 199.46C293.087 199.768 292.9 200.039 292.648 200.272C292.405 200.496 292.102 200.673 291.738 200.804C291.383 200.935 290.973 201 290.506 201H286.544V199.908ZM288.56 199.908H290.422C290.973 199.908 291.421 199.773 291.766 199.502C292.111 199.222 292.284 198.839 292.284 198.354V198.27C292.284 197.766 292.121 197.369 291.794 197.08C291.467 196.781 291.024 196.632 290.464 196.632H288.56V199.908ZM288.56 195.54H290.464C291.024 195.54 291.467 195.395 291.794 195.106C292.121 194.817 292.284 194.42 292.284 193.916V193.832C292.284 193.356 292.111 192.983 291.766 192.712C291.421 192.432 290.973 192.292 290.422 192.292H288.56V195.54ZM296.978 195.008C296.978 193.739 297.281 192.754 297.888 192.054C298.495 191.354 299.339 191.004 300.422 191.004C301.505 191.004 302.349 191.354 302.956 192.054C303.563 192.754 303.866 193.739 303.866 195.008V197.192C303.866 198.499 303.563 199.493 302.956 200.174C302.349 200.855 301.505 201.196 300.422 201.196C299.339 201.196 298.495 200.855 297.888 200.174C297.281 199.493 296.978 198.499 296.978 197.192V195.008ZM300.422 200.104C301.178 200.104 301.743 199.847 302.116 199.334C302.499 198.811 302.69 198.069 302.69 197.108V195.092C302.69 194.196 302.499 193.473 302.116 192.922C301.743 192.371 301.178 192.096 300.422 192.096C299.666 192.096 299.097 192.371 298.714 192.922C298.341 193.473 298.154 194.196 298.154 195.092V197.108C298.154 198.069 298.341 198.811 298.714 199.334C299.097 199.847 299.666 200.104 300.422 200.104Z" fill="white"/>
        <rect width="166" height="40" transform="translate(87 72)" fill="#F7F7F7"/>
        <path d="M99 83L88 89L92 91.18V97.18L99 101L106 97.18V91.18L108 90.09V97H110V89L99 83ZM105.82 89L99 92.72L92.18 89L99 85.28L105.82 89ZM104 95.99L99 98.72L94 95.99V92.27L99 95L104 92.27V95.99Z" fill="black"/>
        <path d="M123.34 86.104C123.741 86.104 124.082 86.0387 124.362 85.908C124.651 85.768 124.885 85.586 125.062 85.362C125.249 85.1287 125.384 84.8673 125.468 84.578C125.561 84.2793 125.608 83.9667 125.608 83.64V83.472H126.784V83.64C126.784 84.1347 126.709 84.6013 126.56 85.04C126.411 85.4693 126.191 85.8473 125.902 86.174C125.613 86.4913 125.253 86.7433 124.824 86.93C124.395 87.1073 123.9 87.196 123.34 87.196C122.257 87.196 121.413 86.8553 120.806 86.174C120.199 85.4927 119.896 84.4987 119.896 83.192V81.008C119.896 79.7387 120.199 78.754 120.806 78.054C121.413 77.354 122.257 77.004 123.34 77.004C123.9 77.004 124.395 77.0973 124.824 77.284C125.253 77.4613 125.613 77.7133 125.902 78.04C126.191 78.3573 126.411 78.7353 126.56 79.174C126.709 79.6033 126.784 80.0653 126.784 80.56V80.728H125.608V80.56C125.599 80.2427 125.547 79.9347 125.454 79.636C125.37 79.3373 125.235 79.076 125.048 78.852C124.871 78.6187 124.642 78.4367 124.362 78.306C124.082 78.166 123.741 78.096 123.34 78.096C122.584 78.096 122.015 78.3713 121.632 78.922C121.259 79.4727 121.072 80.196 121.072 81.092V83.108C121.072 84.0693 121.259 84.8113 121.632 85.334C122.015 85.8473 122.584 86.104 123.34 86.104ZM130.414 77.2H131.59V81.54H135.762V77.2H136.938V87H135.762V82.632H131.59V87H130.414V77.2ZM141.885 77.2V83.696C141.885 84.4893 142.067 85.0913 142.431 85.502C142.804 85.9033 143.35 86.104 144.069 86.104C144.787 86.104 145.329 85.9033 145.693 85.502C146.066 85.0913 146.253 84.4893 146.253 83.696V77.2H147.429V83.696C147.429 84.8347 147.13 85.7027 146.533 86.3C145.935 86.8973 145.114 87.196 144.069 87.196C143.023 87.196 142.202 86.8973 141.605 86.3C141.007 85.7027 140.709 84.8347 140.709 83.696V77.2H141.885ZM151.395 77.2H152.571V85.908H157.695V87H151.395V77.2ZM166.953 84.564H162.753L162.039 87H160.779L163.747 77.2H165.959L168.927 87H167.667L166.953 84.564ZM164.769 77.704L163.075 83.472H166.631L164.937 77.704H164.769ZM172.179 77.2H173.355V85.908H178.479V87H172.179V77.2ZM182.194 81.008C182.194 79.7387 182.497 78.754 183.104 78.054C183.71 77.354 184.555 77.004 185.638 77.004C186.72 77.004 187.565 77.354 188.172 78.054C188.778 78.754 189.082 79.7387 189.082 81.008V83.192C189.082 84.4987 188.778 85.4927 188.172 86.174C187.565 86.8553 186.72 87.196 185.638 87.196C184.555 87.196 183.71 86.8553 183.104 86.174C182.497 85.4927 182.194 84.4987 182.194 83.192V81.008ZM185.638 86.104C186.394 86.104 186.958 85.8473 187.332 85.334C187.714 84.8113 187.906 84.0693 187.906 83.108V81.092C187.906 80.196 187.714 79.4727 187.332 78.922C186.958 78.3713 186.394 78.096 185.638 78.096C184.882 78.096 184.312 78.3713 183.93 78.922C183.556 79.4727 183.37 80.196 183.37 81.092V83.108C183.37 84.0693 183.556 84.8113 183.93 85.334C184.312 85.8473 184.882 86.104 185.638 86.104ZM197.948 86.496H198.116V77.2H199.292V87H196.94L194.112 77.704H193.944V87H192.768V77.2H195.12L197.948 86.496ZM205.484 82.296H209.852V87H208.76V85.824H208.592C208.433 86.2347 208.153 86.566 207.752 86.818C207.351 87.07 206.884 87.196 206.352 87.196C205.297 87.196 204.467 86.8553 203.86 86.174C203.263 85.4927 202.964 84.4987 202.964 83.192V81.008C202.964 79.7387 203.267 78.754 203.874 78.054C204.481 77.354 205.325 77.004 206.408 77.004C206.968 77.004 207.463 77.0973 207.892 77.284C208.321 77.4613 208.681 77.7133 208.97 78.04C209.259 78.3573 209.479 78.7353 209.628 79.174C209.777 79.6033 209.852 80.0653 209.852 80.56V80.728H208.676V80.56C208.676 80.2427 208.629 79.9347 208.536 79.636C208.452 79.3373 208.317 79.076 208.13 78.852C207.953 78.6187 207.719 78.4367 207.43 78.306C207.15 78.166 206.809 78.096 206.408 78.096C205.652 78.096 205.083 78.3713 204.7 78.922C204.327 79.4727 204.14 80.196 204.14 81.092V83.108C204.14 84.0693 204.327 84.8113 204.7 85.334C205.083 85.8473 205.661 86.104 206.436 86.104C207.136 86.104 207.682 85.88 208.074 85.432C208.475 84.984 208.676 84.3587 208.676 83.556V83.388H205.484V82.296ZM214.952 87H213.776V77.2H214.952V81.54H215.274L219.04 77.2H220.496V77.284L216.436 82.016V82.184L220.664 86.916V87H219.18L215.274 82.632H214.952V87ZM223.763 81.008C223.763 79.7387 224.066 78.754 224.673 78.054C225.279 77.354 226.124 77.004 227.207 77.004C228.289 77.004 229.134 77.354 229.741 78.054C230.347 78.754 230.651 79.7387 230.651 81.008V83.192C230.651 84.4987 230.347 85.4927 229.741 86.174C229.134 86.8553 228.289 87.196 227.207 87.196C226.124 87.196 225.279 86.8553 224.673 86.174C224.066 85.4927 223.763 84.4987 223.763 83.192V81.008ZM227.207 86.104C227.963 86.104 228.527 85.8473 228.901 85.334C229.283 84.8113 229.475 84.0693 229.475 83.108V81.092C229.475 80.196 229.283 79.4727 228.901 78.922C228.527 78.3713 227.963 78.096 227.207 78.096C226.451 78.096 225.881 78.3713 225.499 78.922C225.125 79.4727 224.939 80.196 224.939 81.092V83.108C224.939 84.0693 225.125 84.8113 225.499 85.334C225.881 85.8473 226.451 86.104 227.207 86.104ZM240.665 87H239.489V83.724C239.489 83.4813 239.433 83.2947 239.321 83.164C239.209 83.0333 239.013 82.968 238.733 82.968H235.681V87H234.505V77.2H238.005C238.509 77.2 238.948 77.2747 239.321 77.424C239.694 77.564 240.002 77.7553 240.245 77.998C240.497 78.2407 240.684 78.5253 240.805 78.852C240.936 79.1693 241.001 79.5053 241.001 79.86V80.28C241.001 80.644 240.898 81.008 240.693 81.372C240.497 81.736 240.189 82.016 239.769 82.212V82.38C240.049 82.4267 240.268 82.5387 240.427 82.716C240.586 82.8933 240.665 83.1453 240.665 83.472V87ZM235.681 81.876H237.865C238.528 81.876 239.018 81.736 239.335 81.456C239.662 81.1667 239.825 80.7467 239.825 80.196V79.944C239.825 79.4493 239.662 79.0527 239.335 78.754C239.018 78.446 238.528 78.292 237.865 78.292H235.681V81.876ZM249.909 86.496H250.077V77.2H251.253V87H248.901L246.073 77.704H245.905V87H244.729V77.2H247.081L249.909 86.496ZM121.1 97.2V103.696C121.1 104.489 121.282 105.091 121.646 105.502C122.019 105.903 122.565 106.104 123.284 106.104C124.003 106.104 124.544 105.903 124.908 105.502C125.281 105.091 125.468 104.489 125.468 103.696V97.2H126.644V103.696C126.644 104.835 126.345 105.703 125.748 106.3C125.151 106.897 124.329 107.196 123.284 107.196C122.239 107.196 121.417 106.897 120.82 106.3C120.223 105.703 119.924 104.835 119.924 103.696V97.2H121.1ZM135.594 106.496H135.762V97.2H136.938V107H134.586L131.758 97.704H131.59V107H130.414V97.2H132.766L135.594 106.496ZM140.961 97.2H147.177V98.292H144.657V105.908H147.177V107H140.961V105.908H143.481V98.292H140.961V97.2ZM150.555 97.2H151.815L154.377 106.496H154.545L157.107 97.2H158.367L155.595 107H153.327L150.555 97.2ZM161.885 97.2H167.821V98.292H163.061V101.54H167.737V102.632H163.061V105.908H167.905V107H161.885V97.2ZM178.311 107H177.135V103.724C177.135 103.481 177.079 103.295 176.967 103.164C176.855 103.033 176.659 102.968 176.379 102.968H173.327V107H172.151V97.2H175.651C176.155 97.2 176.594 97.2747 176.967 97.424C177.341 97.564 177.649 97.7553 177.891 97.998C178.143 98.2407 178.33 98.5253 178.451 98.852C178.582 99.1693 178.647 99.5053 178.647 99.86V100.28C178.647 100.644 178.545 101.008 178.339 101.372C178.143 101.736 177.835 102.016 177.415 102.212V102.38C177.695 102.427 177.915 102.539 178.073 102.716C178.232 102.893 178.311 103.145 178.311 103.472V107ZM173.327 101.876H175.511C176.174 101.876 176.664 101.736 176.981 101.456C177.308 101.167 177.471 100.747 177.471 100.196V99.944C177.471 99.4493 177.308 99.0527 176.981 98.754C176.664 98.446 176.174 98.292 175.511 98.292H173.327V101.876ZM187.948 100.028C187.948 99.7107 187.882 99.4307 187.752 99.188C187.63 98.9453 187.462 98.7447 187.248 98.586C187.033 98.4273 186.786 98.306 186.506 98.222C186.226 98.138 185.932 98.096 185.624 98.096C185.353 98.096 185.096 98.1333 184.854 98.208C184.611 98.2733 184.392 98.3713 184.196 98.502C184.009 98.6327 183.86 98.796 183.748 98.992C183.636 99.1787 183.58 99.398 183.58 99.65V99.734C183.58 100.005 183.636 100.238 183.748 100.434C183.86 100.621 184.023 100.784 184.238 100.924C184.462 101.055 184.737 101.167 185.064 101.26C185.39 101.344 185.773 101.419 186.212 101.484C187.238 101.643 187.994 101.946 188.48 102.394C188.965 102.833 189.208 103.425 189.208 104.172V104.34C189.208 104.76 189.133 105.147 188.984 105.502C188.844 105.847 188.629 106.146 188.34 106.398C188.06 106.65 187.71 106.846 187.29 106.986C186.87 107.126 186.384 107.196 185.834 107.196C185.208 107.196 184.653 107.107 184.168 106.93C183.692 106.743 183.29 106.491 182.964 106.174C182.646 105.847 182.404 105.469 182.236 105.04C182.068 104.601 181.984 104.125 181.984 103.612V103.192H183.16V103.528C183.16 104.387 183.393 105.031 183.86 105.46C184.336 105.889 184.994 106.104 185.834 106.104C186.562 106.104 187.108 105.945 187.472 105.628C187.845 105.301 188.032 104.872 188.032 104.34V104.256C188.032 103.743 187.84 103.351 187.458 103.08C187.084 102.809 186.473 102.613 185.624 102.492C185.129 102.427 184.681 102.329 184.28 102.198C183.888 102.058 183.552 101.881 183.272 101.666C182.992 101.442 182.777 101.176 182.628 100.868C182.478 100.56 182.404 100.196 182.404 99.776V99.608C182.404 99.2253 182.483 98.8753 182.642 98.558C182.8 98.2407 183.02 97.9653 183.3 97.732C183.589 97.4987 183.93 97.3213 184.322 97.2C184.723 97.0693 185.162 97.004 185.638 97.004C186.188 97.004 186.678 97.0833 187.108 97.242C187.546 97.4007 187.915 97.6153 188.214 97.886C188.512 98.1473 188.736 98.46 188.886 98.824C189.044 99.1787 189.124 99.552 189.124 99.944V100.532H187.948V100.028ZM192.922 97.2H199.138V98.292H196.618V105.908H199.138V107H192.922V105.908H195.442V98.292H192.922V97.2ZM202.978 97.2H209.866V98.292H207.01V107H205.834V98.292H202.978V97.2ZM216.226 103.556H215.974L212.908 97.2H214.224L216.73 102.548H216.898L219.404 97.2H220.72L217.654 103.556H217.402V107H216.226V103.556Z" fill="black"/>
        <rect width="150" height="24" transform="translate(771 66)" fill="#F7F7F7"/>
        <path d="M783.594 76.028C783.594 75.7107 783.529 75.4307 783.398 75.188C783.277 74.9453 783.109 74.7447 782.894 74.586C782.679 74.4273 782.432 74.306 782.152 74.222C781.872 74.138 781.578 74.096 781.27 74.096C780.999 74.096 780.743 74.1333 780.5 74.208C780.257 74.2733 780.038 74.3713 779.842 74.502C779.655 74.6327 779.506 74.796 779.394 74.992C779.282 75.1787 779.226 75.398 779.226 75.65V75.734C779.226 76.0047 779.282 76.238 779.394 76.434C779.506 76.6207 779.669 76.784 779.884 76.924C780.108 77.0547 780.383 77.1667 780.71 77.26C781.037 77.344 781.419 77.4187 781.858 77.484C782.885 77.6427 783.641 77.946 784.126 78.394C784.611 78.8327 784.854 79.4253 784.854 80.172V80.34C784.854 80.76 784.779 81.1473 784.63 81.502C784.49 81.8473 784.275 82.146 783.986 82.398C783.706 82.65 783.356 82.846 782.936 82.986C782.516 83.126 782.031 83.196 781.48 83.196C780.855 83.196 780.299 83.1073 779.814 82.93C779.338 82.7433 778.937 82.4913 778.61 82.174C778.293 81.8473 778.05 81.4693 777.882 81.04C777.714 80.6013 777.63 80.1253 777.63 79.612V79.192H778.806V79.528C778.806 80.3867 779.039 81.0307 779.506 81.46C779.982 81.8893 780.64 82.104 781.48 82.104C782.208 82.104 782.754 81.9453 783.118 81.628C783.491 81.3013 783.678 80.872 783.678 80.34V80.256C783.678 79.7427 783.487 79.3507 783.104 79.08C782.731 78.8093 782.119 78.6133 781.27 78.492C780.775 78.4267 780.327 78.3287 779.926 78.198C779.534 78.058 779.198 77.8807 778.918 77.666C778.638 77.442 778.423 77.176 778.274 76.868C778.125 76.56 778.05 76.196 778.05 75.776V75.608C778.05 75.2253 778.129 74.8753 778.288 74.558C778.447 74.2407 778.666 73.9653 778.946 73.732C779.235 73.4987 779.576 73.3213 779.968 73.2C780.369 73.0693 780.808 73.004 781.284 73.004C781.835 73.004 782.325 73.0833 782.754 73.242C783.193 73.4007 783.561 73.6153 783.86 73.886C784.159 74.1473 784.383 74.46 784.532 74.824C784.691 75.1787 784.77 75.552 784.77 75.944V76.532H783.594V76.028ZM789.492 73.2V79.696C789.492 80.4893 789.674 81.0913 790.038 81.502C790.412 81.9033 790.958 82.104 791.676 82.104C792.395 82.104 792.936 81.9033 793.3 81.502C793.674 81.0913 793.86 80.4893 793.86 79.696V73.2H795.036V79.696C795.036 80.8347 794.738 81.7027 794.14 82.3C793.543 82.8973 792.722 83.196 791.676 83.196C790.631 83.196 789.81 82.8973 789.212 82.3C788.615 81.7027 788.316 80.8347 788.316 79.696V73.2H789.492ZM800.207 83H799.031V73.2H800.207V77.54H800.529L804.295 73.2H805.751V73.284L801.691 78.016V78.184L805.919 82.916V83H804.435L800.529 78.632H800.207V83ZM809.199 73.2H810.375V77.54H814.547V73.2H815.723V83H814.547V78.632H810.375V83H809.199V73.2ZM820.669 73.2V79.696C820.669 80.4893 820.851 81.0913 821.215 81.502C821.588 81.9033 822.134 82.104 822.853 82.104C823.572 82.104 824.113 81.9033 824.477 81.502C824.85 81.0913 825.037 80.4893 825.037 79.696V73.2H826.213V79.696C826.213 80.8347 825.914 81.7027 825.317 82.3C824.72 82.8973 823.898 83.196 822.853 83.196C821.808 83.196 820.986 82.8973 820.389 82.3C819.792 81.7027 819.493 80.8347 819.493 79.696V73.2H820.669ZM829.605 73.2H831.845L833.161 82.496H833.329L834.645 73.2H836.885V83H835.793V73.704H835.625L834.309 83H832.181L830.865 73.704H830.697V83H829.605V73.2ZM839.732 73.2H840.992L843.554 82.496H843.722L846.284 73.2H847.544L844.772 83H842.504L839.732 73.2ZM850.922 73.2H857.138V74.292H854.618V81.908H857.138V83H850.922V81.908H853.442V74.292H850.922V73.2ZM860.978 73.2H867.866V74.292H865.01V83H863.834V74.292H860.978V73.2ZM888.273 83H887.097V79.724C887.097 79.4813 887.041 79.2947 886.929 79.164C886.817 79.0333 886.621 78.968 886.341 78.968H883.289V83H882.113V73.2H885.613C886.117 73.2 886.555 73.2747 886.929 73.424C887.302 73.564 887.61 73.7553 887.853 73.998C888.105 74.2407 888.291 74.5253 888.413 74.852C888.543 75.1693 888.609 75.5053 888.609 75.86V76.28C888.609 76.644 888.506 77.008 888.301 77.372C888.105 77.736 887.797 78.016 887.377 78.212V78.38C887.657 78.4267 887.876 78.5387 888.035 78.716C888.193 78.8933 888.273 79.1453 888.273 79.472V83ZM883.289 77.876H885.473C886.135 77.876 886.625 77.736 886.943 77.456C887.269 77.1667 887.433 76.7467 887.433 76.196V75.944C887.433 75.4493 887.269 75.0527 886.943 74.754C886.625 74.446 886.135 74.292 885.473 74.292H883.289V77.876ZM892.155 77.008C892.155 75.7387 892.458 74.754 893.065 74.054C893.672 73.354 894.516 73.004 895.599 73.004C896.682 73.004 897.526 73.354 898.133 74.054C898.74 74.754 899.043 75.7387 899.043 77.008V79.192C899.043 80.4987 898.74 81.4927 898.133 82.174C897.526 82.8553 896.682 83.196 895.599 83.196C894.516 83.196 893.672 82.8553 893.065 82.174C892.458 81.4927 892.155 80.4987 892.155 79.192V77.008ZM895.599 82.104C896.355 82.104 896.92 81.8473 897.293 81.334C897.676 80.8113 897.867 80.0693 897.867 79.108V77.092C897.867 76.196 897.676 75.4727 897.293 74.922C896.92 74.3713 896.355 74.096 895.599 74.096C894.843 74.096 894.274 74.3713 893.891 74.922C893.518 75.4727 893.331 76.196 893.331 77.092V79.108C893.331 80.0693 893.518 80.8113 893.891 81.334C894.274 81.8473 894.843 82.104 895.599 82.104ZM908.091 80.564H903.891L903.177 83H901.917L904.885 73.2H907.097L910.065 83H908.805L908.091 80.564ZM905.907 73.704L904.213 79.472H907.769L906.075 73.704H905.907ZM913.121 73.2H916.341C917.555 73.2 918.441 73.4893 919.001 74.068C919.561 74.6467 919.841 75.5707 919.841 76.84V79.36C919.841 80.6293 919.561 81.5533 919.001 82.132C918.441 82.7107 917.555 83 916.341 83H913.121V81.894H913.961V74.292H913.121V73.2ZM916.173 81.908C916.603 81.908 916.971 81.866 917.279 81.782C917.597 81.698 917.858 81.558 918.063 81.362C918.269 81.1567 918.418 80.886 918.511 80.55C918.614 80.214 918.665 79.7893 918.665 79.276V76.924C918.665 76.4107 918.614 75.986 918.511 75.65C918.418 75.314 918.269 75.048 918.063 74.852C917.858 74.6467 917.597 74.502 917.279 74.418C916.971 74.334 916.603 74.292 916.173 74.292H915.137V81.908H916.173Z" fill="black"/>
        <rect width="135" height="20" transform="translate(225 263)" fill="#F7F7F7"/>
        <path d="M245.786 270.428C245.786 273.63 240 281.357 240 281.357C240 281.357 234.214 273.63 234.214 270.428C234.214 268.894 234.824 267.422 235.909 266.337C236.994 265.252 238.466 264.643 240 264.643C241.535 264.643 243.006 265.252 244.091 266.337C245.176 267.422 245.786 268.894 245.786 270.428Z" fill="black"/>
        <path d="M240 272.357C241.065 272.357 241.929 271.494 241.929 270.429C241.929 269.363 241.065 268.5 240 268.5C238.935 268.5 238.072 269.363 238.072 270.429C238.072 271.494 238.935 272.357 240 272.357Z" fill="white"/>
        <path d="M263.594 271.028C263.594 270.711 263.529 270.431 263.398 270.188C263.277 269.945 263.109 269.745 262.894 269.586C262.679 269.427 262.432 269.306 262.152 269.222C261.872 269.138 261.578 269.096 261.27 269.096C260.999 269.096 260.743 269.133 260.5 269.208C260.257 269.273 260.038 269.371 259.842 269.502C259.655 269.633 259.506 269.796 259.394 269.992C259.282 270.179 259.226 270.398 259.226 270.65V270.734C259.226 271.005 259.282 271.238 259.394 271.434C259.506 271.621 259.669 271.784 259.884 271.924C260.108 272.055 260.383 272.167 260.71 272.26C261.037 272.344 261.419 272.419 261.858 272.484C262.885 272.643 263.641 272.946 264.126 273.394C264.611 273.833 264.854 274.425 264.854 275.172V275.34C264.854 275.76 264.779 276.147 264.63 276.502C264.49 276.847 264.275 277.146 263.986 277.398C263.706 277.65 263.356 277.846 262.936 277.986C262.516 278.126 262.031 278.196 261.48 278.196C260.855 278.196 260.299 278.107 259.814 277.93C259.338 277.743 258.937 277.491 258.61 277.174C258.293 276.847 258.05 276.469 257.882 276.04C257.714 275.601 257.63 275.125 257.63 274.612V274.192H258.806V274.528C258.806 275.387 259.039 276.031 259.506 276.46C259.982 276.889 260.64 277.104 261.48 277.104C262.208 277.104 262.754 276.945 263.118 276.628C263.491 276.301 263.678 275.872 263.678 275.34V275.256C263.678 274.743 263.487 274.351 263.104 274.08C262.731 273.809 262.119 273.613 261.27 273.492C260.775 273.427 260.327 273.329 259.926 273.198C259.534 273.058 259.198 272.881 258.918 272.666C258.638 272.442 258.423 272.176 258.274 271.868C258.125 271.56 258.05 271.196 258.05 270.776V270.608C258.05 270.225 258.129 269.875 258.288 269.558C258.447 269.241 258.666 268.965 258.946 268.732C259.235 268.499 259.576 268.321 259.968 268.2C260.369 268.069 260.808 268.004 261.284 268.004C261.835 268.004 262.325 268.083 262.754 268.242C263.193 268.401 263.561 268.615 263.86 268.886C264.159 269.147 264.383 269.46 264.532 269.824C264.691 270.179 264.77 270.552 264.77 270.944V271.532H263.594V271.028ZM273.776 275.564H269.576L268.862 278H267.602L270.57 268.2H272.782L275.75 278H274.49L273.776 275.564ZM271.592 268.704L269.898 274.472H273.454L271.76 268.704H271.592ZM278.429 268.2H280.669L281.985 277.496H282.153L283.469 268.2H285.709V278H284.617V268.704H284.449L283.133 278H281.005L279.689 268.704H279.521V278H278.429V268.2ZM291.873 274.556H291.621L288.555 268.2H289.871L292.377 273.548H292.545L295.051 268.2H296.367L293.301 274.556H293.049V278H291.873V274.556ZM304.953 275.564H300.753L300.039 278H298.779L301.747 268.2H303.959L306.927 278H305.667L304.953 275.564ZM302.769 268.704L301.075 274.472H304.631L302.937 268.704H302.769ZM315.163 277.496H315.331V268.2H316.507V278H314.155L311.327 268.704H311.159V278H309.983V268.2H312.335L315.163 277.496ZM330.39 268.2H332.63L333.946 277.496H334.114L335.43 268.2H337.67V278H336.578V268.704H336.41L335.094 278H332.966L331.65 268.704H331.482V278H330.39V268.2ZM347.488 278H346.312V274.724C346.312 274.481 346.256 274.295 346.144 274.164C346.032 274.033 345.836 273.968 345.556 273.968H342.504V278H341.328V268.2H344.828C345.332 268.2 345.771 268.275 346.144 268.424C346.517 268.564 346.825 268.755 347.068 268.998C347.32 269.241 347.507 269.525 347.628 269.852C347.759 270.169 347.824 270.505 347.824 270.86V271.28C347.824 271.644 347.721 272.008 347.516 272.372C347.32 272.736 347.012 273.016 346.592 273.212V273.38C346.872 273.427 347.091 273.539 347.25 273.716C347.409 273.893 347.488 274.145 347.488 274.472V278ZM342.504 272.876H344.688C345.351 272.876 345.841 272.736 346.158 272.456C346.485 272.167 346.648 271.747 346.648 271.196V270.944C346.648 270.449 346.485 270.053 346.158 269.754C345.841 269.446 345.351 269.292 344.688 269.292H342.504V272.876ZM351.37 268.2H358.258V269.292H355.402V278H354.226V269.292H351.37V268.2Z" fill="black"/>
        <rect width="71" height="40" transform="translate(481 265)" fill="#F7F7F7"/>
        <path d="M482.218 270.2H483.394V278.908H488.518V280H482.218V270.2ZM493.492 270.2V276.696C493.492 277.489 493.674 278.091 494.038 278.502C494.412 278.903 494.958 279.104 495.676 279.104C496.395 279.104 496.936 278.903 497.3 278.502C497.674 278.091 497.86 277.489 497.86 276.696V270.2H499.036V276.696C499.036 277.835 498.738 278.703 498.14 279.3C497.543 279.897 496.722 280.196 495.676 280.196C494.631 280.196 493.81 279.897 493.212 279.3C492.615 278.703 492.316 277.835 492.316 276.696V270.2H493.492ZM502.429 270.2H504.669L505.985 279.496H506.153L507.469 270.2H509.709V280H508.617V270.704H508.449L507.133 280H505.005L503.689 270.704H503.521V280H502.429V270.2ZM514.543 275.968V280H513.367V270.2H516.867C517.371 270.2 517.809 270.275 518.183 270.424C518.556 270.564 518.864 270.755 519.107 270.998C519.359 271.241 519.545 271.525 519.667 271.852C519.797 272.169 519.863 272.505 519.863 272.86V273.28C519.863 273.635 519.797 273.975 519.667 274.302C519.545 274.629 519.359 274.918 519.107 275.17C518.855 275.413 518.542 275.609 518.169 275.758C517.795 275.898 517.361 275.968 516.867 275.968H514.543ZM514.543 274.876H516.727C518.033 274.876 518.687 274.316 518.687 273.196V272.944C518.687 272.449 518.523 272.053 518.197 271.754C517.879 271.446 517.389 271.292 516.727 271.292H514.543V274.876ZM523.745 270.2H529.961V271.292H527.441V278.908H529.961V280H523.745V278.908H526.265V271.292H523.745V270.2ZM539.163 279.496H539.331V270.2H540.507V280H538.155L535.327 270.704H535.159V280H533.983V270.2H536.335L539.163 279.496ZM544.53 270.2H550.746V271.292H548.226V278.908H550.746V280H544.53V278.908H547.05V271.292H544.53V270.2ZM483.366 295.968V300H482.19V290.2H485.69C486.194 290.2 486.633 290.275 487.006 290.424C487.379 290.564 487.687 290.755 487.93 290.998C488.182 291.241 488.369 291.525 488.49 291.852C488.621 292.169 488.686 292.505 488.686 292.86V293.28C488.686 293.635 488.621 293.975 488.49 294.302C488.369 294.629 488.182 294.918 487.93 295.17C487.678 295.413 487.365 295.609 486.992 295.758C486.619 295.898 486.185 295.968 485.69 295.968H483.366ZM483.366 294.876H485.55C486.857 294.876 487.51 294.316 487.51 293.196V292.944C487.51 292.449 487.347 292.053 487.02 291.754C486.703 291.446 486.213 291.292 485.55 291.292H483.366V294.876ZM497.776 297.564H493.576L492.862 300H491.602L494.57 290.2H496.782L499.75 300H498.49L497.776 297.564ZM495.592 290.704L493.898 296.472H497.454L495.76 290.704H495.592ZM509.135 300H507.959V296.724C507.959 296.481 507.903 296.295 507.791 296.164C507.679 296.033 507.483 295.968 507.203 295.968H504.151V300H502.975V290.2H506.475C506.979 290.2 507.417 290.275 507.791 290.424C508.164 290.564 508.472 290.755 508.715 290.998C508.967 291.241 509.153 291.525 509.275 291.852C509.405 292.169 509.471 292.505 509.471 292.86V293.28C509.471 293.644 509.368 294.008 509.163 294.372C508.967 294.736 508.659 295.016 508.239 295.212V295.38C508.519 295.427 508.738 295.539 508.897 295.716C509.055 295.893 509.135 296.145 509.135 296.472V300ZM504.151 294.876H506.335C506.997 294.876 507.487 294.736 507.805 294.456C508.131 294.167 508.295 293.747 508.295 293.196V292.944C508.295 292.449 508.131 292.053 507.805 291.754C507.487 291.446 506.997 291.292 506.335 291.292H504.151V294.876ZM514.599 300H513.423V290.2H514.599V294.54H514.921L518.687 290.2H520.143V290.284L516.083 295.016V295.184L520.311 299.916V300H518.827L514.921 295.632H514.599V300Z" fill="black"/>
    </g>
    <rect x="0.5" y="0.5" width="1071" height="407" rx="203.5" stroke="black"/>
    <defs>
        <clipPath id="clip0_2157_3641">
            <rect width="1072" height="408" rx="204" fill="white"/>
        </clipPath>
    </defs>
</svg>
    