<svg width="1072" height="408" viewBox="0 0 1072 408" fill="none"
    xmlns="http://www.w3.org/2000/svg">
    <g clip-path="url(#clip0_2157_3641)">
        <path d="M864.5 246.5H922L931 359.5L939.5 436L759.5 427.5L739.5 227.5L864.5 225V246.5Z" fill="#C3F1D5"/>
        <path d="M710.5 -6.5L762.5 421.5" stroke="black"/>
        <path d="M936 417.5L922 247.5L952 202L971.5 96.5V-7.5" stroke="black"/>
        <path d="M885 253H922L930.5 358.5L934.5 401.5H920.5L888 423L876 265L885 253Z" fill="#8FDAEE"/>
        <path d="M583 400.5L616.5 219L451.5 212L397.5 322.5L583 400.5Z" fill="#C3F1D5"/>
        <rect width="113" height="40" transform="translate(857 268)" fill="#F5F5F5"/>
        <path d="M857.798 281.908H858.638V274.292H857.798V273.2H861.76C862.227 273.2 862.637 273.265 862.992 273.396C863.356 273.527 863.659 273.704 863.902 273.928C864.154 274.152 864.341 274.423 864.462 274.74C864.593 275.048 864.658 275.384 864.658 275.748V275.916C864.658 276.187 864.616 276.434 864.532 276.658C864.448 276.882 864.331 277.083 864.182 277.26C864.033 277.437 863.855 277.591 863.65 277.722C863.454 277.843 863.239 277.937 863.006 278.002V278.17C863.473 278.301 863.865 278.553 864.182 278.926C864.499 279.29 864.658 279.738 864.658 280.27V280.438C864.658 280.802 864.593 281.143 864.462 281.46C864.341 281.768 864.154 282.039 863.902 282.272C863.659 282.496 863.356 282.673 862.992 282.804C862.637 282.935 862.227 283 861.76 283H857.798V281.908ZM859.814 281.908H861.676C862.227 281.908 862.675 281.773 863.02 281.502C863.365 281.222 863.538 280.839 863.538 280.354V280.27C863.538 279.766 863.375 279.369 863.048 279.08C862.721 278.781 862.278 278.632 861.718 278.632H859.814V281.908ZM859.814 277.54H861.718C862.278 277.54 862.721 277.395 863.048 277.106C863.375 276.817 863.538 276.42 863.538 275.916V275.832C863.538 275.356 863.365 274.983 863.02 274.712C862.675 274.432 862.227 274.292 861.676 274.292H859.814V277.54ZM868.708 273.2H874.644V274.292H869.884V277.54H874.56V278.632H869.884V281.908H874.728V283H868.708V273.2ZM883.987 282.496H884.155V273.2H885.331V283H882.979L880.151 273.704H879.983V283H878.807V273.2H881.159L883.987 282.496ZM892.517 282.104C892.918 282.104 893.259 282.039 893.539 281.908C893.828 281.768 894.061 281.586 894.239 281.362C894.425 281.129 894.561 280.867 894.645 280.578C894.738 280.279 894.785 279.967 894.785 279.64V279.472H895.961V279.64C895.961 280.135 895.886 280.601 895.737 281.04C895.587 281.469 895.368 281.847 895.079 282.174C894.789 282.491 894.43 282.743 894.001 282.93C893.571 283.107 893.077 283.196 892.517 283.196C891.434 283.196 890.589 282.855 889.983 282.174C889.376 281.493 889.073 280.499 889.073 279.192V277.008C889.073 275.739 889.376 274.754 889.983 274.054C890.589 273.354 891.434 273.004 892.517 273.004C893.077 273.004 893.571 273.097 894.001 273.284C894.43 273.461 894.789 273.713 895.079 274.04C895.368 274.357 895.587 274.735 895.737 275.174C895.886 275.603 895.961 276.065 895.961 276.56V276.728H894.785V276.56C894.775 276.243 894.724 275.935 894.631 275.636C894.547 275.337 894.411 275.076 894.225 274.852C894.047 274.619 893.819 274.437 893.539 274.306C893.259 274.166 892.918 274.096 892.517 274.096C891.761 274.096 891.191 274.371 890.809 274.922C890.435 275.473 890.249 276.196 890.249 277.092V279.108C890.249 280.069 890.435 280.811 890.809 281.334C891.191 281.847 891.761 282.104 892.517 282.104ZM899.591 273.2H900.767V277.54H904.939V273.2H906.115V283H904.939V278.632H900.767V283H899.591V273.2ZM915.345 280.564H911.145L910.431 283H909.171L912.139 273.2H914.351L917.319 283H916.059L915.345 280.564ZM913.161 273.704L911.467 279.472H915.023L913.329 273.704H913.161ZM921.776 283H920.6V273.2H921.776V277.54H922.098L925.864 273.2H927.32V273.284L923.26 278.016V278.184L927.488 282.916V283H926.004L922.098 278.632H921.776V283ZM930.922 273.2H937.138V274.292H934.618V281.908H937.138V283H930.922V281.908H933.442V274.292H930.922V273.2ZM940.978 273.2H947.866V274.292H945.01V283H943.834V274.292H940.978V273.2ZM951.37 273.2H958.258V274.292H955.402V283H954.226V274.292H951.37V273.2ZM964.619 279.556H964.367L961.301 273.2H962.617L965.123 278.548H965.291L967.797 273.2H969.113L966.047 279.556H965.795V283H964.619V279.556ZM859.366 298.968V303H858.19V293.2H861.69C862.194 293.2 862.633 293.275 863.006 293.424C863.379 293.564 863.687 293.755 863.93 293.998C864.182 294.241 864.369 294.525 864.49 294.852C864.621 295.169 864.686 295.505 864.686 295.86V296.28C864.686 296.635 864.621 296.975 864.49 297.302C864.369 297.629 864.182 297.918 863.93 298.17C863.678 298.413 863.365 298.609 862.992 298.758C862.619 298.898 862.185 298.968 861.69 298.968H859.366ZM859.366 297.876H861.55C862.857 297.876 863.51 297.316 863.51 296.196V295.944C863.51 295.449 863.347 295.053 863.02 294.754C862.703 294.446 862.213 294.292 861.55 294.292H859.366V297.876ZM873.776 300.564H869.576L868.862 303H867.602L870.57 293.2H872.782L875.75 303H874.49L873.776 300.564ZM871.592 293.704L869.898 299.472H873.454L871.76 293.704H871.592ZM885.135 303H883.959V299.724C883.959 299.481 883.903 299.295 883.791 299.164C883.679 299.033 883.483 298.968 883.203 298.968H880.151V303H878.975V293.2H882.475C882.979 293.2 883.417 293.275 883.791 293.424C884.164 293.564 884.472 293.755 884.715 293.998C884.967 294.241 885.153 294.525 885.275 294.852C885.405 295.169 885.471 295.505 885.471 295.86V296.28C885.471 296.644 885.368 297.008 885.163 297.372C884.967 297.736 884.659 298.016 884.239 298.212V298.38C884.519 298.427 884.738 298.539 884.897 298.716C885.055 298.893 885.135 299.145 885.135 299.472V303ZM880.151 297.876H882.335C882.997 297.876 883.487 297.736 883.805 297.456C884.131 297.167 884.295 296.747 884.295 296.196V295.944C884.295 295.449 884.131 295.053 883.805 294.754C883.487 294.446 882.997 294.292 882.335 294.292H880.151V297.876ZM890.599 303H889.423V293.2H890.599V297.54H890.921L894.687 293.2H896.143V293.284L892.083 298.016V298.184L896.311 302.916V303H894.827L890.921 298.632H890.599V303Z" fill="black"/>
        <path d="M270.5 -1.5L237.5 253.5L-2.5 300" stroke="black"/>
        <path d="M387.5 -8L342.5 295.5" stroke="black"/>
        <path d="M5 154L634.5 422" stroke="black"/>
        <path d="M659.5 -9.5L616.774 219.5M577.5 430L616.774 219.5M616.774 219.5L453 212.5" stroke="black"/>
        <path d="M215.5 415L226.5 392.5L394 332.5L453 211L491.5 -35.5" stroke="black"/>
        <path d="M1100 269.5L773 33L462.5 -22" stroke="black"/>
        <rect width="125" height="28" transform="translate(185 182)" fill="black"/>
        <path d="M201.786 193.428C201.786 196.63 196 204.357 196 204.357C196 204.357 190.214 196.63 190.214 193.428C190.214 191.894 190.824 190.422 191.909 189.337C192.994 188.252 194.466 187.643 196 187.643C197.535 187.643 199.006 188.252 200.091 189.337C201.176 190.422 201.786 191.894 201.786 193.428Z" fill="white"/>
        <path d="M196 195.357C197.065 195.357 197.929 194.494 197.929 193.429C197.929 192.363 197.065 191.5 196 191.5C194.935 191.5 194.072 192.363 194.072 193.429C194.072 194.494 194.935 195.357 196 195.357Z" fill="black"/>
        <path d="M219.594 194.028C219.594 193.711 219.529 193.431 219.398 193.188C219.277 192.945 219.109 192.745 218.894 192.586C218.679 192.427 218.432 192.306 218.152 192.222C217.872 192.138 217.578 192.096 217.27 192.096C216.999 192.096 216.743 192.133 216.5 192.208C216.257 192.273 216.038 192.371 215.842 192.502C215.655 192.633 215.506 192.796 215.394 192.992C215.282 193.179 215.226 193.398 215.226 193.65V193.734C215.226 194.005 215.282 194.238 215.394 194.434C215.506 194.621 215.669 194.784 215.884 194.924C216.108 195.055 216.383 195.167 216.71 195.26C217.037 195.344 217.419 195.419 217.858 195.484C218.885 195.643 219.641 195.946 220.126 196.394C220.611 196.833 220.854 197.425 220.854 198.172V198.34C220.854 198.76 220.779 199.147 220.63 199.502C220.49 199.847 220.275 200.146 219.986 200.398C219.706 200.65 219.356 200.846 218.936 200.986C218.516 201.126 218.031 201.196 217.48 201.196C216.855 201.196 216.299 201.107 215.814 200.93C215.338 200.743 214.937 200.491 214.61 200.174C214.293 199.847 214.05 199.469 213.882 199.04C213.714 198.601 213.63 198.125 213.63 197.612V197.192H214.806V197.528C214.806 198.387 215.039 199.031 215.506 199.46C215.982 199.889 216.64 200.104 217.48 200.104C218.208 200.104 218.754 199.945 219.118 199.628C219.491 199.301 219.678 198.872 219.678 198.34V198.256C219.678 197.743 219.487 197.351 219.104 197.08C218.731 196.809 218.119 196.613 217.27 196.492C216.775 196.427 216.327 196.329 215.926 196.198C215.534 196.058 215.198 195.881 214.918 195.666C214.638 195.442 214.423 195.176 214.274 194.868C214.125 194.56 214.05 194.196 214.05 193.776V193.608C214.05 193.225 214.129 192.875 214.288 192.558C214.447 192.241 214.666 191.965 214.946 191.732C215.235 191.499 215.576 191.321 215.968 191.2C216.369 191.069 216.808 191.004 217.284 191.004C217.835 191.004 218.325 191.083 218.754 191.242C219.193 191.401 219.561 191.615 219.86 191.886C220.159 192.147 220.383 192.46 220.532 192.824C220.691 193.179 220.77 193.552 220.77 193.944V194.532H219.594V194.028ZM224.61 191.2H225.786V199.908H230.91V201H224.61V191.2ZM234.625 195.008C234.625 193.739 234.928 192.754 235.535 192.054C236.141 191.354 236.986 191.004 238.069 191.004C239.151 191.004 239.996 191.354 240.603 192.054C241.209 192.754 241.513 193.739 241.513 195.008V197.192C241.513 198.499 241.209 199.493 240.603 200.174C239.996 200.855 239.151 201.196 238.069 201.196C236.986 201.196 236.141 200.855 235.535 200.174C234.928 199.493 234.625 198.499 234.625 197.192V195.008ZM238.069 200.104C238.825 200.104 239.389 199.847 239.763 199.334C240.145 198.811 240.337 198.069 240.337 197.108V195.092C240.337 194.196 240.145 193.473 239.763 192.922C239.389 192.371 238.825 192.096 238.069 192.096C237.313 192.096 236.743 192.371 236.361 192.922C235.987 193.473 235.801 194.196 235.801 195.092V197.108C235.801 198.069 235.987 198.811 236.361 199.334C236.743 199.847 237.313 200.104 238.069 200.104ZM251.597 201H249.455L248.545 191.704H248.377L247.467 201H245.325L244.331 191.2H245.395L246.333 200.496H246.501L247.383 191.2H249.539L250.421 200.496H250.589L251.527 191.2H252.591L251.597 201ZM258.909 200.104C259.31 200.104 259.651 200.039 259.931 199.908C260.22 199.768 260.454 199.586 260.631 199.362C260.818 199.129 260.953 198.867 261.037 198.578C261.13 198.279 261.177 197.967 261.177 197.64V197.472H262.353V197.64C262.353 198.135 262.278 198.601 262.129 199.04C261.98 199.469 261.76 199.847 261.471 200.174C261.182 200.491 260.822 200.743 260.393 200.93C259.964 201.107 259.469 201.196 258.909 201.196C257.826 201.196 256.982 200.855 256.375 200.174C255.768 199.493 255.465 198.499 255.465 197.192V195.008C255.465 193.739 255.768 192.754 256.375 192.054C256.982 191.354 257.826 191.004 258.909 191.004C259.469 191.004 259.964 191.097 260.393 191.284C260.822 191.461 261.182 191.713 261.471 192.04C261.76 192.357 261.98 192.735 262.129 193.174C262.278 193.603 262.353 194.065 262.353 194.56V194.728H261.177V194.56C261.168 194.243 261.116 193.935 261.023 193.636C260.939 193.337 260.804 193.076 260.617 192.852C260.44 192.619 260.211 192.437 259.931 192.306C259.651 192.166 259.31 192.096 258.909 192.096C258.153 192.096 257.584 192.371 257.201 192.922C256.828 193.473 256.641 194.196 256.641 195.092V197.108C256.641 198.069 256.828 198.811 257.201 199.334C257.584 199.847 258.153 200.104 258.909 200.104ZM265.801 195.008C265.801 193.739 266.105 192.754 266.711 192.054C267.318 191.354 268.163 191.004 269.245 191.004C270.328 191.004 271.173 191.354 271.779 192.054C272.386 192.754 272.689 193.739 272.689 195.008V197.192C272.689 198.499 272.386 199.493 271.779 200.174C271.173 200.855 270.328 201.196 269.245 201.196C268.163 201.196 267.318 200.855 266.711 200.174C266.105 199.493 265.801 198.499 265.801 197.192V195.008ZM269.245 200.104C270.001 200.104 270.566 199.847 270.939 199.334C271.322 198.811 271.513 198.069 271.513 197.108V195.092C271.513 194.196 271.322 193.473 270.939 192.922C270.566 192.371 270.001 192.096 269.245 192.096C268.489 192.096 267.92 192.371 267.537 192.922C267.164 193.473 266.977 194.196 266.977 195.092V197.108C266.977 198.069 267.164 198.811 267.537 199.334C267.92 199.847 268.489 200.104 269.245 200.104ZM275.998 191.2H278.238L279.554 200.496H279.722L281.038 191.2H283.278V201H282.186V191.704H282.018L280.702 201H278.574L277.258 191.704H277.09V201H275.998V191.2ZM286.544 199.908H287.384V192.292H286.544V191.2H290.506C290.973 191.2 291.383 191.265 291.738 191.396C292.102 191.527 292.405 191.704 292.648 191.928C292.9 192.152 293.087 192.423 293.208 192.74C293.339 193.048 293.404 193.384 293.404 193.748V193.916C293.404 194.187 293.362 194.434 293.278 194.658C293.194 194.882 293.077 195.083 292.928 195.26C292.779 195.437 292.601 195.591 292.396 195.722C292.2 195.843 291.985 195.937 291.752 196.002V196.17C292.219 196.301 292.611 196.553 292.928 196.926C293.245 197.29 293.404 197.738 293.404 198.27V198.438C293.404 198.802 293.339 199.143 293.208 199.46C293.087 199.768 292.9 200.039 292.648 200.272C292.405 200.496 292.102 200.673 291.738 200.804C291.383 200.935 290.973 201 290.506 201H286.544V199.908ZM288.56 199.908H290.422C290.973 199.908 291.421 199.773 291.766 199.502C292.111 199.222 292.284 198.839 292.284 198.354V198.27C292.284 197.766 292.121 197.369 291.794 197.08C291.467 196.781 291.024 196.632 290.464 196.632H288.56V199.908ZM288.56 195.54H290.464C291.024 195.54 291.467 195.395 291.794 195.106C292.121 194.817 292.284 194.42 292.284 193.916V193.832C292.284 193.356 292.111 192.983 291.766 192.712C291.421 192.432 290.973 192.292 290.422 192.292H288.56V195.54ZM296.978 195.008C296.978 193.739 297.281 192.754 297.888 192.054C298.495 191.354 299.339 191.004 300.422 191.004C301.505 191.004 302.349 191.354 302.956 192.054C303.563 192.754 303.866 193.739 303.866 195.008V197.192C303.866 198.499 303.563 199.493 302.956 200.174C302.349 200.855 301.505 201.196 300.422 201.196C299.339 201.196 298.495 200.855 297.888 200.174C297.281 199.493 296.978 198.499 296.978 197.192V195.008ZM300.422 200.104C301.178 200.104 301.743 199.847 302.116 199.334C302.499 198.811 302.69 198.069 302.69 197.108V195.092C302.69 194.196 302.499 193.473 302.116 192.922C301.743 192.371 301.178 192.096 300.422 192.096C299.666 192.096 299.097 192.371 298.714 192.922C298.341 193.473 298.154 194.196 298.154 195.092V197.108C298.154 198.069 298.341 198.811 298.714 199.334C299.097 199.847 299.666 200.104 300.422 200.104Z" fill="white"/>
        <rect width="176" height="24" transform="translate(547 112)" fill="#F7F7F7"/>
        <path d="M567 124C567 122.9 566.1 122 565 122V119C565 117.9 564.1 117 563 117H555C553.9 117 553 117.9 553 119V122C551.9 122 551 122.9 551 124V129H552.33L553 131H554L554.67 129H563.34L564 131H565L565.67 129H567V124ZM563 122H560V119H563V122ZM555 119H558V122H555V119ZM553 124H565V127H553V124Z" fill="black"/>
        <path d="M581.422 129H580.246V119.2H581.422V123.54H581.744L585.51 119.2H586.966V119.284L582.906 124.016V124.184L587.134 128.916V129H585.65L581.744 124.632H581.422V129ZM590.568 119.2H596.784V120.292H594.264V127.908H596.784V129H590.568V127.908H593.088V120.292H590.568V119.2ZM600.429 119.2H602.669L603.985 128.496H604.153L605.469 119.2H607.709V129H606.617V119.704H606.449L605.133 129H603.005L601.689 119.704H601.521V129H600.429V119.2ZM612.543 124.968V129H611.367V119.2H614.867C615.371 119.2 615.809 119.275 616.183 119.424C616.556 119.564 616.864 119.755 617.107 119.998C617.359 120.241 617.545 120.525 617.667 120.852C617.797 121.169 617.863 121.505 617.863 121.86V122.28C617.863 122.635 617.797 122.975 617.667 123.302C617.545 123.629 617.359 123.918 617.107 124.17C616.855 124.413 616.542 124.609 616.169 124.758C615.795 124.898 615.361 124.968 614.867 124.968H612.543ZM612.543 123.876H614.727C616.033 123.876 616.687 123.316 616.687 122.196V121.944C616.687 121.449 616.523 121.053 616.197 120.754C615.879 120.446 615.389 120.292 614.727 120.292H612.543V123.876ZM621.409 119.2H628.297V120.292H625.441V129H624.265V120.292H621.409V119.2ZM631.801 123.008C631.801 121.739 632.105 120.754 632.711 120.054C633.318 119.354 634.163 119.004 635.245 119.004C636.328 119.004 637.173 119.354 637.779 120.054C638.386 120.754 638.689 121.739 638.689 123.008V125.192C638.689 126.499 638.386 127.493 637.779 128.174C637.173 128.855 636.328 129.196 635.245 129.196C634.163 129.196 633.318 128.855 632.711 128.174C632.105 127.493 631.801 126.499 631.801 125.192V123.008ZM635.245 128.104C636.001 128.104 636.566 127.847 636.939 127.334C637.322 126.811 637.513 126.069 637.513 125.108V123.092C637.513 122.196 637.322 121.473 636.939 120.922C636.566 120.371 636.001 120.096 635.245 120.096C634.489 120.096 633.92 120.371 633.537 120.922C633.164 121.473 632.977 122.196 632.977 123.092V125.108C632.977 126.069 633.164 126.811 633.537 127.334C633.92 127.847 634.489 128.104 635.245 128.104ZM652.39 119.2H654.63L655.946 128.496H656.114L657.43 119.2H659.67V129H658.578V119.704H658.41L657.094 129H654.966L653.65 119.704H653.482V129H652.39V119.2ZM668.522 126.564H664.322L663.608 129H662.348L665.316 119.2H667.528L670.496 129H669.236L668.522 126.564ZM666.338 119.704L664.644 125.472H668.2L666.506 119.704H666.338ZM678.914 126.564H674.714L674 129H672.74L675.708 119.2H677.92L680.888 129H679.628L678.914 126.564ZM676.73 119.704L675.036 125.472H678.592L676.898 119.704H676.73ZM685.107 124.856H689.307V125.864H685.107V124.856ZM694.533 119.2H695.709V127.908H700.833V129H694.533V119.2ZM710.091 126.564H705.891L705.177 129H703.917L706.885 119.2H709.097L712.065 129H710.805L710.091 126.564ZM707.907 119.704L706.213 125.472H709.769L708.075 119.704H707.907ZM715.275 119.2H721.491V120.292H718.971V127.908H721.491V129H715.275V127.908H717.795V120.292H715.275V119.2Z" fill="black"/>
        <rect width="24" height="24" transform="translate(1018 184)" fill="#F7F7F7"/>
        <path d="M1038 196C1038 194.9 1037.1 194 1036 194V191C1036 189.9 1035.1 189 1034 189H1026C1024.9 189 1024 189.9 1024 191V194C1022.9 194 1022 194.9 1022 196V201H1023.33L1024 203H1025L1025.67 201H1034.34L1035 203H1036L1036.67 201H1038V196ZM1034 194H1031V191H1034V194ZM1026 191H1029V194H1026V191ZM1024 196H1036V199H1024V196Z" fill="black"/>
        <rect width="166" height="40" transform="translate(87 72)" fill="#F7F7F7"/>
        <path d="M99 83L88 89L92 91.18V97.18L99 101L106 97.18V91.18L108 90.09V97H110V89L99 83ZM105.82 89L99 92.72L92.18 89L99 85.28L105.82 89ZM104 95.99L99 98.72L94 95.99V92.27L99 95L104 92.27V95.99Z" fill="black"/>
        <path d="M123.34 86.104C123.741 86.104 124.082 86.0387 124.362 85.908C124.651 85.768 124.885 85.586 125.062 85.362C125.249 85.1287 125.384 84.8673 125.468 84.578C125.561 84.2793 125.608 83.9667 125.608 83.64V83.472H126.784V83.64C126.784 84.1347 126.709 84.6013 126.56 85.04C126.411 85.4693 126.191 85.8473 125.902 86.174C125.613 86.4913 125.253 86.7433 124.824 86.93C124.395 87.1073 123.9 87.196 123.34 87.196C122.257 87.196 121.413 86.8553 120.806 86.174C120.199 85.4927 119.896 84.4987 119.896 83.192V81.008C119.896 79.7387 120.199 78.754 120.806 78.054C121.413 77.354 122.257 77.004 123.34 77.004C123.9 77.004 124.395 77.0973 124.824 77.284C125.253 77.4613 125.613 77.7133 125.902 78.04C126.191 78.3573 126.411 78.7353 126.56 79.174C126.709 79.6033 126.784 80.0653 126.784 80.56V80.728H125.608V80.56C125.599 80.2427 125.547 79.9347 125.454 79.636C125.37 79.3373 125.235 79.076 125.048 78.852C124.871 78.6187 124.642 78.4367 124.362 78.306C124.082 78.166 123.741 78.096 123.34 78.096C122.584 78.096 122.015 78.3713 121.632 78.922C121.259 79.4727 121.072 80.196 121.072 81.092V83.108C121.072 84.0693 121.259 84.8113 121.632 85.334C122.015 85.8473 122.584 86.104 123.34 86.104ZM130.414 77.2H131.59V81.54H135.762V77.2H136.938V87H135.762V82.632H131.59V87H130.414V77.2ZM141.885 77.2V83.696C141.885 84.4893 142.067 85.0913 142.431 85.502C142.804 85.9033 143.35 86.104 144.069 86.104C144.787 86.104 145.329 85.9033 145.693 85.502C146.066 85.0913 146.253 84.4893 146.253 83.696V77.2H147.429V83.696C147.429 84.8347 147.13 85.7027 146.533 86.3C145.935 86.8973 145.114 87.196 144.069 87.196C143.023 87.196 142.202 86.8973 141.605 86.3C141.007 85.7027 140.709 84.8347 140.709 83.696V77.2H141.885ZM151.395 77.2H152.571V85.908H157.695V87H151.395V77.2ZM166.953 84.564H162.753L162.039 87H160.779L163.747 77.2H165.959L168.927 87H167.667L166.953 84.564ZM164.769 77.704L163.075 83.472H166.631L164.937 77.704H164.769ZM172.179 77.2H173.355V85.908H178.479V87H172.179V77.2ZM182.194 81.008C182.194 79.7387 182.497 78.754 183.104 78.054C183.71 77.354 184.555 77.004 185.638 77.004C186.72 77.004 187.565 77.354 188.172 78.054C188.778 78.754 189.082 79.7387 189.082 81.008V83.192C189.082 84.4987 188.778 85.4927 188.172 86.174C187.565 86.8553 186.72 87.196 185.638 87.196C184.555 87.196 183.71 86.8553 183.104 86.174C182.497 85.4927 182.194 84.4987 182.194 83.192V81.008ZM185.638 86.104C186.394 86.104 186.958 85.8473 187.332 85.334C187.714 84.8113 187.906 84.0693 187.906 83.108V81.092C187.906 80.196 187.714 79.4727 187.332 78.922C186.958 78.3713 186.394 78.096 185.638 78.096C184.882 78.096 184.312 78.3713 183.93 78.922C183.556 79.4727 183.37 80.196 183.37 81.092V83.108C183.37 84.0693 183.556 84.8113 183.93 85.334C184.312 85.8473 184.882 86.104 185.638 86.104ZM197.948 86.496H198.116V77.2H199.292V87H196.94L194.112 77.704H193.944V87H192.768V77.2H195.12L197.948 86.496ZM205.484 82.296H209.852V87H208.76V85.824H208.592C208.433 86.2347 208.153 86.566 207.752 86.818C207.351 87.07 206.884 87.196 206.352 87.196C205.297 87.196 204.467 86.8553 203.86 86.174C203.263 85.4927 202.964 84.4987 202.964 83.192V81.008C202.964 79.7387 203.267 78.754 203.874 78.054C204.481 77.354 205.325 77.004 206.408 77.004C206.968 77.004 207.463 77.0973 207.892 77.284C208.321 77.4613 208.681 77.7133 208.97 78.04C209.259 78.3573 209.479 78.7353 209.628 79.174C209.777 79.6033 209.852 80.0653 209.852 80.56V80.728H208.676V80.56C208.676 80.2427 208.629 79.9347 208.536 79.636C208.452 79.3373 208.317 79.076 208.13 78.852C207.953 78.6187 207.719 78.4367 207.43 78.306C207.15 78.166 206.809 78.096 206.408 78.096C205.652 78.096 205.083 78.3713 204.7 78.922C204.327 79.4727 204.14 80.196 204.14 81.092V83.108C204.14 84.0693 204.327 84.8113 204.7 85.334C205.083 85.8473 205.661 86.104 206.436 86.104C207.136 86.104 207.682 85.88 208.074 85.432C208.475 84.984 208.676 84.3587 208.676 83.556V83.388H205.484V82.296ZM214.952 87H213.776V77.2H214.952V81.54H215.274L219.04 77.2H220.496V77.284L216.436 82.016V82.184L220.664 86.916V87H219.18L215.274 82.632H214.952V87ZM223.763 81.008C223.763 79.7387 224.066 78.754 224.673 78.054C225.279 77.354 226.124 77.004 227.207 77.004C228.289 77.004 229.134 77.354 229.741 78.054C230.347 78.754 230.651 79.7387 230.651 81.008V83.192C230.651 84.4987 230.347 85.4927 229.741 86.174C229.134 86.8553 228.289 87.196 227.207 87.196C226.124 87.196 225.279 86.8553 224.673 86.174C224.066 85.4927 223.763 84.4987 223.763 83.192V81.008ZM227.207 86.104C227.963 86.104 228.527 85.8473 228.901 85.334C229.283 84.8113 229.475 84.0693 229.475 83.108V81.092C229.475 80.196 229.283 79.4727 228.901 78.922C228.527 78.3713 227.963 78.096 227.207 78.096C226.451 78.096 225.881 78.3713 225.499 78.922C225.125 79.4727 224.939 80.196 224.939 81.092V83.108C224.939 84.0693 225.125 84.8113 225.499 85.334C225.881 85.8473 226.451 86.104 227.207 86.104ZM240.665 87H239.489V83.724C239.489 83.4813 239.433 83.2947 239.321 83.164C239.209 83.0333 239.013 82.968 238.733 82.968H235.681V87H234.505V77.2H238.005C238.509 77.2 238.948 77.2747 239.321 77.424C239.694 77.564 240.002 77.7553 240.245 77.998C240.497 78.2407 240.684 78.5253 240.805 78.852C240.936 79.1693 241.001 79.5053 241.001 79.86V80.28C241.001 80.644 240.898 81.008 240.693 81.372C240.497 81.736 240.189 82.016 239.769 82.212V82.38C240.049 82.4267 240.268 82.5387 240.427 82.716C240.586 82.8933 240.665 83.1453 240.665 83.472V87ZM235.681 81.876H237.865C238.528 81.876 239.018 81.736 239.335 81.456C239.662 81.1667 239.825 80.7467 239.825 80.196V79.944C239.825 79.4493 239.662 79.0527 239.335 78.754C239.018 78.446 238.528 78.292 237.865 78.292H235.681V81.876ZM249.909 86.496H250.077V77.2H251.253V87H248.901L246.073 77.704H245.905V87H244.729V77.2H247.081L249.909 86.496ZM121.1 97.2V103.696C121.1 104.489 121.282 105.091 121.646 105.502C122.019 105.903 122.565 106.104 123.284 106.104C124.003 106.104 124.544 105.903 124.908 105.502C125.281 105.091 125.468 104.489 125.468 103.696V97.2H126.644V103.696C126.644 104.835 126.345 105.703 125.748 106.3C125.151 106.897 124.329 107.196 123.284 107.196C122.239 107.196 121.417 106.897 120.82 106.3C120.223 105.703 119.924 104.835 119.924 103.696V97.2H121.1ZM135.594 106.496H135.762V97.2H136.938V107H134.586L131.758 97.704H131.59V107H130.414V97.2H132.766L135.594 106.496ZM140.961 97.2H147.177V98.292H144.657V105.908H147.177V107H140.961V105.908H143.481V98.292H140.961V97.2ZM150.555 97.2H151.815L154.377 106.496H154.545L157.107 97.2H158.367L155.595 107H153.327L150.555 97.2ZM161.885 97.2H167.821V98.292H163.061V101.54H167.737V102.632H163.061V105.908H167.905V107H161.885V97.2ZM178.311 107H177.135V103.724C177.135 103.481 177.079 103.295 176.967 103.164C176.855 103.033 176.659 102.968 176.379 102.968H173.327V107H172.151V97.2H175.651C176.155 97.2 176.594 97.2747 176.967 97.424C177.341 97.564 177.649 97.7553 177.891 97.998C178.143 98.2407 178.33 98.5253 178.451 98.852C178.582 99.1693 178.647 99.5053 178.647 99.86V100.28C178.647 100.644 178.545 101.008 178.339 101.372C178.143 101.736 177.835 102.016 177.415 102.212V102.38C177.695 102.427 177.915 102.539 178.073 102.716C178.232 102.893 178.311 103.145 178.311 103.472V107ZM173.327 101.876H175.511C176.174 101.876 176.664 101.736 176.981 101.456C177.308 101.167 177.471 100.747 177.471 100.196V99.944C177.471 99.4493 177.308 99.0527 176.981 98.754C176.664 98.446 176.174 98.292 175.511 98.292H173.327V101.876ZM187.948 100.028C187.948 99.7107 187.882 99.4307 187.752 99.188C187.63 98.9453 187.462 98.7447 187.248 98.586C187.033 98.4273 186.786 98.306 186.506 98.222C186.226 98.138 185.932 98.096 185.624 98.096C185.353 98.096 185.096 98.1333 184.854 98.208C184.611 98.2733 184.392 98.3713 184.196 98.502C184.009 98.6327 183.86 98.796 183.748 98.992C183.636 99.1787 183.58 99.398 183.58 99.65V99.734C183.58 100.005 183.636 100.238 183.748 100.434C183.86 100.621 184.023 100.784 184.238 100.924C184.462 101.055 184.737 101.167 185.064 101.26C185.39 101.344 185.773 101.419 186.212 101.484C187.238 101.643 187.994 101.946 188.48 102.394C188.965 102.833 189.208 103.425 189.208 104.172V104.34C189.208 104.76 189.133 105.147 188.984 105.502C188.844 105.847 188.629 106.146 188.34 106.398C188.06 106.65 187.71 106.846 187.29 106.986C186.87 107.126 186.384 107.196 185.834 107.196C185.208 107.196 184.653 107.107 184.168 106.93C183.692 106.743 183.29 106.491 182.964 106.174C182.646 105.847 182.404 105.469 182.236 105.04C182.068 104.601 181.984 104.125 181.984 103.612V103.192H183.16V103.528C183.16 104.387 183.393 105.031 183.86 105.46C184.336 105.889 184.994 106.104 185.834 106.104C186.562 106.104 187.108 105.945 187.472 105.628C187.845 105.301 188.032 104.872 188.032 104.34V104.256C188.032 103.743 187.84 103.351 187.458 103.08C187.084 102.809 186.473 102.613 185.624 102.492C185.129 102.427 184.681 102.329 184.28 102.198C183.888 102.058 183.552 101.881 183.272 101.666C182.992 101.442 182.777 101.176 182.628 100.868C182.478 100.56 182.404 100.196 182.404 99.776V99.608C182.404 99.2253 182.483 98.8753 182.642 98.558C182.8 98.2407 183.02 97.9653 183.3 97.732C183.589 97.4987 183.93 97.3213 184.322 97.2C184.723 97.0693 185.162 97.004 185.638 97.004C186.188 97.004 186.678 97.0833 187.108 97.242C187.546 97.4007 187.915 97.6153 188.214 97.886C188.512 98.1473 188.736 98.46 188.886 98.824C189.044 99.1787 189.124 99.552 189.124 99.944V100.532H187.948V100.028ZM192.922 97.2H199.138V98.292H196.618V105.908H199.138V107H192.922V105.908H195.442V98.292H192.922V97.2ZM202.978 97.2H209.866V98.292H207.01V107H205.834V98.292H202.978V97.2ZM216.226 103.556H215.974L212.908 97.2H214.224L216.73 102.548H216.898L219.404 97.2H220.72L217.654 103.556H217.402V107H216.226V103.556Z" fill="black"/>
        <rect width="71" height="20" transform="translate(193 375)" fill="#F7F7F7"/>
        <path d="M193.798 388.908H194.638V381.292H193.798V380.2H197.76C198.227 380.2 198.637 380.265 198.992 380.396C199.356 380.527 199.659 380.704 199.902 380.928C200.154 381.152 200.341 381.423 200.462 381.74C200.593 382.048 200.658 382.384 200.658 382.748V382.916C200.658 383.187 200.616 383.434 200.532 383.658C200.448 383.882 200.331 384.083 200.182 384.26C200.033 384.437 199.855 384.591 199.65 384.722C199.454 384.843 199.239 384.937 199.006 385.002V385.17C199.473 385.301 199.865 385.553 200.182 385.926C200.499 386.29 200.658 386.738 200.658 387.27V387.438C200.658 387.802 200.593 388.143 200.462 388.46C200.341 388.768 200.154 389.039 199.902 389.272C199.659 389.496 199.356 389.673 198.992 389.804C198.637 389.935 198.227 390 197.76 390H193.798V388.908ZM195.814 388.908H197.676C198.227 388.908 198.675 388.773 199.02 388.502C199.365 388.222 199.538 387.839 199.538 387.354V387.27C199.538 386.766 199.375 386.369 199.048 386.08C198.721 385.781 198.278 385.632 197.718 385.632H195.814V388.908ZM195.814 384.54H197.718C198.278 384.54 198.721 384.395 199.048 384.106C199.375 383.817 199.538 383.42 199.538 382.916V382.832C199.538 382.356 199.365 381.983 199.02 381.712C198.675 381.432 198.227 381.292 197.676 381.292H195.814V384.54ZM209.776 387.564H205.576L204.862 390H203.602L206.57 380.2H208.782L211.75 390H210.49L209.776 387.564ZM207.592 380.704L205.898 386.472H209.454L207.76 380.704H207.592ZM219.987 389.496H220.155V380.2H221.331V390H218.979L216.151 380.704H215.983V390H214.807V380.2H217.159L219.987 389.496ZM227.523 385.296H231.891V390H230.799V388.824H230.631C230.472 389.235 230.192 389.566 229.791 389.818C229.389 390.07 228.923 390.196 228.391 390.196C227.336 390.196 226.505 389.855 225.899 389.174C225.301 388.493 225.003 387.499 225.003 386.192V384.008C225.003 382.739 225.306 381.754 225.913 381.054C226.519 380.354 227.364 380.004 228.447 380.004C229.007 380.004 229.501 380.097 229.931 380.284C230.36 380.461 230.719 380.713 231.009 381.04C231.298 381.357 231.517 381.735 231.667 382.174C231.816 382.603 231.891 383.065 231.891 383.56V383.728H230.715V383.56C230.715 383.243 230.668 382.935 230.575 382.636C230.491 382.337 230.355 382.076 230.169 381.852C229.991 381.619 229.758 381.437 229.469 381.306C229.189 381.166 228.848 381.096 228.447 381.096C227.691 381.096 227.121 381.371 226.739 381.922C226.365 382.473 226.179 383.196 226.179 384.092V386.108C226.179 387.069 226.365 387.811 226.739 388.334C227.121 388.847 227.7 389.104 228.475 389.104C229.175 389.104 229.721 388.88 230.113 388.432C230.514 387.984 230.715 387.359 230.715 386.556V386.388H227.523V385.296ZM241.919 390H240.743V386.724C240.743 386.481 240.687 386.295 240.575 386.164C240.463 386.033 240.267 385.968 239.987 385.968H236.935V390H235.759V380.2H239.259C239.763 380.2 240.202 380.275 240.575 380.424C240.948 380.564 241.256 380.755 241.499 380.998C241.751 381.241 241.938 381.525 242.059 381.852C242.19 382.169 242.255 382.505 242.255 382.86V383.28C242.255 383.644 242.152 384.008 241.947 384.372C241.751 384.736 241.443 385.016 241.023 385.212V385.38C241.303 385.427 241.522 385.539 241.681 385.716C241.84 385.893 241.919 386.145 241.919 386.472V390ZM236.935 384.876H239.119C239.782 384.876 240.272 384.736 240.589 384.456C240.916 384.167 241.079 383.747 241.079 383.196V382.944C241.079 382.449 240.916 382.053 240.589 381.754C240.272 381.446 239.782 381.292 239.119 381.292H236.935V384.876ZM251.345 387.564H247.145L246.431 390H245.171L248.139 380.2H250.351L253.319 390H252.059L251.345 387.564ZM249.161 380.704L247.467 386.472H251.023L249.329 380.704H249.161ZM257.776 390H256.6V380.2H257.776V384.54H258.098L261.864 380.2H263.32V380.284L259.26 385.016V385.184L263.488 389.916V390H262.004L258.098 385.632H257.776V390Z" fill="black"/>
        <rect width="135" height="24" transform="translate(763 26)" fill="#F7F7F7"/>
        <path d="M771.25 30.5L772.758 44.1725C772.848 44.9225 773.477 45.5 774.25 45.5H781.75C782.523 45.5 783.153 44.9225 783.243 44.1725L784.75 30.5H771.25ZM778 43.25C776.755 43.25 775.75 42.245 775.75 41C775.75 39.5 778 36.95 778 36.95C778 36.95 780.25 39.5 780.25 41C780.25 42.245 779.245 43.25 778 43.25ZM782.747 35H773.253L772.923 32H783.07L782.747 35Z" fill="black"/>
        <path d="M801.202 42.496H801.37V33.2H802.546V43H800.194L797.366 33.704H797.198V43H796.022V33.2H798.374L801.202 42.496ZM811.776 40.564H807.576L806.862 43H805.602L808.57 33.2H810.782L813.75 43H812.49L811.776 40.564ZM809.592 33.704L807.898 39.472H811.454L809.76 33.704H809.592ZM821.987 42.496H822.155V33.2H823.331V43H820.979L818.151 33.704H817.983V43H816.807V33.2H819.159L821.987 42.496ZM832.561 40.564H828.361L827.647 43H826.387L829.355 33.2H831.567L834.535 43H833.275L832.561 40.564ZM830.377 33.704L828.683 39.472H832.239L830.545 33.704H830.377ZM849.327 38.968V43H848.151V33.2H851.651C852.155 33.2 852.594 33.2747 852.967 33.424C853.341 33.564 853.649 33.7553 853.891 33.998C854.143 34.2407 854.33 34.5253 854.451 34.852C854.582 35.1693 854.647 35.5053 854.647 35.86V36.28C854.647 36.6347 854.582 36.9753 854.451 37.302C854.33 37.6287 854.143 37.918 853.891 38.17C853.639 38.4127 853.327 38.6087 852.953 38.758C852.58 38.898 852.146 38.968 851.651 38.968H849.327ZM849.327 37.876H851.511C852.818 37.876 853.471 37.316 853.471 36.196V35.944C853.471 35.4493 853.308 35.0527 852.981 34.754C852.664 34.446 852.174 34.292 851.511 34.292H849.327V37.876ZM858.572 33.2H859.748V41.908H864.872V43H858.572V33.2ZM874.13 40.564H869.93L869.216 43H867.956L870.924 33.2H873.136L876.104 43H874.844L874.13 40.564ZM871.946 33.704L870.252 39.472H873.808L872.114 33.704H871.946ZM879.216 33.2H885.768V34.964L879.888 41.74V41.908H885.936V43H878.88V41.236L884.76 34.46V34.292H879.216V33.2ZM894.914 40.564H890.714L890 43H888.74L891.708 33.2H893.92L896.888 43H895.628L894.914 40.564ZM892.73 33.704L891.036 39.472H894.592L892.898 33.704H892.73Z" fill="black"/>
        <rect width="178" height="40" transform="translate(127 305)" fill="#F7F7F7"/>
        <path d="M151.333 322.5H147.342L143.692 317.034C143.533 316.8 143.267 316.684 143 316.684C142.733 316.684 142.467 316.8 142.308 317.042L138.658 322.5H134.667C134.208 322.5 133.833 322.875 133.833 323.334C133.833 323.409 133.842 323.484 133.867 323.559L135.983 331.284C136.175 331.984 136.817 332.5 137.583 332.5H148.417C149.183 332.5 149.825 331.984 150.025 331.284L152.142 323.559L152.167 323.334C152.167 322.875 151.792 322.5 151.333 322.5ZM143 319L145.333 322.5H140.667L143 319ZM148.417 330.834L137.592 330.842L135.758 324.167H150.25L148.417 330.834ZM143 325.834C142.083 325.834 141.333 326.584 141.333 327.5C141.333 328.417 142.083 329.167 143 329.167C143.917 329.167 144.667 328.417 144.667 327.5C144.667 326.584 143.917 325.834 143 325.834Z" fill="black"/>
        <path d="M163.366 315.968V320H162.19V310.2H165.69C166.194 310.2 166.633 310.275 167.006 310.424C167.379 310.564 167.687 310.755 167.93 310.998C168.182 311.241 168.369 311.525 168.49 311.852C168.621 312.169 168.686 312.505 168.686 312.86V313.28C168.686 313.635 168.621 313.975 168.49 314.302C168.369 314.629 168.182 314.918 167.93 315.17C167.678 315.413 167.365 315.609 166.992 315.758C166.619 315.898 166.185 315.968 165.69 315.968H163.366ZM163.366 314.876H165.55C166.857 314.876 167.51 314.316 167.51 313.196V312.944C167.51 312.449 167.347 312.053 167.02 311.754C166.703 311.446 166.213 311.292 165.55 311.292H163.366V314.876ZM177.776 317.564H173.576L172.862 320H171.602L174.57 310.2H176.782L179.75 320H178.49L177.776 317.564ZM175.592 310.704L173.898 316.472H177.454L175.76 310.704H175.592ZM182.625 310.2H189.513V311.292H186.657V320H185.481V311.292H182.625V310.2ZM194.543 315.968V320H193.367V310.2H196.867C197.371 310.2 197.809 310.275 198.183 310.424C198.556 310.564 198.864 310.755 199.107 310.998C199.359 311.241 199.545 311.525 199.667 311.852C199.797 312.169 199.863 312.505 199.863 312.86V313.28C199.863 313.635 199.797 313.975 199.667 314.302C199.545 314.629 199.359 314.918 199.107 315.17C198.855 315.413 198.542 315.609 198.169 315.758C197.795 315.898 197.361 315.968 196.867 315.968H194.543ZM194.543 314.876H196.727C198.033 314.876 198.687 314.316 198.687 313.196V312.944C198.687 312.449 198.523 312.053 198.197 311.754C197.879 311.446 197.389 311.292 196.727 311.292H194.543V314.876ZM203.409 314.008C203.409 312.739 203.712 311.754 204.319 311.054C204.926 310.354 205.77 310.004 206.853 310.004C207.936 310.004 208.78 310.354 209.387 311.054C209.994 311.754 210.297 312.739 210.297 314.008V316.192C210.297 317.499 209.994 318.493 209.387 319.174C208.78 319.855 207.936 320.196 206.853 320.196C205.77 320.196 204.926 319.855 204.319 319.174C203.712 318.493 203.409 317.499 203.409 316.192V314.008ZM206.853 319.104C207.609 319.104 208.174 318.847 208.547 318.334C208.93 317.811 209.121 317.069 209.121 316.108V314.092C209.121 313.196 208.93 312.473 208.547 311.922C208.174 311.371 207.609 311.096 206.853 311.096C206.097 311.096 205.528 311.371 205.145 311.922C204.772 312.473 204.585 313.196 204.585 314.092V316.108C204.585 317.069 204.772 317.811 205.145 318.334C205.528 318.847 206.097 319.104 206.853 319.104ZM219.163 319.496H219.331V310.2H220.507V320H218.155L215.327 310.704H215.159V320H213.983V310.2H216.335L219.163 319.496ZM226.7 315.296H231.068V320H229.976V318.824H229.808C229.649 319.235 229.369 319.566 228.968 319.818C228.566 320.07 228.1 320.196 227.568 320.196C226.513 320.196 225.682 319.855 225.076 319.174C224.478 318.493 224.18 317.499 224.18 316.192V314.008C224.18 312.739 224.483 311.754 225.09 311.054C225.696 310.354 226.541 310.004 227.624 310.004C228.184 310.004 228.678 310.097 229.108 310.284C229.537 310.461 229.896 310.713 230.186 311.04C230.475 311.357 230.694 311.735 230.844 312.174C230.993 312.603 231.068 313.065 231.068 313.56V313.728H229.892V313.56C229.892 313.243 229.845 312.935 229.752 312.636C229.668 312.337 229.532 312.076 229.346 311.852C229.168 311.619 228.935 311.437 228.646 311.306C228.366 311.166 228.025 311.096 227.624 311.096C226.868 311.096 226.298 311.371 225.916 311.922C225.542 312.473 225.356 313.196 225.356 314.092V316.108C225.356 317.069 225.542 317.811 225.916 318.334C226.298 318.847 226.877 319.104 227.652 319.104C228.352 319.104 228.898 318.88 229.29 318.432C229.691 317.984 229.892 317.359 229.892 316.556V316.388H226.7V315.296ZM250.34 319.496H250.508V310.2H251.684V320H249.332L246.504 310.704H246.336V320H245.16V310.2H247.512L250.34 319.496ZM255.706 310.2H261.922V311.292H259.402V318.908H261.922V320H255.706V318.908H258.226V311.292H255.706V310.2ZM268.269 315.296H272.637V320H271.545V318.824H271.377C271.218 319.235 270.938 319.566 270.537 319.818C270.135 320.07 269.669 320.196 269.137 320.196C268.082 320.196 267.251 319.855 266.645 319.174C266.047 318.493 265.749 317.499 265.749 316.192V314.008C265.749 312.739 266.052 311.754 266.659 311.054C267.265 310.354 268.11 310.004 269.193 310.004C269.753 310.004 270.247 310.097 270.677 310.284C271.106 310.461 271.465 310.713 271.755 311.04C272.044 311.357 272.263 311.735 272.413 312.174C272.562 312.603 272.637 313.065 272.637 313.56V313.728H271.461V313.56C271.461 313.243 271.414 312.935 271.321 312.636C271.237 312.337 271.101 312.076 270.915 311.852C270.737 311.619 270.504 311.437 270.215 311.306C269.935 311.166 269.594 311.096 269.193 311.096C268.437 311.096 267.867 311.371 267.485 311.922C267.111 312.473 266.925 313.196 266.925 314.092V316.108C266.925 317.069 267.111 317.811 267.485 318.334C267.867 318.847 268.446 319.104 269.221 319.104C269.921 319.104 270.467 318.88 270.859 318.432C271.26 317.984 271.461 317.359 271.461 316.556V316.388H268.269V315.296ZM276.337 310.2H277.513V314.54H281.685V310.2H282.861V320H281.685V315.632H277.513V320H276.337V310.2ZM286.547 310.2H293.435V311.292H290.579V320H289.403V311.292H286.547V310.2ZM161.644 330.2H163.884L165.2 339.496H165.368L166.684 330.2H168.924V340H167.832V330.704H167.664L166.348 340H164.22L162.904 330.704H162.736V340H161.644V330.2ZM177.776 337.564H173.576L172.862 340H171.602L174.57 330.2H176.782L179.75 340H178.49L177.776 337.564ZM175.592 330.704L173.898 336.472H177.454L175.76 330.704H175.592ZM189.135 340H187.959V336.724C187.959 336.481 187.903 336.295 187.791 336.164C187.679 336.033 187.483 335.968 187.203 335.968H184.151V340H182.975V330.2H186.475C186.979 330.2 187.417 330.275 187.791 330.424C188.164 330.564 188.472 330.755 188.715 330.998C188.967 331.241 189.153 331.525 189.275 331.852C189.405 332.169 189.471 332.505 189.471 332.86V333.28C189.471 333.644 189.368 334.008 189.163 334.372C188.967 334.736 188.659 335.016 188.239 335.212V335.38C188.519 335.427 188.738 335.539 188.897 335.716C189.055 335.893 189.135 336.145 189.135 336.472V340ZM184.151 334.876H186.335C186.997 334.876 187.487 334.736 187.805 334.456C188.131 334.167 188.295 333.747 188.295 333.196V332.944C188.295 332.449 188.131 332.053 187.805 331.754C187.487 331.446 186.997 331.292 186.335 331.292H184.151V334.876ZM194.599 340H193.423V330.2H194.599V334.54H194.921L198.687 330.2H200.143V330.284L196.083 335.016V335.184L200.311 339.916V340H198.827L194.921 335.632H194.599V340ZM203.885 330.2H209.821V331.292H205.061V334.54H209.737V335.632H205.061V338.908H209.905V340H203.885V330.2ZM213.801 330.2H220.689V331.292H217.833V340H216.657V331.292H213.801V330.2Z" fill="black"/>
    </g>
    <rect x="0.5" y="0.5" width="1071" height="407" rx="203.5" stroke="black"/>
    <defs>
        <clipPath id="clip0_2157_3641">
            <rect width="1072" height="408" rx="204" fill="white"/>
        </clipPath>
    </defs>
</svg>
    