<svg width="142" height="28" viewBox="0 0 142 28" fill="none" xmlns="http://www.w3.org/2000/svg">
<g clip-path="url(#clip0_1261_2074)">
<path d="M8.57623 11.7658L14.1006 6.32842L19.6279 11.7687L22.8424 8.60472L14.1006 0L5.36176 8.60184L8.57623 11.7658Z" fill="black"/>
<path d="M6.30616 13.9999L3.09174 10.8359L-0.122844 14L3.09158 17.164L6.30616 13.9999Z" fill="black"/>
<path d="M8.57619 16.2341L14.1006 21.6715L19.6277 16.2314L22.844 19.3937L22.8424 19.3954L14.1006 27.9999L5.36149 19.3983L5.35699 19.3939L8.57619 16.2341Z" fill="black"/>
<path d="M25.1098 17.1651L28.3243 14.001L25.1099 10.837L21.8953 14.0011L25.1098 17.1651Z" fill="black"/>
<path d="M17.3612 13.9987H17.3625L14.1006 10.7881L11.69 13.1608H11.6898L11.413 13.4335L10.8417 13.9959L10.8372 14.0003L10.8417 14.0049L14.1006 17.2127L17.3625 14.0021L17.3641 14.0003L17.3612 13.9987Z" fill="black"/>
<path d="M33.3356 6.78418H40.3269C42.0621 6.78418 43.3742 7.2225 44.2635 8.09914C44.9517 8.77807 45.2957 9.61954 45.2957 10.6233V10.6658C45.2957 11.09 45.2424 11.4648 45.1352 11.7899C45.0283 12.1154 44.8854 12.4085 44.7068 12.6701C44.5286 12.9319 44.3215 13.1617 44.086 13.3594C43.8503 13.5576 43.5971 13.7274 43.3259 13.8685C44.1981 14.194 44.8847 14.6357 45.3853 15.1943C45.8857 15.7531 46.1362 16.5274 46.1362 17.517V17.5593C46.1362 18.2382 46.0036 18.832 45.7383 19.3413C45.4729 19.8502 45.0928 20.2745 44.5978 20.614C44.1028 20.9535 43.5077 21.2078 42.8121 21.3776C42.1165 21.5473 41.3456 21.632 40.4997 21.632H33.3356V6.78418ZM39.6279 12.7868C40.3608 12.7868 40.9427 12.6634 41.3734 12.4158C41.8044 12.1683 42.0198 11.7687 42.0198 11.2173V11.1749C42.0198 10.6802 41.8329 10.302 41.4595 10.0402C41.0859 9.77855 40.5471 9.64763 39.8434 9.64763H36.5678V12.7868H39.6279ZM40.5116 18.7687C41.2443 18.7687 41.8185 18.6383 42.2355 18.3764C42.6521 18.1148 42.8606 17.7081 42.8606 17.1565V17.1143C42.8606 16.6194 42.6665 16.2271 42.2787 15.9369C41.8907 15.6474 41.2658 15.5023 40.4037 15.5023H36.5678V18.769L40.5116 18.7687Z" fill="black"/>
<path d="M50.2999 6.78418H53.6189V21.6324H50.2999V6.78418Z" fill="black"/>
<path d="M58.6456 6.78418H61.7053L68.7739 15.9265V6.78418H72.0495V21.6324H69.2266L61.921 12.1933V21.6324H58.6456V6.78418Z" fill="black"/>
<path d="M82.0972 6.67871H85.1571L91.6224 21.6329H88.1527L86.7734 18.3028H80.3946L79.0155 21.6329H75.6316L82.0972 6.67871ZM85.5882 15.4177L83.5839 10.6028L81.5802 15.4177H85.5882Z" fill="black"/>
<path d="M95.2048 6.78418H98.2652L105.333 15.9265V6.78418H108.609V21.6324H105.786L98.4804 12.1933V21.6324H95.2048V6.78418Z" fill="black"/>
<path d="M120.553 21.8874C119.446 21.8874 118.419 21.6892 117.471 21.2936C116.523 20.8979 115.704 20.3568 115.014 19.6708C114.325 18.985 113.786 18.1754 113.398 17.2421C113.01 16.3086 112.816 15.3117 112.816 14.2511V14.2088C112.816 13.1482 113.01 12.155 113.398 11.2286C113.786 10.3024 114.325 9.48926 115.014 8.78932C115.704 8.08938 116.53 7.53761 117.492 7.13468C118.455 6.73174 119.518 6.53027 120.682 6.53027C121.386 6.53027 122.028 6.58711 122.61 6.6999C123.192 6.81335 123.72 6.96859 124.194 7.16652C124.669 7.36467 125.106 7.60506 125.509 7.88769C125.911 8.17076 126.285 8.4817 126.63 8.82116L124.518 11.218C123.928 10.695 123.329 10.2845 122.718 9.98773C122.107 9.69095 121.422 9.54233 120.66 9.54233C120.028 9.54233 119.443 9.66264 118.904 9.90303C118.365 10.1434 117.902 10.4756 117.514 10.8998C117.126 11.3239 116.825 11.8155 116.609 12.3739C116.394 12.9328 116.286 13.5301 116.286 14.1664V14.2086C116.286 14.8448 116.394 15.4462 116.609 16.0114C116.825 16.5773 117.122 17.072 117.503 17.4962C117.884 17.9204 118.344 18.2565 118.882 18.504C119.421 18.7517 120.014 18.8751 120.66 18.8751C121.523 18.8751 122.251 18.7196 122.847 18.4085C123.444 18.0977 124.037 17.6734 124.625 17.1357L126.737 19.2358C126.349 19.646 125.946 20.0138 125.531 20.3386C125.114 20.6642 124.658 20.9433 124.162 21.1768C123.666 21.4099 123.124 21.587 122.535 21.7069C121.946 21.827 121.285 21.8874 120.553 21.8874Z" fill="black"/>
<path d="M130.643 6.78418H142V9.69031H133.919V12.7024H141.031V15.6083H133.919V18.7265H142.108V21.6324H130.643V6.78418Z" fill="black"/>
</g>
<defs>
<clipPath id="clip0_1261_2074">
<rect width="142" height="28" fill="white"/>
</clipPath>
</defs>
</svg>
