<svg width="94" height="22" viewBox="0 0 94 22" fill="none" xmlns="http://www.w3.org/2000/svg">
<g clip-path="url(#clip0_1261_2065)">
<path d="M60.8907 7.8452C59.3087 6.42664 57.3985 5.7332 55.1904 5.7332C53.0125 5.7332 51.1023 6.42752 49.5194 7.8452C47.9373 9.23296 47.133 11.1646 47.133 13.6391C47.133 16.1137 47.9373 18.0435 49.5194 19.4621C51.1014 20.8498 53.0125 21.5442 55.1904 21.5442C57.3985 21.5442 59.3087 20.8498 60.8907 19.4621C62.5029 18.0435 63.3072 16.1128 63.3072 13.6391C63.3072 11.1654 62.502 9.23296 60.8907 7.8452ZM52.2072 16.8062C51.3728 15.9922 50.9524 14.9354 50.9524 13.6382C50.9524 12.3411 51.3692 11.2851 52.2072 10.5002C52.5958 10.1087 53.0606 9.79992 53.5733 9.5925C54.086 9.38508 54.6359 9.28341 55.1895 9.29368C55.7478 9.2833 56.3024 9.3848 56.8201 9.59211C57.3379 9.79941 57.8082 10.1083 58.2029 10.5002C59.0666 11.2851 59.4869 12.3402 59.4869 13.6382C59.4869 14.9362 59.0701 15.9914 58.2029 16.8062C57.3684 17.5903 56.353 17.9828 55.1895 17.9828C54.6388 17.9915 54.0918 17.892 53.58 17.6901C53.0681 17.4882 52.6016 17.1878 52.2072 16.8062ZM68.9508 21.1209V0.41624H65.1908V21.1209H68.9508ZM81.0865 6.1556V14.417C81.0865 16.4076 80.0224 17.7276 77.9969 17.7276C75.9369 17.7276 74.9012 16.4094 74.9012 14.417V6.1556H71.1341V15.0506C71.1341 18.4967 73.2828 21.5433 77.9969 21.5433H78.0262C82.7111 21.5433 84.8563 18.429 84.8563 15.0506V6.1556H81.0865ZM43.1318 6.1556L39.3718 16.2932L35.6118 6.1556H31.6133L37.6133 21.1218H41.1356L47.1348 6.1556H43.1318ZM31.631 13.2158C31.631 11.044 30.9455 9.26376 29.602 7.8452C28.2585 6.42664 26.5302 5.7332 24.4107 5.7332C22.2328 5.7332 20.3812 6.48824 18.8594 7.96576C17.3661 9.44504 16.622 11.315 16.622 13.6382C16.622 15.9614 17.3678 17.8631 18.8302 19.3406C20.3235 20.8199 22.1139 21.5433 24.2325 21.5433C27.487 21.5433 29.7838 20.0948 31.1841 17.1679L28.38 15.5382C27.4569 17.3782 26.1116 18.2838 24.2919 18.2838C22.0545 18.2838 20.4725 16.8353 20.2331 14.5429H31.6301V13.215L31.631 13.2158ZM24.2892 8.62928C26.4078 8.62928 27.8116 9.83576 28.169 11.7674H20.2313C20.7997 9.98712 22.3498 8.62928 24.2901 8.62928H24.2892ZM16.6212 21.1209L11.5762 12.1906C14.7678 11.0141 16.3498 8.9628 16.3498 5.9752C16.3533 2.32408 13.4863 0 8.92113 0H0V21.1209H3.93913V12.5523H7.28234L12.1154 21.1218L16.6212 21.1209ZM8.92113 3.49976C11.249 3.49976 12.4133 4.4352 12.4133 6.27528C12.4133 8.11536 11.2481 9.0508 8.92113 9.0508H3.93913V3.49976H8.92113ZM91.2306 21.5433C88.8105 21.5433 86.848 19.558 86.848 17.1081V2.112H90.608V6.16088H93.8324V9.23824H90.608V16.8634C90.608 17.5815 91.1835 18.1632 91.8948 18.1632H93.8324V21.5433H91.2306Z" fill="black"/>
</g>
<defs>
<clipPath id="clip0_1261_2065">
<rect width="94" height="22" fill="white"/>
</clipPath>
</defs>
</svg>
