<svg width="33" height="80" viewBox="0 0 33 80" fill="none" xmlns="http://www.w3.org/2000/svg">
<g clip-path="url(#clip0_4121_9100)">
<path d="M26.0091 23.5C26.2428 23.5306 26.4772 23.5559 26.71 23.5923C28.0793 23.8074 29.2946 24.367 30.3478 25.264C31.7251 26.437 32.5991 27.9162 32.8902 29.7036C33.2655 32.0074 32.6813 34.0538 31.0932 35.7804C29.8609 37.1203 28.3092 37.8945 26.538 38.254C25.802 38.4035 25.0565 38.4281 24.3089 38.4358C23.5217 38.4437 22.7343 38.4447 21.9478 38.4751C21.2767 38.5011 20.6105 38.5884 19.9847 38.856C19.5393 39.0465 19.138 39.3154 18.7559 39.6088C18.4986 39.8065 18.5119 40.208 18.769 40.4074C19.5672 41.0265 20.4514 41.4357 21.4756 41.4861C22.073 41.5155 22.6706 41.5384 23.2685 41.5555C24.011 41.5768 24.7572 41.5486 25.4957 41.6127C27.6638 41.801 29.5589 42.6143 31.0749 44.2071C32.1578 45.3446 32.7981 46.7045 32.9539 48.2727C33.1757 50.504 32.5164 52.4551 31.0052 54.1045C29.8249 55.393 28.3545 56.1764 26.6232 56.419C24.4377 56.7252 22.4883 56.1646 20.8305 54.6938C19.4621 53.4796 18.6568 51.9345 18.2734 50.1582C18.1193 49.4441 18.0758 48.72 18.0698 47.9916C18.0626 47.132 18.059 46.2722 18.0252 45.4136C17.9984 44.7344 17.9229 44.052 17.6179 43.4338C17.4167 43.0261 17.1599 42.6427 16.9006 42.2673C16.7106 41.992 16.304 41.9994 16.0987 42.2659C15.5313 43.0032 15.1109 43.808 15.0424 44.7556C14.9971 45.3839 14.966 46.0137 14.9457 46.6433C14.9204 47.43 14.9551 48.2209 14.8893 49.0035C14.7067 51.1736 13.894 53.0726 12.2924 54.5795C10.8244 55.9609 9.06019 56.5974 7.04643 56.4831C3.65075 56.29 0.819179 53.8572 0.158855 50.53C-0.31022 48.1664 0.256288 46.0504 1.88033 44.2526C2.89493 43.1293 4.16421 42.397 5.60833 41.9616C6.48329 41.6978 7.379 41.5772 8.29207 41.5734C9.05127 41.57 9.81048 41.571 10.5694 41.5526C11.2966 41.535 12.0203 41.4743 12.7219 41.2582C13.1651 41.1218 13.5496 40.8749 13.9313 40.6222C14.0252 40.5602 14.1178 40.4963 14.2077 40.4291C14.5085 40.2046 14.508 39.8067 14.2145 39.576C13.3615 38.9052 12.3975 38.5329 11.3106 38.4936C10.7289 38.4727 10.1467 38.4577 9.56472 38.4435C8.90247 38.4273 8.23853 38.4363 7.57772 38.3958C6.3697 38.322 5.22318 37.9998 4.14419 37.4503C3.00177 36.8685 2.03757 36.0729 1.29428 35.0218C0.584761 34.0179 0.158373 32.9039 0.0469525 31.6778C-0.15346 29.4731 0.496976 27.5423 1.98548 25.9119C3.18988 24.593 4.69454 23.8134 6.46907 23.5682C6.65863 23.542 6.84915 23.5227 7.03919 23.5C7.31244 23.5 7.58544 23.5 7.85869 23.5C7.89727 23.5072 7.93586 23.5159 7.97493 23.5215C8.30051 23.567 8.63019 23.5921 8.95095 23.6606C10.4293 23.9762 11.6762 24.7053 12.6941 25.8183C14.0338 27.2833 14.7323 29.0302 14.8905 30.9938C14.9474 31.701 14.9192 32.4147 14.9397 33.1253C14.9582 33.7671 14.9819 34.4092 15.0183 35.0503C15.0759 36.0637 15.4772 36.9435 16.0958 37.7329C16.3025 37.9967 16.7108 38.0126 16.8987 37.738C17.1674 37.3452 17.4343 36.9442 17.6396 36.517C17.9393 35.8925 18.0006 35.2044 18.0264 34.5211C18.0527 33.8269 18.0505 33.1318 18.0561 32.4369C18.0626 31.6212 18.0843 30.8072 18.2476 30.0036C18.6129 28.2041 19.4045 26.6342 20.7613 25.3766C21.8398 24.3767 23.1108 23.77 24.5706 23.5682C24.7526 23.5432 24.9352 23.5227 25.1178 23.5C25.4151 23.5 25.7123 23.5 26.0096 23.5L26.0091 23.5Z" fill="black"/>
</g>
<defs>
<clipPath id="clip0_4121_9100">
<rect width="33" height="33" fill="white" transform="translate(0 23.5)"/>
</clipPath>
</defs>
</svg>
