<svg width="40" height="40" viewBox="0 0 40 40" fill="none" xmlns="http://www.w3.org/2000/svg">
<g clip-path="url(#clip0_4121_9141)">
<mask id="mask0_4121_9141" style="mask-type:luminance" maskUnits="userSpaceOnUse" x="0" y="0" width="40" height="40">
<path d="M40 0H0V40H40V0Z" fill="white"/>
</mask>
<g mask="url(#mask0_4121_9141)">
<path d="M19.1328 34.5916C10.2128 34.5916 3.17279 27.9116 3.17279 19.4716C3.17279 10.9116 10.2928 4.35156 19.1328 4.35156C27.2128 4.35156 31.9328 7.23156 34.7328 11.6716C36.1328 13.8716 36.8128 16.4716 36.8128 19.4716C36.8128 25.5116 33.8128 30.0316 28.8528 32.6316C26.4128 33.9116 23.1728 34.5916 19.1328 34.5916ZM18.1728 32.7516C25.4128 32.7516 31.4128 26.8716 31.4128 19.5116C31.4128 12.2316 25.4528 6.27156 18.1728 6.27156C10.7728 6.27156 5.05279 12.4316 5.05279 19.5116C5.05279 24.2316 7.57279 28.6716 11.6128 30.9916C13.6528 32.1516 15.8128 32.7516 18.1728 32.7516Z" fill="white"/>
<mask id="mask1_4121_9141" style="mask-type:luminance" maskUnits="userSpaceOnUse" x="1" y="3" width="38" height="33">
<path d="M38.0469 3.125H1.95312V35.7812H38.0469V3.125Z" fill="white"/>
<path d="M19.1328 34.5916C10.2128 34.5916 3.17279 27.9116 3.17279 19.4716C3.17279 10.9116 10.2928 4.35156 19.1328 4.35156C27.2128 4.35156 31.9328 7.23156 34.7328 11.6716C36.1328 13.8716 36.8128 16.4716 36.8128 19.4716C36.8128 25.5116 33.8128 30.0316 28.8528 32.6316C26.4128 33.9116 23.1728 34.5916 19.1328 34.5916ZM18.1728 32.7516C25.4128 32.7516 31.4128 26.8716 31.4128 19.5116C31.4128 12.2316 25.4528 6.27156 18.1728 6.27156C10.7728 6.27156 5.05279 12.4316 5.05279 19.5116C5.05279 24.2316 7.57279 28.6716 11.6128 30.9916C13.6528 32.1516 15.8128 32.7516 18.1728 32.7516Z" fill="black"/>
</mask>
<g mask="url(#mask1_4121_9141)">
<path d="M34.7328 11.6716L33.7415 12.2966L33.7429 12.2987L33.7441 12.3007L34.7328 11.6716ZM28.8528 32.6316L28.3087 31.5937L28.3084 31.5938L28.8528 32.6316ZM11.6128 30.9916L11.0292 32.0078L11.0314 32.0091L11.0335 32.0102L11.6128 30.9916ZM19.1328 33.4197C10.8001 33.4197 4.34467 27.206 4.34467 19.4716H2.00092C2.00092 28.6171 9.62552 35.7634 19.1328 35.7634V33.4197ZM4.34467 19.4716C4.34467 11.6268 10.8698 5.52344 19.1328 5.52344V3.17969C9.71576 3.17969 2.00092 10.1963 2.00092 19.4716H4.34467ZM19.1328 5.52344C26.8822 5.52344 31.1919 8.25359 33.7415 12.2966L35.724 11.0465C32.6737 6.20955 27.5434 3.17969 19.1328 3.17969V5.52344ZM33.7441 12.3007C35.0044 14.2812 35.6409 16.6538 35.6409 19.4716H37.9847C37.9847 16.2893 37.2612 13.462 35.7215 11.0424L33.7441 12.3007ZM35.6409 19.4716C35.6409 25.0559 32.9006 29.1866 28.3087 31.5937L29.3969 33.6695C34.725 30.8765 37.9847 25.9672 37.9847 19.4716H35.6409ZM28.3084 31.5938C26.0894 32.7579 23.0539 33.4197 19.1328 33.4197V35.7634C23.2917 35.7634 26.7361 35.0652 29.3972 33.6693L28.3084 31.5938ZM18.1728 33.9234C26.0531 33.9234 32.5847 27.5257 32.5847 19.5116H30.2409C30.2409 26.2174 24.7725 31.5797 18.1728 31.5797V33.9234ZM32.5847 19.5116C32.5847 11.5844 26.1 5.09969 18.1728 5.09969V7.44344C24.8056 7.44344 30.2409 12.8788 30.2409 19.5116H32.5847ZM18.1728 5.09969C10.0935 5.09969 3.88092 11.817 3.88092 19.5116H6.22467C6.22467 13.0462 11.4521 7.44344 18.1728 7.44344V5.09969ZM3.88092 19.5116C3.88092 24.6395 6.6153 29.473 11.0292 32.0078L12.1964 29.9753C8.53029 27.8701 6.22467 23.8236 6.22467 19.5116H3.88092ZM11.0335 32.0102C13.2419 33.2659 15.6004 33.9234 18.1728 33.9234V31.5797C16.0251 31.5797 14.0637 31.0372 12.1921 29.9729L11.0335 32.0102Z" fill="black"/>
</g>
</g>
</g>
<defs>
<clipPath id="clip0_4121_9141">
<rect width="40" height="40" fill="white"/>
</clipPath>
</defs>
</svg>
