<svg width="48" height="48" viewBox="0 0 48 48" fill="none" xmlns="http://www.w3.org/2000/svg">
<path d="M35.5263 4C35.8096 4.03712 36.0937 4.0678 36.3758 4.11194C38.0357 4.37263 39.5087 5.05097 40.7853 6.13817C42.4547 7.56002 43.5141 9.35303 43.867 11.5196C44.3218 14.3121 43.6138 16.7925 41.6888 18.8854C40.1951 20.5095 38.3142 21.4479 36.1674 21.8837C35.2752 22.0649 34.3716 22.0947 33.4654 22.104C32.5113 22.1137 31.5568 22.1149 30.6036 22.1517C29.79 22.1832 28.9826 22.289 28.224 22.6134C27.6841 22.8443 27.1977 23.1702 26.7346 23.5259C26.4227 23.7655 26.4388 24.2521 26.7504 24.4938C27.718 25.2444 28.7897 25.7403 30.0312 25.8014C30.7553 25.8371 31.4797 25.8648 32.2043 25.8856C33.1044 25.9113 34.0089 25.8771 34.904 25.9549C37.532 26.1831 39.8291 27.1689 41.6666 29.0996C42.9792 30.4785 43.7553 32.1268 43.9441 34.0277C44.2131 36.7322 43.4139 39.0972 41.5821 41.0965C40.1515 42.6584 38.3692 43.6079 36.2706 43.9019C33.6215 44.2731 31.2587 43.5936 29.2492 41.8108C27.5906 40.339 26.6145 38.4662 26.1497 36.3131C25.9629 35.4475 25.9103 34.5698 25.903 33.6869C25.8942 32.645 25.8898 31.6028 25.8489 30.562C25.8165 29.7387 25.725 28.9116 25.3552 28.1623C25.1114 27.6681 24.8 27.2034 24.4858 26.7483C24.2554 26.4146 23.7626 26.4236 23.5138 26.7466C22.826 27.6403 22.3164 28.6159 22.2334 29.7645C22.1785 30.5261 22.1407 31.2895 22.1162 32.0526C22.0855 33.0062 22.1276 33.9648 22.0478 34.9135C21.8265 37.5438 20.8414 39.8457 18.9 41.6723C17.1206 43.3467 14.9823 44.1182 12.5414 43.9797C8.42543 43.7456 4.99323 40.7967 4.19285 36.7638C3.62427 33.8988 4.31095 31.3339 6.27947 29.1548C7.50928 27.7932 9.04779 26.9056 10.7982 26.3778C11.8588 26.058 12.9445 25.9119 14.0512 25.9072C14.9715 25.9031 15.8917 25.9043 16.8117 25.8821C17.693 25.8607 18.5703 25.7871 19.4207 25.5252C19.958 25.3598 20.4239 25.0605 20.8867 24.7542C21.0004 24.6791 21.1126 24.6017 21.2217 24.5201C21.5862 24.2481 21.5856 23.7658 21.2299 23.4861C20.1959 22.6731 19.0275 22.2218 17.71 22.1742C17.0049 22.1488 16.2992 22.1306 15.5938 22.1134C14.7911 22.0938 13.9863 22.1046 13.1854 22.0555C11.7211 21.9661 10.3314 21.5756 9.02352 20.9096C7.63878 20.2043 6.47006 19.2399 5.56911 17.9659C4.70909 16.749 4.19226 15.3987 4.05721 13.9126C3.81429 11.2402 4.60269 8.89974 6.40692 6.92348C7.86679 5.32481 9.69061 4.37994 11.8415 4.08271C12.0713 4.05085 12.3022 4.02747 12.5326 4C12.8638 4 13.1947 4 13.5259 4C13.5727 4.00877 13.6195 4.01929 13.6668 4.02601C14.0615 4.08125 14.4611 4.11164 14.8499 4.19465C16.6418 4.57721 18.1531 5.46101 19.387 6.81008C21.0109 8.58585 21.8575 10.7033 22.0493 13.0834C22.1182 13.9406 22.084 14.8057 22.1089 15.667C22.1314 16.445 22.16 17.2233 22.2042 18.0004C22.274 19.2288 22.7605 20.2952 23.5103 21.2521C23.7608 21.5718 24.2557 21.5911 24.4834 21.2582C24.8091 20.7821 25.1327 20.2961 25.3815 19.7782C25.7448 19.0213 25.8191 18.1872 25.8504 17.3589C25.8822 16.5175 25.8796 15.6749 25.8863 14.8326C25.8942 13.8439 25.9205 12.8572 26.1184 11.8831C26.5613 9.70199 27.5207 7.79909 29.1653 6.27466C30.4726 5.06266 32.0132 4.32733 33.7826 4.08271C34.0033 4.05231 34.2246 4.02747 34.4459 4C34.8063 4 35.1665 4 35.5269 4L35.5263 4Z" fill="black"/>
</svg>
