<svg width="205" height="13" viewBox="0 0 205 13" fill="none" xmlns="http://www.w3.org/2000/svg">
<path d="M3.346 5.296H7.714V10H6.622V8.824H6.454C6.29533 9.23467 6.01533 9.566 5.614 9.818C5.21267 10.07 4.746 10.196 4.214 10.196C3.15933 10.196 2.32867 9.85533 1.722 9.174C1.12467 8.49267 0.826 7.49867 0.826 6.192V4.008C0.826 2.73867 1.12933 1.754 1.736 1.054C2.34267 0.353999 3.18733 0.00399935 4.27 0.00399935C4.83 0.00399935 5.32467 0.0973329 5.754 0.284C6.18333 0.461333 6.54267 0.713333 6.832 1.04C7.12133 1.35733 7.34067 1.73533 7.49 2.174C7.63933 2.60333 7.714 3.06533 7.714 3.56V3.728H6.538V3.56C6.538 3.24267 6.49133 2.93467 6.398 2.636C6.314 2.33733 6.17867 2.076 5.992 1.852C5.81467 1.61867 5.58133 1.43667 5.292 1.306C5.012 1.166 4.67133 1.096 4.27 1.096C3.514 1.096 2.94467 1.37133 2.562 1.922C2.18867 2.47267 2.002 3.196 2.002 4.092V6.108C2.002 7.06933 2.18867 7.81133 2.562 8.334C2.94467 8.84733 3.52333 9.104 4.298 9.104C4.998 9.104 5.544 8.88 5.936 8.432C6.33733 7.984 6.538 7.35867 6.538 6.556V6.388H3.346V5.296ZM10.5883 6.864C10.6163 7.55467 10.8309 8.11 11.2323 8.53C11.6336 8.95 12.1936 9.16 12.9123 9.16C13.2389 9.16 13.5236 9.12267 13.7663 9.048C14.0089 8.97333 14.2143 8.87067 14.3823 8.74C14.5596 8.60933 14.6996 8.46 14.8023 8.292C14.9143 8.11467 15.0029 7.928 15.0683 7.732L16.1043 8.012C15.9083 8.656 15.5443 9.18333 15.0123 9.594C14.4896 9.99533 13.7803 10.196 12.8843 10.196C12.3896 10.196 11.9323 10.112 11.5123 9.944C11.1016 9.76667 10.7469 9.51933 10.4483 9.202C10.1496 8.88467 9.91627 8.50667 9.74827 8.068C9.58027 7.62933 9.49627 7.144 9.49627 6.612V6.276C9.49627 5.79067 9.58027 5.338 9.74827 4.918C9.9256 4.498 10.1683 4.13867 10.4763 3.84C10.7843 3.532 11.1436 3.294 11.5543 3.126C11.9743 2.94867 12.4269 2.86 12.9123 2.86C13.4816 2.86 13.9716 2.96733 14.3823 3.182C14.8023 3.38733 15.1429 3.644 15.4043 3.952C15.6749 4.26 15.8709 4.596 15.9923 4.96C16.1229 5.324 16.1883 5.66 16.1883 5.968V6.864H10.5883ZM12.9123 3.896C12.6043 3.896 12.3149 3.94733 12.0443 4.05C11.7829 4.14333 11.5496 4.27867 11.3443 4.456C11.1483 4.63333 10.9849 4.84333 10.8543 5.086C10.7329 5.31933 10.6536 5.576 10.6163 5.856H15.0963C15.0776 5.55733 15.0029 5.28667 14.8723 5.044C14.7509 4.80133 14.5876 4.596 14.3823 4.428C14.1863 4.26 13.9576 4.12933 13.6963 4.036C13.4443 3.94267 13.1829 3.896 12.9123 3.896ZM18.3625 8.992H20.8825V1.208H18.4465V0.199999H21.9745V8.992H24.4945V10H18.3625V8.992ZM27.7328 6.864C27.7608 7.55467 27.9755 8.11 28.3768 8.53C28.7781 8.95 29.3381 9.16 30.0568 9.16C30.3835 9.16 30.6681 9.12267 30.9108 9.048C31.1535 8.97333 31.3588 8.87067 31.5268 8.74C31.7041 8.60933 31.8441 8.46 31.9468 8.292C32.0588 8.11467 32.1475 7.928 32.2128 7.732L33.2488 8.012C33.0528 8.656 32.6888 9.18333 32.1568 9.594C31.6341 9.99533 30.9248 10.196 30.0288 10.196C29.5341 10.196 29.0768 10.112 28.6568 9.944C28.2461 9.76667 27.8915 9.51933 27.5928 9.202C27.2941 8.88467 27.0608 8.50667 26.8928 8.068C26.7248 7.62933 26.6408 7.144 26.6408 6.612V6.276C26.6408 5.79067 26.7248 5.338 26.8928 4.918C27.0701 4.498 27.3128 4.13867 27.6208 3.84C27.9288 3.532 28.2881 3.294 28.6988 3.126C29.1188 2.94867 29.5715 2.86 30.0568 2.86C30.6261 2.86 31.1161 2.96733 31.5268 3.182C31.9468 3.38733 32.2875 3.644 32.5488 3.952C32.8195 4.26 33.0155 4.596 33.1368 4.96C33.2675 5.324 33.3328 5.66 33.3328 5.968V6.864H27.7328ZM30.0568 3.896C29.7488 3.896 29.4595 3.94733 29.1888 4.05C28.9275 4.14333 28.6941 4.27867 28.4888 4.456C28.2928 4.63333 28.1295 4.84333 27.9988 5.086C27.8775 5.31933 27.7981 5.576 27.7608 5.856H32.2408C32.2221 5.55733 32.1475 5.28667 32.0168 5.044C31.8955 4.80133 31.7321 4.596 31.5268 4.428C31.3308 4.26 31.1021 4.12933 30.8408 4.036C30.5888 3.94267 30.3275 3.896 30.0568 3.896ZM36.3471 12.8H35.2551V3.056H36.3471V4.148H36.5151C36.7577 3.728 37.0937 3.41067 37.5231 3.196C37.9524 2.972 38.4191 2.86 38.9231 2.86C39.3524 2.86 39.7584 2.93933 40.1411 3.098C40.5237 3.25667 40.8597 3.48533 41.1491 3.784C41.4477 4.08267 41.6811 4.45133 41.8491 4.89C42.0264 5.32867 42.1151 5.828 42.1151 6.388V6.668C42.1151 7.23733 42.0311 7.74133 41.8631 8.18C41.6951 8.61867 41.4617 8.98733 41.1631 9.286C40.8737 9.58467 40.5331 9.81333 40.1411 9.972C39.7491 10.1213 39.3337 10.196 38.8951 10.196C38.6711 10.196 38.4424 10.168 38.2091 10.112C37.9757 10.0653 37.7517 9.99067 37.5371 9.888C37.3317 9.776 37.1404 9.64533 36.9631 9.496C36.7857 9.33733 36.6364 9.15067 36.5151 8.936H36.3471V12.8ZM38.6711 9.16C39.0071 9.16 39.3151 9.104 39.5951 8.992C39.8751 8.87067 40.1177 8.70267 40.3231 8.488C40.5377 8.27333 40.7011 8.012 40.8131 7.704C40.9344 7.396 40.9951 7.05067 40.9951 6.668V6.388C40.9951 6.01467 40.9344 5.67867 40.8131 5.38C40.7011 5.072 40.5377 4.81067 40.3231 4.596C40.1177 4.372 39.8704 4.19933 39.5811 4.078C39.3011 3.95667 38.9977 3.896 38.6711 3.896C38.3444 3.896 38.0411 3.96133 37.7611 4.092C37.4811 4.21333 37.2337 4.386 37.0191 4.61C36.8137 4.834 36.6504 5.10467 36.5291 5.422C36.4077 5.73 36.3471 6.07067 36.3471 6.444V6.612C36.3471 6.99467 36.4077 7.34467 36.5291 7.662C36.6504 7.97 36.8137 8.236 37.0191 8.46C37.2337 8.684 37.4811 8.85667 37.7611 8.978C38.0411 9.09933 38.3444 9.16 38.6711 9.16ZM45.1713 10H44.0793V0.199999H45.1713V4.316H45.3393C45.554 3.868 45.8527 3.51333 46.2353 3.252C46.6273 2.99067 47.1033 2.86 47.6633 2.86C48.4193 2.86 49.0307 3.112 49.4973 3.616C49.9733 4.11067 50.2113 4.85733 50.2113 5.856V10H49.1193V6.08C49.1193 5.352 48.956 4.806 48.6293 4.442C48.3027 4.078 47.8593 3.896 47.2993 3.896C46.6367 3.896 46.114 4.12467 45.7313 4.582C45.358 5.03 45.1713 5.632 45.1713 6.388V10ZM57.6076 3.056H58.6996V10H57.6076V8.74H57.4396C57.2156 9.188 56.9216 9.54267 56.5576 9.804C56.1936 10.0653 55.7316 10.196 55.1716 10.196C54.7889 10.196 54.4343 10.1307 54.1076 10C53.7903 9.87867 53.5149 9.692 53.2816 9.44C53.0576 9.188 52.8803 8.87533 52.7496 8.502C52.6283 8.12867 52.5676 7.69467 52.5676 7.2V3.056H53.6596V7.06C53.6596 7.788 53.8089 8.32 54.1076 8.656C54.4063 8.992 54.8636 9.16 55.4796 9.16C56.1423 9.16 56.6603 8.936 57.0336 8.488C57.4163 8.03067 57.6076 7.424 57.6076 6.668V3.056ZM69.2221 0.199999H71.4621L72.7781 9.496H72.9461L74.2621 0.199999H76.5021V10H75.4101V0.704H75.2421L73.9261 10H71.7981L70.4821 0.704H70.3141V10H69.2221V0.199999ZM80.5244 0.983999C80.5244 0.713333 80.6177 0.484666 80.8044 0.298C81.0004 0.101999 81.2337 0.00399935 81.5044 0.00399935C81.7751 0.00399935 82.0037 0.101999 82.1904 0.298C82.3864 0.484666 82.4844 0.713333 82.4844 0.983999C82.4844 1.25467 82.3864 1.488 82.1904 1.684C82.0037 1.87067 81.7751 1.964 81.5044 1.964C81.2337 1.964 81.0004 1.87067 80.8044 1.684C80.6177 1.488 80.5244 1.25467 80.5244 0.983999ZM78.5364 8.992H80.9724V4.064H78.7884V3.056H82.0644V8.992H84.3324V10H78.5364V8.992ZM88.0327 10H86.9407V3.056H88.0327V4.232H88.2007C88.63 3.31733 89.3767 2.86 90.4407 2.86C91.2433 2.86 91.8827 3.112 92.3587 3.616C92.8347 4.11067 93.0727 4.85733 93.0727 5.856V10H91.9807V6.08C91.9807 5.352 91.8173 4.806 91.4907 4.442C91.164 4.078 90.7207 3.896 90.1607 3.896C89.498 3.896 88.9753 4.12467 88.5927 4.582C88.2193 5.03 88.0327 5.632 88.0327 6.388V10ZM100.889 8.936H100.721C100.609 9.15067 100.464 9.33733 100.287 9.496C100.119 9.65467 99.9323 9.78533 99.7269 9.888C99.5309 9.99067 99.3209 10.0653 99.0969 10.112C98.8729 10.168 98.6583 10.196 98.4529 10.196C97.9863 10.196 97.5523 10.1167 97.1509 9.958C96.7496 9.79933 96.3949 9.57067 96.0869 9.272C95.7883 8.97333 95.5503 8.60467 95.3729 8.166C95.2049 7.718 95.1209 7.20933 95.1209 6.64V6.416C95.1209 5.856 95.2096 5.35667 95.3869 4.918C95.5643 4.47 95.8023 4.09667 96.1009 3.798C96.3996 3.49 96.7496 3.25667 97.1509 3.098C97.5523 2.93933 97.9769 2.86 98.4249 2.86C98.9009 2.86 99.3443 2.96733 99.7549 3.182C100.175 3.38733 100.497 3.70933 100.721 4.148H100.889V0.199999H101.981V10H100.889V8.936ZM98.5649 9.16C98.8916 9.16 99.1949 9.09933 99.4749 8.978C99.7549 8.85667 99.9976 8.684 100.203 8.46C100.418 8.236 100.586 7.97 100.707 7.662C100.828 7.34467 100.889 6.99467 100.889 6.612V6.444C100.889 6.07067 100.828 5.73 100.707 5.422C100.586 5.10467 100.418 4.834 100.203 4.61C99.9976 4.386 99.7503 4.21333 99.4609 4.092C99.1809 3.96133 98.8823 3.896 98.5649 3.896C98.2383 3.896 97.9303 3.95667 97.6409 4.078C97.3609 4.19933 97.1136 4.372 96.8989 4.596C96.6936 4.82 96.5303 5.086 96.4089 5.394C96.2969 5.702 96.2409 6.04267 96.2409 6.416V6.64C96.2409 7.032 96.2969 7.382 96.4089 7.69C96.5303 7.998 96.6936 8.264 96.8989 8.488C97.1136 8.70267 97.3609 8.87067 97.6409 8.992C97.9209 9.104 98.2289 9.16 98.5649 9.16ZM104.015 3.056H106.157V1.292C106.157 0.974666 106.255 0.713333 106.451 0.508C106.657 0.302666 106.918 0.199999 107.235 0.199999H109.979V1.208H107.627C107.375 1.208 107.249 1.348 107.249 1.628V3.056H110.147V4.064H107.249V10H106.157V4.064H104.015V3.056ZM117.613 3.056H118.705V10H117.613V8.74H117.445C117.221 9.188 116.927 9.54267 116.563 9.804C116.199 10.0653 115.737 10.196 115.177 10.196C114.795 10.196 114.44 10.1307 114.113 10C113.796 9.87867 113.521 9.692 113.287 9.44C113.063 9.188 112.886 8.87533 112.755 8.502C112.634 8.12867 112.573 7.69467 112.573 7.2V3.056H113.665V7.06C113.665 7.788 113.815 8.32 114.113 8.656C114.412 8.992 114.869 9.16 115.485 9.16C116.148 9.16 116.666 8.936 117.039 8.488C117.422 8.03067 117.613 7.424 117.613 6.668V3.056ZM121.23 8.992H123.75V1.208H121.314V0.199999H124.842V8.992H127.362V10H121.23V8.992ZM130.894 10H129.802V3.056H130.894V4.232H131.062C131.491 3.31733 132.238 2.86 133.302 2.86C134.105 2.86 134.744 3.112 135.22 3.616C135.696 4.11067 135.934 4.85733 135.934 5.856V10H134.842V6.08C134.842 5.352 134.679 4.806 134.352 4.442C134.025 4.078 133.582 3.896 133.022 3.896C132.359 3.896 131.837 4.12467 131.454 4.582C131.081 5.03 130.894 5.632 130.894 6.388V10ZM139.172 6.864C139.2 7.55467 139.415 8.11 139.816 8.53C140.218 8.95 140.778 9.16 141.496 9.16C141.823 9.16 142.108 9.12267 142.35 9.048C142.593 8.97333 142.798 8.87067 142.966 8.74C143.144 8.60933 143.284 8.46 143.386 8.292C143.498 8.11467 143.587 7.928 143.652 7.732L144.688 8.012C144.492 8.656 144.128 9.18333 143.596 9.594C143.074 9.99533 142.364 10.196 141.468 10.196C140.974 10.196 140.516 10.112 140.096 9.944C139.686 9.76667 139.331 9.51933 139.032 9.202C138.734 8.88467 138.5 8.50667 138.332 8.068C138.164 7.62933 138.08 7.144 138.08 6.612V6.276C138.08 5.79067 138.164 5.338 138.332 4.918C138.51 4.498 138.752 4.13867 139.06 3.84C139.368 3.532 139.728 3.294 140.138 3.126C140.558 2.94867 141.011 2.86 141.496 2.86C142.066 2.86 142.556 2.96733 142.966 3.182C143.386 3.38733 143.727 3.644 143.988 3.952C144.259 4.26 144.455 4.596 144.576 4.96C144.707 5.324 144.772 5.66 144.772 5.968V6.864H139.172ZM141.496 3.896C141.188 3.896 140.899 3.94733 140.628 4.05C140.367 4.14333 140.134 4.27867 139.928 4.456C139.732 4.63333 139.569 4.84333 139.438 5.086C139.317 5.31933 139.238 5.576 139.2 5.856H143.68C143.662 5.55733 143.587 5.28667 143.456 5.044C143.335 4.80133 143.172 4.596 142.966 4.428C142.77 4.26 142.542 4.12933 142.28 4.036C142.028 3.94267 141.767 3.896 141.496 3.896ZM148.389 4.848C148.389 5.184 148.529 5.44067 148.809 5.618C149.098 5.79533 149.621 5.912 150.377 5.968C151.189 6.03333 151.805 6.22933 152.225 6.556C152.654 6.87333 152.869 7.34 152.869 7.956V8.04C152.869 8.376 152.799 8.67933 152.659 8.95C152.528 9.21133 152.341 9.43533 152.099 9.622C151.865 9.80867 151.576 9.94867 151.231 10.042C150.895 10.1447 150.526 10.196 150.125 10.196C149.583 10.196 149.117 10.126 148.725 9.986C148.342 9.83667 148.02 9.64533 147.759 9.412C147.507 9.16933 147.315 8.89867 147.185 8.6C147.054 8.292 146.979 7.984 146.961 7.676L147.997 7.424C148.043 7.956 148.249 8.38533 148.613 8.712C148.977 9.02933 149.462 9.188 150.069 9.188C150.582 9.188 150.993 9.09 151.301 8.894C151.618 8.68867 151.777 8.404 151.777 8.04C151.777 7.648 151.623 7.368 151.315 7.2C151.007 7.032 150.507 6.92467 149.817 6.878C149.014 6.822 148.398 6.63533 147.969 6.318C147.539 6.00067 147.325 5.53867 147.325 4.932V4.848C147.325 4.52133 147.395 4.23667 147.535 3.994C147.675 3.742 147.861 3.532 148.095 3.364C148.337 3.196 148.608 3.07 148.907 2.986C149.205 2.902 149.518 2.86 149.845 2.86C150.302 2.86 150.703 2.92533 151.049 3.056C151.394 3.17733 151.683 3.34067 151.917 3.546C152.15 3.742 152.327 3.97067 152.449 4.232C152.579 4.49333 152.663 4.75467 152.701 5.016L151.665 5.268C151.618 4.82 151.436 4.47 151.119 4.218C150.811 3.966 150.405 3.84 149.901 3.84C149.705 3.84 149.513 3.86333 149.327 3.91C149.149 3.94733 148.991 4.008 148.851 4.092C148.711 4.176 148.599 4.28333 148.515 4.414C148.431 4.53533 148.389 4.68 148.389 4.848ZM156.961 4.848C156.961 5.184 157.101 5.44067 157.381 5.618C157.67 5.79533 158.193 5.912 158.949 5.968C159.761 6.03333 160.377 6.22933 160.797 6.556C161.226 6.87333 161.441 7.34 161.441 7.956V8.04C161.441 8.376 161.371 8.67933 161.231 8.95C161.1 9.21133 160.913 9.43533 160.671 9.622C160.437 9.80867 160.148 9.94867 159.803 10.042C159.467 10.1447 159.098 10.196 158.697 10.196C158.155 10.196 157.689 10.126 157.297 9.986C156.914 9.83667 156.592 9.64533 156.331 9.412C156.079 9.16933 155.887 8.89867 155.757 8.6C155.626 8.292 155.551 7.984 155.533 7.676L156.569 7.424C156.615 7.956 156.821 8.38533 157.185 8.712C157.549 9.02933 158.034 9.188 158.641 9.188C159.154 9.188 159.565 9.09 159.873 8.894C160.19 8.68867 160.349 8.404 160.349 8.04C160.349 7.648 160.195 7.368 159.887 7.2C159.579 7.032 159.079 6.92467 158.389 6.878C157.586 6.822 156.97 6.63533 156.541 6.318C156.111 6.00067 155.897 5.53867 155.897 4.932V4.848C155.897 4.52133 155.967 4.23667 156.107 3.994C156.247 3.742 156.433 3.532 156.667 3.364C156.909 3.196 157.18 3.07 157.479 2.986C157.777 2.902 158.09 2.86 158.417 2.86C158.874 2.86 159.275 2.92533 159.621 3.056C159.966 3.17733 160.255 3.34067 160.489 3.546C160.722 3.742 160.899 3.97067 161.021 4.232C161.151 4.49333 161.235 4.75467 161.273 5.016L160.237 5.268C160.19 4.82 160.008 4.47 159.691 4.218C159.383 3.966 158.977 3.84 158.473 3.84C158.277 3.84 158.085 3.86333 157.899 3.91C157.721 3.94733 157.563 4.008 157.423 4.092C157.283 4.176 157.171 4.28333 157.087 4.414C157.003 4.53533 156.961 4.68 156.961 4.848ZM175.785 9.104C176.187 9.104 176.527 9.03867 176.807 8.908C177.097 8.768 177.33 8.586 177.507 8.362C177.694 8.12867 177.829 7.86733 177.913 7.578C178.007 7.27933 178.053 6.96667 178.053 6.64V6.472H179.229V6.64C179.229 7.13467 179.155 7.60133 179.005 8.04C178.856 8.46933 178.637 8.84733 178.347 9.174C178.058 9.49133 177.699 9.74333 177.269 9.93C176.84 10.1073 176.345 10.196 175.785 10.196C174.703 10.196 173.858 9.85533 173.251 9.174C172.645 8.49267 172.341 7.49867 172.341 6.192V4.008C172.341 2.73867 172.645 1.754 173.251 1.054C173.858 0.353999 174.703 0.00399935 175.785 0.00399935C176.345 0.00399935 176.84 0.0973329 177.269 0.284C177.699 0.461333 178.058 0.713333 178.347 1.04C178.637 1.35733 178.856 1.73533 179.005 2.174C179.155 2.60333 179.229 3.06533 179.229 3.56V3.728H178.053V3.56C178.044 3.24267 177.993 2.93467 177.899 2.636C177.815 2.33733 177.68 2.076 177.493 1.852C177.316 1.61867 177.087 1.43667 176.807 1.306C176.527 1.166 176.187 1.096 175.785 1.096C175.029 1.096 174.46 1.37133 174.077 1.922C173.704 2.47267 173.517 3.196 173.517 4.092V6.108C173.517 7.06933 173.704 7.81133 174.077 8.334C174.46 8.84733 175.029 9.104 175.785 9.104ZM183.392 0.983999C183.392 0.713333 183.485 0.484666 183.672 0.298C183.868 0.101999 184.101 0.00399935 184.372 0.00399935C184.642 0.00399935 184.871 0.101999 185.058 0.298C185.254 0.484666 185.352 0.713333 185.352 0.983999C185.352 1.25467 185.254 1.488 185.058 1.684C184.871 1.87067 184.642 1.964 184.372 1.964C184.101 1.964 183.868 1.87067 183.672 1.684C183.485 1.488 183.392 1.25467 183.392 0.983999ZM181.404 8.992H183.84V4.064H181.656V3.056H184.932V8.992H187.2V10H181.404V8.992ZM189.57 3.056H191.754V0.199999H192.846V3.056H195.534V4.064H192.846V8.572C192.846 8.852 192.972 8.992 193.224 8.992H195.198V10H192.832C192.515 10 192.253 9.89733 192.048 9.692C191.852 9.48667 191.754 9.22533 191.754 8.908V4.064H189.57V3.056ZM203.42 8.74H203.252C203.028 9.188 202.734 9.54267 202.37 9.804C202.006 10.0653 201.544 10.196 200.984 10.196C200.601 10.196 200.247 10.1307 199.92 10C199.603 9.87867 199.327 9.692 199.094 9.44C198.87 9.188 198.693 8.87533 198.562 8.502C198.441 8.12867 198.38 7.69467 198.38 7.2V3.056H199.472V7.06C199.472 7.788 199.621 8.32 199.92 8.656C200.219 8.992 200.676 9.16 201.292 9.16C201.955 9.16 202.473 8.936 202.846 8.488C203.229 8.03067 203.42 7.424 203.42 6.668V3.056H204.512V11.708C204.512 12.0253 204.409 12.2867 204.204 12.492C204.008 12.6973 203.751 12.8 203.434 12.8H199.472V11.792H203.042C203.294 11.792 203.42 11.652 203.42 11.372V8.74Z" fill="black"/>
</svg>
