<svg width="48" height="48" viewBox="0 0 48 48" fill="none" xmlns="http://www.w3.org/2000/svg">
<mask id="mask0_4121_9141" style="mask-type:luminance" maskUnits="userSpaceOnUse" x="2" y="3" width="44" height="43">
<path d="M45.0009 3H2.99911V45.0018H45.0009V3Z" fill="white"/>
</mask>
<g mask="url(#mask0_4121_9141)">
<path d="M23.0894 39.3256C13.723 39.3256 6.33072 32.3113 6.33072 23.4489C6.33072 14.4606 13.807 7.57227 23.0894 7.57227C31.5738 7.57227 36.53 10.5964 39.4701 15.2586C40.9402 17.5687 41.6542 20.2988 41.6542 23.4489C41.6542 29.7912 38.5041 34.5374 33.2958 37.2675C30.7337 38.6116 27.3316 39.3256 23.0894 39.3256ZM22.0814 37.3935C29.6837 37.3935 35.984 31.2193 35.984 23.4909C35.984 15.8466 29.7257 9.58835 22.0814 9.58835C14.311 9.58835 8.3048 16.0566 8.3048 23.4909C8.3048 28.4471 10.9509 33.1093 15.1931 35.5454C17.3352 36.7635 19.6033 37.3935 22.0814 37.3935Z" fill="white"/>
<mask id="mask1_4121_9141" style="mask-type:luminance" maskUnits="userSpaceOnUse" x="5" y="6" width="38" height="35">
<path d="M42.9499 6.28516H5.04988V40.5756H42.9499V6.28516Z" fill="white"/>
<path d="M23.0893 39.3256C13.7229 39.3256 6.33064 32.3113 6.33064 23.4489C6.33064 14.4606 13.807 7.57227 23.0893 7.57227C31.5737 7.57227 36.5299 10.5964 39.47 15.2586C40.9401 17.5687 41.6541 20.2988 41.6541 23.4489C41.6541 29.7912 38.504 34.5374 33.2958 37.2675C30.7337 38.6116 27.3315 39.3256 23.0893 39.3256ZM22.0813 37.3935C29.6836 37.3935 35.9839 31.2193 35.9839 23.4909C35.9839 15.8466 29.7256 9.58835 22.0813 9.58835C14.311 9.58835 8.30472 16.0566 8.30472 23.4909C8.30472 28.4471 10.9508 33.1093 15.193 35.5454C17.3351 36.7635 19.6032 37.3935 22.0813 37.3935Z" fill="black"/>
</mask>
<g mask="url(#mask1_4121_9141)">
<path d="M39.4701 15.2586L38.4292 15.915L38.4306 15.9171L38.4319 15.9193L39.4701 15.2586ZM33.2958 37.2676L32.7245 36.1777L32.7242 36.1779L33.2958 37.2676ZM15.193 35.5455L14.5803 36.6126L14.5825 36.6139L14.5848 36.6151L15.193 35.5455ZM23.0894 38.0951C14.3396 38.0951 7.5612 31.5705 7.5612 23.449H5.10016C5.10016 33.0522 13.1063 40.5562 23.0894 40.5562V38.0951ZM7.5612 23.449C7.5612 15.2116 14.4129 8.80284 23.0894 8.80284V6.3418C13.2011 6.3418 5.10016 13.7096 5.10016 23.449H7.5612ZM23.0894 8.80284C31.2266 8.80284 35.7519 11.6696 38.4292 15.915L40.5109 14.6023C37.308 9.52328 31.9209 6.3418 23.0894 6.3418V8.80284ZM38.4319 15.9193C39.7553 17.9988 40.4236 20.4902 40.4236 23.449H42.8847C42.8847 20.1075 42.125 17.1386 40.5082 14.598L38.4319 15.9193ZM40.4236 23.449C40.4236 29.3128 37.5462 33.6502 32.7245 36.1777L33.8671 38.3574C39.4619 35.4247 42.8847 30.2697 42.8847 23.449H40.4236ZM32.7242 36.1779C30.3942 37.4002 27.2067 38.0951 23.0894 38.0951V40.5562C27.4564 40.5562 31.0732 39.823 33.8674 38.3572L32.7242 36.1779ZM22.0813 38.6241C30.356 38.6241 37.2144 31.9062 37.2144 23.491H34.7534C34.7534 30.5324 29.0113 36.163 22.0813 36.163V38.6241ZM37.2144 23.491C37.2144 15.1671 30.4052 8.35788 22.0813 8.35788V10.8189C29.0461 10.8189 34.7534 16.5262 34.7534 23.491H37.2144ZM22.0813 8.35788C13.5977 8.35788 7.07424 15.4113 7.07424 23.491H9.53528C9.53528 16.702 15.0243 10.8189 22.0813 10.8189V8.35788ZM7.07424 23.491C7.07424 28.8756 9.94546 33.951 14.5803 36.6126L15.8058 34.4784C11.9563 32.2678 9.53528 28.0188 9.53528 23.491H7.07424ZM14.5848 36.6151C16.9036 37.9337 19.3803 38.6241 22.0813 38.6241V36.163C19.8262 36.163 17.7666 35.5934 15.8013 34.4758L14.5848 36.6151Z" fill="black"/>
</g>
</g>
</svg>
