<svg width="111" height="48" viewBox="0 0 111 48" fill="none" xmlns="http://www.w3.org/2000/svg">
<g clip-path="url(#clip0_4121_8042)">
<path d="M40.847 32.625C40.415 32.8844 39.9888 33.0849 39.5685 33.2264C39.1599 33.3679 38.6871 33.4387 38.15 33.4387C37.251 33.4387 36.533 33.1557 35.9959 32.5897C35.4705 32.0119 35.2079 31.1923 35.2079 30.131V26.275H33.369V24.8777H35.2079V22.5605H36.9241V24.8777H39.6561V26.275H36.9241V30.1487C36.9241 30.7501 37.0584 31.1923 37.3269 31.4753C37.5954 31.7583 37.9574 31.8998 38.4127 31.8998C38.7396 31.8998 39.049 31.8527 39.3409 31.7583C39.6328 31.6522 39.9363 31.5048 40.2515 31.3161L40.847 32.625Z" fill="black"/>
<path d="M26.107 33.3849C26.5856 33.3849 27.0235 33.2728 27.4204 33.0488L27.0351 31.793C26.9067 31.8873 26.7258 31.9344 26.4922 31.9344C26.0953 31.9344 25.8968 31.6456 25.8968 31.0678V24.877H22.6745V26.2743H24.1806V30.1126C23.1648 31.2564 22.2075 31.8283 21.3084 31.8283C20.7013 31.8283 20.2577 31.6515 19.9774 31.2977C19.7089 30.9321 19.5747 30.4192 19.5747 29.7588V24.877H16.2122V26.2743H17.8584V29.8119C17.8584 31.0029 18.1036 31.905 18.5939 32.5182C19.096 33.1314 19.8023 33.4379 20.713 33.4379C21.3318 33.4379 21.9214 33.2728 22.4818 32.9427C23.0422 32.6125 23.6143 32.1232 24.198 31.4746C24.2448 32.0878 24.4374 32.5595 24.776 32.8896C25.1145 33.2198 25.5582 33.3849 26.107 33.3849Z" fill="black"/>
<path d="M33.9378 33.208V31.8107H32.0639V24.877H28.4913V26.2743H30.3476V31.8107H28.4913V33.208H33.9378Z" fill="black"/>
<path d="M50.5031 32.0579C50.8183 31.6098 51.011 31.085 51.081 30.4837L49.6099 30.0768C49.5165 30.6428 49.283 31.1027 48.9094 31.4565C48.5358 31.7985 48.0922 31.9695 47.5784 31.9695C47.1465 31.9695 46.7087 31.8692 46.265 31.6687C45.8213 31.4683 45.3543 31.1735 44.864 30.7844C45.1208 30.5603 45.401 30.3598 45.7046 30.1829C46.0198 29.9943 46.4168 29.782 46.8954 29.5462C47.6427 29.1924 48.2556 28.8504 48.7343 28.5203C49.2247 28.1783 49.645 27.7361 49.9952 27.1937C50.3572 26.6513 50.6257 25.9732 50.8008 25.1596L49.3473 24.6289C49.1955 25.4662 48.9153 26.1265 48.5067 26.61C47.9462 26.1383 47.4325 25.7668 46.9655 25.4956C46.5102 25.2244 45.9848 25.018 45.3893 24.8766C44.7939 24.7233 44.0817 24.6466 43.2528 24.6466H42.132V28.2019H43.5855V26.1324C44.4495 26.1324 45.1909 26.2444 45.8096 26.4685C46.4401 26.6807 47.0297 26.9932 47.5784 27.4059C47.3916 27.5357 47.0064 27.7597 46.4226 28.0781L46.0373 28.2904C45.3251 28.6677 44.7297 29.0273 44.251 29.3693C43.7723 29.6995 43.3053 30.1535 42.85 30.7313C42.4063 31.3091 42.0503 32.0343 41.7817 32.9069L43.1827 33.4553C43.4162 32.7359 43.7256 32.1109 44.1109 31.5803C44.7414 32.2053 45.3426 32.6769 45.9148 32.9953C46.4985 33.302 47.129 33.4553 47.8061 33.4553C48.3315 33.4553 48.8335 33.3373 49.3122 33.1015C49.7909 32.8538 50.1879 32.506 50.5031 32.0579Z" fill="black"/>
<path d="M69.92 28.2017V24.6641H69.1842C68.5186 24.6641 67.8472 24.8704 67.1703 25.2831C66.5048 25.6841 65.8628 26.2442 65.2439 26.9635V24.8763H61.6711V26.2737H63.5278V31.8101H61.6711V33.2074H67.1178V31.8101H65.2439V28.3432C65.8156 27.7182 66.3707 27.2348 66.9076 26.8927C67.4444 26.5508 67.941 26.3798 68.3963 26.3798V28.2017H69.92Z" fill="black"/>
<path d="M98.4927 31.8101V33.2074H93.6241V31.8101H95.1477V28.3609C95.1477 27.7123 94.9842 27.2052 94.6576 26.8397C94.3422 26.4623 93.8869 26.2737 93.2911 26.2737C92.2758 26.2737 91.2016 26.9223 90.069 28.2193V31.8101H91.5926V33.2074H86.4961V31.8101H88.3528V26.2737H86.4961V24.8763H90.069V26.8397C90.7227 26.1086 91.3475 25.5662 91.9428 25.2124C92.5499 24.8469 93.1977 24.6641 93.8869 24.6641C94.8324 24.6641 95.5623 24.9706 96.0761 25.5839C96.5893 26.197 96.8462 27.105 96.8462 28.3078V31.8101H98.4927Z" fill="black"/>
<path d="M54.9646 23.8462L54.8228 21.9414L55.6935 23.6372L54.9646 23.8462Z" fill="black"/>
<path d="M52.4839 23.0039L53.2901 24.7319L53.8967 24.2738L52.4839 23.0039Z" fill="black"/>
<path d="M56.9404 23.5888L57.4386 21.7461L57.6966 23.6385L56.9404 23.5888Z" fill="black"/>
<path d="M97.7917 23.5L96.2294 24.5765L96.7727 25.1093L97.7917 23.5Z" fill="black"/>
<path d="M94.6334 23.5554L95.7119 21.9863L95.3295 23.857L94.6334 23.5554Z" fill="black"/>
<path d="M99.2671 25.6914L97.4383 26.177L97.7735 26.863L99.2671 25.6914Z" fill="black"/>
<path d="M30.3685 22.2082L29.2186 22.4456L30.3685 22.683L30.6035 23.8443L30.8385 22.683L31.9884 22.4456L30.8385 22.2082L30.6035 21.0469L30.3685 22.2082Z" fill="black"/>
<path fill-rule="evenodd" clip-rule="evenodd" d="M56.6095 33.4551C58.0457 33.4551 59.3237 32.9598 60.4446 31.9693L59.7093 30.8373C58.8218 31.592 57.7829 31.9693 56.5918 31.9693C56.0668 31.9693 55.5819 31.8573 55.1384 31.6332C54.6948 31.4092 54.3387 31.0849 54.0702 30.6604C53.8133 30.2359 53.6849 29.7465 53.6849 29.1923V29.0331C54.2102 29.269 54.7298 29.4517 55.2435 29.5814C55.7573 29.6994 56.3119 29.7583 56.9071 29.7583C57.8296 29.7583 58.6174 29.5461 59.2717 29.1215C59.9367 28.6853 60.2698 28.0779 60.2698 27.2997C60.2698 26.7808 60.1121 26.3209 59.7967 25.92C59.4932 25.5191 59.0674 25.2066 58.5182 24.9825C57.9814 24.7585 57.3684 24.6465 56.6798 24.6465C55.8973 24.6465 55.1502 24.8351 54.4379 25.2125C53.7257 25.578 53.1478 26.1087 52.7041 26.8044C52.2605 27.5001 52.0386 28.3138 52.0386 29.2453C52.0386 30.118 52.2547 30.8727 52.6866 31.5094C53.1186 32.1462 53.6849 32.6297 54.3854 32.9598C55.0859 33.29 55.827 33.4551 56.6095 33.4551ZM56.802 26.0262C56.1719 26.0262 55.5819 26.2089 55.0334 26.5745C54.4963 26.94 54.111 27.4353 53.8775 28.0603C54.7648 28.3786 55.6522 28.5378 56.5392 28.5378C57.1233 28.5378 57.6017 28.4317 57.9755 28.2194C58.3605 27.9954 58.5536 27.6888 58.5536 27.2997C58.5536 26.9224 58.39 26.6157 58.0629 26.3799C57.7363 26.1441 57.3158 26.0262 56.802 26.0262Z" fill="black"/>
<path fill-rule="evenodd" clip-rule="evenodd" d="M85.4165 32.9951C85.0314 33.231 84.582 33.3489 84.0682 33.3489C83.6359 33.3489 83.2686 33.225 82.965 32.9775C82.6727 32.718 82.4684 32.3525 82.352 31.8808C81.1845 32.9303 80.0288 33.455 78.8843 33.455C78.0788 33.455 77.396 33.225 76.8356 32.7652C76.2752 32.3053 75.9947 31.6626 75.9947 30.8372C75.9947 30.2712 76.1524 29.7818 76.4677 29.3691C76.7831 28.9446 77.203 28.6262 77.7286 28.4139C78.2654 28.1899 78.8435 28.0779 79.4624 28.0779C79.9875 28.0779 80.4723 28.1309 80.9158 28.2371C81.3593 28.3314 81.8147 28.4729 82.2818 28.6616V27.8833C82.2818 27.2819 82.0833 26.8397 81.6865 26.5567C81.2896 26.2737 80.7699 26.1322 80.128 26.1322C79.2173 26.1322 78.1195 26.3857 76.8356 26.8928L76.4849 25.5485C77.8626 24.9589 79.1471 24.6641 80.3382 24.6641C81.4704 24.6641 82.3461 24.9471 82.965 25.5131C83.5952 26.0673 83.9105 26.881 83.9105 27.954V31.0141C83.9105 31.5919 84.1149 31.8808 84.5235 31.8808C84.6989 31.8808 84.8796 31.8336 85.0663 31.7393L85.4165 32.9951ZM78.1662 31.6862C77.8514 31.4622 77.6937 31.1497 77.6937 30.7488C77.6937 30.3006 77.8921 29.9587 78.289 29.7229C78.6977 29.4752 79.1878 29.3514 79.7601 29.3514C80.6471 29.375 81.488 29.5283 82.2818 29.8113V30.7488C81.7331 31.1615 81.2017 31.4739 80.6884 31.6862C80.1746 31.8985 79.7193 32.0046 79.3224 32.0046C78.8671 32.0046 78.4815 31.8985 78.1662 31.6862Z" fill="black"/>
<path fill-rule="evenodd" clip-rule="evenodd" d="M109.583 33.049C109.42 33.1434 109.221 33.22 108.988 33.2789C108.754 33.3497 108.509 33.3851 108.252 33.3851C107.82 33.3851 107.447 33.273 107.131 33.049C106.816 32.8132 106.6 32.4771 106.484 32.0408C106.016 32.4653 105.52 32.8073 104.995 33.0667C104.481 33.3261 103.909 33.4559 103.279 33.4559C102.566 33.4559 101.901 33.273 101.282 32.9075C100.675 32.542 100.191 32.0349 99.8286 31.3863C99.4666 30.726 99.2858 29.9831 99.2858 29.1576C99.2858 28.2968 99.4725 27.5244 99.8463 26.8405C100.231 26.1448 100.751 25.6082 101.405 25.2309C102.059 24.8418 102.783 24.6472 103.576 24.6472C104.592 24.6472 105.526 25.0245 106.378 25.7792V22.4716H104.522V21.0742H108.06V31.068C108.06 31.634 108.252 31.917 108.637 31.917C108.894 31.917 109.087 31.8698 109.215 31.7755L109.583 33.049ZM101.773 31.1917C101.306 30.6729 101.072 29.989 101.072 29.14C101.072 28.5622 101.195 28.0433 101.44 27.5834C101.685 27.1235 102.029 26.7639 102.473 26.5044C102.917 26.245 103.413 26.1153 103.961 26.1153C104.756 26.1153 105.561 26.4455 106.378 27.1058V30.7672C105.421 31.5691 104.505 31.9701 103.629 31.9701C102.87 31.9701 102.251 31.7106 101.773 31.1917ZM103.293 28.8404L102.143 29.0777L103.293 29.3151L103.528 30.4765L103.763 29.3151L104.913 29.0777L103.763 28.8404L103.528 27.679L103.293 28.8404Z" fill="black"/>
<path d="M12.0987 21.4387L10.9489 21.6761L12.0987 21.9134L12.3337 23.0748L12.5688 21.9134L13.7186 21.6761L12.5688 21.4387L12.3337 20.2773L12.0987 21.4387Z" fill="black"/>
<path fill-rule="evenodd" clip-rule="evenodd" d="M16.9908 18.6221V17.793L1.82885 17.793V18.6221C1.82885 21.0113 3.74648 22.9481 6.112 22.9481C8.19677 22.9481 9.93364 21.4438 10.3166 19.4512H15.2719C15.2658 19.4925 15.2591 19.535 15.2519 19.5785C15.1527 20.1799 14.9558 20.969 14.57 21.7481C14.1859 22.524 13.6227 23.2746 12.7932 23.8332C11.9689 24.3882 10.8329 24.7867 9.2454 24.7867C7.37059 24.7867 5.90997 25.2624 4.78682 26.0187C3.6688 26.7715 2.9337 27.7692 2.45222 28.7418C1.97236 29.7112 1.73652 30.6705 1.61936 31.3804C1.56046 31.7373 1.53069 32.0366 1.51561 32.2499C1.50848 32.3507 1.5027 32.5272 1.50038 32.598L1.5 32.6095V33.4386H16.6693V32.6095C16.6693 30.2203 14.7517 28.2835 12.3862 28.2835C10.3014 28.2835 8.56457 29.7878 8.18159 31.7803H3.21884C3.22501 31.7391 3.23167 31.6966 3.23886 31.653C3.33809 31.0516 3.53503 30.2625 3.92072 29.4834C4.30481 28.7076 4.86805 27.9569 5.69754 27.3984C6.52189 26.8434 7.65789 26.4449 9.2454 26.4449C11.1202 26.4449 12.5808 25.9692 13.704 25.2129C14.822 24.4601 15.5571 23.4623 16.0385 22.4897C16.5184 21.5204 16.7542 20.5611 16.8714 19.8512C16.9284 19.5056 16.9728 18.8769 16.9893 18.6437L16.9908 18.6221ZM9.87492 31.7803H14.8975C14.5522 30.7129 13.5584 29.9418 12.3862 29.9418C11.214 29.9418 10.2202 30.7129 9.87492 31.7803ZM6.112 21.2898C4.93983 21.2898 3.946 20.5186 3.60074 19.4512H8.62324C8.27802 20.5186 7.2842 21.2898 6.112 21.2898Z" fill="black"/>
<path d="M8.20677 29.5803L7.25977 28.4609L8.56566 29.1152L8.20677 29.5803Z" fill="black"/>
<path d="M6.2843 30.1992L7.56468 30.9031L7.73544 30.3392L6.2843 30.1992Z" fill="black"/>
<path d="M9.32004 28.5118L8.79907 27.1367L9.81247 28.195L9.32004 28.5118Z" fill="black"/>
<path fill-rule="evenodd" clip-rule="evenodd" d="M74.8888 31.8107V33.208H69.425V31.8107H71.264V22.4714H69.425V21.0741H71.4592V15.5389H77.5891C78.1608 15.5389 78.4472 15.3384 78.4472 14.9375C78.4472 14.7016 78.4006 14.5188 78.3067 14.3891L79.5504 14C79.7724 14.4009 79.8829 14.8431 79.8829 15.3266L79.8802 20.9785C79.8572 21.4757 79.6947 21.8824 79.3927 22.1984C79.0656 22.5403 78.599 22.7349 77.9919 22.7821L76.6431 22.7998H72.9801V31.8107H74.8888ZM78.4472 19.9213V20.465C78.4472 20.8659 78.1608 21.0664 77.5891 21.0664H72.8428V17.2723H76.6431L77.9919 17.2546C78.1533 17.242 78.3051 17.219 78.4472 17.1855V19.9213Z" fill="black"/>
<path d="M75.519 18.8918L74.3692 19.1292L75.519 19.3666L75.7539 20.528L75.9888 19.3666L77.1387 19.1292L75.9888 18.8918L75.7539 17.7305L75.519 18.8918Z" fill="black"/>
<path d="M79.8829 15.3266C79.8829 14.8431 79.7724 14.4009 79.5504 14L78.3067 14.3891C78.4006 14.5188 78.4472 14.7016 78.4472 14.9375C78.4472 15.3384 78.1609 15.5389 77.5892 15.5389H71.4592V21.0741H69.425V22.4714H71.264V31.8107H69.425V33.208H74.8889V31.8107H72.9802V22.7998H76.6431L77.9919 22.7821C78.599 22.7349 79.0656 22.5403 79.3927 22.1984C79.6947 21.8824 79.8572 21.4757 79.8802 20.9785L79.8829 15.3266ZM79.8829 15.3266C79.8829 15.8808 79.7199 16.3289 79.3927 16.6709C79.153 16.9218 78.8377 17.0933 78.4472 17.1855M78.4472 17.1855C78.3051 17.219 78.1533 17.242 77.9919 17.2546L76.6431 17.2723H72.8429V21.0664H77.5892C78.1609 21.0664 78.4472 20.8659 78.4472 20.465V19.9213V17.1855ZM39.5685 33.2257C39.9888 33.0842 40.415 32.8837 40.847 32.6243L40.2515 31.3154C39.9363 31.5041 39.6328 31.6515 39.3409 31.7576C39.049 31.852 38.7396 31.8991 38.4127 31.8991C37.9574 31.8991 37.5954 31.7576 37.3269 31.4746C37.0584 31.1916 36.9241 30.7494 36.9241 30.148V26.2743H39.6561V24.877H36.9241V22.5598H35.2079V24.877H33.369V26.2743H35.2079V30.1303C35.2079 31.1916 35.4705 32.0112 35.996 32.589C36.533 33.155 37.251 33.438 38.15 33.438C38.6871 33.438 39.1599 33.3672 39.5685 33.2257ZM27.4205 33.0488C27.0235 33.2729 26.5857 33.3849 26.107 33.3849C25.5583 33.3849 25.1146 33.2198 24.776 32.8896C24.4374 32.5595 24.2448 32.0878 24.1981 31.4746C23.6143 32.1232 23.0422 32.6125 22.4819 32.9427C21.9214 33.2729 21.3318 33.438 20.713 33.438C19.8024 33.438 19.096 33.1314 18.594 32.5182C18.1036 31.905 17.8584 31.0029 17.8584 29.812V26.2743H16.2123V24.877H19.5747V29.7589C19.5747 30.4192 19.709 30.9322 19.9775 31.2977C20.2577 31.6515 20.7014 31.8284 21.3085 31.8284C22.2075 31.8284 23.1648 31.2565 24.1806 30.1126V26.2743H22.6745V24.877H25.8968V31.0678C25.8968 31.6456 26.0953 31.9345 26.4923 31.9345C26.7258 31.9345 26.9067 31.8873 27.0352 31.793L27.4205 33.0488ZM33.9378 31.8107V33.208H28.4914V31.8107H30.3477V26.2743H28.4914V24.877H32.0639V31.8107H33.9378ZM51.0811 30.4841C51.011 31.0855 50.8184 31.6102 50.5031 32.0583C50.1879 32.5064 49.7909 32.8543 49.3123 33.1019C48.8336 33.3378 48.3315 33.4557 47.8062 33.4557C47.129 33.4557 46.4985 33.3024 45.9148 32.9958C45.3427 32.6774 44.7414 32.2057 44.1109 31.5807C43.7257 32.1114 43.4163 32.7364 43.1828 33.4557L41.7818 32.9074C42.0503 32.0347 42.4063 31.3095 42.85 30.7317C43.3054 30.1539 43.7724 29.6999 44.2511 29.3697C44.7297 29.0278 45.3252 28.6681 46.0373 28.2908L46.4226 28.0785C47.0064 27.7601 47.3917 27.5361 47.5785 27.4064C47.0298 26.9937 46.4402 26.6812 45.8097 26.4689C45.1909 26.2449 44.4496 26.1328 43.5856 26.1328V28.2023H42.132V24.6471H43.2528C44.0818 24.6471 44.794 24.7237 45.3894 24.877C45.9848 25.0185 46.5102 25.2248 46.9655 25.4961C47.4325 25.7673 47.9463 26.1387 48.5067 26.6104C48.9153 26.1269 49.1955 25.4666 49.3473 24.6293L50.8008 25.16C50.6257 25.9736 50.3572 26.6517 49.9953 27.1941C49.645 27.7366 49.2247 28.1787 48.7344 28.5207C48.2556 28.8509 47.6427 29.1929 46.8955 29.5466C46.4168 29.7824 46.0199 29.9947 45.7046 30.1834C45.4011 30.3603 45.1208 30.5608 44.864 30.7848C45.3544 31.1739 45.8214 31.4687 46.265 31.6692C46.7087 31.8696 47.1465 31.9699 47.5785 31.9699C48.0922 31.9699 48.5359 31.7989 48.9095 31.4569C49.283 31.1032 49.5166 30.6432 49.61 30.0773L51.0811 30.4841ZM56.6095 33.4557C58.0457 33.4557 59.3237 32.9604 60.4446 31.9699L59.7093 30.8379C58.8217 31.5925 57.7829 31.9699 56.5918 31.9699C56.0667 31.9699 55.5819 31.8578 55.1384 31.6338C54.6948 31.4098 54.3387 31.0855 54.0701 30.661C53.8133 30.2365 53.6849 29.7471 53.6849 29.1929V29.0337C54.2102 29.2695 54.7298 29.4523 55.2435 29.582C55.7573 29.6999 56.3118 29.7589 56.9071 29.7589C57.8296 29.7589 58.6174 29.5466 59.2717 29.1221C59.9367 28.6858 60.2698 28.0785 60.2698 27.3002C60.2698 26.7814 60.1121 26.3215 59.7967 25.9206C59.4932 25.5196 59.0674 25.2071 58.5182 24.9831C57.9814 24.7591 57.3684 24.6471 56.6797 24.6471C55.8973 24.6471 55.1502 24.8357 54.4379 25.213C53.7257 25.5786 53.1478 26.1092 52.7041 26.805C52.2605 27.5007 52.0386 28.3144 52.0386 29.2459C52.0386 30.1185 52.2546 30.8732 52.6866 31.51C53.1186 32.1468 53.6849 32.6302 54.3854 32.9604C55.0859 33.2906 55.827 33.4557 56.6095 33.4557ZM55.0333 26.5751C55.5819 26.2095 56.1719 26.0267 56.802 26.0267C57.3158 26.0267 57.7363 26.1447 58.0629 26.3804C58.39 26.6163 58.5536 26.9229 58.5536 27.3002C58.5536 27.6894 58.3605 27.996 57.9755 28.22C57.6017 28.4323 57.1233 28.5384 56.5392 28.5384C55.6522 28.5384 54.7648 28.3792 53.8775 28.0609C54.111 27.4359 54.4963 26.9406 55.0333 26.5751ZM69.92 24.6647V28.2023H68.3964V26.3804C67.941 26.3804 67.4444 26.5514 66.9076 26.8934C66.3708 27.2354 65.8157 27.7188 65.244 28.3438V31.8107H67.1178V33.208H61.6711V31.8107H63.5278V26.2743H61.6711V24.877H65.244V26.9642C65.8629 26.2449 66.5048 25.6847 67.1704 25.2838C67.8472 24.8711 68.5186 24.6647 69.1842 24.6647H69.92ZM85.4165 32.9958C85.0314 33.2316 84.582 33.3495 84.0682 33.3495C83.636 33.3495 83.2686 33.2257 82.9651 32.9781C82.6728 32.7186 82.4684 32.3531 82.3521 31.8814C81.1845 32.9309 80.0288 33.4557 78.8843 33.4557C78.0788 33.4557 77.3961 33.2257 76.8356 32.7658C76.2752 32.3059 75.9947 31.6633 75.9947 30.8379C75.9947 30.2718 76.1524 29.7824 76.4677 29.3697C76.7831 28.9452 77.203 28.6268 77.7286 28.4146C78.2654 28.1905 78.8436 28.0785 79.4625 28.0785C79.9875 28.0785 80.4723 28.1316 80.9158 28.2377C81.3594 28.3321 81.8147 28.4735 82.2818 28.6622V27.8839C82.2818 27.2825 82.0834 26.8404 81.6865 26.5573C81.2896 26.2743 80.77 26.1328 80.128 26.1328C79.2174 26.1328 78.1196 26.3863 76.8356 26.8934L76.4849 25.5491C77.8627 24.9595 79.1471 24.6647 80.3382 24.6647C81.4704 24.6647 82.3462 24.9477 82.9651 25.5138C83.5952 26.068 83.9106 26.8816 83.9106 27.9547V31.0147C83.9106 31.5925 84.1149 31.8814 84.5236 31.8814C84.6989 31.8814 84.8797 31.8343 85.0663 31.7399L85.4165 32.9958ZM77.6937 30.7494C77.6937 31.1503 77.8514 31.4628 78.1662 31.6869C78.4816 31.8991 78.8672 32.0053 79.3225 32.0053C79.7193 32.0053 80.1747 31.8991 80.6885 31.6869C81.2017 31.4746 81.7332 31.1621 82.2818 30.7494V29.812C81.4881 29.5289 80.6472 29.3756 79.7601 29.3521C79.1879 29.3521 78.6977 29.4758 78.289 29.7235C77.8922 29.9593 77.6937 30.3013 77.6937 30.7494ZM98.4927 33.208V31.8107H96.8462V28.3084C96.8462 27.1057 96.5893 26.1977 96.0761 25.5845C95.5623 24.9713 94.8324 24.6647 93.8869 24.6647C93.1977 24.6647 92.5499 24.8475 91.9428 25.213C91.3475 25.5668 90.7227 26.1092 90.0689 26.8404V24.877H86.4961V26.2743H88.3528V31.8107H86.4961V33.208H91.5926V31.8107H90.0689V28.22C91.2016 26.9229 92.2758 26.2743 93.291 26.2743C93.8869 26.2743 94.3422 26.463 94.6576 26.8404C94.9842 27.2059 95.1477 27.7129 95.1477 28.3615V31.8107H93.6241V33.208H98.4927ZM109.583 33.0488C109.42 33.1432 109.221 33.2198 108.988 33.2788C108.754 33.3495 108.509 33.3849 108.252 33.3849C107.82 33.3849 107.447 33.2729 107.131 33.0488C106.816 32.813 106.6 32.477 106.484 32.0406C106.016 32.4651 105.52 32.8071 104.995 33.0666C104.481 33.326 103.909 33.4557 103.279 33.4557C102.566 33.4557 101.901 33.2729 101.282 32.9074C100.675 32.5418 100.191 32.0347 99.8286 31.3861C99.4666 30.7258 99.2858 29.9829 99.2858 29.1575C99.2858 28.2966 99.4725 27.5243 99.8463 26.8404C100.231 26.1447 100.751 25.6081 101.405 25.2308C102.059 24.8416 102.783 24.6471 103.576 24.6471C104.592 24.6471 105.526 25.0244 106.378 25.7791V22.4714H104.522V21.0741H108.06V31.0678C108.06 31.6338 108.252 31.9168 108.637 31.9168C108.894 31.9168 109.087 31.8696 109.216 31.7753L109.583 33.0488ZM101.072 29.1398C101.072 29.9888 101.306 30.6728 101.773 31.1916C102.251 31.7104 102.87 31.9699 103.629 31.9699C104.505 31.9699 105.421 31.569 106.378 30.7671V27.1057C105.561 26.4453 104.756 26.1151 103.961 26.1151C103.413 26.1151 102.917 26.2449 102.473 26.5043C102.029 26.7637 101.685 27.1233 101.44 27.5833C101.195 28.0431 101.072 28.562 101.072 29.1398ZM54.8227 21.9416L54.9646 23.8464L55.6935 23.6374L54.8227 21.9416ZM53.2901 24.731L52.4839 23.003L53.8968 24.2729L53.2901 24.731ZM57.4386 21.7461L56.9404 23.5889L57.6966 23.6385L57.4386 21.7461ZM96.2295 24.5764L97.7917 23.4999L96.7727 25.1092L96.2295 24.5764ZM95.7119 21.9849L94.6334 23.554L95.3295 23.8556L95.7119 21.9849ZM97.4383 26.176L99.2671 25.6904L97.7735 26.8619L97.4383 26.176ZM103.293 28.8402L102.143 29.0776L103.293 29.3149L103.528 30.4763L103.763 29.3149L104.913 29.0776L103.763 28.8402L103.528 27.6788L103.293 28.8402ZM29.2186 22.4446L30.3685 22.2072L30.6035 21.0458L30.8385 22.2072L31.9884 22.4446L30.8385 22.6819L30.6035 23.8433L30.3685 22.6819L29.2186 22.4446ZM75.519 18.8907L74.3692 19.1281L75.519 19.3654L75.7539 20.5268L75.9888 19.3654L77.1387 19.1281L75.9888 18.8907L75.7539 17.7293L75.519 18.8907ZM10.9489 21.6768L12.0987 21.4394L12.3338 20.2781L12.5688 21.4394L13.7187 21.6768L12.5688 21.9142L12.3338 23.0755L12.0987 21.9142L10.9489 21.6768ZM16.9908 17.7924V18.6215L16.9893 18.6431C16.9728 18.8763 16.9284 19.505 16.8714 19.8505C16.7542 20.5605 16.5184 21.5198 16.0385 22.4891C15.5571 23.4617 14.822 24.4595 13.704 25.2123C12.5808 25.9686 11.1202 26.4443 9.2454 26.4443C7.65789 26.4443 6.52189 26.8428 5.69754 27.3978C4.86805 27.9563 4.30481 28.707 3.92072 29.4828C3.53503 30.2619 3.33809 31.051 3.23886 31.6524C3.23167 31.696 3.22501 31.7384 3.21884 31.7797H8.18159C8.56457 29.7872 10.3014 28.2829 12.3862 28.2829C14.7517 28.2829 16.6693 30.2197 16.6693 32.6088V33.438H1.5V32.6088L1.50038 32.5974C1.5027 32.5266 1.50848 32.35 1.51561 32.2493C1.53069 32.036 1.56046 31.7367 1.61936 31.3798C1.73652 30.6698 1.97236 29.7106 2.45222 28.7412C2.9337 27.7686 3.6688 26.7709 4.78682 26.0181C5.90997 25.2618 7.37059 24.786 9.2454 24.786C10.8329 24.786 11.9689 24.3876 12.7932 23.8325C13.6227 23.274 14.1859 22.5234 14.57 21.7475C14.9558 20.9684 15.1527 20.1793 15.2519 19.5779C15.2591 19.5344 15.2658 19.4919 15.2719 19.4506H10.3166C9.93364 21.4431 8.19677 22.9475 6.112 22.9475C3.74648 22.9475 1.82885 21.0107 1.82885 18.6215V17.7924L16.9908 17.7924ZM8.62324 19.4506H3.60074C3.946 20.518 4.93983 21.2892 6.112 21.2892C7.2842 21.2892 8.27802 20.518 8.62324 19.4506ZM9.87492 31.7797H14.8975C14.5522 30.7123 13.5584 29.9411 12.3862 29.9411C11.214 29.9411 10.2202 30.7123 9.87492 31.7797ZM7.25979 28.462L8.2068 29.5813L8.56569 29.1162L7.25979 28.462ZM7.56468 30.9016L6.28431 30.1977L7.73544 30.3377L7.56468 30.9016ZM8.79909 27.1374L9.32006 28.5125L9.81249 28.1957L8.79909 27.1374Z" stroke="black" stroke-width="0.248028"/>
</g>
<defs>
<clipPath id="clip0_4121_8042">
<rect width="108.083" height="19.4559" fill="white" transform="translate(1.5 14)"/>
</clipPath>
</defs>
</svg>
