<svg width="100" height="18" viewBox="0 0 100 18" fill="none" xmlns="http://www.w3.org/2000/svg">
<g clip-path="url(#clip0_4121_8042)">
<path d="M36.3203 17.1926C35.9215 17.4321 35.5282 17.6171 35.1402 17.7477C34.763 17.8784 34.3265 17.9437 33.8308 17.9437C33.0009 17.9437 32.3382 17.6824 31.8424 17.16C31.3574 16.6266 31.115 15.8701 31.115 14.8905V11.3311H29.4176V10.0412H31.115V7.90234H32.6992V10.0412H35.221V11.3311H32.6992V14.9068C32.6992 15.4619 32.8231 15.8701 33.071 16.1313C33.3189 16.3926 33.653 16.5232 34.0733 16.5232C34.375 16.5232 34.6606 16.4797 34.93 16.3926C35.1995 16.2946 35.4797 16.1585 35.7706 15.9844L36.3203 17.1926Z" fill="black"/>
<path d="M22.7141 17.8925C23.156 17.8925 23.5601 17.7891 23.9266 17.5823L23.5709 16.4231C23.4524 16.5102 23.2853 16.5537 23.0698 16.5537C22.7033 16.5537 22.5201 16.287 22.5201 15.7537V10.0391H19.5457V11.3289H20.9359V14.872C19.9983 15.9278 19.1146 16.4557 18.2847 16.4557C17.7243 16.4557 17.3148 16.2925 17.0561 15.9659C16.8082 15.6285 16.6843 15.155 16.6843 14.5454V10.0391H13.5805V11.3289H15.1001V14.5944C15.1001 15.6938 15.3264 16.5265 15.779 17.0925C16.2425 17.6585 16.8945 17.9415 17.7351 17.9415C18.3063 17.9415 18.8505 17.7891 19.3678 17.4844C19.8851 17.1796 20.4132 16.7279 20.9521 16.1292C20.9952 16.6952 21.173 17.1306 21.4855 17.4354C21.798 17.7402 22.2076 17.8925 22.7141 17.8925Z" fill="black"/>
<path d="M29.9426 17.7293V16.4394H28.2129V10.0391H24.9151V11.3289H26.6286V16.4394H24.9151V17.7293H29.9426Z" fill="black"/>
<path d="M45.2336 16.668C45.5246 16.2544 45.7025 15.77 45.7671 15.2149L44.4092 14.8394C44.323 15.3618 44.1074 15.7864 43.7626 16.1129C43.4177 16.4286 43.0082 16.5864 42.5339 16.5864C42.1352 16.5864 41.7311 16.4939 41.3216 16.3088C40.912 16.1238 40.4809 15.8517 40.0283 15.4925C40.2654 15.2857 40.524 15.1006 40.8042 14.9373C41.0952 14.7632 41.4617 14.5672 41.9035 14.3496C42.5933 14.023 43.159 13.7073 43.6009 13.4026C44.0535 13.0869 44.4415 12.6787 44.7648 12.178C45.0989 11.6773 45.3468 11.0514 45.5084 10.3004L44.1667 9.81055C44.0266 10.5834 43.768 11.1929 43.3908 11.6392C42.8734 11.2038 42.3992 10.8609 41.9682 10.6106C41.5479 10.3602 41.0629 10.1697 40.5132 10.0391C39.9636 9.89765 39.3062 9.8269 38.5411 9.8269H37.5065V13.1087H38.8482V11.1984C39.6457 11.1984 40.33 11.3018 40.9012 11.5086C41.4832 11.7045 42.0275 11.993 42.5339 12.3739C42.3615 12.4937 42.0059 12.7005 41.467 12.9944L41.1114 13.1903C40.454 13.5386 39.9043 13.8706 39.4625 14.1863C39.0206 14.4911 38.5895 14.9101 38.1692 15.4435C37.7597 15.9768 37.431 16.6463 37.1832 17.4518L38.4764 17.9579C38.6919 17.2939 38.9775 16.717 39.3332 16.2272C39.9151 16.8041 40.4701 17.2395 40.9982 17.5334C41.5371 17.8164 42.119 17.9579 42.7441 17.9579C43.2291 17.9579 43.6925 17.8491 44.1344 17.6314C44.5762 17.4028 44.9427 17.0817 45.2336 16.668Z" fill="black"/>
<path d="M63.1569 13.1092V9.84375H62.4777C61.8634 9.84375 61.2435 10.0343 60.6188 10.4152C60.0044 10.7853 59.4119 11.3024 58.8406 11.9664V10.0397H55.5426V11.3295H57.2564V16.4401H55.5426V17.7299H60.5703V16.4401H58.8406V13.2398C59.3683 12.6629 59.8807 12.2167 60.3762 11.901C60.8718 11.5853 61.3302 11.4275 61.7505 11.4275V13.1092H63.1569Z" fill="black"/>
<path d="M89.5317 16.4401V17.7299H85.0376V16.4401H86.4441V13.2562C86.4441 12.6575 86.2931 12.1894 85.9916 11.852C85.7005 11.5037 85.2802 11.3295 84.7302 11.3295C83.7931 11.3295 82.8015 11.9283 81.7559 13.1256V16.4401H83.1624V17.7299H78.4579V16.4401H80.1718V11.3295H78.4579V10.0397H81.7559V11.852C82.3594 11.1771 82.9361 10.6765 83.4856 10.3499C84.046 10.0125 84.6441 9.84375 85.2802 9.84375C86.153 9.84375 86.8267 10.1268 87.301 10.6928C87.7748 11.2588 88.0119 12.0969 88.0119 13.2072V16.4401H89.5317Z" fill="black"/>
<path d="M49.3519 9.08833L49.221 7.33008L50.0247 8.89543L49.3519 9.08833Z" fill="black"/>
<path d="M47.0621 8.31055L47.8062 9.9056L48.3662 9.48275L47.0621 8.31055Z" fill="black"/>
<path d="M51.1757 8.85139L51.6356 7.15039L51.8738 8.89719L51.1757 8.85139Z" fill="black"/>
<path d="M88.8846 8.76758L87.4426 9.76128L87.9441 10.2531L88.8846 8.76758Z" fill="black"/>
<path d="M85.9693 8.81949L86.9648 7.37109L86.6118 9.09789L85.9693 8.81949Z" fill="black"/>
<path d="M90.2466 10.791L88.5584 11.2393L88.8678 11.8725L90.2466 10.791Z" fill="black"/>
<path d="M26.6479 7.57591L25.5864 7.79506L26.6479 8.01416L26.8648 9.08616L27.0817 8.01416L28.1432 7.79506L27.0817 7.57591L26.8648 6.50391L26.6479 7.57591Z" fill="black"/>
<path fill-rule="evenodd" clip-rule="evenodd" d="M50.8703 17.9592C52.196 17.9592 53.3757 17.502 54.4104 16.5877L53.7317 15.5427C52.9124 16.2393 51.9535 16.5877 50.854 16.5877C50.3693 16.5877 49.9218 16.4842 49.5124 16.2774C49.1029 16.0706 48.7742 15.7713 48.5263 15.3794C48.2892 14.9876 48.1706 14.5358 48.1706 14.0243V13.8773C48.6556 14.095 49.1352 14.2637 49.6094 14.3835C50.0837 14.4923 50.5955 14.5467 51.145 14.5467C51.9965 14.5467 52.7238 14.3508 53.3277 13.9589C53.9416 13.5562 54.249 12.9956 54.249 12.2772C54.249 11.7983 54.1035 11.3738 53.8124 11.0037C53.5322 10.6336 53.1391 10.3451 52.6322 10.1383C52.1366 9.93153 51.5708 9.82812 50.9351 9.82812C50.2129 9.82812 49.5233 10.0023 48.8657 10.3506C48.2084 10.688 47.6749 11.1778 47.2653 11.8201C46.8558 12.4623 46.651 13.2133 46.651 14.0732C46.651 14.8787 46.8504 15.5754 47.2492 16.1631C47.6479 16.7509 48.1706 17.1972 48.8173 17.502C49.4639 17.8068 50.148 17.9592 50.8703 17.9592ZM51.048 11.1017C50.4663 11.1017 49.9218 11.2704 49.4154 11.6078C48.9196 11.9452 48.564 12.4024 48.3485 12.9793C49.1675 13.2732 49.9866 13.4201 50.8054 13.4201C51.3445 13.4201 51.7861 13.3222 52.1312 13.1262C52.4866 12.9194 52.6648 12.6364 52.6648 12.2772C52.6648 11.9289 52.5139 11.6459 52.2119 11.4282C51.9104 11.2105 51.5223 11.1017 51.048 11.1017Z" fill="black"/>
<path fill-rule="evenodd" clip-rule="evenodd" d="M77.4614 17.5339C77.1059 17.7516 76.6911 17.8605 76.2168 17.8605C75.8178 17.8605 75.4787 17.7462 75.1985 17.5176C74.9287 17.2781 74.7401 16.9408 74.6327 16.5054C73.5549 17.4741 72.4881 17.9585 71.4317 17.9585C70.6881 17.9585 70.0579 17.7462 69.5406 17.3217C69.0233 16.8972 68.7643 16.304 68.7643 15.5421C68.7643 15.0196 68.9099 14.5678 69.201 14.1869C69.4921 13.795 69.8797 13.5011 70.3648 13.3052C70.8604 13.0984 71.394 12.995 71.9653 12.995C72.45 12.995 72.8975 13.044 73.3069 13.1419C73.7163 13.229 74.1366 13.3596 74.5678 13.5338V12.8154C74.5678 12.2602 74.3846 11.8521 74.0183 11.5908C73.652 11.3296 73.1723 11.1989 72.5797 11.1989C71.7391 11.1989 70.7257 11.433 69.5406 11.901L69.2168 10.6602C70.4886 10.1159 71.6742 9.84375 72.7737 9.84375C73.8188 9.84375 74.6272 10.105 75.1985 10.6275C75.7802 11.1391 76.0713 11.8902 76.0713 12.8807V15.7053C76.0713 16.2387 76.2599 16.5054 76.6371 16.5054C76.799 16.5054 76.9658 16.4618 77.1381 16.3747L77.4614 17.5339ZM70.7688 16.3257C70.4782 16.1189 70.3327 15.8305 70.3327 15.4604C70.3327 15.0468 70.5158 14.7311 70.8822 14.5134C71.2594 14.2848 71.7119 14.1706 72.2401 14.1706C73.0589 14.1923 73.8351 14.3338 74.5678 14.595V15.4604C74.0614 15.8414 73.5708 16.1298 73.097 16.3257C72.6228 16.5216 72.2025 16.6197 71.8361 16.6197C71.4158 16.6197 71.0599 16.5216 70.7688 16.3257Z" fill="black"/>
<path fill-rule="evenodd" clip-rule="evenodd" d="M99.7688 17.5829C99.6183 17.67 99.4351 17.7408 99.2193 17.7952C99.004 17.8605 98.7777 17.8931 98.5406 17.8931C98.1416 17.8931 97.797 17.7897 97.5059 17.5829C97.2149 17.3652 97.0153 17.055 96.9079 16.6523C96.4767 17.0441 96.0188 17.3598 95.5337 17.5993C95.0594 17.8387 94.5312 17.9585 93.9495 17.9585C93.2921 17.9585 92.6777 17.7897 92.1064 17.4523C91.546 17.1149 91.099 16.6468 90.7648 16.0481C90.4307 15.4386 90.2639 14.7528 90.2639 13.9909C90.2639 13.1963 90.4361 12.4833 90.7812 11.852C91.1366 11.2098 91.6163 10.7145 92.2198 10.3662C92.8233 10.007 93.4916 9.82745 94.2243 9.82745C95.1619 9.82745 96.0238 10.1757 96.8109 10.8724V7.81915H95.097V6.5293H98.3629V15.7543C98.3629 16.2767 98.5406 16.538 98.896 16.538C99.1332 16.538 99.3109 16.4944 99.4297 16.4074L99.7688 17.5829ZM92.5594 15.8685C92.1282 15.3896 91.9124 14.7583 91.9124 13.9746C91.9124 13.4412 92.0257 12.9623 92.252 12.5378C92.4782 12.1132 92.796 11.7813 93.2059 11.5418C93.6153 11.3023 94.0733 11.1826 94.5797 11.1826C95.3129 11.1826 96.0564 11.4874 96.8109 12.0969V15.4767C95.9272 16.2169 95.0812 16.587 94.2728 16.587C93.5723 16.587 93.001 16.3475 92.5594 15.8685ZM93.9629 13.698L92.9015 13.9171L93.9629 14.1362L94.1797 15.2083L94.397 14.1362L95.4584 13.9171L94.397 13.698L94.1797 12.626L93.9629 13.698Z" fill="black"/>
<path d="M9.78342 6.86692L8.72203 7.08607L9.78342 7.30517L10.0004 8.37717L10.2173 7.30517L11.2788 7.08607L10.2173 6.86692L10.0004 5.79492L9.78342 6.86692Z" fill="black"/>
<path fill-rule="evenodd" clip-rule="evenodd" d="M14.2991 4.2673V3.50195L0.303538 3.50197V4.26732C0.303538 6.47271 2.07366 8.26051 4.25721 8.26051C6.18162 8.26051 7.78489 6.87191 8.13835 5.03266H12.7125C12.7069 5.07076 12.7007 5.10996 12.694 5.15016C12.6025 5.70526 12.4207 6.43371 12.0646 7.15286C11.7101 7.86906 11.1902 8.56196 10.4245 9.07751C9.66355 9.58986 8.61494 9.95766 7.14959 9.95766C5.41899 9.95766 4.07073 10.3968 3.03397 11.0949C2.00195 11.7898 1.3234 12.7108 0.87896 13.6086C0.436009 14.5034 0.218311 15.3889 0.110167 16.0442C0.0557966 16.3737 0.028317 16.6499 0.0143946 16.8468C0.00781499 16.9398 0.00247451 17.1028 0.000332584 17.1681L-1.52588e-05 17.1787V17.9441H14.0024V17.1787C14.0024 14.9733 12.2323 13.1855 10.0487 13.1855C8.12439 13.1855 6.52112 14.5741 6.16761 16.4134H1.58661C1.5923 16.3753 1.59845 16.3361 1.60508 16.2958C1.69668 15.7407 1.87847 15.0123 2.2345 14.2931C2.58904 13.577 3.10895 12.8841 3.87463 12.3685C4.63557 11.8562 5.68419 11.4884 7.14959 11.4884C8.88013 11.4884 10.2284 11.0492 11.2652 10.3511C12.2972 9.65621 12.9757 8.73516 13.4202 7.83741C13.8632 6.94266 14.0808 6.05716 14.189 5.40181C14.2416 5.08281 14.2826 4.50252 14.2978 4.28728L14.2991 4.2673ZM7.73068 16.4134H12.3669C12.0482 15.4281 11.1308 14.7162 10.0487 14.7162C8.96677 14.7162 8.04939 15.4281 7.73068 16.4134ZM4.25721 6.72981C3.17521 6.72981 2.25783 6.01796 1.93913 5.03266H6.57528C6.25662 6.01796 5.33924 6.72981 4.25721 6.72981Z" fill="black"/>
<path d="M6.19087 14.3829L5.31671 13.3496L6.52216 13.9536L6.19087 14.3829Z" fill="black"/>
<path d="M4.41628 14.9531L5.59816 15.6029L5.75579 15.0824L4.41628 14.9531Z" fill="black"/>
<path d="M7.21849 13.3963L6.73759 12.127L7.67304 13.1039L7.21849 13.3963Z" fill="black"/>
<path fill-rule="evenodd" clip-rule="evenodd" d="M67.7435 16.4407V17.7305H62.7V16.4407H64.3975V7.81975H62.7V6.5299H64.5777V1.42048H70.2361C70.7638 1.42048 71.0282 1.23544 71.0282 0.86535C71.0282 0.64765 70.9851 0.478935 70.8985 0.359201L72.0465 0C72.2515 0.370086 72.3535 0.77827 72.3535 1.22455L72.351 6.44165C72.3297 6.90065 72.1797 7.27605 71.901 7.56775C71.599 7.8834 71.1683 8.063 70.6079 8.10655L69.3629 8.12285H65.9817V16.4407H67.7435ZM71.0282 5.46585V5.96765C71.0282 6.33775 70.7638 6.5228 70.2361 6.5228H65.8549V3.02056H69.3629L70.6079 3.00423C70.7569 2.99263 70.897 2.97138 71.0282 2.94047V5.46585Z" fill="black"/>
<path d="M68.3252 4.51539L67.2639 4.7345L68.3252 4.95361L68.5421 6.02566L68.7589 4.95361L69.8203 4.7345L68.7589 4.51539L68.5421 3.44336L68.3252 4.51539Z" fill="black"/>
<path d="M72.3535 1.22455C72.3535 0.77827 72.2515 0.370086 72.0465 0L70.8985 0.359201C70.9852 0.478935 71.0282 0.64765 71.0282 0.86535C71.0282 1.23543 70.7639 1.42048 70.2361 1.42048H64.5777V6.5299H62.7V7.81975H64.3975V16.4406H62.7V17.7305H67.7436V16.4406H65.9817V8.12285H69.3629L70.6079 8.10655C71.1683 8.063 71.599 7.8834 71.901 7.56775C72.1797 7.27605 72.3297 6.90065 72.351 6.44165L72.3535 1.22455ZM72.3535 1.22455C72.3535 1.73614 72.203 2.14976 71.901 2.46542C71.6797 2.697 71.3886 2.85535 71.0282 2.94047M71.0282 2.94047C70.897 2.97138 70.7569 2.99263 70.6079 3.00423L69.3629 3.02055H65.855V6.5228H70.2361C70.7639 6.5228 71.0282 6.33775 71.0282 5.96765V5.46585V2.94047ZM35.1402 17.7468C35.5282 17.6162 35.9215 17.4311 36.3203 17.1917L35.7706 15.9834C35.4797 16.1576 35.1995 16.2937 34.9301 16.3916C34.6606 16.4787 34.3751 16.5222 34.0733 16.5222C33.653 16.5222 33.3189 16.3916 33.071 16.1304C32.8231 15.8691 32.6992 15.461 32.6992 14.9058V11.3301H35.221V10.0403H32.6992V7.9014H31.115V10.0403H29.4176V11.3301H31.115V14.8895C31.115 15.8691 31.3574 16.6257 31.8424 17.159C32.3382 17.6815 33.0009 17.9427 33.8308 17.9427C34.3265 17.9427 34.763 17.8774 35.1402 17.7468ZM23.9266 17.5835C23.5601 17.7903 23.156 17.8937 22.7142 17.8937C22.2076 17.8937 21.7981 17.7414 21.4855 17.4366C21.173 17.1318 20.9952 16.6964 20.9521 16.1304C20.4132 16.7291 19.8851 17.1808 19.3679 17.4856C18.8505 17.7903 18.3063 17.9427 17.7351 17.9427C16.8945 17.9427 16.2425 17.6597 15.7791 17.0937C15.3264 16.5277 15.1001 15.695 15.1001 14.5956V11.3301H13.5805V10.0403H16.6844V14.5466C16.6844 15.1562 16.8083 15.6297 17.0561 15.9671C17.3148 16.2937 17.7244 16.4569 18.2848 16.4569C19.1146 16.4569 19.9983 15.929 20.9359 14.8732V11.3301H19.5457V10.0403H22.5201V15.7549C22.5201 16.2882 22.7034 16.5549 23.0698 16.5549C23.2853 16.5549 23.4524 16.5114 23.5709 16.4243L23.9266 17.5835ZM29.9426 16.4406V17.7305H24.9151V16.4406H26.6286V11.3301H24.9151V10.0403H28.2129V16.4406H29.9426ZM45.7671 15.2161C45.7025 15.7712 45.5247 16.2556 45.2337 16.6692C44.9427 17.0828 44.5762 17.4039 44.1344 17.6325C43.6925 17.8502 43.2291 17.9591 42.7442 17.9591C42.1191 17.9591 41.5371 17.8176 40.9983 17.5345C40.4701 17.2406 39.9152 16.8053 39.3332 16.2283C38.9775 16.7182 38.6919 17.2951 38.4764 17.9591L37.1832 17.4529C37.431 16.6474 37.7597 15.978 38.1693 15.4446C38.5896 14.9113 39.0206 14.4922 39.4625 14.1874C39.9044 13.8718 40.454 13.5398 41.1114 13.1915L41.467 12.9955C42.0059 12.7016 42.3615 12.4948 42.534 12.3751C42.0275 11.9941 41.4832 11.7057 40.9012 11.5097C40.3301 11.3029 39.6457 11.1995 38.8482 11.1995V13.1098H37.5065V9.82805H38.541C39.3062 9.82805 39.9637 9.8988 40.5133 10.0403C41.0629 10.1709 41.5479 10.3614 41.9682 10.6117C42.3993 10.8621 42.8735 11.205 43.3908 11.6404C43.768 11.1941 44.0266 10.5845 44.1667 9.8117L45.5085 10.3015C45.3468 11.0526 45.099 11.6785 44.7649 12.1792C44.4415 12.6799 44.0536 13.088 43.6009 13.4037C43.1591 13.7085 42.5933 14.0242 41.9035 14.3507C41.4617 14.5684 41.0952 14.7643 40.8043 14.9385C40.5241 15.1018 40.2654 15.2868 40.0283 15.4936C40.4809 15.8528 40.912 16.1249 41.3216 16.31C41.7311 16.495 42.1353 16.5876 42.534 16.5876C43.0082 16.5876 43.4177 16.4297 43.7626 16.1141C44.1074 15.7875 44.323 15.363 44.4092 14.8405L45.7671 15.2161ZM50.8703 17.9591C52.196 17.9591 53.3757 17.5019 54.4104 16.5876L53.7317 15.5426C52.9124 16.2392 51.9535 16.5876 50.854 16.5876C50.3693 16.5876 49.9218 16.4841 49.5124 16.2773C49.1029 16.0705 48.7742 15.7712 48.5263 15.3793C48.2892 14.9875 48.1706 14.5357 48.1706 14.0242V13.8772C48.6556 14.0949 49.1352 14.2636 49.6094 14.3834C50.0837 14.4922 50.5955 14.5466 51.1451 14.5466C51.9965 14.5466 52.7238 14.3507 53.3277 13.9588C53.9416 13.5561 54.249 12.9955 54.249 12.2771C54.249 11.7982 54.1035 11.3737 53.8124 11.0036C53.5322 10.6335 53.1391 10.345 52.6322 10.1382C52.1366 9.93145 51.5708 9.82805 50.9352 9.82805C50.2129 9.82805 49.5233 10.0022 48.8657 10.3505C48.2084 10.6879 47.6749 11.1777 47.2653 11.82C46.8558 12.4622 46.651 13.2132 46.651 14.0731C46.651 14.8786 46.8504 15.5753 47.2492 16.163C47.6479 16.7508 48.1706 17.1971 48.8173 17.5019C49.4639 17.8067 50.148 17.9591 50.8703 17.9591ZM49.4154 11.6077C49.9218 11.2703 50.4663 11.1016 51.048 11.1016C51.5223 11.1016 51.9104 11.2104 52.2119 11.4281C52.5139 11.6458 52.6649 11.9288 52.6649 12.2771C52.6649 12.6363 52.4866 12.9193 52.1312 13.1261C51.7861 13.3221 51.3446 13.42 50.8054 13.42C49.9866 13.42 49.1675 13.2731 48.3485 12.9792C48.564 12.4023 48.9197 11.9451 49.4154 11.6077ZM63.1569 9.84435V13.1098H61.7505V11.4281C61.3302 11.4281 60.8718 11.5859 60.3762 11.9016C59.8807 12.2173 59.3683 12.6635 58.8406 13.2404V16.4406H60.5703V17.7305H55.5426V16.4406H57.2564V11.3301H55.5426V10.0403H58.8406V11.9669C59.4119 11.3029 60.0045 10.7859 60.6188 10.4158C61.2436 10.0348 61.8634 9.84435 62.4777 9.84435H63.1569ZM77.4614 17.5345C77.1059 17.7522 76.6911 17.8611 76.2168 17.8611C75.8178 17.8611 75.4787 17.7468 75.1985 17.5182C74.9287 17.2787 74.7401 16.9413 74.6327 16.5059C73.555 17.4747 72.4881 17.9591 71.4317 17.9591C70.6881 17.9591 70.0579 17.7468 69.5406 17.3223C69.0233 16.8978 68.7644 16.3045 68.7644 15.5426C68.7644 15.0201 68.9099 14.5684 69.201 14.1874C69.4921 13.7956 69.8797 13.5017 70.3649 13.3057C70.8604 13.0989 71.3941 12.9955 71.9653 12.9955C72.45 12.9955 72.8975 13.0445 73.3069 13.1425C73.7163 13.2296 74.1366 13.3602 74.5678 13.5343V12.8159C74.5678 12.2608 74.3847 11.8526 74.0183 11.5914C73.652 11.3301 73.1723 11.1995 72.5797 11.1995C71.7391 11.1995 70.7257 11.4335 69.5406 11.9016L69.2168 10.6607C70.4886 10.1165 71.6743 9.84435 72.7738 9.84435C73.8188 9.84435 74.6272 10.1056 75.1985 10.6281C75.7802 11.1396 76.0713 11.8907 76.0713 12.8812V15.7059C76.0713 16.2392 76.2599 16.5059 76.6371 16.5059C76.799 16.5059 76.9658 16.4624 77.1381 16.3753L77.4614 17.5345ZM70.3327 15.461C70.3327 15.831 70.4782 16.1195 70.7688 16.3263C71.0599 16.5222 71.4158 16.6202 71.8361 16.6202C72.2025 16.6202 72.6228 16.5222 73.097 16.3263C73.5708 16.1304 74.0614 15.8419 74.5678 15.461V14.5956C73.8352 14.3344 73.0589 14.1929 72.2401 14.1711C71.7119 14.1711 71.2594 14.2854 70.8822 14.514C70.5158 14.7317 70.3327 15.0473 70.3327 15.461ZM89.5317 17.7305V16.4406H88.0119V13.2078C88.0119 12.0975 87.7748 11.2594 87.301 10.6934C86.8267 10.1273 86.153 9.84435 85.2802 9.84435C84.6441 9.84435 84.046 10.0131 83.4857 10.3505C82.9361 10.677 82.3594 11.1777 81.7559 11.8526V10.0403H78.4579V11.3301H80.1718V16.4406H78.4579V17.7305H83.1624V16.4406H81.7559V13.1261C82.8015 11.9288 83.7931 11.3301 84.7302 11.3301C85.2802 11.3301 85.7005 11.5043 85.9916 11.8526C86.2931 12.19 86.4441 12.6581 86.4441 13.2568V16.4406H85.0376V17.7305H89.5317ZM99.7688 17.5835C99.6183 17.6706 99.4352 17.7414 99.2193 17.7958C99.004 17.8611 98.7777 17.8937 98.5406 17.8937C98.1416 17.8937 97.797 17.7903 97.5059 17.5835C97.2149 17.3658 97.0154 17.0556 96.9079 16.6529C96.4767 17.0447 96.0188 17.3604 95.5337 17.5999C95.0594 17.8393 94.5312 17.9591 93.9495 17.9591C93.2921 17.9591 92.6777 17.7903 92.1064 17.4529C91.546 17.1155 91.099 16.6474 90.7649 16.0487C90.4307 15.4392 90.2639 14.7534 90.2639 13.9915C90.2639 13.1969 90.4361 12.4839 90.7812 11.8526C91.1366 11.2104 91.6163 10.7151 92.2198 10.3668C92.8233 10.0076 93.4916 9.82805 94.2243 9.82805C95.1619 9.82805 96.0238 10.1763 96.8109 10.873V7.81975H95.097V6.5299H98.3629V15.7549C98.3629 16.2773 98.5406 16.5386 98.896 16.5386C99.1332 16.5386 99.3109 16.495 99.4297 16.408L99.7688 17.5835ZM91.9124 13.9752C91.9124 14.7589 92.1282 15.3902 92.5594 15.8691C93.001 16.3481 93.5723 16.5876 94.2728 16.5876C95.0812 16.5876 95.9272 16.2175 96.8109 15.4773V12.0975C96.0564 11.488 95.3129 11.1832 94.5797 11.1832C94.0733 11.1832 93.6154 11.3029 93.2059 11.5424C92.796 11.7819 92.4782 12.1138 92.252 12.5384C92.0257 12.9629 91.9124 13.4418 91.9124 13.9752ZM49.221 7.3307L49.3519 9.08895L50.0248 8.89605L49.221 7.3307ZM47.8062 9.9055L47.0621 8.31045L48.3662 9.48265L47.8062 9.9055ZM51.6356 7.15025L51.1757 8.85125L51.8738 8.89705L51.6356 7.15025ZM87.4426 9.7628L88.8847 8.7691L87.9441 10.2546L87.4426 9.7628ZM86.9649 7.37065L85.9693 8.81905L86.6119 9.09745L86.9649 7.37065ZM88.5584 11.2393L90.2465 10.7911L88.8678 11.8725L88.5584 11.2393ZM93.9629 13.6986L92.9015 13.9177L93.9629 14.1368L94.1797 15.2089L94.397 14.1368L95.4584 13.9177L94.397 13.6986L94.1797 12.6266L93.9629 13.6986ZM25.5864 7.795L26.6478 7.57585L26.8648 6.50385L27.0817 7.57585L28.1432 7.795L27.0817 8.0141L26.8648 9.0861L26.6478 8.0141L25.5864 7.795ZM68.3253 4.51448L67.2639 4.73359L68.3253 4.9527L68.5421 6.02475L68.7589 4.9527L69.8203 4.73359L68.7589 4.51448L68.5421 3.44245L68.3253 4.51448ZM8.72203 7.0863L9.78342 6.86715L10.0004 5.79515L10.2173 6.86715L11.2788 7.0863L10.2173 7.3054L10.0004 8.3774L9.78342 7.3054L8.72203 7.0863ZM14.2992 3.50064V4.26599L14.2978 4.28597C14.2826 4.5012 14.2416 5.0815 14.189 5.4005C14.0808 6.05585 13.8632 6.94135 13.4202 7.8361C12.9757 8.73385 12.2972 9.6549 11.2652 10.3498C10.2284 11.0479 8.88015 11.487 7.1496 11.487C5.68421 11.487 4.63559 11.8548 3.87465 12.3672C3.10897 12.8827 2.58905 13.5756 2.23452 14.2918C1.87849 15.011 1.6967 15.7394 1.6051 16.2945C1.59846 16.3347 1.59232 16.3739 1.58662 16.412H6.16762C6.52114 14.5728 8.12441 13.1842 10.0488 13.1842C12.2323 13.1842 14.0024 14.972 14.0024 17.1774V17.9427H0V17.1774L0.000347843 17.1668C0.00248977 17.1014 0.00783025 16.9385 0.0144099 16.8455C0.0283323 16.6486 0.0558119 16.3723 0.110182 16.0429C0.218326 15.3875 0.436025 14.502 0.878975 13.6072C1.32342 12.7095 2.00197 11.7885 3.03399 11.0936C4.07074 10.3955 5.41901 9.95635 7.1496 9.95635C8.61495 9.95635 9.66357 9.58855 10.4245 9.0762C11.1902 8.56065 11.7101 7.86775 12.0647 7.15155C12.4207 6.4324 12.6025 5.70395 12.6941 5.14885C12.7007 5.10865 12.7069 5.06945 12.7125 5.03135H8.13837C7.7849 6.8706 6.18163 8.2592 4.25723 8.2592C2.07368 8.2592 0.303553 6.4714 0.303553 4.266V3.50066L14.2992 3.50064ZM6.5753 5.03135H1.93914C2.25785 6.01665 3.17523 6.7285 4.25723 6.7285C5.33926 6.7285 6.25663 6.01665 6.5753 5.03135ZM7.73069 16.412H12.3669C12.0482 15.4267 11.1308 14.7149 10.0488 14.7149C8.96678 14.7149 8.04941 15.4267 7.73069 16.412ZM5.31673 13.3495L6.19089 14.3827L6.52218 13.9534L5.31673 13.3495ZM5.59817 15.6014L4.41628 14.9517L5.75579 15.0809L5.59817 15.6014ZM6.73762 12.1268L7.21852 13.3961L7.67307 13.1037L6.73762 12.1268Z" stroke="black" stroke-width="0.248028"/>
</g>
<defs>
<clipPath id="clip0_4121_8042">
<rect width="100" height="18" fill="white"/>
</clipPath>
</defs>
</svg>
