<svg width="69" height="75" viewBox="0 0 69 75" fill="none"
    xmlns="http://www.w3.org/2000/svg">
    <path d="M51.7924 58.1897H17.2042V36.7302H51.7597L51.7924 58.1897ZM34.4602 38.4517C31.508 38.4548 28.6022 39.1911 26.0008 40.5952C23.3994 41.9992 21.1828 44.0277 19.5479 46.5005C19.3316 46.7516 19.2125 47.0728 19.2125 47.4051C19.2125 47.7374 19.3316 48.0586 19.5479 48.3098C21.1933 50.7711 23.4141 52.7886 26.0153 54.1854C28.6166 55.5821 31.5188 56.3153 34.4675 56.3208C37.4161 56.3262 40.321 55.6036 42.9273 54.2164C45.5336 52.8293 47.7617 50.8199 49.416 48.3646C49.652 48.0992 49.7825 47.7556 49.7825 47.3996C49.7825 47.0436 49.652 46.7 49.416 46.4346C47.7662 43.972 45.5385 41.9563 42.9299 40.5658C40.3213 39.1754 37.4123 38.453 34.4602 38.4627V38.4517Z" fill="black"/>
    <path d="M34.5583 34.7234C31.625 34.7175 28.7368 33.9961 26.1415 32.621C23.5461 31.2459 21.321 29.2582 19.6569 26.8283C19.3795 26.5314 19.225 26.1392 19.225 25.7317C19.225 25.3242 19.3795 24.9321 19.6569 24.6352C21.3201 22.2096 23.5467 20.229 26.1434 18.8655C28.7401 17.5019 31.6284 16.7965 34.5575 16.8106C37.4867 16.8246 40.3682 17.5577 42.9519 18.9461C45.5356 20.3345 47.7433 22.3363 49.3834 24.7777C49.6185 25.0413 49.7486 25.383 49.7486 25.7372C49.7486 26.0914 49.6185 26.4331 49.3834 26.6967C47.7453 29.1443 45.5396 31.1541 42.9567 32.5526C40.3738 33.951 37.4914 34.6961 34.5583 34.7234ZM41.0116 25.8413C41.0419 24.534 40.6842 23.2472 39.9843 22.1452C39.2843 21.0432 38.2737 20.1761 37.0816 19.6545C35.8895 19.1329 34.5698 18.9805 33.2912 19.2168C32.0126 19.4531 30.833 20.0673 29.903 20.981C28.9729 21.8947 28.3347 23.0665 28.0697 24.3468C27.8047 25.627 27.925 26.9577 28.4153 28.1689C28.9055 29.3801 29.7434 30.4168 30.822 31.1468C31.9007 31.8767 33.1711 32.2668 34.4711 32.2672C36.1796 32.2676 37.8205 31.5956 39.0428 30.3947C40.2651 29.1939 40.9717 27.5595 41.0116 25.8413Z" fill="black"/>
    <path d="M34.4926 53.88C33.225 53.8584 31.992 53.4604 30.9486 52.736C29.9051 52.0116 29.0978 50.9932 28.628 49.8086C28.1582 48.6241 28.0469 47.3263 28.3082 46.0783C28.5694 44.8303 29.1914 43.6879 30.0962 42.7944C31.0009 41.901 32.148 41.2965 33.3932 41.0569C34.6384 40.8172 35.9263 40.9532 37.0949 41.4476C38.2636 41.942 39.2609 42.7728 39.9616 43.8357C40.6623 44.8985 41.035 46.146 41.0331 47.4214C41.0303 48.2789 40.8584 49.1274 40.5272 49.9176C40.196 50.7078 39.7122 51.4241 39.1038 52.0248C38.4955 52.6256 37.7747 53.0989 36.9831 53.4174C36.1916 53.7358 35.345 53.8931 34.4926 53.88Z" fill="black"/>
</svg>
    