<svg width="358" height="265" viewBox="0 0 358 265" fill="none" xmlns="http://www.w3.org/2000/svg">
<g clip-path="url(#clip0_1849_1674)">
<path d="M327.508 84.4823L327.427 84.9757L327.879 85.0499L327.993 84.6062L327.508 84.4823ZM350.568 -5.68652L350.692 -6.17093L350.207 -6.29482L350.083 -5.81041L350.568 -5.68652ZM202.693 63.9831L202.612 64.4765L202.693 63.9831ZM34.6346 36.3818L34.5535 36.8752L34.6346 36.3818ZM-15.907 28.081L-15.826 27.5876L-15.907 28.081ZM-71.9222 18.8813L-72.0249 19.3706L-72.0141 19.3729L-72.0032 19.3747L-71.9222 18.8813ZM-160.496 0.299433L-160.393 -0.189914L-160.882 -0.292575L-160.985 0.196773L-160.496 0.299433ZM-162.533 10.0103L-163.022 9.90765L-163.125 10.397L-162.636 10.4997L-162.533 10.0103ZM-78.5458 27.63L-78.0533 27.716L-77.9702 27.2399L-78.4432 27.1406L-78.5458 27.63ZM-95.3272 123.76L-95.438 124.248L-94.9251 124.364L-94.8346 123.846L-95.3272 123.76ZM-174.33 105.805L-174.827 105.743L-174.882 106.192L-174.441 106.292L-174.33 105.805ZM-163.723 20.6501L-163.227 20.7119L-163.165 20.2157L-163.661 20.1539L-163.723 20.6501ZM-173.569 19.4236L-173.507 18.9274L-174.003 18.8656L-174.065 19.3617L-173.569 19.4236ZM-183.983 103.026L-184.141 103.501L-183.562 103.694L-183.487 103.088L-183.983 103.026ZM-213.588 93.1581L-213.43 92.6838L-213.904 92.5257L-214.062 93L-213.588 93.1581ZM-216.725 102.571L-217.2 102.413L-217.358 102.887L-216.884 103.046L-216.725 102.571ZM-181.377 114.354L-181.535 114.828L-181.535 114.828L-181.377 114.354ZM-181.146 114.431L-181.304 114.905L-181.281 114.913L-181.257 114.919L-181.146 114.431ZM-180.908 114.485L-180.797 113.998L-180.908 114.485ZM-97.0357 133.547L-96.5431 133.633L-96.4614 133.165L-96.9249 133.059L-97.0357 133.547ZM-102.769 166.39L-102.296 166.553L-102.283 166.515L-102.276 166.476L-102.769 166.39ZM-134.888 259.658L-135.361 259.495L-135.523 259.968L-135.051 260.131L-134.888 259.658ZM-125.506 262.889L-125.669 263.362L-125.196 263.525L-125.034 263.052L-125.506 262.889ZM-94.5839 173.095L-94.5167 172.6L-94.9231 172.544L-95.0566 172.932L-94.5839 173.095ZM-43.7337 179.99L-43.6664 179.495L-43.6665 179.495L-43.7337 179.99ZM-43.7135 179.993L-43.7807 180.488L-43.7767 180.489L-43.7135 179.993ZM-43.6932 179.995L-43.7565 180.491L-43.7563 180.491L-43.6932 179.995ZM14.9102 187.451L14.9733 186.955L14.9102 187.451ZM182.887 208.822L182.967 208.328L182.958 208.327L182.95 208.326L182.887 208.822ZM309.01 229.133L309.507 229.194L309.566 228.716L309.09 228.639L309.01 229.133ZM302.7 280.2L302.203 280.138L302.142 280.635L302.638 280.696L302.7 280.2ZM312.547 281.417L312.486 281.913L312.982 281.974L313.043 281.478L312.547 281.417ZM319.444 225.604L319.94 225.665L319.444 225.604ZM328.602 151.497L328.106 151.435L328.602 151.497ZM336.074 91.0368L335.589 90.9129L335.581 90.9438L335.577 90.9755L336.074 91.0368ZM360.181 -3.22814L360.665 -3.10426L360.789 -3.58867L360.305 -3.71255L360.181 -3.22814ZM325.68 94.2373L326.177 94.2986L326.236 93.8218L325.761 93.7439L325.68 94.2373ZM206.12 74.6012L206.201 74.1078L205.694 74.0244L205.625 74.534L206.12 74.6012ZM319.387 145.167L319.307 145.66L319.819 145.743L319.883 145.228L319.387 145.167ZM199.2 125.68L198.705 125.613L198.639 126.095L199.12 126.173L199.2 125.68ZM318.169 155.021L318.665 155.082L318.724 154.604L318.249 154.527L318.169 155.021ZM197.868 135.516L197.948 135.022L197.441 134.94L197.372 135.449L197.868 135.516ZM310.228 219.279L310.149 219.773L310.661 219.855L310.724 219.34L310.228 219.279ZM189.161 199.782L188.665 199.715L188.6 200.198L189.081 200.275L189.161 199.782ZM196.325 72.9925L196.821 73.0596L196.886 72.5779L196.406 72.4991L196.325 72.9925ZM38.0913 47.0047L38.1724 46.5113L37.6619 46.4275L37.5955 46.9405L38.0913 47.0047ZM188.719 129.137L189.214 129.205V129.205L188.719 129.137ZM179.339 198.368L179.276 198.864L179.768 198.927L179.835 198.435L179.339 198.368ZM21.095 178.236L20.5992 178.171L20.5348 178.668L21.032 178.732L21.095 178.236ZM11.2521 176.983L11.189 177.479L11.6839 177.542L11.7479 177.048L11.2521 176.983ZM28.2946 45.3957L28.7904 45.4599L28.8525 44.9807L28.3756 44.9023L28.2946 45.3957ZM-37.2314 170.815L-37.7231 170.724L-37.8196 171.244L-37.2945 171.311L-37.2314 170.815ZM-12.7194 38.6597L-12.6384 38.1663L-13.1217 38.087L-13.211 38.5686L-12.7194 38.6597ZM-47.0833 169.523L-47.1504 170.018L-46.6785 170.082L-46.5916 169.614L-47.0833 169.523ZM-22.5126 37.0513L-22.021 37.1425L-21.9279 36.6407L-22.4316 36.5579L-22.5126 37.0513ZM-92.1762 163.408L-92.6688 163.322L-92.7581 163.834L-92.2434 163.904L-92.1762 163.408ZM-68.7914 29.4507L-68.7103 28.9573L-69.1988 28.8771L-69.2839 29.3647L-68.7914 29.4507ZM379.428 3.99597L379.518 3.50421L379.008 3.41042L378.933 3.92351L379.428 3.99597ZM384.488 4.92663L384.398 5.41838L384.488 4.92663ZM378.682 9.08701L379.177 9.15946V9.15946L378.682 9.08701ZM340.853 267.376L340.359 267.304L340.286 267.799L340.781 267.871L340.853 267.376ZM350.671 268.814L350.598 269.309L351.093 269.381L351.166 268.887L350.671 268.814ZM387.754 15.6159L387.844 15.1242L387.334 15.0304L387.259 15.5435L387.754 15.6159ZM409.67 19.6464L409.579 20.1381L410.071 20.2286L410.161 19.7368L409.67 19.6464ZM411.464 9.88777L411.956 9.9782L412.047 9.48645L411.555 9.39602L411.464 9.88777ZM327.993 84.6062L351.052 -5.56264L350.083 -5.81041L327.024 84.3584L327.993 84.6062ZM202.612 64.4765L327.427 84.9757L327.589 83.9889L202.774 63.4897L202.612 64.4765ZM34.5535 36.8752L202.612 64.4765L202.774 63.4897L34.7156 35.8884L34.5535 36.8752ZM-15.9881 28.5744L34.5535 36.8752L34.7156 35.8884L-15.826 27.5876L-15.9881 28.5744ZM-72.0032 19.3747L-15.9881 28.5744L-15.826 27.5876L-71.8412 18.3879L-72.0032 19.3747ZM-160.598 0.78878L-72.0249 19.3706L-71.8195 18.3919L-160.393 -0.189914L-160.598 0.78878ZM-162.044 10.113L-160.006 0.402093L-160.985 0.196773L-163.022 9.90765L-162.044 10.113ZM-78.4432 27.1406L-162.43 9.52097L-162.636 10.4997L-78.6485 28.1193L-78.4432 27.1406ZM-94.8346 123.846L-78.0533 27.716L-79.0384 27.544L-95.8197 123.674L-94.8346 123.846ZM-174.441 106.292L-95.438 124.248L-95.2163 123.272L-174.22 105.317L-174.441 106.292ZM-164.219 20.5883L-174.827 105.743L-173.834 105.867L-163.227 20.7119L-164.219 20.5883ZM-173.631 19.9197L-163.785 21.1462L-163.661 20.1539L-173.507 18.9274L-173.631 19.9197ZM-183.487 103.088L-173.073 19.4854L-174.065 19.3617L-184.479 102.964L-183.487 103.088ZM-213.746 93.6325L-184.141 103.501L-183.825 102.552L-213.43 92.6838L-213.746 93.6325ZM-216.251 102.729L-213.113 93.3162L-214.062 93L-217.2 102.413L-216.251 102.729ZM-181.219 113.88L-216.567 102.097L-216.884 103.046L-181.535 114.828L-181.219 113.88ZM-180.988 113.957L-181.219 113.88L-181.535 114.828L-181.304 114.905L-180.988 113.957ZM-180.797 113.998L-181.035 113.943L-181.257 114.919L-181.019 114.973L-180.797 113.998ZM-96.9249 133.059L-180.797 113.998L-181.019 114.973L-97.1465 134.035L-96.9249 133.059ZM-102.276 166.476L-96.5431 133.633L-97.5282 133.461L-103.262 166.304L-102.276 166.476ZM-134.415 259.821L-102.296 166.553L-103.242 166.227L-135.361 259.495L-134.415 259.821ZM-125.344 262.416L-134.725 259.186L-135.051 260.131L-125.669 263.362L-125.344 262.416ZM-95.0566 172.932L-125.979 262.726L-125.034 263.052L-94.1111 173.258L-95.0566 172.932ZM-43.6665 179.495L-94.5167 172.6L-94.6511 173.591L-43.8009 180.485L-43.6665 179.495ZM-43.6462 179.497L-43.6664 179.495L-43.801 180.485L-43.7807 180.488L-43.6462 179.497ZM-43.63 179.499L-43.6503 179.497L-43.7767 180.489L-43.7565 180.491L-43.63 179.499ZM14.9733 186.955L-43.6301 179.499L-43.7563 180.491L14.8471 187.947L14.9733 186.955ZM182.95 208.326L14.9733 186.955L14.8471 187.947L182.824 209.318L182.95 208.326ZM309.09 228.639L182.967 208.328L182.808 209.315L308.931 229.627L309.09 228.639ZM303.196 280.261L309.507 229.194L308.514 229.072L302.203 280.138L303.196 280.261ZM312.608 280.92L302.761 279.703L302.638 280.696L312.486 281.913L312.608 280.92ZM318.948 225.542L312.051 281.355L313.043 281.478L319.94 225.665L318.948 225.542ZM328.106 151.435L318.948 225.542L319.94 225.665L329.098 151.558L328.106 151.435ZM335.577 90.9755L328.106 151.435L329.098 151.558L336.57 91.0981L335.577 90.9755ZM359.696 -3.35202L335.589 90.9129L336.558 91.1607L360.665 -3.10426L359.696 -3.35202ZM350.444 -5.20211L360.057 -2.74373L360.305 -3.71255L350.692 -6.17093L350.444 -5.20211ZM325.761 93.7439L206.201 74.1078L206.039 75.0946L325.599 94.7307L325.761 93.7439ZM319.883 145.228L326.177 94.2986L325.184 94.176L318.891 145.105L319.883 145.228ZM199.12 126.173L319.307 145.66L319.467 144.673L199.28 125.186L199.12 126.173ZM205.625 74.534L198.705 125.613L199.696 125.747L206.616 74.6683L205.625 74.534ZM318.249 154.527L197.948 135.022L197.788 136.009L318.089 155.514L318.249 154.527ZM310.724 219.34L318.665 155.082L317.673 154.96L309.732 219.218L310.724 219.34ZM189.081 200.275L310.149 219.773L310.308 218.785L189.24 199.288L189.081 200.275ZM197.372 135.449L188.665 199.715L189.656 199.849L198.363 135.583L197.372 135.449ZM196.406 72.4991L38.1724 46.5113L38.0103 47.4981L196.244 73.4859L196.406 72.4991ZM189.214 129.205L196.821 73.0596L195.83 72.9254L188.223 129.07L189.214 129.205ZM179.835 198.435L189.214 129.205L188.223 129.07L178.844 198.301L179.835 198.435ZM21.032 178.732L179.276 198.864L179.402 197.872L21.1582 177.74L21.032 178.732ZM37.5955 46.9405L20.5992 178.171L21.5909 178.3L38.5872 47.0689L37.5955 46.9405ZM11.7479 177.048L28.7904 45.4599L27.7987 45.3315L10.7562 176.919L11.7479 177.048ZM-37.2945 171.311L11.189 177.479L11.3152 176.487L-37.1683 170.319L-37.2945 171.311ZM-13.211 38.5686L-37.7231 170.724L-36.7398 170.906L-12.2278 38.7509L-13.211 38.5686ZM28.3756 44.9023L-12.6384 38.1663L-12.8004 39.1531L28.2135 45.8891L28.3756 44.9023ZM-46.5916 169.614L-22.021 37.1425L-23.0042 36.9602L-47.5749 169.432L-46.5916 169.614ZM-92.2434 163.904L-47.1504 170.018L-47.0161 169.027L-92.109 162.913L-92.2434 163.904ZM-69.2839 29.3647L-92.6688 163.322L-91.6837 163.494L-68.2988 29.5367L-69.2839 29.3647ZM-22.4316 36.5579L-68.7103 28.9573L-68.8724 29.9441L-22.5936 37.5447L-22.4316 36.5579ZM379.337 4.48772L384.398 5.41838L384.579 4.43488L379.518 3.50421L379.337 4.48772ZM379.177 9.15946L379.922 4.06842L378.933 3.92351L378.187 9.01455L379.177 9.15946ZM341.348 267.449L379.177 9.15946L378.187 9.01455L340.359 267.304L341.348 267.449ZM350.743 268.319L340.926 266.882L340.781 267.871L350.598 269.309L350.743 268.319ZM387.259 15.5435L350.176 268.742L351.166 268.887L388.249 15.6884L387.259 15.5435ZM409.76 19.1546L387.844 15.1242L387.664 16.1077L409.579 20.1381L409.76 19.1546ZM410.973 9.79733L409.178 19.556L410.161 19.7368L411.956 9.9782L410.973 9.79733ZM384.398 5.41838L411.374 10.3795L411.555 9.39602L384.579 4.43488L384.398 5.41838Z" fill="black"/>
<rect width="82.742" height="19.2708" transform="translate(164.198 123.556)" fill="black"/>
<g clip-path="url(#clip1_1849_1674)">
<path d="M175.257 131.497C175.257 133.607 171.445 138.698 171.445 138.698C171.445 138.698 167.633 133.607 167.633 131.497C167.633 130.486 168.035 129.517 168.749 128.802C169.464 128.087 170.434 127.686 171.445 127.686C172.456 127.686 173.425 128.087 174.14 128.802C174.855 129.517 175.257 130.486 175.257 131.497Z" fill="white"/>
<path d="M171.445 132.768C172.147 132.768 172.715 132.199 172.715 131.497C172.715 130.795 172.147 130.227 171.445 130.227C170.743 130.227 170.174 130.795 170.174 131.497C170.174 132.199 170.743 132.768 171.445 132.768Z" fill="black"/>
</g>
<path d="M186.99 131.598C186.99 131.389 186.947 131.205 186.86 131.045C186.781 130.885 186.67 130.753 186.528 130.648C186.387 130.544 186.224 130.464 186.04 130.409C185.855 130.353 185.661 130.326 185.458 130.326C185.28 130.326 185.111 130.35 184.951 130.399C184.791 130.442 184.647 130.507 184.518 130.593C184.395 130.679 184.296 130.787 184.222 130.916C184.149 131.039 184.112 131.183 184.112 131.349V131.405C184.112 131.583 184.149 131.737 184.222 131.866C184.296 131.989 184.404 132.096 184.545 132.189C184.693 132.275 184.874 132.349 185.089 132.41C185.305 132.465 185.557 132.515 185.846 132.558C186.522 132.662 187.02 132.862 187.34 133.157C187.66 133.446 187.82 133.837 187.82 134.329V134.439C187.82 134.716 187.771 134.971 187.672 135.205C187.58 135.432 187.438 135.629 187.248 135.795C187.063 135.961 186.833 136.09 186.556 136.183C186.279 136.275 185.96 136.321 185.597 136.321C185.185 136.321 184.819 136.263 184.499 136.146C184.186 136.023 183.921 135.857 183.706 135.648C183.497 135.432 183.337 135.183 183.226 134.901C183.116 134.612 183.06 134.298 183.06 133.96V133.683H183.835V133.904C183.835 134.47 183.989 134.894 184.296 135.177C184.61 135.46 185.043 135.602 185.597 135.602C186.076 135.602 186.436 135.497 186.676 135.288C186.922 135.073 187.045 134.79 187.045 134.439V134.384C187.045 134.046 186.919 133.788 186.667 133.609C186.421 133.431 186.018 133.302 185.458 133.222C185.133 133.179 184.837 133.114 184.573 133.028C184.315 132.936 184.093 132.819 183.909 132.678C183.724 132.53 183.583 132.355 183.485 132.152C183.386 131.949 183.337 131.709 183.337 131.432V131.322C183.337 131.07 183.389 130.839 183.494 130.63C183.598 130.421 183.743 130.239 183.927 130.086C184.118 129.932 184.342 129.815 184.601 129.735C184.865 129.649 185.154 129.606 185.468 129.606C185.83 129.606 186.153 129.658 186.436 129.763C186.725 129.867 186.968 130.009 187.165 130.187C187.362 130.359 187.509 130.565 187.608 130.805C187.712 131.039 187.764 131.285 187.764 131.543V131.93H186.99V131.598ZM190.295 129.735H191.069V135.472H194.445V136.192H190.295V129.735ZM196.892 132.244C196.892 131.408 197.092 130.759 197.492 130.298C197.892 129.837 198.448 129.606 199.162 129.606C199.875 129.606 200.431 129.837 200.831 130.298C201.231 130.759 201.431 131.408 201.431 132.244V133.683C201.431 134.544 201.231 135.199 200.831 135.648C200.431 136.097 199.875 136.321 199.162 136.321C198.448 136.321 197.892 136.097 197.492 135.648C197.092 135.199 196.892 134.544 196.892 133.683V132.244ZM199.162 135.602C199.66 135.602 200.032 135.432 200.278 135.094C200.53 134.75 200.656 134.261 200.656 133.628V132.299C200.656 131.709 200.53 131.233 200.278 130.87C200.032 130.507 199.66 130.326 199.162 130.326C198.663 130.326 198.288 130.507 198.036 130.87C197.79 131.233 197.667 131.709 197.667 132.299V133.628C197.667 134.261 197.79 134.75 198.036 135.094C198.288 135.432 198.663 135.602 199.162 135.602ZM208.075 136.192H206.663L206.064 130.067H205.953L205.354 136.192H203.942L203.287 129.735H203.988L204.606 135.86H204.717L205.298 129.735H206.719L207.3 135.86H207.41L208.028 129.735H208.729L208.075 136.192ZM212.892 135.602C213.157 135.602 213.381 135.559 213.566 135.472C213.756 135.38 213.91 135.26 214.027 135.113C214.15 134.959 214.239 134.787 214.294 134.596C214.356 134.399 214.387 134.193 214.387 133.978V133.867H215.161V133.978C215.161 134.304 215.112 134.612 215.014 134.901C214.915 135.183 214.771 135.432 214.58 135.648C214.39 135.857 214.153 136.023 213.87 136.146C213.587 136.263 213.261 136.321 212.892 136.321C212.179 136.321 211.622 136.097 211.223 135.648C210.823 135.199 210.623 134.544 210.623 133.683V132.244C210.623 131.408 210.823 130.759 211.223 130.298C211.622 129.837 212.179 129.606 212.892 129.606C213.261 129.606 213.587 129.668 213.87 129.791C214.153 129.907 214.39 130.073 214.58 130.289C214.771 130.498 214.915 130.747 215.014 131.036C215.112 131.319 215.161 131.623 215.161 131.949V132.06H214.387V131.949C214.38 131.74 214.347 131.537 214.285 131.34C214.23 131.143 214.141 130.971 214.018 130.824C213.901 130.67 213.75 130.55 213.566 130.464C213.381 130.372 213.157 130.326 212.892 130.326C212.394 130.326 212.019 130.507 211.767 130.87C211.521 131.233 211.398 131.709 211.398 132.299V133.628C211.398 134.261 211.521 134.75 211.767 135.094C212.019 135.432 212.394 135.602 212.892 135.602ZM217.433 132.244C217.433 131.408 217.633 130.759 218.033 130.298C218.432 129.837 218.989 129.606 219.702 129.606C220.416 129.606 220.972 129.837 221.372 130.298C221.772 130.759 221.971 131.408 221.971 132.244V133.683C221.971 134.544 221.772 135.199 221.372 135.648C220.972 136.097 220.416 136.321 219.702 136.321C218.989 136.321 218.432 136.097 218.033 135.648C217.633 135.199 217.433 134.544 217.433 133.683V132.244ZM219.702 135.602C220.2 135.602 220.572 135.432 220.818 135.094C221.071 134.75 221.197 134.261 221.197 133.628V132.299C221.197 131.709 221.071 131.233 220.818 130.87C220.572 130.507 220.2 130.326 219.702 130.326C219.204 130.326 218.829 130.507 218.577 130.87C218.331 131.233 218.208 131.709 218.208 132.299V133.628C218.208 134.261 218.331 134.75 218.577 135.094C218.829 135.432 219.204 135.602 219.702 135.602ZM224.151 129.735H225.627L226.494 135.86H226.605L227.472 129.735H228.947V136.192H228.228V130.067H228.117L227.25 136.192H225.848L224.981 130.067H224.87V136.192H224.151V129.735ZM231.099 135.472H231.653V130.455H231.099V129.735H233.71C234.017 129.735 234.288 129.778 234.521 129.864C234.761 129.95 234.961 130.067 235.121 130.215C235.287 130.362 235.41 130.541 235.49 130.75C235.576 130.953 235.619 131.174 235.619 131.414V131.525C235.619 131.703 235.591 131.866 235.536 132.013C235.481 132.161 235.404 132.293 235.306 132.41C235.207 132.527 235.09 132.628 234.955 132.714C234.826 132.794 234.684 132.856 234.531 132.899V133.01C234.838 133.096 235.096 133.262 235.306 133.508C235.515 133.748 235.619 134.043 235.619 134.393V134.504C235.619 134.744 235.576 134.968 235.49 135.177C235.41 135.38 235.287 135.559 235.121 135.712C234.961 135.86 234.761 135.977 234.521 136.063C234.288 136.149 234.017 136.192 233.71 136.192H231.099V135.472ZM232.428 135.472H233.654C234.017 135.472 234.312 135.383 234.54 135.205C234.767 135.02 234.881 134.768 234.881 134.449V134.393C234.881 134.061 234.774 133.8 234.558 133.609C234.343 133.412 234.051 133.314 233.682 133.314H232.428V135.472ZM232.428 132.595H233.682C234.051 132.595 234.343 132.499 234.558 132.309C234.774 132.118 234.881 131.857 234.881 131.525V131.469C234.881 131.156 234.767 130.91 234.54 130.731C234.312 130.547 234.017 130.455 233.654 130.455H232.428V132.595ZM237.974 132.244C237.974 131.408 238.174 130.759 238.574 130.298C238.973 129.837 239.53 129.606 240.243 129.606C240.956 129.606 241.513 129.837 241.913 130.298C242.312 130.759 242.512 131.408 242.512 132.244V133.683C242.512 134.544 242.312 135.199 241.913 135.648C241.513 136.097 240.956 136.321 240.243 136.321C239.53 136.321 238.973 136.097 238.574 135.648C238.174 135.199 237.974 134.544 237.974 133.683V132.244ZM240.243 135.602C240.741 135.602 241.113 135.432 241.359 135.094C241.611 134.75 241.737 134.261 241.737 133.628V132.299C241.737 131.709 241.611 131.233 241.359 130.87C241.113 130.507 240.741 130.326 240.243 130.326C239.745 130.326 239.37 130.507 239.118 130.87C238.872 131.233 238.749 131.709 238.749 132.299V133.628C238.749 134.261 238.872 134.75 239.118 135.094C239.37 135.432 239.745 135.602 240.243 135.602Z" fill="white"/>
<rect width="95" height="27" transform="translate(-1.83252 62.9429)" fill="#F7F7F7"/>
<path d="M1.02688 72.3525C1.2913 72.3525 1.51575 72.3095 1.70023 72.2234C1.89085 72.1312 2.04459 72.0113 2.16142 71.8637C2.28441 71.7099 2.37357 71.5378 2.42891 71.3471C2.49041 71.1504 2.52115 70.9444 2.52115 70.7291V70.6185H3.29596V70.7291C3.29596 71.055 3.24677 71.3625 3.14838 71.6515C3.04999 71.9344 2.90548 72.1834 2.71485 72.3987C2.52423 72.6077 2.28748 72.7738 2.00462 72.8968C1.72175 73.0136 1.39584 73.072 1.02688 73.072C0.313571 73.072 -0.242937 72.8476 -0.642639 72.3987C-1.04234 71.9498 -1.24219 71.2949 -1.24219 70.434V68.995C-1.24219 68.1588 -1.04234 67.51 -0.642639 67.0488C-0.242937 66.5876 0.313571 66.357 1.02688 66.357C1.39584 66.357 1.72175 66.4185 2.00462 66.5415C2.28748 66.6583 2.52423 66.8244 2.71485 67.0396C2.90548 67.2487 3.04999 67.4977 3.14838 67.7867C3.24677 68.0696 3.29596 68.374 3.29596 68.6999V68.8106H2.52115V68.6999C2.515 68.4908 2.48118 68.2879 2.41969 68.0911C2.36435 67.8943 2.27518 67.7222 2.1522 67.5746C2.03536 67.4208 1.88471 67.3009 1.70023 67.2148C1.51575 67.1226 1.2913 67.0765 1.02688 67.0765C0.528795 67.0765 0.15369 67.2579 -0.0984295 67.6207C-0.3444 67.9835 -0.467385 68.4601 -0.467385 69.0504V70.3786C-0.467385 71.012 -0.3444 71.5009 -0.0984295 71.8452C0.15369 72.1834 0.528795 72.3525 1.02688 72.3525ZM5.68776 66.4862H6.46256V69.3456H9.21128V66.4862H9.98609V72.9429H9.21128V70.065H6.46256V72.9429H5.68776V66.4862ZM13.2449 66.4862V70.766C13.2449 71.2887 13.3648 71.6853 13.6047 71.9559C13.8506 72.2203 14.2104 72.3525 14.6839 72.3525C15.1573 72.3525 15.514 72.2203 15.7538 71.9559C15.9998 71.6853 16.1228 71.2887 16.1228 70.766V66.4862H16.8976V70.766C16.8976 71.5162 16.7008 72.0881 16.3073 72.4817C15.9137 72.8752 15.3726 73.072 14.6839 73.072C13.9951 73.072 13.454 72.8752 13.0604 72.4817C12.6669 72.0881 12.4701 71.5162 12.4701 70.766V66.4862H13.2449ZM19.5108 66.4862H20.2856V72.2234H23.6615V72.9429H19.5108V66.4862ZM29.7613 71.3379H26.9941L26.5237 72.9429H25.6936L27.649 66.4862H29.1064L31.0619 72.9429H30.2317L29.7613 71.3379ZM28.3224 66.8182L27.2063 70.6185H29.5491L28.4331 66.8182H28.3224ZM33.2046 66.4862H33.9794V72.2234H37.3554V72.9429H33.2046V66.4862ZM39.8025 68.995C39.8025 68.1588 40.0024 67.51 40.4021 67.0488C40.8018 66.5876 41.3583 66.357 42.0716 66.357C42.7849 66.357 43.3414 66.5876 43.7411 67.0488C44.1408 67.51 44.3407 68.1588 44.3407 68.995V70.434C44.3407 71.2949 44.1408 71.9498 43.7411 72.3987C43.3414 72.8476 42.7849 73.072 42.0716 73.072C41.3583 73.072 40.8018 72.8476 40.4021 72.3987C40.0024 71.9498 39.8025 71.2949 39.8025 70.434V68.995ZM42.0716 72.3525C42.5697 72.3525 42.9417 72.1834 43.1877 71.8452C43.4398 71.5009 43.5658 71.012 43.5658 70.3786V69.0504C43.5658 68.4601 43.4398 67.9835 43.1877 67.6207C42.9417 67.2579 42.5697 67.0765 42.0716 67.0765C41.5735 67.0765 41.1984 67.2579 40.9463 67.6207C40.7003 67.9835 40.5773 68.4601 40.5773 69.0504V70.3786C40.5773 71.012 40.7003 71.5009 40.9463 71.8452C41.1984 72.1834 41.5735 72.3525 42.0716 72.3525ZM50.1822 72.6108H50.2929V66.4862H51.0677V72.9429H49.5181L47.6548 66.8182H47.5442V72.9429H46.7693V66.4862H48.319L50.1822 72.6108ZM55.1474 69.8436H58.0253V72.9429H57.3058V72.1681H57.1951C57.0906 72.4386 56.9061 72.6569 56.6417 72.823C56.3773 72.989 56.0698 73.072 55.7193 73.072C55.0245 73.072 54.4772 72.8476 54.0775 72.3987C53.6839 71.9498 53.4871 71.2949 53.4871 70.434V68.995C53.4871 68.1588 53.687 67.51 54.0867 67.0488C54.4864 66.5876 55.0429 66.357 55.7562 66.357C56.1252 66.357 56.4511 66.4185 56.7339 66.5415C57.0168 66.6583 57.2536 66.8244 57.4442 67.0396C57.6348 67.2487 57.7793 67.4977 57.8777 67.7867C57.9761 68.0696 58.0253 68.374 58.0253 68.6999V68.8106H57.2505V68.6999C57.2505 68.4908 57.2197 68.2879 57.1582 68.0911C57.1029 67.8943 57.0137 67.7222 56.8908 67.5746C56.7739 67.4208 56.6202 67.3009 56.4296 67.2148C56.2451 67.1226 56.0206 67.0765 55.7562 67.0765C55.2581 67.0765 54.883 67.2579 54.6309 67.6207C54.3849 67.9835 54.2619 68.4601 54.2619 69.0504V70.3786C54.2619 71.012 54.3849 71.5009 54.6309 71.8452C54.883 72.1834 55.2643 72.3525 55.7747 72.3525C56.2359 72.3525 56.5956 72.205 56.8539 71.9098C57.1183 71.6146 57.2505 71.2026 57.2505 70.6738V70.5631H55.1474V69.8436ZM61.3856 72.9429H60.6108V66.4862H61.3856V69.3456H61.5977L64.079 66.4862H65.0383V66.5415L62.3633 69.6592V69.7699L65.1489 72.8875V72.9429H64.1712L61.5977 70.065H61.3856V72.9429ZM67.1902 68.995C67.1902 68.1588 67.3901 67.51 67.7898 67.0488C68.1895 66.5876 68.746 66.357 69.4593 66.357C70.1726 66.357 70.7291 66.5876 71.1288 67.0488C71.5285 67.51 71.7284 68.1588 71.7284 68.995V70.434C71.7284 71.2949 71.5285 71.9498 71.1288 72.3987C70.7291 72.8476 70.1726 73.072 69.4593 73.072C68.746 73.072 68.1895 72.8476 67.7898 72.3987C67.3901 71.9498 67.1902 71.2949 67.1902 70.434V68.995ZM69.4593 72.3525C69.9574 72.3525 70.3294 72.1834 70.5754 71.8452C70.8275 71.5009 70.9536 71.012 70.9536 70.3786V69.0504C70.9536 68.4601 70.8275 67.9835 70.5754 67.6207C70.3294 67.2579 69.9574 67.0765 69.4593 67.0765C68.9612 67.0765 68.5861 67.2579 68.334 67.6207C68.088 67.9835 67.965 68.4601 67.965 69.0504V70.3786C67.965 71.012 68.088 71.5009 68.334 71.8452C68.5861 72.1834 68.9612 72.3525 69.4593 72.3525ZM78.3263 72.9429H77.5515V70.7845C77.5515 70.6246 77.5146 70.5016 77.4408 70.4155C77.367 70.3294 77.2378 70.2864 77.0534 70.2864H75.0426V72.9429H74.2678V66.4862H76.5737C76.9058 66.4862 77.1948 66.5353 77.4408 66.6337C77.6867 66.726 77.8897 66.852 78.0495 67.0119C78.2156 67.1718 78.3386 67.3593 78.4185 67.5746C78.5046 67.7836 78.5476 68.005 78.5476 68.2387V68.5154C78.5476 68.7552 78.48 68.995 78.3447 69.2349C78.2156 69.4747 78.0127 69.6592 77.7359 69.7883V69.899C77.9204 69.9297 78.0649 70.0035 78.1695 70.1204C78.274 70.2372 78.3263 70.4032 78.3263 70.6185V72.9429ZM75.0426 69.5669H76.4815C76.9181 69.5669 77.2409 69.4747 77.45 69.2902C77.6652 69.0996 77.7728 68.8229 77.7728 68.4601V68.294C77.7728 67.9681 77.6652 67.7068 77.45 67.51C77.2409 67.3071 76.9181 67.2056 76.4815 67.2056H75.0426V69.5669ZM84.4168 72.6108H84.5275V66.4862H85.3023V72.9429H83.7527L81.8895 66.8182H81.7788V72.9429H81.004V66.4862H82.5536L84.4168 72.6108ZM0.879302 79.4862H2.3828V84.0059H3.37897V84.7253H2.3828V85.9429H1.60799V84.7253H-1.38055V83.6553L0.879302 79.4862ZM-0.71643 83.8952V84.0059H1.60799V79.8182H1.4973L-0.71643 83.8952ZM7.75391 86.072C7.42799 86.072 7.13283 86.029 6.86841 85.9429C6.60399 85.8506 6.37647 85.7276 6.18585 85.5739C5.99522 85.414 5.84764 85.2296 5.7431 85.0205C5.64471 84.8053 5.59552 84.5716 5.59552 84.3195V84.2088C5.59552 83.9874 5.62934 83.7906 5.69698 83.6185C5.76462 83.4463 5.85379 83.2956 5.96447 83.1665C6.07516 83.0373 6.20122 82.9297 6.34265 82.8436C6.49023 82.7576 6.64089 82.693 6.79462 82.6499V82.5393C6.65319 82.4962 6.52098 82.4316 6.39799 82.3456C6.27501 82.2595 6.16432 82.158 6.06593 82.0412C5.9737 81.9243 5.8999 81.7921 5.84456 81.6445C5.78922 81.4908 5.76155 81.3248 5.76155 81.1465V81.0358C5.76155 80.7898 5.81074 80.5653 5.90913 80.3624C6.00752 80.1533 6.14587 79.975 6.3242 79.8274C6.50868 79.6799 6.7239 79.5661 6.96988 79.4862C7.22199 79.4001 7.50179 79.357 7.80925 79.357H7.86459C8.16591 79.357 8.44262 79.4001 8.69474 79.4862C8.94686 79.5661 9.16208 79.6799 9.34041 79.8274C9.52489 79.975 9.66632 80.1533 9.76471 80.3624C9.8631 80.5653 9.91229 80.7898 9.91229 81.0358V81.1465C9.91229 81.3248 9.88462 81.4908 9.82928 81.6445C9.77394 81.7921 9.69707 81.9243 9.59868 82.0412C9.50644 82.158 9.39576 82.2595 9.26662 82.3456C9.14364 82.4316 9.0145 82.4962 8.87922 82.5393V82.6499C9.03295 82.693 9.18053 82.7576 9.32197 82.8436C9.46955 82.9297 9.59868 83.0373 9.70937 83.1665C9.82005 83.2956 9.90922 83.4463 9.97686 83.6185C10.0445 83.7906 10.0783 83.9874 10.0783 84.2088V84.3195C10.0783 84.5716 10.0261 84.8053 9.92152 85.0205C9.82313 85.2296 9.67862 85.414 9.488 85.5739C9.29737 85.7276 9.06985 85.8506 8.80543 85.9429C8.54101 86.029 8.24585 86.072 7.91994 86.072H7.75391ZM7.89226 85.371C8.31041 85.371 8.64862 85.2634 8.90689 85.0482C9.17131 84.8329 9.30352 84.5531 9.30352 84.2088V84.1534C9.30352 83.7722 9.16823 83.477 8.89767 83.2679C8.63325 83.0589 8.28889 82.9543 7.86459 82.9543H7.80925C7.38495 82.9543 7.03752 83.0589 6.76695 83.2679C6.50253 83.477 6.37032 83.7722 6.37032 84.1534V84.2088C6.37032 84.5531 6.49946 84.8329 6.75773 85.0482C7.02214 85.2634 7.36343 85.371 7.78158 85.371H7.89226ZM7.83692 82.2349C8.22432 82.2349 8.53794 82.1334 8.77776 81.9305C9.01758 81.7276 9.13749 81.4724 9.13749 81.1649V81.1096C9.13749 80.7959 9.01758 80.5438 8.77776 80.3532C8.54408 80.1564 8.23047 80.058 7.83692 80.058C7.44337 80.058 7.12668 80.1564 6.88686 80.3532C6.65319 80.5438 6.53635 80.7959 6.53635 81.1096V81.1649C6.53635 81.4724 6.65626 81.7276 6.89608 81.9305C7.13591 82.1334 7.44952 82.2349 7.83692 82.2349ZM22.9144 84.3379H20.1472L19.6768 85.9429H18.8466L20.8021 79.4862H22.2595L24.2149 85.9429H23.3848L22.9144 84.3379ZM21.4754 79.8182L20.3593 83.6185H22.7022L21.5861 79.8182H21.4754ZM26.3577 79.4862H27.1325V85.2234H30.5084V85.9429H26.3577V79.4862ZM33.2046 79.4862H33.9794V85.2234H37.3554V85.9429H33.2046V79.4862ZM39.8025 81.995C39.8025 81.1588 40.0024 80.51 40.4021 80.0488C40.8018 79.5876 41.3583 79.357 42.0716 79.357C42.7849 79.357 43.3414 79.5876 43.7411 80.0488C44.1408 80.51 44.3407 81.1588 44.3407 81.995V83.434C44.3407 84.2949 44.1408 84.9498 43.7411 85.3987C43.3414 85.8476 42.7849 86.072 42.0716 86.072C41.3583 86.072 40.8018 85.8476 40.4021 85.3987C40.0024 84.9498 39.8025 84.2949 39.8025 83.434V81.995ZM42.0716 85.3525C42.5697 85.3525 42.9417 85.1834 43.1877 84.8452C43.4398 84.5009 43.5658 84.012 43.5658 83.3786V82.0504C43.5658 81.4601 43.4398 80.9835 43.1877 80.6207C42.9417 80.2579 42.5697 80.0765 42.0716 80.0765C41.5735 80.0765 41.1984 80.2579 40.9463 80.6207C40.7003 80.9835 40.5773 81.4601 40.5773 82.0504V83.3786C40.5773 84.012 40.7003 84.5009 40.9463 84.8452C41.1984 85.1834 41.5735 85.3525 42.0716 85.3525ZM48.5311 83.6738H48.3651L46.345 79.4862H47.2121L48.8632 83.0097H48.9739L50.6249 79.4862H51.492L49.4719 83.6738H49.3059V85.9429H48.5311V83.6738Z" fill="black"/>
<rect width="82" height="27" transform="translate(50.2164 181.535)" fill="#F7F7F7"/>
<path d="M52.7622 191.627C52.1842 191.627 51.7414 191.486 51.434 191.203C51.1265 190.92 50.9728 190.499 50.9728 189.939V189.358C50.9728 188.996 51.0343 188.716 51.1573 188.519C51.2803 188.316 51.4186 188.125 51.5723 187.947C51.6646 187.843 51.7476 187.747 51.8214 187.661C51.8952 187.569 51.9351 187.477 51.9413 187.384L51.9136 187.366C51.846 187.415 51.766 187.458 51.6738 187.495C51.5877 187.526 51.4893 187.541 51.3786 187.541C51.1573 187.541 50.9759 187.467 50.8344 187.32C50.693 187.166 50.6223 186.951 50.6223 186.674V186.48H51.3417C51.3417 186.665 51.3633 186.8 51.4063 186.886C51.4555 186.966 51.5324 187.006 51.6369 187.006C51.7046 187.006 51.7753 186.994 51.8491 186.969C51.9228 186.945 51.9905 186.908 52.052 186.859L52.2272 186.48H52.6792V186.896C52.6792 187.074 52.6731 187.231 52.6608 187.366C52.6485 187.501 52.6146 187.633 52.5593 187.763C52.504 187.886 52.4117 188.03 52.2826 188.196C52.1903 188.313 52.1073 188.421 52.0335 188.519C51.9597 188.611 51.9013 188.716 51.8583 188.833C51.8152 188.949 51.7937 189.103 51.7937 189.294V189.893C51.7937 190.182 51.8398 190.404 51.9321 190.557C52.0243 190.711 52.1442 190.816 52.2918 190.871C52.4394 190.926 52.5962 190.954 52.7622 190.954C53.082 190.954 53.328 190.883 53.5001 190.742C53.6723 190.594 53.7584 190.37 53.7584 190.069V188.777C53.7584 188.55 53.7031 188.378 53.5924 188.261C53.4878 188.138 53.3187 188.076 53.0851 188.076H53.0482V187.55H53.0943C53.3464 187.55 53.5247 187.492 53.6293 187.375C53.7338 187.258 53.7953 187.117 53.8137 186.951C53.8383 186.779 53.8506 186.622 53.8506 186.48H54.6716C54.6716 186.806 54.6285 187.08 54.5424 187.301C54.4563 187.523 54.278 187.686 54.0074 187.79V187.827C54.2411 187.895 54.3948 188.018 54.4686 188.196C54.5424 188.374 54.5793 188.596 54.5793 188.86V190.115C54.5793 190.588 54.4225 190.96 54.1089 191.231C53.7953 191.495 53.3464 191.627 52.7622 191.627ZM58.7178 191.019C58.7178 190.84 58.7792 190.69 58.9022 190.567C59.0314 190.438 59.1851 190.373 59.3634 190.373C59.5418 190.373 59.6924 190.438 59.8154 190.567C59.9445 190.69 60.0091 190.84 60.0091 191.019C60.0091 191.197 59.9445 191.351 59.8154 191.48C59.6924 191.603 59.5418 191.664 59.3634 191.664C59.1851 191.664 59.0314 191.603 58.9022 191.48C58.7792 191.351 58.7178 191.197 58.7178 191.019ZM71.5907 191.535V189.285H70.8897V188.639H72.3747V190.871H72.4946C72.7713 190.871 73.0019 190.81 73.1864 190.687C73.3709 190.564 73.5093 190.364 73.6015 190.087C73.6937 189.81 73.7399 189.444 73.7399 188.989C73.7399 188.534 73.6876 188.165 73.583 187.882C73.4847 187.6 73.3217 187.394 73.0942 187.264C72.8728 187.135 72.5715 187.071 72.1902 187.071C71.9012 187.071 71.6214 187.111 71.3509 187.191C71.0865 187.264 70.8313 187.381 70.5853 187.541V186.776C70.7698 186.665 71.0127 186.573 71.314 186.499C71.6153 186.425 71.9412 186.388 72.2917 186.388C72.8513 186.388 73.2971 186.493 73.6292 186.702C73.9674 186.905 74.2103 187.2 74.3579 187.587C74.5054 187.975 74.5792 188.445 74.5792 188.999C74.5792 189.534 74.5054 189.992 74.3579 190.373C74.2164 190.748 73.9828 191.037 73.6568 191.24C73.3371 191.437 72.9066 191.535 72.3655 191.535H71.5907ZM74.6311 193.943V192.965C74.6311 192.811 74.5635 192.734 74.4282 192.734C74.3974 192.734 74.3667 192.737 74.3359 192.743C74.2991 192.75 74.2652 192.759 74.2345 192.771L74.1699 192.218C74.2622 192.187 74.3636 192.162 74.4743 192.144C74.5788 192.132 74.6649 192.125 74.7326 192.125C74.9478 192.125 75.1077 192.175 75.2122 192.273C75.3106 192.378 75.3598 192.519 75.3598 192.697V193.943H74.6311ZM78.7044 191.535L77.9204 186.48H78.7505L79.0457 188.869C79.0703 189.054 79.0979 189.281 79.1287 189.552C79.1656 189.816 79.1871 190.13 79.1933 190.493H79.2302C79.2793 190.308 79.3224 190.148 79.3593 190.013C79.4023 189.872 79.4392 189.746 79.47 189.635C79.5069 189.518 79.5438 189.411 79.5807 189.312C79.6176 189.208 79.6545 189.1 79.6913 188.989L80.2909 187.338H80.9089L81.5177 188.989C81.5669 189.125 81.613 189.263 81.656 189.404C81.7052 189.54 81.7544 189.693 81.8036 189.866C81.859 190.038 81.9174 190.247 81.9789 190.493H82.025C82.025 190.259 82.0373 190.001 82.0619 189.718C82.0926 189.429 82.1326 189.146 82.1818 188.869L82.3847 187.772C82.4647 187.354 82.4185 187.052 82.2464 186.868C82.0803 186.677 81.7882 186.582 81.3701 186.582H80.9458V185.982H81.6929C82.1295 185.982 82.4247 185.896 82.5784 185.724C82.7322 185.546 82.809 185.303 82.809 184.995V184.949H83.6392V184.995C83.6392 185.346 83.5623 185.647 83.4086 185.899C83.261 186.145 83.0027 186.305 82.6338 186.379V186.407C82.8182 186.487 82.9535 186.6 83.0396 186.748C83.1257 186.889 83.178 187.043 83.1964 187.209C83.2149 187.375 83.2118 187.532 83.1872 187.68L82.5046 191.535H81.7022L81.0011 189.506C80.9396 189.328 80.8874 189.171 80.8443 189.035C80.8013 188.894 80.7613 188.753 80.7244 188.611C80.6875 188.464 80.6506 188.298 80.6137 188.113H80.5768C80.5399 188.316 80.503 188.494 80.4662 188.648C80.4354 188.802 80.3985 188.946 80.3555 189.082C80.3186 189.217 80.2725 189.361 80.2171 189.515L79.4976 191.535H78.7044ZM87.0794 191.535V187.947C87.0794 187.646 87.0087 187.424 86.8672 187.283C86.732 187.142 86.5014 187.071 86.1754 187.071C85.9541 187.071 85.745 187.102 85.5482 187.163C85.3576 187.218 85.1731 187.298 84.9948 187.403V186.665C85.1178 186.603 85.293 186.542 85.5206 186.48C85.7481 186.419 86.0186 186.388 86.3323 186.388C86.652 186.388 86.9287 186.434 87.1624 186.527C87.3961 186.619 87.5775 186.773 87.7066 186.988C87.8357 187.197 87.9003 187.477 87.9003 187.827V191.535H87.0794ZM93.5569 191.535V188.168C93.5569 187.769 93.4646 187.486 93.2801 187.32C93.1018 187.148 92.8005 187.062 92.3762 187.062C92.0687 187.062 91.7736 187.105 91.4907 187.191C91.214 187.271 90.9496 187.384 90.6975 187.532V186.766C90.8758 186.674 91.1156 186.588 91.4169 186.508C91.7244 186.428 92.0687 186.388 92.45 186.388C92.7759 186.388 93.0588 186.425 93.2986 186.499C93.5384 186.567 93.7352 186.671 93.8889 186.813C94.0488 186.954 94.1687 187.135 94.2487 187.357C94.3286 187.572 94.3686 187.827 94.3686 188.122V191.535H93.5569ZM91.9704 191.627C91.4292 191.627 91.0141 191.504 90.7251 191.258C90.4423 191.006 90.3008 190.647 90.3008 190.179C90.3008 189.669 90.4853 189.275 90.8543 188.999C91.2294 188.722 91.8351 188.559 92.6714 188.51L93.7229 188.445V189.128L92.7821 189.192C92.1548 189.235 91.7213 189.334 91.4815 189.487C91.2478 189.641 91.131 189.866 91.131 190.161C91.131 190.438 91.2171 190.64 91.3893 190.77C91.5676 190.899 91.8135 190.963 92.1272 190.963C92.2317 190.963 92.327 190.957 92.4131 190.945C92.4992 190.926 92.5822 190.905 92.6621 190.88L92.7913 191.498C92.6744 191.541 92.5453 191.572 92.4039 191.59C92.2686 191.615 92.1241 191.627 91.9704 191.627ZM97.8948 191.535L96.3175 186.48H97.1476L98.5128 190.825H98.6234C98.771 190.825 98.9155 190.791 99.057 190.723C99.1984 190.65 99.3183 190.557 99.4167 190.447C99.6012 190.244 99.7365 189.989 99.8225 189.681C99.9086 189.368 99.9517 189.06 99.9517 188.759C99.9517 188.248 99.8348 187.849 99.6012 187.56C99.3736 187.264 99.057 187.117 98.6511 187.117C98.5712 187.117 98.4912 187.123 98.4113 187.135C98.3375 187.148 98.276 187.163 98.2268 187.181L98.0239 186.527C98.153 186.49 98.2729 186.465 98.3836 186.453C98.5005 186.44 98.605 186.434 98.6972 186.434C99.0047 186.434 99.2783 186.48 99.5182 186.573C99.7641 186.659 99.9732 186.788 100.145 186.96C100.361 187.169 100.517 187.431 100.616 187.744C100.72 188.058 100.773 188.405 100.773 188.786C100.773 189.266 100.699 189.693 100.551 190.069C100.404 190.438 100.219 190.733 99.9978 190.954C99.8195 191.132 99.6012 191.274 99.3429 191.378C99.0846 191.483 98.7556 191.535 98.3559 191.535H97.8948ZM103.172 191.535V189.783C103.172 189.395 103.258 189.115 103.43 188.943C103.602 188.765 103.821 188.642 104.085 188.574L104.094 188.547L103.08 188.159V187.855C103.08 187.603 103.163 187.366 103.329 187.145C103.495 186.917 103.731 186.736 104.039 186.6C104.352 186.459 104.725 186.388 105.155 186.388C105.53 186.388 105.877 186.45 106.197 186.573C106.517 186.69 106.772 186.877 106.963 187.135C107.16 187.387 107.258 187.72 107.258 188.132V191.535H106.437V188.215C106.437 187.803 106.311 187.51 106.059 187.338C105.813 187.16 105.509 187.071 105.146 187.071C104.771 187.071 104.472 187.151 104.251 187.311C104.03 187.464 103.919 187.661 103.919 187.901L104.915 188.399L104.841 188.842C104.614 188.842 104.414 188.919 104.242 189.072C104.076 189.22 103.993 189.457 103.993 189.783V191.535H103.172ZM111.368 191.627C111.005 191.627 110.667 191.594 110.354 191.526C110.046 191.452 109.785 191.366 109.57 191.268L109.809 190.604C109.939 190.653 110.086 190.705 110.252 190.76C110.418 190.816 110.597 190.862 110.787 190.899C110.984 190.929 111.184 190.945 111.387 190.945C111.713 190.945 111.983 190.883 112.198 190.76C112.414 190.637 112.521 190.459 112.521 190.225C112.521 190.084 112.481 189.964 112.401 189.866C112.328 189.761 112.211 189.666 112.051 189.58C111.891 189.494 111.685 189.411 111.433 189.331C111.045 189.208 110.716 189.079 110.446 188.943C110.181 188.802 109.979 188.636 109.837 188.445C109.702 188.248 109.634 188.005 109.634 187.716C109.634 187.458 109.702 187.231 109.837 187.034C109.979 186.831 110.194 186.674 110.483 186.563C110.778 186.447 111.153 186.388 111.608 186.388C111.903 186.388 112.18 186.416 112.438 186.471C112.703 186.52 112.909 186.591 113.056 186.683V187.375C112.952 187.326 112.819 187.277 112.66 187.228C112.506 187.178 112.337 187.138 112.152 187.108C111.968 187.077 111.777 187.062 111.58 187.062C111.168 187.062 110.876 187.126 110.704 187.255C110.538 187.378 110.455 187.52 110.455 187.68C110.455 187.815 110.492 187.929 110.566 188.021C110.646 188.113 110.778 188.202 110.962 188.288C111.153 188.374 111.408 188.473 111.728 188.584C112.023 188.682 112.294 188.796 112.54 188.925C112.786 189.054 112.979 189.217 113.121 189.414C113.268 189.604 113.342 189.85 113.342 190.152C113.342 190.41 113.278 190.653 113.148 190.88C113.025 191.102 112.819 191.283 112.53 191.424C112.241 191.56 111.854 191.627 111.368 191.627ZM116.693 191.627C116.521 191.627 116.355 191.6 116.195 191.544C116.041 191.489 115.915 191.391 115.817 191.249C115.725 191.108 115.678 190.911 115.678 190.659V189.764C115.678 189.383 115.758 189.106 115.918 188.934C116.084 188.762 116.299 188.642 116.564 188.574L116.573 188.547L115.512 188.159V187.855C115.512 187.584 115.592 187.338 115.752 187.117C115.918 186.896 116.149 186.72 116.444 186.591C116.745 186.456 117.096 186.388 117.496 186.388C117.834 186.388 118.153 186.444 118.455 186.554C118.762 186.665 119.011 186.849 119.202 187.108C119.393 187.36 119.488 187.698 119.488 188.122V189.884C119.488 190.253 119.571 190.521 119.737 190.687C119.909 190.853 120.137 190.936 120.419 190.936C120.665 190.936 120.881 190.874 121.065 190.751C121.25 190.622 121.394 190.447 121.499 190.225C121.603 189.998 121.655 189.733 121.655 189.432V186.48H122.476V191.535H121.803L121.757 190.733H121.711C121.606 191.016 121.419 191.237 121.148 191.397C120.884 191.551 120.586 191.627 120.253 191.627C119.786 191.627 119.405 191.498 119.11 191.24C118.815 190.982 118.667 190.551 118.667 189.949V188.205C118.667 187.91 118.612 187.68 118.501 187.514C118.39 187.348 118.243 187.234 118.058 187.172C117.88 187.105 117.689 187.071 117.486 187.071C117.16 187.071 116.89 187.142 116.675 187.283C116.466 187.424 116.358 187.63 116.352 187.901L117.403 188.399L117.329 188.842C117.102 188.842 116.905 188.912 116.739 189.054C116.579 189.195 116.499 189.429 116.499 189.755V190.567C116.499 190.702 116.53 190.8 116.592 190.862C116.653 190.923 116.751 190.954 116.887 190.954C116.948 190.954 117.007 190.951 117.062 190.945C117.123 190.933 117.179 190.917 117.228 190.899L117.348 191.489C117.231 191.544 117.117 191.581 117.007 191.6C116.902 191.618 116.798 191.627 116.693 191.627ZM122.155 185.945C122.112 185.878 122.078 185.792 122.054 185.687C122.023 185.577 122.008 185.469 122.008 185.364C122.008 185.235 122.035 185.115 122.091 185.005C122.146 184.888 122.244 184.792 122.386 184.719C122.527 184.645 122.724 184.608 122.976 184.608H124.24V185.244H123.188C123.065 185.244 122.967 185.269 122.893 185.318C122.819 185.361 122.782 185.438 122.782 185.549C122.782 185.592 122.792 185.638 122.81 185.687C122.822 185.736 122.841 185.786 122.865 185.835L122.155 185.945ZM50.9359 201.491V198.078H54.976V198.798H51.6923V201.104H51.8029C51.8644 200.981 51.9444 200.864 52.0428 200.753C52.1411 200.637 52.2549 200.535 52.384 200.449C52.5193 200.363 52.67 200.295 52.836 200.246C53.002 200.191 53.1865 200.163 53.3894 200.163C53.6846 200.163 53.9552 200.212 54.2011 200.311C54.4533 200.409 54.6685 200.547 54.8468 200.726C55.0251 200.904 55.1635 201.119 55.2619 201.371C55.3664 201.623 55.4187 201.903 55.4187 202.211V202.377C55.4187 202.684 55.3695 202.976 55.2711 203.253C55.1727 203.524 55.0282 203.766 54.8376 203.982C54.647 204.191 54.4102 204.357 54.1274 204.48C53.8445 204.603 53.5186 204.664 53.1496 204.664C52.7745 204.664 52.4425 204.609 52.1534 204.498C51.8644 204.388 51.6215 204.234 51.4248 204.037C51.228 203.84 51.0773 203.61 50.9728 203.345C50.8744 203.075 50.8252 202.783 50.8252 202.469V202.211H51.6V202.414C51.6 202.924 51.7414 203.308 52.0243 203.567C52.3133 203.819 52.6884 203.945 53.1496 203.945C53.3956 203.945 53.6108 203.902 53.7953 203.816C53.9859 203.723 54.1427 203.604 54.2657 203.456C54.3948 203.302 54.4902 203.127 54.5517 202.93C54.6131 202.727 54.6439 202.518 54.6439 202.303V202.248C54.6439 202.057 54.6101 201.879 54.5424 201.713C54.4809 201.547 54.3918 201.402 54.2749 201.279C54.1643 201.156 54.0259 201.061 53.8599 200.993C53.7 200.919 53.5247 200.882 53.3341 200.882C53.205 200.882 53.0851 200.901 52.9744 200.938C52.8698 200.975 52.7776 201.024 52.6977 201.085C52.6177 201.141 52.5501 201.205 52.4947 201.279C52.4455 201.353 52.4117 201.424 52.3933 201.491H50.9359ZM57.6168 200.587C57.6168 199.751 57.8166 199.102 58.2163 198.641C58.616 198.18 59.1726 197.949 59.8859 197.949C60.5992 197.949 61.1557 198.18 61.5554 198.641C61.9551 199.102 62.1549 199.751 62.1549 200.587V202.026C62.1549 202.887 61.9551 203.542 61.5554 203.991C61.1557 204.44 60.5992 204.664 59.8859 204.664C59.1726 204.664 58.616 204.44 58.2163 203.991C57.8166 203.542 57.6168 202.887 57.6168 202.026V200.587ZM59.8859 203.963C60.384 203.963 60.756 203.791 61.002 203.447C61.2541 203.096 61.3801 202.604 61.3801 201.971V200.643C61.3801 200.348 61.3494 200.08 61.2879 199.84C61.2264 199.594 61.1311 199.385 61.002 199.213C60.879 199.035 60.7222 198.896 60.5315 198.798C60.3471 198.7 60.1318 198.65 59.8859 198.65C59.6338 198.65 59.4155 198.7 59.231 198.798C59.0465 198.896 58.8897 199.035 58.7606 199.213C58.6376 199.385 58.5453 199.594 58.4838 199.84C58.4223 200.08 58.3916 200.348 58.3916 200.643V201.971C58.3916 202.604 58.5146 203.096 58.7606 203.447C59.0127 203.791 59.3878 203.963 59.8859 203.963ZM59.2955 201.307C59.2955 201.147 59.354 201.009 59.4708 200.892C59.5876 200.775 59.726 200.716 59.8859 200.716C60.0458 200.716 60.1841 200.775 60.3009 200.892C60.4178 201.009 60.4762 201.147 60.4762 201.307C60.4762 201.467 60.4178 201.605 60.3009 201.722C60.1841 201.839 60.0458 201.897 59.8859 201.897C59.726 201.897 59.5876 201.839 59.4708 201.722C59.354 201.605 59.2955 201.467 59.2955 201.307Z" fill="black"/>
</g>
<rect x="0.5" y="0.865234" width="357" height="263" rx="131.5" stroke="black"/>
<defs>
<clipPath id="clip0_1849_1674">
<rect y="0.365234" width="358" height="264" rx="132" fill="white"/>
</clipPath>
<clipPath id="clip1_1849_1674">
<rect width="11.8593" height="11.8593" fill="white" transform="translate(165.515 127.262)"/>
</clipPath>
</defs>
</svg>
