<svg width="128" height="34" viewBox="0 0 128 34" fill="none" xmlns="http://www.w3.org/2000/svg">
<g clip-path="url(#clip0_1668_1588)">
<path d="M37.0867 18.0328C37.0867 20.6009 37.0867 23.1691 37.0867 25.7372C37.0867 26.3625 37.1898 27.1218 36.3425 27.3339C35.6097 27.5126 34.7166 27.6131 34.4418 26.664C34.041 25.2906 33.457 25.8154 32.6326 26.3067C31.6708 26.8873 30.6403 27.4456 29.5526 27.7024C25.4764 28.6627 22.5681 26.6751 22.3391 22.5773C22.1101 18.5576 22.236 14.5155 22.1902 10.4847C22.1788 9.44624 22.3505 8.69813 23.7245 8.72046C25.1672 8.74279 25.442 9.50207 25.4306 10.6745C25.3962 14.2476 25.4649 17.8206 25.4077 21.4049C25.3733 23.6939 25.9458 25.4581 28.7625 25.5251C31.4075 25.5921 33.9265 23.4817 33.9723 21.1145C34.0295 17.7201 33.9837 14.3257 33.9952 10.9425C33.9952 9.83704 33.8349 8.65346 35.644 8.74279C37.247 8.82095 37.0867 9.88171 37.0982 10.8978C37.0982 13.2761 37.0982 15.6656 37.0982 18.0439L37.0867 18.0328Z" fill="black"/>
<path d="M74.4138 12.6845C74.4138 15.7998 74.3794 18.9039 74.4252 22.0191C74.4596 24.8329 75.3641 25.5699 78.2954 25.3131C78.8679 25.2684 79.4289 25.1791 79.99 25.0786C80.8716 24.9223 81.1693 25.5029 81.3983 26.117C81.6617 26.8205 81.1235 27.0438 80.5968 27.3118C76.4977 29.5114 71.4024 26.8428 71.3108 22.343C71.2078 17.0392 71.1734 11.7242 71.3337 6.42046C71.4024 4.19845 70.8299 3.16003 68.3911 3.51734C67.7384 3.61783 67.0629 3.51734 66.3988 3.51734C65.54 3.49501 65.2652 2.99254 65.2881 2.2556C65.2996 1.55215 65.769 1.273 66.3873 1.26184C68.6659 1.2395 70.9559 1.19484 73.2344 1.273C74.6771 1.31767 74.3794 2.50125 74.3909 3.34985C74.4252 6.46512 74.4023 9.56923 74.4023 12.6845H74.4138Z" fill="black"/>
<path d="M52.3611 27.4457C50.4604 27.4457 48.5596 27.4457 46.6589 27.4457C45.9376 27.4457 45.3193 27.2447 45.2964 26.3961C45.262 25.447 45.8345 25.1679 46.7276 25.1009C48.1245 25.0004 49.9451 25.7262 50.8268 24.7101C51.9374 23.4483 51.1817 21.5501 51.2504 19.9311C51.342 17.8319 51.1588 15.7216 51.3077 13.6224C51.4336 11.7353 50.7924 10.8867 48.7657 11.1436C48.1131 11.2217 47.4375 11.1436 46.7734 11.1436C45.949 11.1436 45.5941 10.7081 45.5826 9.93765C45.5826 9.13371 46.0063 8.76523 46.7963 8.76523C48.8917 8.76523 50.9756 8.73174 53.071 8.7764C54.4564 8.8099 54.3992 9.83715 54.3992 10.7639C54.3992 14.4263 54.5595 18.0887 54.3534 21.7399C54.216 24.2523 54.7885 25.6368 57.7082 25.112C57.8914 25.0785 58.0861 25.112 58.2807 25.112C59.0822 25.112 59.815 25.1902 59.8494 26.2398C59.8723 27.267 59.1967 27.4569 58.3723 27.4569C56.38 27.468 54.3763 27.4569 52.384 27.4569L52.3611 27.4457Z" fill="black"/>
<path d="M118.622 31.3424C121.187 31.3424 123.764 31.3424 126.328 31.3424C127.279 31.3424 127.989 31.5323 128 32.6935C128 33.8883 127.256 33.9999 126.328 33.9999C121.187 33.9999 116.046 33.9999 110.905 33.9999C110.058 33.9999 109.428 33.8213 109.382 32.8052C109.336 31.7332 109.84 31.3201 110.905 31.3313C113.47 31.3536 116.046 31.3313 118.611 31.3313L118.622 31.3424Z" fill="black"/>
<path d="M54.2159 2.12141C54.0213 3.32732 53.3457 4.07543 51.9946 4.0866C50.4718 4.0866 49.6932 3.21566 49.7275 1.87576C49.7619 0.591691 50.7695 -0.0559281 52.029 -0.0112647C53.3228 0.0333987 54.0213 0.859671 54.2159 2.11025V2.12141Z" fill="black"/>
<path d="M103.943 2.79155C103.943 1.49632 103.36 0.960356 102.1 0.893361C100.6 0.8152 100.737 1.84246 100.726 2.74689C100.715 5.02472 100.726 7.29139 100.726 9.85953C93.8445 6.91175 89.4019 8.9551 88.131 15.342C87.6157 17.9436 87.673 20.6011 88.6691 23.1916C90.3523 27.5909 94.5659 29.1653 98.7795 26.8651C99.7642 26.3292 100.497 25.1679 101.528 27.1219C101.94 27.9035 103.921 27.7584 103.921 25.849C103.921 18.1558 103.909 10.4625 103.943 2.76922V2.79155ZM99.2604 24.096C96.3177 26.4743 93.0774 25.7374 91.8751 22.2313C91.0507 19.8418 91.0507 17.3518 91.5316 14.9177C92.0469 12.2602 94.6231 10.4848 97.0734 10.8421C99.5352 11.1994 100.715 12.785 100.726 15.7774C100.726 16.4139 100.726 17.0503 100.726 17.9659C100.405 19.853 101.516 22.2648 99.2604 24.096Z" fill="black"/>
<path d="M14.8622 12.0146C13.4423 8.60899 8.79363 7.33608 5.39297 9.20078C4.76322 9.54692 4.38537 10.3397 3.33196 10.2392C2.82816 7.92787 3.26326 5.56071 3.06861 3.22705C2.99991 2.36728 3.69836 1.00504 1.94651 0.915718C0.251901 0.837557 0 1.88715 0 3.26055C0.0343501 10.5965 0.0229001 17.9325 0.01145 25.2573C0.01145 27.5128 0.881653 28.2497 2.80526 26.6307C3.62966 25.9495 3.96171 26.5637 4.48842 26.8316C8.74783 29.009 12.9729 27.7249 14.8851 23.4931C16.614 19.6967 16.4194 15.7663 14.8507 11.9922L14.8622 12.0146ZM12.0569 22.0638C11.3355 24.4757 9.43483 25.6146 6.84712 25.4024C4.33956 25.2014 3.13731 23.6494 3.10296 20.8244C3.10296 19.9088 3.10296 18.9932 3.10296 17.3295C2.98846 15.5095 2.70221 12.9413 5.70212 11.4339C8.14098 10.2169 10.8546 10.9538 11.805 13.4326C12.8927 16.2576 12.9156 19.1942 12.0569 22.0638Z" fill="black"/>
</g>
<defs>
<clipPath id="clip0_1668_1588">
<rect width="128" height="34" fill="white"/>
</clipPath>
</defs>
</svg>
