<svg width="64" height="62" viewBox="0 0 64 62" fill="none" xmlns="http://www.w3.org/2000/svg">
<g clip-path="url(#clip0_2171_5944)">
<path d="M37.8225 35.7882C41.4299 32.4845 47.1733 32.4612 50.7056 35.8154C53.3043 38.2795 57.8848 39.1735 61.0927 36.651C63.6756 34.6222 64.3006 32.1619 63.6084 29.1847C63.0151 26.6312 61.2351 25.1465 58.846 24.2914C55.5075 23.0943 52.8178 24.4314 50.4326 26.569C47.2089 29.4607 41.3429 29.4607 38.0361 26.534C33.8947 22.8689 30.2002 22.9078 26.0114 26.5029C22.3881 29.6123 17.4675 29.4413 13.8522 27.0626C9.49715 24.1981 8.61112 17.653 11.7399 13.4749C14.9241 9.22673 21.2925 8.3056 25.5011 11.5587C27.9021 13.4166 30.2121 15.0567 33.6297 14.3105C36.6161 13.6614 39.8319 10.1673 39.4086 7.24842C38.9498 4.07691 37.4467 1.56224 34.1281 0.454543C31.0823 -0.563762 28.6339 0.555596 26.4504 2.53391C22.9854 5.67044 16.5775 5.98526 13.1916 2.61941C10.755 0.19025 7.72904 -0.462709 4.56069 0.722722C0.130528 2.38621 -1.69296 8.60875 2.3733 12.5032C5.85809 15.8418 6.09147 21.734 2.9508 25.0999C-0.988878 29.3208 -0.76737 32.8848 2.87169 36.9425C4.84944 39.1501 5.52583 41.8086 4.88504 44.813C4.4618 46.7991 3.34635 48.2954 2.16366 49.8346C-1.16688 54.1721 -0.439064 57.4135 2.96267 60.3324C6.16662 63.0803 10.3832 62.0503 12.4756 60.0059C15.5886 56.9666 15.5491 52.6057 12.7367 49.6169C10.9449 47.7163 9.70284 45.5981 9.96786 42.3489C10.0391 41.8863 9.83337 40.8836 10.225 39.8575C11.9693 35.2946 16.5419 32.2824 22.1587 33.6544C25.7345 34.5289 28.3095 36.7482 29.2984 40.3822C30.2754 43.9735 29.3459 47.1722 26.6798 49.7141C24.4648 51.8245 24.2591 56.3603 25.7701 58.5601C28.5943 62.6722 34.6185 62.8626 37.779 59.489C41.0225 56.0299 47.6044 56.2437 50.9508 59.6134C51.9792 60.6472 53.245 60.997 54.4949 61.5373C57.3468 62.7732 60.9266 61.3779 63.0032 58.222C64.4351 56.0454 64.0395 52.1121 62.0737 49.99C59.1229 46.803 54.5622 46.6475 51.2435 49.718C49.8116 51.0394 48.1701 52.0461 46.3149 52.3881C41.6554 53.2432 37.2845 50.9345 35.2593 46.8185C33.4042 43.0485 34.3535 38.9636 37.8264 35.7843L37.8225 35.7882ZM4.3906 7.20956C4.41434 5.39449 5.63263 4.19351 7.42052 4.21683C8.96712 4.24015 10.6798 5.91919 10.6996 7.43498C10.7194 9.03629 9.21631 10.4161 7.4838 10.3888C5.62076 10.3578 4.36291 9.06349 4.3906 7.20956ZM10.6996 55.0233C10.6522 56.574 9.16094 57.845 7.37305 57.8527C5.62472 57.8605 4.38269 56.5002 4.3906 54.5763C4.39456 52.8662 5.79085 51.6652 7.76069 51.6807C9.48924 51.6924 10.755 53.1304 10.6996 55.0233ZM56.7377 51.6846C58.5177 51.8012 59.7597 53.1538 59.6569 54.8639C59.5461 56.7334 58.1459 57.9654 56.2749 57.8488C54.7441 57.7517 53.3399 56.2475 53.3637 54.7318C53.3953 52.9517 54.93 51.5641 56.7377 51.6846ZM35.1802 30.9376C35.0695 32.8188 33.7088 34.0508 31.8734 33.9265C30.0499 33.8021 28.7367 32.4223 28.8791 30.7744C29.0452 28.9166 30.3703 27.6534 32.0395 27.7661C34.0529 27.9021 35.287 29.1459 35.1802 30.9376Z" fill="black"/>
<path d="M56.6269 14.5248C60.3411 14.5014 63.9723 11.979 63.996 7.32278C64.0198 3.60713 60.4519 -0.0385586 56.8603 0.000308021C52.885 0.0469479 49.4002 3.38948 49.3923 7.15954C49.0759 11.8196 52.7584 14.552 56.6269 14.5248ZM56.8722 4.22122C58.4662 4.22122 59.6489 5.51548 59.6568 7.27225C59.6648 9.01736 58.3594 10.3855 56.6823 10.3893C55.0012 10.3893 53.332 8.82303 53.3597 7.27614C53.3874 5.8303 55.2346 4.22122 56.8722 4.22511V4.22122Z" fill="black"/>
</g>
<defs>
<clipPath id="clip0_2171_5944">
<rect width="64" height="62" fill="white"/>
</clipPath>
</defs>
</svg>
