<svg width="70" height="70" viewBox="0 0 70 70" fill="none" xmlns="http://www.w3.org/2000/svg">
<g clip-path="url(#clip0_2171_4331)">
<path d="M53.2416 65.3447C50.1211 60.6958 47.0027 56.0449 43.8698 51.4044C43.6628 51.1003 43.6752 50.9347 43.9111 50.6642C45.43 48.9237 46.9302 47.1665 48.4346 45.4156C49.9411 43.6647 51.4454 41.9158 53.0243 40.0789C52.7822 40.0643 52.6498 40.0496 52.5173 40.0496C50.4501 40.0475 48.3808 40.0768 46.3136 40.0307C45.6618 40.016 45.25 40.2215 44.8361 40.7227C42.4709 43.5913 40.0664 46.4263 37.6764 49.2718C37.5543 49.4165 37.4446 49.6052 37.217 49.5318C36.9749 49.4564 37.0825 49.2362 37.0825 49.0852C37.0763 44.2979 37.0804 39.5128 37.0701 34.7276C37.0701 34.4152 37.1549 34.2831 37.4674 34.1971C40.3623 33.394 42.8558 31.8905 44.8506 29.6195C47.7745 26.2917 49.0409 22.4061 48.5919 17.9397C48.2484 14.5406 47.0275 11.5315 44.7244 9.05504C40.9169 4.95557 36.1927 3.45208 30.738 4.38311C28.1162 4.82975 25.8069 6.03758 23.7894 7.76963C18.7113 12.127 17.1097 19.4411 19.8639 25.5809C21.8442 29.9949 25.1716 32.8362 29.7386 34.216C30.5394 34.4592 30.5415 34.4508 30.5415 35.298C30.5415 45.2898 30.5456 55.2816 30.5332 65.2713C30.5332 65.7389 30.6366 65.8899 31.1209 65.8815C32.948 65.8501 34.7752 65.8585 36.6024 65.8794C36.9956 65.8836 37.0887 65.7662 37.0866 65.3804C37.068 63.0402 37.0866 60.7 37.0701 58.3599C37.0659 57.9657 37.1694 57.6679 37.4322 57.3785C37.9433 56.8123 38.442 56.2315 38.9076 55.6255C39.187 55.2606 39.3235 55.3277 39.5553 55.6716C41.7694 58.9365 44.0022 62.1888 46.2184 65.4558C46.4253 65.762 46.6426 65.8836 47.0151 65.8794C49.014 65.8585 51.013 65.871 53.014 65.8668C53.1733 65.8668 53.3471 65.9109 53.5292 65.7976C53.4237 65.632 53.3368 65.4852 53.2416 65.3447ZM33.5295 28.4389C28.7039 28.5123 24.2467 24.3038 24.5653 18.7113C24.8406 13.8612 29.0536 10.0322 33.9165 10.1874C38.4317 10.3342 42.8165 14.0038 42.7027 19.4201C42.5951 24.4884 38.502 28.5312 33.5295 28.4389Z" fill="black"/>
</g>
<defs>
<clipPath id="clip0_2171_4331">
<rect width="35" height="61.7647" fill="white" transform="translate(18.5293 4.11719)"/>
</clipPath>
</defs>
</svg>
