<svg width="90" height="98" viewBox="0 0 90 98" fill="none" xmlns="http://www.w3.org/2000/svg">
<path d="M67.5554 76.0348H22.4403V47.9944H67.5127L67.5554 76.0348ZM44.948 50.2439C41.0973 50.2479 37.3072 51.21 33.9141 53.0447C30.5209 54.8793 27.6298 57.5298 25.4973 60.7609C25.2151 61.0891 25.0598 61.5087 25.0598 61.9429C25.0598 62.3772 25.2151 62.7968 25.4973 63.125C27.6435 66.3412 30.5401 68.9775 33.9331 70.8025C37.326 72.6276 41.1116 73.5857 44.9576 73.5928C48.8036 73.5998 52.5927 72.6557 55.9922 70.8431C59.3917 69.0305 62.2979 66.4049 64.4557 63.1967C64.7635 62.8499 64.9337 62.401 64.9337 61.9358C64.9337 61.4706 64.7635 61.0216 64.4557 60.6749C62.3038 57.457 59.3981 54.8232 55.9956 53.0063C52.5931 51.1895 48.7987 50.2456 44.948 50.2582V50.2439Z" fill="black"/>
<path d="M45.0761 45.3722C41.25 45.3645 37.4828 44.4219 34.0976 42.6251C30.7124 40.8283 27.81 38.2311 25.6395 35.0559C25.2776 34.6679 25.0761 34.1555 25.0761 33.6231C25.0761 33.0906 25.2776 32.5782 25.6395 32.1902C27.8088 29.0208 30.7131 26.4329 34.1001 24.6512C37.4871 22.8694 41.2544 21.9477 45.0751 21.9661C48.8957 21.9844 52.6542 22.9423 56.0242 24.7565C59.3942 26.5707 62.2738 29.1864 64.4131 32.3765C64.7198 32.7209 64.8895 33.1674 64.8895 33.6302C64.8895 34.093 64.7198 34.5395 64.4131 34.8839C62.2764 38.0822 59.3994 40.7083 56.0305 42.5357C52.6615 44.363 48.9019 45.3365 45.0761 45.3722ZM53.4934 33.7663C53.5329 32.058 53.0664 30.3766 52.1534 28.9367C51.2404 27.4968 49.9222 26.3638 48.3673 25.6822C46.8124 25.0007 45.0911 24.8015 43.4234 25.1102C41.7556 25.419 40.217 26.2215 39.0039 27.4155C37.7908 28.6094 36.9583 30.1405 36.6127 31.8134C36.267 33.4863 36.424 35.225 37.0634 36.8076C37.7029 38.3902 38.7958 39.7449 40.2027 40.6987C41.6096 41.6526 43.2666 42.1622 44.9623 42.1627C47.1908 42.1633 49.3311 41.2852 50.9254 39.716C52.5197 38.1469 53.4414 36.0114 53.4934 33.7663Z" fill="black"/>
<path d="M44.9904 70.4035C43.3369 70.3753 41.7287 69.8552 40.3677 68.9087C39.0067 67.9622 37.9537 66.6314 37.3409 65.0836C36.7281 63.5357 36.583 61.84 36.9237 60.2093C37.2644 58.5786 38.0758 57.0858 39.2559 55.9184C40.436 54.751 41.9321 53.9611 43.5563 53.648C45.1805 53.3348 46.8603 53.5124 48.3847 54.1585C49.909 54.8045 51.2099 55.8901 52.1238 57.2789C53.0378 58.6677 53.524 60.2978 53.5214 61.9642C53.5178 63.0848 53.2935 64.1934 52.8616 65.226C52.4296 66.2585 51.7986 67.1944 51.005 67.9794C50.2115 68.7644 49.2713 69.3829 48.2388 69.799C47.2064 70.2151 46.1022 70.4206 44.9904 70.4035Z" fill="black"/>
</svg>
