<svg width="186" height="102" viewBox="0 0 186 102" fill="none" xmlns="http://www.w3.org/2000/svg">
<path d="M36.8438 50.8882C36.8438 60.9645 36.2251 70.0766 35.2282 76.6604C34.7291 79.956 34.1383 82.597 33.4915 84.4037C33.1671 85.3099 32.8383 85.9779 32.5182 86.4104C32.1891 86.8552 31.9399 86.9598 31.7861 86.9598C31.6323 86.9598 31.3831 86.8552 31.054 86.4104C30.734 85.9779 30.4052 85.3099 30.0807 84.4037C29.4339 82.597 28.8431 79.956 28.3441 76.6604C27.3471 70.0766 26.7284 60.9645 26.7284 50.8882C26.7284 40.8119 27.3471 31.6998 28.3441 25.116C28.8431 21.8204 29.4339 19.1794 30.0807 17.3727C30.4052 16.4665 30.734 15.7985 31.054 15.366C31.3831 14.9212 31.6323 14.8166 31.7861 14.8166C31.9399 14.8166 32.1891 14.9212 32.5182 15.366C32.8383 15.7985 33.1671 16.4665 33.4915 17.3727C34.1383 19.1794 34.7291 21.8204 35.2282 25.116C36.2251 31.6998 36.8438 40.8119 36.8438 50.8882Z" stroke="black" stroke-width="0.953571"/>
<path fill-rule="evenodd" clip-rule="evenodd" d="M36.2006 62.4324C36.4854 62.4081 36.766 62.3739 37.0422 62.3298C37.1146 60.877 37.1736 59.384 37.2183 57.8571C36.9487 57.9607 36.6677 58.0422 36.3752 58.1018C36.3302 59.5801 36.2717 61.0256 36.2006 62.4324ZM36.3691 43.4764C36.6616 43.5355 36.9427 43.6168 37.2123 43.72C37.1664 42.1933 37.106 40.7009 37.0322 39.2491C36.7559 39.205 36.4753 39.1708 36.1904 39.1465C36.2629 40.5526 36.3228 41.9978 36.3691 43.4764ZM27.233 42.4784C27.1364 45.1766 27.0852 47.9925 27.0852 50.8887C27.0852 53.7078 27.1337 56.4507 27.2254 59.0831C26.9119 58.7231 26.6208 58.3358 26.3522 57.9212C26.285 55.6455 26.2498 53.2943 26.2498 50.8887C26.2498 48.406 26.2873 45.981 26.3587 43.6372C26.6278 43.2234 26.9192 42.8371 27.233 42.4784Z" fill="black"/>
<path fill-rule="evenodd" clip-rule="evenodd" d="M41.1574 50.7911C41.1574 53.2723 40.6871 55.3832 39.7464 57.1237C38.8132 58.8643 37.5393 60.1938 35.9246 61.1122C34.3174 62.0232 32.5102 62.4787 30.503 62.4787C29.1284 62.4787 27.8497 62.2665 26.6668 61.842L26.58 56.6297C26.8468 56.912 27.1398 57.1581 27.4589 57.3681C28.3255 57.9384 29.3402 58.2236 30.503 58.2236C31.6658 58.2236 32.6805 57.9384 33.5471 57.3681C34.4137 56.7978 35.084 55.9609 35.558 54.8573C36.0394 53.7537 36.2801 52.3983 36.2801 50.7911C36.2801 49.1839 36.0394 47.8285 35.558 46.7249C35.084 45.6213 34.4137 44.7844 33.5471 44.2141C32.6805 43.6438 31.6658 43.3586 30.503 43.3586C29.3402 43.3586 28.3255 43.6438 27.4589 44.2141C27.1283 44.4316 26.8257 44.688 26.5512 44.9832L26.6636 39.7413C27.8474 39.3161 29.1272 39.1035 30.503 39.1035C32.5102 39.1035 34.3174 39.5627 35.9246 40.4811C37.5393 41.3921 38.8132 42.7179 39.7464 44.4585C40.6871 46.199 41.1574 48.3099 41.1574 50.7911ZM43.0677 68.5669V45.1028H47.7339V47.9692H47.9449C48.1523 47.51 48.4523 47.0434 48.8448 46.5693C49.2448 46.0879 49.7633 45.688 50.4002 45.3695C51.0446 45.0436 51.8445 44.8806 52.8 44.8806C54.0443 44.8806 55.1923 45.2065 56.244 45.8583C57.2958 46.5027 58.1364 47.4767 58.766 48.7802C59.3955 50.0764 59.7103 51.7021 59.7103 53.6574C59.7103 55.5609 59.4029 57.1682 58.7882 58.4791C58.1808 59.7827 57.3513 60.7715 56.2996 61.4455C55.2552 62.1121 54.085 62.4454 52.7889 62.4454C51.8704 62.4454 51.089 62.2935 50.4447 61.9899C49.8077 61.6862 49.2855 61.3047 48.8782 60.8455C48.4708 60.3789 48.1597 59.9086 47.9449 59.4346H47.8005V68.5669H43.0677ZM47.7005 53.6352C47.7005 54.6499 47.8413 55.535 48.1227 56.2905C48.4042 57.046 48.8115 57.6348 49.3448 58.057C49.8781 58.4717 50.5261 58.6791 51.289 58.6791C52.0593 58.6791 52.7111 58.468 53.2444 58.0458C53.7776 57.6163 54.1813 57.0237 54.4553 56.2683C54.7368 55.5054 54.8775 54.6277 54.8775 53.6352C54.8775 52.6502 54.7405 51.7836 54.4664 51.0355C54.1924 50.2875 53.7887 49.7023 53.2555 49.2802C52.7222 48.858 52.0667 48.6469 51.289 48.6469C50.5187 48.6469 49.867 48.8506 49.3337 49.2579C48.8078 49.6653 48.4042 50.243 48.1227 50.9911C47.8413 51.7391 47.7005 52.6205 47.7005 53.6352ZM64.5453 61.4344C65.8118 62.1454 67.3228 62.5009 69.0781 62.5009C70.4854 62.5009 71.726 62.2861 72.7999 61.8565C73.8813 61.4195 74.7627 60.8122 75.4441 60.0345C76.1329 59.2494 76.5884 58.331 76.8106 57.2793L72.4333 56.9904C72.2704 57.42 72.0334 57.7829 71.7223 58.0792C71.4112 58.3754 71.0372 58.5976 70.6002 58.7458C70.1632 58.8939 69.6818 58.968 69.1559 58.968C68.3634 58.968 67.6783 58.8013 67.1006 58.468C66.5229 58.1347 66.0748 57.6607 65.7563 57.046C65.4452 56.4312 65.2897 55.7017 65.2897 54.8573V54.8462H76.9106V53.5463C76.9106 52.0947 76.7069 50.8281 76.2996 49.7468C75.8922 48.658 75.3219 47.7544 74.5886 47.036C73.8628 46.3175 73.011 45.7805 72.0334 45.425C71.0631 45.0621 70.0151 44.8806 68.8893 44.8806C67.2154 44.8806 65.7563 45.251 64.512 45.9916C63.2751 46.7323 62.3159 47.7655 61.6345 49.0913C60.9531 50.4171 60.6124 51.9576 60.6124 53.713C60.6124 55.5128 60.9531 57.0719 61.6345 58.3903C62.3159 59.7012 63.2862 60.7159 64.5453 61.4344ZM65.2941 51.9132C65.3227 51.3004 65.4804 50.7412 65.7674 50.2356C66.0785 49.6801 66.5081 49.2394 67.0561 48.9135C67.6116 48.5802 68.2486 48.4136 68.967 48.4136C69.6559 48.4136 70.2595 48.5654 70.778 48.8691C71.3038 49.1654 71.7149 49.5764 72.0112 50.1023C72.3074 50.6282 72.4555 51.2318 72.4555 51.9132H65.2941ZM78.4349 62.1676V45.1028H83.0233V48.0803H83.201C83.5121 47.0212 84.0343 46.2212 84.7675 45.6806C85.5008 45.1325 86.3451 44.8584 87.3006 44.8584C87.5376 44.8584 87.7931 44.8732 88.0671 44.9029C88.3412 44.9325 88.5819 44.9732 88.7893 45.0251V49.2246C88.5671 49.1579 88.2597 49.0987 87.8672 49.0469C87.4746 48.995 87.1154 48.9691 86.7895 48.9691C86.0933 48.9691 85.4711 49.1209 84.923 49.4246C84.3824 49.7208 83.9528 50.1356 83.6343 50.6689C83.3232 51.2022 83.1677 51.8169 83.1677 52.5131V62.1676H78.4349ZM91.1385 61.9232C91.9902 62.3009 92.9605 62.4898 94.0492 62.4898C94.8936 62.4898 95.638 62.3787 96.2823 62.1565C96.9267 61.9269 97.4785 61.6121 97.9377 61.2122C98.3969 60.8048 98.7635 60.3345 99.0376 59.8012H99.1709V62.1676H103.659V50.6578C103.659 49.6431 103.463 48.7728 103.07 48.047C102.678 47.3137 102.141 46.7138 101.46 46.2472C100.786 45.7805 100.012 45.4361 99.1376 45.2139C98.271 44.9917 97.3637 44.8806 96.4156 44.8806C95.0528 44.8806 93.853 45.088 92.816 45.5028C91.7865 45.9102 90.9459 46.4953 90.2941 47.2582C89.6423 48.0136 89.2053 48.9098 88.9831 49.9467L93.3604 50.3023C93.5234 49.7394 93.8567 49.2728 94.3603 48.9024C94.864 48.5247 95.5417 48.3358 96.3934 48.3358C97.2007 48.3358 97.8229 48.5284 98.2599 48.9135C98.7043 49.2987 98.9265 49.8431 98.9265 50.5467V50.6133C98.9265 50.9763 98.7895 51.2503 98.5154 51.4355C98.2414 51.6206 97.8007 51.7614 97.1933 51.8576C96.586 51.9465 95.7861 52.0428 94.7936 52.1465C93.9492 52.228 93.1419 52.3687 92.3717 52.5687C91.6088 52.7687 90.9274 53.0649 90.3274 53.4575C89.7275 53.85 89.2535 54.3685 88.9054 55.0129C88.5573 55.6572 88.3832 56.4534 88.3832 57.4015C88.3832 58.5273 88.6276 59.4679 89.1165 60.2234C89.6127 60.9714 90.2867 61.538 91.1385 61.9232ZM97.2489 58.8124C96.7156 59.0865 96.1009 59.2235 95.4046 59.2235C94.6788 59.2235 94.0789 59.0568 93.6048 58.7235C93.1382 58.3828 92.9049 57.8903 92.9049 57.2459C92.9049 56.8015 93.0197 56.4312 93.2493 56.1349C93.4789 55.8313 93.8011 55.5906 94.2159 55.4128C94.6307 55.235 95.1158 55.1054 95.6713 55.024C95.9305 54.9869 96.2194 54.9462 96.5378 54.9018C96.8563 54.8499 97.1748 54.7944 97.4933 54.7351C97.8118 54.6684 98.0969 54.5981 98.3488 54.524C98.608 54.4425 98.8117 54.3537 98.9598 54.2574V56.0683C98.9598 56.6682 98.808 57.2052 98.5043 57.6792C98.2006 58.1532 97.7822 58.531 97.2489 58.8124ZM114.844 45.1028V48.658H111.633V56.9237C111.633 57.3607 111.699 57.7014 111.833 57.9459C111.966 58.1829 112.151 58.3495 112.388 58.4458C112.633 58.5421 112.914 58.5902 113.233 58.5902C113.455 58.5902 113.677 58.5717 113.899 58.5347C114.121 58.4902 114.292 58.4569 114.41 58.4347L115.155 61.9565C114.918 62.0306 114.584 62.1158 114.155 62.212C113.725 62.3157 113.203 62.3787 112.588 62.4009C111.448 62.4454 110.448 62.2935 109.589 61.9454C108.737 61.5973 108.074 61.0566 107.6 60.3234C107.126 59.5901 106.893 58.6643 106.9 57.5459V48.658H104.567V45.1028H106.9V41.0144H111.633V45.1028H114.844ZM119.412 61.401C120.671 62.1343 122.164 62.5009 123.889 62.5009C125.615 62.5009 127.104 62.1343 128.355 61.401C129.615 60.6604 130.585 59.6309 131.266 58.3125C131.948 56.9867 132.288 55.4498 132.288 53.7019C132.288 51.9391 131.948 50.3986 131.266 49.0802C130.585 47.7544 129.615 46.7249 128.355 45.9916C127.104 45.251 125.615 44.8806 123.889 44.8806C122.164 44.8806 120.671 45.251 119.412 45.9916C118.16 46.7249 117.194 47.7544 116.512 49.0802C115.831 50.3986 115.49 51.9391 115.49 53.7019C115.49 55.4498 115.831 56.9867 116.512 58.3125C117.194 59.6309 118.16 60.6604 119.412 61.401ZM125.878 58.1681C125.352 58.6124 124.697 58.8346 123.911 58.8346C123.119 58.8346 122.452 58.6124 121.912 58.1681C121.378 57.7163 120.975 57.1015 120.701 56.3238C120.434 55.5461 120.301 54.661 120.301 53.6686C120.301 52.6761 120.434 51.791 120.701 51.0133C120.975 50.2356 121.378 49.6209 121.912 49.1691C122.452 48.7173 123.119 48.4914 123.911 48.4914C124.697 48.4914 125.352 48.7173 125.878 49.1691C126.404 49.6209 126.8 50.2356 127.067 51.0133C127.341 51.791 127.478 52.6761 127.478 53.6686C127.478 54.661 127.341 55.5461 127.067 56.3238C126.8 57.1015 126.404 57.7163 125.878 58.1681ZM133.801 62.1676V45.1028H138.39V48.0803H138.568C138.879 47.0212 139.401 46.2212 140.134 45.6806C140.867 45.1325 141.712 44.8584 142.667 44.8584C142.904 44.8584 143.16 44.8732 143.434 44.9029C143.708 44.9325 143.948 44.9732 144.156 45.0251V49.2246C143.934 49.1579 143.626 49.0987 143.234 49.0469C142.841 48.995 142.482 48.9691 142.156 48.9691C141.46 48.9691 140.838 49.1209 140.29 49.4246C139.749 49.7208 139.319 50.1356 139.001 50.6689C138.69 51.2022 138.534 51.8169 138.534 52.5131V62.1676H133.801ZM154.904 50.2356L159.237 49.969C159.03 48.3988 158.304 47.1582 157.059 46.2472C155.823 45.3362 154.126 44.8806 151.971 44.8806C150.512 44.8806 149.238 45.0954 148.149 45.525C147.068 45.9546 146.227 46.5656 145.627 47.3581C145.035 48.1507 144.739 49.095 144.739 50.1912C144.739 51.4651 145.142 52.5131 145.95 53.3353C146.764 54.1574 148.005 54.7351 149.671 55.0684L152.627 55.6572C153.367 55.8054 153.915 56.0201 154.271 56.3016C154.626 56.5756 154.808 56.9275 154.815 57.357C154.808 57.8681 154.549 58.2866 154.038 58.6124C153.534 58.9309 152.867 59.0902 152.038 59.0902C151.193 59.0902 150.501 58.9124 149.96 58.5569C149.42 58.194 149.079 57.6681 148.938 56.9793L144.283 57.2237C144.513 58.8532 145.294 60.1419 146.627 61.09C147.968 62.0306 149.768 62.5009 152.027 62.5009C153.508 62.5009 154.815 62.2676 155.948 61.801C157.089 61.327 157.985 60.6678 158.637 59.8234C159.296 58.9791 159.626 57.9977 159.626 56.8793C159.626 55.6498 159.218 54.6573 158.404 53.9019C157.589 53.1464 156.352 52.5983 154.693 52.2576L151.604 51.6354C150.812 51.4651 150.253 51.2392 149.927 50.9577C149.601 50.6763 149.438 50.3319 149.438 49.9245C149.438 49.4135 149.69 49.0061 150.194 48.7024C150.697 48.3914 151.316 48.2358 152.049 48.2358C152.597 48.2358 153.067 48.3284 153.46 48.5136C153.86 48.6913 154.182 48.932 154.426 49.2357C154.671 49.532 154.83 49.8653 154.904 50.2356Z" fill="black"/>
<path d="M155.059 76.0542C154.44 76.0542 153.892 75.8972 153.416 75.583C152.944 75.2689 152.574 74.835 152.306 74.2813C152.039 73.7246 151.905 73.0823 151.905 72.3544C151.905 71.6204 152.039 70.975 152.306 70.4182C152.574 69.8583 152.944 69.4229 153.416 69.1118C153.892 68.7977 154.44 68.6406 155.059 68.6406C155.678 68.6406 156.224 68.7977 156.696 69.1118C157.169 69.426 157.539 69.8615 157.807 70.4182C158.077 70.975 158.213 71.6204 158.213 72.3544C158.213 73.0823 158.079 73.7246 157.811 74.2813C157.544 74.835 157.172 75.2689 156.696 75.583C156.224 75.8972 155.678 76.0542 155.059 76.0542ZM155.059 75.2938C155.556 75.2938 155.978 75.16 156.323 74.8925C156.668 74.625 156.93 74.2689 157.107 73.8241C157.287 73.3793 157.378 72.8894 157.378 72.3544C157.378 71.8194 157.287 71.328 157.107 70.8801C156.93 70.4322 156.668 70.073 156.323 69.8024C155.978 69.5318 155.556 69.3965 155.059 69.3965C154.564 69.3965 154.143 69.5318 153.794 69.8024C153.449 70.073 153.186 70.4322 153.006 70.8801C152.829 71.328 152.74 71.8194 152.74 72.3544C152.74 72.8894 152.829 73.3793 153.006 73.8241C153.186 74.2689 153.449 74.625 153.794 74.8925C154.14 75.16 154.561 75.2938 155.059 75.2938Z" fill="black"/>
<path d="M148.416 76.0542C147.775 76.0542 147.217 75.8941 146.741 75.5737C146.268 75.2533 145.901 74.8148 145.64 74.258C145.379 73.7012 145.248 73.0667 145.248 72.3544C145.248 71.6359 145.38 70.9967 145.645 70.4369C145.912 69.877 146.282 69.4384 146.755 69.1212C147.228 68.8008 147.777 68.6406 148.402 68.6406C148.881 68.6406 149.315 68.7339 149.704 68.9206C150.093 69.1041 150.413 69.3638 150.665 69.6997C150.92 70.0325 151.08 70.4213 151.146 70.8661H150.306C150.219 70.4618 150.009 70.1165 149.676 69.8304C149.346 69.5411 148.926 69.3965 148.416 69.3965C147.959 69.3965 147.555 69.5209 147.203 69.7697C146.852 70.0154 146.576 70.3591 146.377 70.8008C146.181 71.2394 146.083 71.7479 146.083 72.3264C146.083 72.9081 146.18 73.4229 146.373 73.8707C146.566 74.3155 146.836 74.6639 147.185 74.9158C147.536 75.1678 147.947 75.2938 148.416 75.2938C148.733 75.2938 149.023 75.2347 149.284 75.1165C149.548 74.9952 149.769 74.8241 149.947 74.6032C150.127 74.3824 150.248 74.1196 150.31 73.8148H151.15C151.088 74.2471 150.934 74.6328 150.688 74.9718C150.446 75.3078 150.13 75.5721 149.741 75.765C149.356 75.9578 148.914 76.0542 148.416 76.0542Z" fill="black"/>
<path d="M143.408 75.9765C143.224 75.9765 143.066 75.9112 142.932 75.7805C142.801 75.6468 142.736 75.4882 142.736 75.3047C142.736 75.118 142.801 74.9594 142.932 74.8288C143.066 74.6981 143.224 74.6328 143.408 74.6328C143.595 74.6328 143.753 74.6981 143.884 74.8288C144.014 74.9594 144.08 75.118 144.08 75.3047C144.08 75.426 144.049 75.5379 143.986 75.6406C143.927 75.7432 143.846 75.8256 143.744 75.8879C143.644 75.947 143.532 75.9765 143.408 75.9765Z" fill="black"/>
<path d="M141.481 70.3109L140.721 70.5255C140.646 70.3109 140.54 70.1165 140.404 69.9423C140.267 69.7681 140.088 69.6297 139.867 69.5271C139.649 69.4244 139.379 69.3731 139.055 69.3731C138.57 69.3731 138.172 69.4882 137.861 69.7184C137.55 69.9485 137.394 70.2456 137.394 70.6095C137.394 70.9174 137.5 71.1678 137.712 71.3607C137.926 71.5504 138.256 71.7013 138.701 71.8132L139.783 72.0792C140.383 72.2254 140.833 72.4571 141.131 72.7743C141.433 73.0916 141.584 73.4897 141.584 73.9687C141.584 74.3731 141.472 74.7323 141.248 75.0465C141.024 75.3606 140.711 75.6079 140.31 75.7883C139.912 75.9656 139.45 76.0542 138.925 76.0542C138.225 76.0542 137.648 75.8972 137.194 75.583C136.74 75.2658 136.449 74.8085 136.321 74.2113L137.119 74.0154C137.222 74.4415 137.422 74.7634 137.721 74.9812C138.023 75.1989 138.419 75.3078 138.911 75.3078C139.461 75.3078 139.901 75.1849 140.231 74.9392C140.561 74.6903 140.725 74.3793 140.725 74.0061C140.725 73.7168 140.629 73.4742 140.436 73.2782C140.243 73.0792 139.951 72.933 139.559 72.8397L138.388 72.5597C137.766 72.4104 137.306 72.174 137.007 71.8505C136.708 71.5271 136.559 71.1258 136.559 70.6468C136.559 70.2518 136.666 69.905 136.881 69.6064C137.096 69.3047 137.391 69.0683 137.767 68.8972C138.144 68.7262 138.573 68.6406 139.055 68.6406C139.711 68.6406 140.236 68.7899 140.628 69.0885C141.023 69.384 141.307 69.7915 141.481 70.3109Z" fill="black"/>
<path d="M132.346 76.0542C131.727 76.0542 131.18 75.8972 130.704 75.583C130.231 75.2689 129.861 74.835 129.594 74.2813C129.326 73.7246 129.192 73.0823 129.192 72.3544C129.192 71.6204 129.326 70.975 129.594 70.4182C129.861 69.8583 130.231 69.4229 130.704 69.1118C131.18 68.7977 131.727 68.6406 132.346 68.6406C132.965 68.6406 133.511 68.7977 133.984 69.1118C134.457 69.426 134.827 69.8615 135.094 70.4182C135.365 70.975 135.5 71.6204 135.5 72.3544C135.5 73.0823 135.367 73.7246 135.099 74.2813C134.832 74.835 134.46 75.2689 133.984 75.583C133.511 75.8972 132.965 76.0542 132.346 76.0542ZM132.346 75.2938C132.844 75.2938 133.266 75.16 133.611 74.8925C133.956 74.625 134.217 74.2689 134.395 73.8241C134.575 73.3793 134.665 72.8894 134.665 72.3544C134.665 71.8194 134.575 71.328 134.395 70.8801C134.217 70.4322 133.956 70.073 133.611 69.8024C133.266 69.5318 132.844 69.3965 132.346 69.3965C131.852 69.3965 131.43 69.5318 131.082 69.8024C130.737 70.073 130.474 70.4322 130.294 70.8801C130.116 71.328 130.028 71.8194 130.028 72.3544C130.028 72.8894 130.116 73.3793 130.294 73.8241C130.474 74.2689 130.737 74.625 131.082 74.8925C131.427 75.16 131.849 75.2938 132.346 75.2938Z" fill="black"/>
<path d="M125.061 78.7416C124.573 78.7416 124.145 78.6779 123.778 78.5503C123.411 78.4259 123.102 78.2548 122.85 78.0371C122.598 77.8194 122.402 77.5752 122.262 77.3046L122.943 76.8567C123.046 77.0371 123.183 77.2144 123.354 77.3886C123.528 77.5628 123.753 77.7074 124.03 77.8225C124.31 77.9376 124.654 77.9951 125.061 77.9951C125.696 77.9951 126.207 77.8365 126.596 77.5192C126.988 77.202 127.184 76.709 127.184 76.0402V74.426H127.109C127.013 74.6437 126.875 74.8614 126.694 75.0791C126.514 75.2938 126.277 75.4726 125.985 75.6157C125.696 75.7588 125.337 75.8303 124.907 75.8303C124.335 75.8303 123.826 75.6888 123.382 75.4057C122.94 75.1227 122.592 74.7183 122.337 74.1927C122.085 73.6639 121.959 73.0341 121.959 72.3031C121.959 71.5784 122.082 70.9408 122.327 70.3902C122.576 69.8397 122.923 69.4104 123.368 69.1025C123.812 68.7946 124.33 68.6406 124.921 68.6406C125.36 68.6406 125.724 68.7184 126.013 68.8739C126.302 69.0263 126.534 69.216 126.708 69.4431C126.886 69.6702 127.024 69.891 127.123 70.1056H127.207V68.7386H128.019V76.0916C128.019 76.6981 127.89 77.1973 127.632 77.5892C127.374 77.9811 127.022 78.2704 126.578 78.457C126.133 78.6468 125.627 78.7416 125.061 78.7416ZM125.005 75.0698C125.466 75.0698 125.859 74.9594 126.186 74.7385C126.512 74.5146 126.763 74.1942 126.937 73.7774C127.111 73.3606 127.198 72.8645 127.198 72.2891C127.198 71.7292 127.113 71.2331 126.942 70.8008C126.77 70.3653 126.522 70.0232 126.195 69.7744C125.872 69.5224 125.475 69.3965 125.005 69.3965C124.526 69.3965 124.122 69.5255 123.792 69.7837C123.463 70.0419 123.214 70.3902 123.046 70.8288C122.878 71.2642 122.794 71.751 122.794 72.2891C122.794 72.8365 122.879 73.3202 123.05 73.7401C123.221 74.1569 123.472 74.4835 123.802 74.7199C124.131 74.9532 124.533 75.0698 125.005 75.0698Z" fill="black"/>
<path d="M118.007 76.0542C117.388 76.0542 116.841 75.8972 116.365 75.583C115.892 75.2689 115.522 74.835 115.254 74.2813C114.987 73.7246 114.853 73.0823 114.853 72.3544C114.853 71.6204 114.987 70.975 115.254 70.4182C115.522 69.8583 115.892 69.4229 116.365 69.1118C116.841 68.7977 117.388 68.6406 118.007 68.6406C118.626 68.6406 119.172 68.7977 119.645 69.1118C120.117 69.426 120.488 69.8615 120.755 70.4182C121.026 70.975 121.161 71.6204 121.161 72.3544C121.161 73.0823 121.027 73.7246 120.76 74.2813C120.492 74.835 120.121 75.2689 119.645 75.583C119.172 75.8972 118.626 76.0542 118.007 76.0542ZM118.007 75.2938C118.505 75.2938 118.926 75.16 119.271 74.8925C119.617 74.625 119.878 74.2689 120.055 73.8241C120.236 73.3793 120.326 72.8894 120.326 72.3544C120.326 71.8194 120.236 71.328 120.055 70.8801C119.878 70.4322 119.617 70.073 119.271 69.8024C118.926 69.5318 118.505 69.3965 118.007 69.3965C117.513 69.3965 117.091 69.5318 116.743 69.8024C116.397 70.073 116.135 70.4322 115.954 70.8801C115.777 71.328 115.688 71.8194 115.688 72.3544C115.688 72.8894 115.777 73.3793 115.954 73.8241C116.135 74.2689 116.397 74.625 116.743 74.8925C117.088 75.16 117.509 75.2938 118.007 75.2938Z" fill="black"/>
<path d="M108.661 75.9047V66.3496H109.533V75.1209H114.087V75.9047H108.661Z" fill="black"/>
</svg>
