<svg width="78" height="78" viewBox="0 0 78 78" fill="none" xmlns="http://www.w3.org/2000/svg">
<path d="M77.1974 42.3704C77.1109 42.2407 76.9812 42.1543 76.8515 42.1111C76.7218 42.0679 76.5489 42.0247 76.4191 42.0247C70.9716 42.0679 65.5674 42.5864 60.2063 43.4506C58.477 42.0247 56.8341 40.5988 55.1912 39.0864C56.8341 37.5309 58.5202 36.0617 60.2496 34.6358C65.5674 35.5432 70.9716 36.0185 76.3759 36.1049C76.5921 36.0617 76.7218 36.0185 76.8083 35.9753C77.0677 35.8457 77.3271 35.5432 77.4135 35.2407C77.4568 35.1111 77.5 34.9383 77.5 34.7654C77.5 34.5926 77.4568 34.463 77.4135 34.2901C77.3703 34.1605 77.2838 34.0309 77.1541 33.9012C77.0677 33.7716 76.938 33.6852 76.765 33.642C76.6353 33.5988 76.4624 33.5556 76.3327 33.5556C71.7931 33.5123 67.2535 33.1235 62.7572 32.4753C66.3024 29.7099 70.0205 27.1173 73.9116 24.784C74.171 24.6111 74.3439 24.3951 74.3871 24.0926C74.4736 23.7901 74.3871 23.5309 74.2574 23.2716C74.0845 23.0123 73.8683 22.8395 73.5657 22.7531C73.2631 22.6667 72.9604 22.7099 72.701 22.8395C68.1614 25.6049 63.7948 28.6296 59.6875 31.9568C57.5258 31.5679 55.4074 31.1358 53.2889 30.6173C53.8509 28.5432 54.413 26.5123 55.0615 24.4815C60.0334 22.6667 64.8756 20.5062 69.5449 18C69.7611 17.8272 69.934 17.6111 69.9773 17.3086C70.0205 17.0494 69.9773 16.7469 69.8476 16.5309C69.7179 16.2716 69.5017 16.0988 69.2423 16.0123C68.9829 15.9259 68.6802 15.9259 68.4641 16.0123C64.4001 18.1728 60.2496 20.0309 55.9694 21.6728C57.5691 17.0062 59.4714 12.4691 61.6331 8.01852C61.7195 7.75926 61.7195 7.45679 61.6331 7.15432C61.5466 6.89506 61.3304 6.67901 61.1143 6.50617C60.8549 6.37654 60.5955 6.33333 60.336 6.41975C60.0766 6.50617 59.8172 6.6358 59.6875 6.89506C57.18 11.9506 55.0615 17.2222 53.3321 22.6235C51.3001 23.3148 49.2681 24.0062 47.2361 24.5679C46.7605 22.4938 46.3282 20.3765 45.9391 18.2593C49.3113 14.1543 52.381 9.79012 55.1479 5.20988C55.2777 4.95062 55.3209 4.60494 55.2776 4.34568C55.1912 4.04321 55.0182 3.78395 54.7588 3.65432C54.6291 3.5679 54.4994 3.52469 54.3265 3.48148C54.1968 3.43827 54.0239 3.48148 53.8942 3.48148C53.7645 3.52469 53.6348 3.5679 53.5051 3.69753C53.3753 3.78395 53.2889 3.91358 53.2024 4.04321C50.8678 7.9321 48.2737 11.6914 45.4635 15.2778C44.7718 10.7407 44.3394 6.2037 44.2097 1.62346C44.2097 1.49383 44.1665 1.32099 44.1232 1.19136C44.08 1.06173 43.9935 0.932099 43.8638 0.845679C43.7774 0.759259 43.6477 0.67284 43.518 0.58642C43.3883 0.54321 43.2153 0.5 43.0856 0.5C42.783 0.5 42.5236 0.62963 42.3074 0.845679C42.0912 1.06173 42.0048 1.3642 42.0048 1.66667C42.1345 7.02469 42.6533 12.3827 43.5612 17.6543C42.0912 19.4259 40.578 21.1543 38.9784 22.8395C37.7246 21.4568 36.4708 20.0741 35.2602 18.6481C36.4708 13.0741 37.2058 7.41358 37.5084 1.66667C37.5084 1.3642 37.3787 1.06173 37.2058 0.845679C37.0328 0.716049 36.7302 0.58642 36.4276 0.58642C36.1249 0.58642 35.8223 0.67284 35.6061 0.888889C35.3899 1.10494 35.2602 1.3642 35.217 1.66667C34.9576 6.6358 34.3523 11.5617 33.4012 16.4012C30.2883 12.5123 27.4349 8.40741 24.8841 4.08642C24.7976 3.95679 24.7111 3.82716 24.5814 3.74074C24.4517 3.69753 24.322 3.61111 24.1491 3.5679C24.0194 3.52469 23.8464 3.52469 23.7167 3.5679C23.587 3.61111 23.4141 3.65432 23.2844 3.74074C23.1547 3.82716 23.025 3.91358 22.9385 4.04321C22.852 4.17284 22.7656 4.30247 22.7656 4.4321C22.7223 4.56173 22.7223 4.73457 22.7656 4.8642C22.8088 4.99383 22.852 5.16667 22.9385 5.2963C25.8784 10.2222 29.2075 14.8889 32.8391 19.2963C32.45 21.1111 31.9745 22.9259 31.4989 24.6975C29.1642 23.963 26.8728 23.1852 24.6246 22.321C22.9385 17.1358 20.8633 12.037 18.4854 7.15432C18.3989 7.02469 18.3125 6.89506 18.226 6.80864C18.0963 6.72222 17.9666 6.6358 17.8369 6.59259C17.7072 6.54938 17.5342 6.54938 17.4045 6.54938C17.2748 6.54938 17.1019 6.59259 16.9722 6.67901C16.7128 6.80864 16.4966 7.0679 16.4102 7.37037C16.3237 7.67284 16.3669 7.97531 16.4966 8.27778C18.5286 12.4691 20.3012 16.8333 21.8577 21.2407C17.7072 19.5556 13.6864 17.6111 9.79534 15.4506C9.66564 15.3642 9.53593 15.321 9.363 15.321C9.19006 15.321 9.06036 15.321 8.88742 15.3642C8.75772 15.4074 8.58478 15.4506 8.45508 15.5802C8.32538 15.6667 8.23891 15.7963 8.15244 15.9259C7.97951 16.1852 7.97951 16.4877 8.02274 16.7901C8.10921 17.0926 8.28214 17.3519 8.54155 17.4815C13.0811 19.9444 17.8369 22.1481 22.7223 24.0494C23.4573 26.3395 24.1058 28.6296 24.7111 30.963C22.6791 31.4383 20.6039 31.8272 18.5286 32.216C14.3349 28.8025 9.92504 25.6914 5.29899 22.8827C5.03958 22.7531 4.73695 22.7099 4.43431 22.7963C4.13167 22.8827 3.9155 23.0556 3.74256 23.3148C3.56962 23.5741 3.52639 23.8765 3.61286 24.1358C3.69933 24.3951 3.87226 24.6543 4.08843 24.8272C8.02274 27.2037 11.8273 29.8395 15.4158 32.6481C10.833 33.2963 6.25014 33.642 1.62409 33.6852C1.32145 33.6852 1.06204 33.8148 0.845873 34.0309C0.672937 34.2901 0.543234 34.5926 0.543234 34.8951C0.543234 35.0679 0.586468 35.1975 0.629702 35.3704C0.672937 35.5 0.759405 35.6296 0.889107 35.7593C0.975576 35.8889 1.10528 35.9753 1.23498 36.0185C1.36468 36.0617 1.53762 36.1049 1.66732 36.1049C7.11482 36.0617 12.5191 35.5432 17.8801 34.679C19.6095 36.1049 21.2956 37.5741 22.8953 39.1296C21.2956 40.642 19.6095 42.0679 17.9234 43.4506C12.5623 42.5432 7.11482 42.0679 1.66732 42.0247C1.36468 42.0247 1.06204 42.1543 0.845873 42.3704C0.629702 42.5864 0.5 42.8889 0.5 43.2346C0.5 43.4074 0.543234 43.537 0.586468 43.6667C0.629702 43.7963 0.716171 43.9259 0.845873 44.0556C0.932341 44.1852 1.06204 44.2716 1.23498 44.3148C1.36468 44.358 1.53762 44.4012 1.66732 44.4012C6.25014 44.4444 10.833 44.8333 15.3725 45.4815C11.7841 48.2901 7.97951 50.8827 4.0452 53.2593C3.9155 53.3457 3.78579 53.4321 3.69933 53.5617C3.61286 53.6914 3.52639 53.821 3.48316 53.9506C3.43992 54.0802 3.43992 54.2531 3.48316 54.3827C3.52639 54.5123 3.56962 54.6852 3.65609 54.8148C3.74256 54.9877 3.9155 55.1173 4.08843 55.2037C4.26137 55.2901 4.47754 55.3333 4.65048 55.3333C4.86665 55.3333 5.08282 55.2901 5.25575 55.1605C9.88181 52.3951 14.2917 49.3272 18.4422 45.9568C20.5174 46.3025 22.5926 46.7346 24.6679 47.2099C24.1058 49.3704 23.5006 51.5309 22.8088 53.6481C17.8801 55.463 13.0811 57.6235 8.45508 60.1728C8.32538 60.2593 8.19568 60.3457 8.10921 60.4753C8.02274 60.6049 7.93627 60.7346 7.89304 60.8642C7.8498 60.9938 7.8498 61.1667 7.8498 61.2963C7.8498 61.4259 7.89304 61.5988 7.97951 61.7284C8.06597 61.858 8.15244 61.9877 8.23891 62.0741C8.32538 62.1605 8.49832 62.2469 8.62802 62.2901C8.75772 62.3333 8.93066 62.3333 9.06036 62.3333C9.19006 62.3333 9.363 62.2901 9.4927 62.2037C13.4702 60.0432 17.6207 58.142 21.8577 56.5C20.3012 61.0802 18.4422 65.5741 16.3237 69.9383C16.2372 70.0679 16.194 70.2407 16.194 70.3704C16.194 70.5432 16.194 70.6728 16.2372 70.8457C16.2805 70.9753 16.3669 71.1481 16.4534 71.2346C16.5399 71.3642 16.6696 71.4506 16.7993 71.537C16.9722 71.6235 17.1451 71.6667 17.3181 71.6667C17.5342 71.6667 17.7072 71.6235 17.9234 71.4938C18.0963 71.3642 18.226 71.2346 18.3557 71.0185C20.82 66.0062 22.8953 60.7778 24.6246 55.463C26.6567 54.7284 28.6887 54.0802 30.7207 53.4753C31.2395 55.5494 31.6718 57.6235 32.0177 59.6975C28.6454 63.8457 25.5758 68.2531 22.852 72.8333C22.7656 72.963 22.7223 73.0926 22.7223 73.2654C22.7223 73.4383 22.7223 73.5679 22.7223 73.6975C22.7656 73.8272 22.8088 74 22.8953 74.0864C22.9818 74.216 23.1115 74.3025 23.2412 74.3889C23.4141 74.5185 23.6303 74.5617 23.8032 74.5617C24.0194 74.5617 24.1923 74.5185 24.3652 74.3889C24.5382 74.3025 24.6679 74.1296 24.7976 73.9568C27.1322 70.0247 29.7263 66.2654 32.5365 62.679C33.2282 67.216 33.6606 71.7963 33.7903 76.3765C33.7903 76.5062 33.8335 76.679 33.8768 76.8086C33.92 76.9383 34.0065 77.0679 34.1362 77.1543C34.2226 77.2407 34.3523 77.3272 34.482 77.4136C34.6117 77.4568 34.7414 77.5 34.9144 77.5C35.0441 77.5 35.217 77.4568 35.3467 77.4136C35.4764 77.3704 35.6061 77.284 35.6926 77.1543C35.7791 77.0679 35.8655 76.9383 35.9088 76.7654C35.952 76.6358 35.9952 76.463 35.9952 76.3333C35.8223 70.9753 35.3035 65.6173 34.3956 60.3457C35.8655 58.5741 37.3787 56.8457 38.9351 55.1173C40.2322 56.4568 41.4427 57.8827 42.6533 59.3086C41.486 64.8827 40.7077 70.5864 40.4483 76.2901C40.4483 76.4198 40.4483 76.5926 40.4916 76.7222C40.5348 76.8519 40.6213 76.9815 40.7077 77.1111C40.7942 77.2407 40.9239 77.3272 41.0536 77.3704C41.1833 77.4136 41.3563 77.4568 41.486 77.4568C41.7886 77.4568 42.048 77.3272 42.2642 77.1111C42.4803 76.8951 42.6101 76.6358 42.6101 76.3333C42.8695 71.3642 43.518 66.4383 44.4691 61.5556C47.6252 65.4445 50.4787 69.5494 53.0727 73.8704C53.1592 74 53.2456 74.1296 53.3753 74.216C53.5051 74.3025 53.6348 74.3889 53.7645 74.4321C53.8942 74.4753 54.0671 74.4753 54.1968 74.4321C54.3265 74.3889 54.4994 74.3457 54.6291 74.2593C54.8885 74.0864 55.0615 73.8272 55.1479 73.5679C55.2344 73.2654 55.1912 72.963 55.0182 72.7037C52.0351 67.7778 48.7061 63.1111 45.0312 58.7037C45.4203 56.9321 45.8526 55.1173 46.3714 53.3457C48.7493 54.0802 51.0839 54.858 53.3753 55.7222C55.0615 60.9074 57.1367 66.0062 59.5578 70.8889C59.6443 71.0617 59.774 71.2346 59.9469 71.3642C60.1199 71.4938 60.336 71.537 60.509 71.537C60.7252 71.537 60.8981 71.4938 61.071 71.4074C61.244 71.321 61.3737 71.1481 61.5034 70.9753C61.5898 70.8025 61.6763 70.5864 61.6763 70.4136C61.6763 70.1975 61.6331 70.0247 61.5466 69.8086C59.5146 65.6173 57.6988 61.2531 56.1423 56.8457C60.2496 58.5309 64.2704 60.4321 68.2047 62.5926C68.4641 62.7222 68.7667 62.7654 69.0693 62.7222C69.372 62.6358 69.6314 62.463 69.7611 62.2037C69.8476 62.0741 69.8908 61.9444 69.934 61.7716C69.9773 61.642 69.934 61.4691 69.934 61.3395C69.8908 61.2099 69.8476 61.037 69.7611 60.9506C69.6746 60.821 69.5449 60.7346 69.4152 60.6481C64.8324 58.142 60.1199 55.9383 55.2344 54.0802C54.4994 51.8333 53.8509 49.5432 53.2456 47.2531C55.3209 46.7778 57.3961 46.3457 59.4714 46C63.6218 49.3704 68.0317 52.4383 72.6578 55.2037C72.8307 55.3333 73.0469 55.3765 73.2631 55.3765C73.4792 55.3765 73.6522 55.3333 73.8251 55.2469C73.998 55.1605 74.1277 54.9877 74.2574 54.858C74.3439 54.7284 74.3871 54.5988 74.4304 54.4259C74.4736 54.2963 74.4304 54.1235 74.4304 53.9938C74.3871 53.8642 74.3439 53.7346 74.2142 53.6049C74.1277 53.4753 73.998 53.3889 73.8683 53.3025C69.934 50.9259 66.1727 48.3333 62.5842 45.5679C67.1238 44.9198 71.6634 44.5741 76.2462 44.4877C76.5489 44.4877 76.8515 44.358 77.0244 44.142C77.2406 43.9259 77.3703 43.6235 77.3703 43.321C77.3703 43.1481 77.3271 43.0185 77.2838 42.8457C77.3703 42.5864 77.2838 42.4568 77.1974 42.3704ZM51.6892 45.179C51.5595 45.2222 51.4298 45.2654 51.3001 45.3519C51.1704 45.4383 51.0839 45.5679 50.9975 45.6975C50.911 45.8272 50.8678 45.9568 50.8678 46.1296C50.8245 46.3025 50.8678 46.4321 50.8678 46.6049C51.3866 48.7654 51.9919 50.9259 52.5971 53.0432C50.3922 52.2654 48.1873 51.5309 45.9823 50.8827C45.8526 50.8395 45.6797 50.8395 45.55 50.8395C45.4203 50.8395 45.2473 50.8827 45.1176 50.9691C44.9879 51.0556 44.8582 51.142 44.7718 51.2716C44.6853 51.4012 44.5988 51.5309 44.5556 51.6605C44.08 53.3025 43.6477 54.9012 43.2586 56.5432C42.0912 55.2037 40.9239 53.9074 39.7134 52.6543C39.4972 52.4383 39.2378 52.3086 38.9351 52.3086C38.6325 52.3086 38.3731 52.4383 38.1569 52.6543C36.687 54.2099 35.2602 55.7654 33.8768 57.4074C33.4876 55.5062 33.0553 53.5617 32.5797 51.7037C32.4933 51.4012 32.3203 51.1852 32.0609 51.0123C31.8015 50.8827 31.4989 50.8395 31.2395 50.8827C29.2939 51.4012 27.3916 52.0062 25.4893 52.6543C26.0946 50.6235 26.6567 48.5926 27.1322 46.5617C27.1755 46.4321 27.1755 46.2593 27.1322 46.0864C27.089 45.9136 27.0458 45.784 27.0025 45.6543C26.9161 45.5247 26.8296 45.3951 26.6999 45.3086C26.5702 45.2222 26.4405 45.1358 26.3108 45.1358C24.4949 44.6605 22.6791 44.2716 20.82 43.8827C22.3765 42.5432 23.8897 41.2037 25.3596 39.7778C25.5758 39.5617 25.7055 39.3025 25.7055 39C25.7055 38.6975 25.5758 38.4383 25.3596 38.2222C23.8897 36.7963 22.3332 35.4136 20.7768 34.0741C22.6359 33.7284 24.4949 33.2963 26.3108 32.8642C26.4405 32.821 26.5702 32.7778 26.6999 32.6914C26.8296 32.6049 26.9161 32.4753 27.0025 32.3457C27.089 32.216 27.1322 32.0864 27.1322 31.9136C27.1755 31.7407 27.1322 31.6111 27.1322 31.4383C26.6134 29.2778 26.0514 27.1605 25.4029 25.0432C27.5646 25.821 29.7263 26.5123 31.888 27.1605H32.1906C32.45 27.1605 32.6662 27.0741 32.8824 26.9444C33.0985 26.8148 33.2282 26.5988 33.3147 26.3827C33.7903 24.7407 34.2226 23.0988 34.6117 21.4568C35.7791 22.7963 36.9464 24.0926 38.1569 25.3889C38.3731 25.6049 38.6757 25.7346 38.9351 25.7346C39.2378 25.7346 39.4972 25.6049 39.7134 25.3889C41.1833 23.8333 42.6533 22.2778 44.0368 20.6358C44.4259 22.537 44.8582 24.4815 45.3338 26.3827C45.377 26.642 45.55 26.8148 45.7229 26.9877C45.8958 27.1605 46.1552 27.2037 46.4146 27.2037H46.6741C48.6196 26.6852 50.5219 26.0802 52.4674 25.4321C51.8622 27.3765 51.3433 29.3642 50.8678 31.3519C50.8245 31.4815 50.8245 31.6543 50.8678 31.8272C50.8678 32 50.9542 32.1296 50.9975 32.2593C51.0839 32.3889 51.1704 32.5185 51.3001 32.6049C51.4298 32.6914 51.5595 32.7778 51.6892 32.821C53.5483 33.2963 55.4074 33.7284 57.2664 34.0741C55.6668 35.4568 54.1536 36.8395 52.6404 38.2654C52.4242 38.4815 52.2945 38.7407 52.2945 39.0432C52.2945 39.3457 52.4242 39.6049 52.6404 39.821C54.1103 41.2469 55.6235 42.6296 57.18 43.9259C55.3641 44.3148 53.5483 44.7469 51.6892 45.179Z" fill="black"/>
</svg>
