<svg width="128" height="84" viewBox="0 0 128 84" fill="none" xmlns="http://www.w3.org/2000/svg">
<g clip-path="url(#clip0_1668_1667)">
<path d="M44.3226 50.4533C44.5528 50.4533 44.7849 50.4613 45.0131 50.4533C45.5488 50.4296 45.9892 50.4533 45.9475 51.2069C45.9118 51.8695 45.7868 52.3818 44.9992 52.4035C44.4734 52.4174 43.9457 52.3917 43.4179 52.4114C43.0092 52.4273 42.8426 52.269 42.791 51.8557C42.6283 50.5424 42.7096 50.4553 44.3207 50.4553L44.3226 50.4533Z" fill="black"/>
<path d="M44.4516 57.1919C44.2076 57.1919 44.0429 57.1919 43.8782 57.1919C42.8703 57.188 42.4438 56.5155 42.8366 55.5503C42.8485 55.5206 42.8505 55.485 42.8684 55.4574C42.9993 55.2378 45.0765 55.1033 45.4297 55.315C46.0527 55.6888 46.0924 56.3494 45.8761 56.8696C45.6023 57.5242 44.8762 57.0436 44.4516 57.1939V57.1919Z" fill="black"/>
<path d="M59.8277 23.681C59.5321 23.6711 59.2285 23.6157 58.9428 23.6632C57.9885 23.8214 57.7802 23.3863 57.8218 22.518C57.8536 21.8574 58.0857 21.6359 58.7067 21.7071C58.9349 21.7328 59.167 21.711 59.3971 21.711C60.9328 21.711 61.2462 22.2055 60.6213 23.6375C60.3673 23.8629 60.1034 23.8531 59.8277 23.681Z" fill="black"/>
<path d="M59.2344 26.8019C59.4645 26.8019 59.6947 26.8197 59.9228 26.7979C60.4446 26.7505 60.9089 26.9542 60.8454 27.4724C60.7819 27.9985 61.0597 28.94 59.9109 28.7817C59.5895 28.7362 59.2523 28.7382 58.9308 28.7817C58.0956 28.8984 57.7404 28.6433 57.8317 27.7315C57.925 26.8078 57.8555 26.8019 59.2364 26.8019H59.2344Z" fill="black"/>
<path d="M65.369 32.3203C64.8135 32.3282 64.26 32.34 63.7045 32.34C62.639 32.34 62.276 31.7922 62.6132 30.7459C62.7005 30.4729 62.8593 30.3918 63.1132 30.3938C63.4723 30.3938 63.8374 30.4353 64.1885 30.3819C65.1131 30.2415 65.5397 30.5817 65.4127 31.5311C65.5873 31.804 65.5952 32.0691 65.369 32.3203Z" fill="black"/>
<path d="M82.9809 59.1579C82.2984 59.1065 81.5068 59.4447 81.5683 58.2343C81.61 57.4194 81.8282 57.0891 82.6436 57.2078C82.8698 57.2414 83.1039 57.2117 83.3341 57.2137C84.2963 57.2177 84.83 58.0306 84.3558 58.885C84.0384 59.4586 83.3916 59.0056 82.9789 59.1599L82.9809 59.1579Z" fill="black"/>
<path d="M83.0107 64.3043C82.4929 64.0946 81.5783 64.7592 81.5723 63.4696C81.5684 62.5479 81.7787 62.1266 82.7488 62.2987C82.9393 62.3323 83.1397 62.3027 83.3361 62.3027C84.2904 62.3046 84.834 63.1769 84.3539 64.0234C84.0503 64.5614 83.4551 64.1421 83.0107 64.3023V64.3043Z" fill="black"/>
<path d="M47.5427 63.0799C47.9177 62.7595 49.9393 62.5399 50.1635 62.8445C50.4929 63.2955 50.3143 63.8533 50.2945 64.3537C50.2766 64.8422 49.8064 64.6701 49.5168 64.678C48.864 64.6958 48.2113 64.6701 47.5566 64.6642C47.251 64.14 47.2768 63.61 47.5387 63.0799H47.5427Z" fill="black"/>
<path d="M47.5427 63.0801C47.5487 63.6082 47.5546 64.1363 47.5606 64.6644C46.884 64.1442 46.9455 63.6141 47.5427 63.0801Z" fill="black"/>
<path d="M59.8276 23.681C60.0915 23.6671 60.3574 23.6513 60.6212 23.6375C60.3871 24.2071 60.1213 24.2031 59.8276 23.681Z" fill="black"/>
<path d="M65.369 32.3202C65.3829 32.0571 65.3988 31.7941 65.4127 31.531C65.9384 31.8237 65.9424 32.0888 65.369 32.3202Z" fill="black"/>
<path d="M66.5435 41.0188C66.0058 40.7439 66.0058 40.471 66.5435 40.196C66.5435 40.471 66.5435 40.7439 66.5435 41.0188Z" fill="black"/>
<path d="M87.5283 82.8091C87.5362 83.0741 87.5421 83.3392 87.5501 83.6042C87.0005 83.353 87.0005 83.088 87.5283 82.8091Z" fill="black"/>
<path d="M126.817 80.0774C115.135 80.1071 103.452 80.0873 91.7698 80.117C90.9008 80.119 90.6587 79.8974 90.6627 79.0212C90.6964 70.9041 90.6766 62.7849 90.6964 54.6678C90.6964 53.9854 90.4841 53.5246 89.9604 53.0855C88.5775 51.9264 86.9427 51.1353 85.5579 49.9763C84.7285 49.282 83.7723 48.7381 82.8636 48.1408C81.8795 47.496 80.7665 47.7887 79.7051 47.767C79.1039 47.7551 78.8281 47.6503 78.8301 46.96C78.84 39.5331 78.8063 32.1062 78.8242 24.6794C78.8242 24.0919 78.7051 23.6449 78.2587 23.3245C76.6616 22.1754 75.2569 20.7948 73.7848 19.5092C71.4079 17.4364 69.0371 15.3517 66.6721 13.2631C64.5492 11.3881 62.3768 9.56647 60.2896 7.65585C57.6747 5.26264 54.9566 2.99007 52.3238 0.618605C52.0599 0.381261 51.9151 -0.152763 51.429 0.0390903C50.937 0.234899 51.1731 0.729366 51.1731 1.0834C51.1592 13.1444 51.1632 25.2074 51.1612 37.2685C51.1612 37.5652 51.1731 37.8618 51.1513 38.1546C51.1314 38.4354 51.1116 38.5264 50.685 38.4868C49.6772 38.3939 48.6594 38.4948 47.6416 38.297C46.217 38.022 45.3441 39.1573 44.2965 39.7843C42.4296 40.9018 40.6757 42.2151 38.7631 43.2377C37.8763 43.7104 37.6223 44.1989 37.6243 45.1107C37.6442 56.3509 37.6382 67.5912 37.6382 78.8314C37.6382 79.6713 37.2011 80.0919 36.3268 80.0933C25.1053 80.0933 13.8857 80.0933 2.66419 80.0933C0.0135624 80.0933 0.0572104 80.0932 -0.000325715 82.7792C-0.0221498 83.7444 0.265531 83.9738 1.21587 83.9718C13.9552 83.9402 26.6925 83.9521 39.4318 83.9461C40.7789 83.9461 40.8344 84.2725 40.8344 82.5834C40.8344 70.7518 40.8384 58.9202 40.8225 47.0886C40.8225 46.3944 40.9773 45.9948 41.6796 45.6586C43.0605 44.998 44.3858 44.2049 45.6814 43.386C46.8757 42.6325 48.0403 42.0055 49.5502 42.1123C51.3993 42.2428 51.1592 41.9006 51.1592 43.7717C51.1671 56.6872 51.1632 69.6046 51.1632 82.5201C51.1632 83.782 51.31 83.9461 52.4686 83.9461C56.7581 83.9501 61.0495 83.9343 65.3389 83.96C65.9936 83.9639 66.1781 83.7483 66.194 83.1154C66.3527 76.3452 66.0948 69.5769 66.44 62.7968C66.809 55.5519 66.5352 48.2753 66.5412 41.0126C66.319 40.7377 66.319 40.4647 66.5412 40.1898C66.5333 39.1415 66.0015 38.6167 64.946 38.6154C62.0415 38.6154 59.1369 38.5758 56.2363 38.6372C55.282 38.6569 55.0121 38.3919 55.0161 37.4366C55.0498 28.0714 55.034 18.7062 55.0439 9.341C55.0439 9.00872 54.899 8.62303 55.2205 8.34811C57.3096 10.1302 59.4146 11.8628 61.4443 13.6745C63.5553 15.5594 65.6702 17.4364 67.8387 19.256C69.416 20.5792 70.9338 21.9736 72.4753 23.3384C72.9575 23.7656 73.4455 24.179 73.9514 24.5745C74.499 25.0017 75.2906 25.3815 75.2887 26.3348C75.2728 33.202 75.2728 40.0711 75.2926 46.9383C75.2946 47.6068 75.0565 47.7729 74.4316 47.7551C73.013 47.7175 71.5944 47.7591 70.1759 47.7373C69.3565 47.7235 68.9795 48.0558 68.9815 48.8944C68.9914 60.1979 68.9894 71.5034 68.9815 82.8069C68.9815 83.5723 69.289 83.954 70.0866 83.9501C72.7591 83.9382 75.4315 83.9323 78.104 83.956C78.6734 83.962 78.8618 83.7503 78.8499 83.2123C78.8281 82.1937 78.844 81.1751 78.844 80.1565C78.844 70.7261 78.848 61.2936 78.8361 51.8632C78.8361 51.2085 78.842 50.8169 79.7388 50.7714C81.0125 50.7081 81.8656 51.3687 82.7902 52.0135C84.2583 53.038 85.7444 54.0368 87.2304 55.0357C87.5577 55.2572 87.5558 55.5637 87.5558 55.898C87.5439 64.8657 87.5359 73.8333 87.526 82.8009C87.3455 83.0719 87.3455 83.337 87.5478 83.5961C87.7621 84.1934 88.2759 83.9323 88.6509 83.9323C100.829 83.9461 113.007 83.9442 125.184 83.9442C125.877 83.9442 126.571 83.9204 127.264 83.9521C127.777 83.9758 127.986 83.776 127.974 83.2717C127.958 82.5814 127.916 81.8852 127.986 81.2028C128.079 80.2792 127.712 80.0656 126.817 80.0675V80.0774ZM55.9625 42.1321C58.006 42.1617 60.0515 42.1795 62.095 42.1241C62.8747 42.1024 63.0077 42.3852 63.0037 43.0874C62.9779 49.0981 62.9878 55.1069 62.9878 61.1176C62.9878 67.1283 62.972 73.0718 63.0057 79.0489C63.0097 79.848 62.8232 80.1407 61.978 80.117C59.9682 80.0596 57.9544 80.0774 55.9446 80.1111C55.284 80.1229 55.0201 79.9588 55.0221 79.2408C55.0419 67.156 55.0419 55.0693 55.0221 42.9845C55.0221 42.2468 55.3236 42.1241 55.9625 42.1321ZM74.2947 80.115C72.1242 80.0853 72.1242 80.117 72.1242 77.9196C72.1242 69.2862 72.1381 60.6508 72.1043 52.0174C72.1004 51.0977 72.2869 50.7575 73.2808 50.7951C75.2787 50.8703 75.2807 50.8129 75.2807 52.8382V65.4452C75.2807 70.0081 75.2609 74.571 75.2986 79.134C75.3045 79.9271 75.0585 80.1249 74.2947 80.115Z" fill="black"/>
</g>
<defs>
<clipPath id="clip0_1668_1667">
<rect width="128" height="84" fill="white"/>
</clipPath>
</defs>
</svg>
