<svg width="68" height="60" viewBox="0 0 68 60" fill="none" xmlns="http://www.w3.org/2000/svg">
<g clip-path="url(#clip0_2171_5957)">
<path fill-rule="evenodd" clip-rule="evenodd" d="M19.9569 0.141602L54.0897 1.65628L67.9088 32.1399L48.4127 59.9999L14.0943 57.818L0.0249023 24.7892L19.9569 0.141602ZM44.9808 17.7131L20.2435 28.4433L41.3924 44.6776L44.9808 17.7131ZM42.1168 12.3363L22.3477 3.88543L18.1949 21.6537L42.1168 12.3363ZM37.106 48.7622L15.6208 33.5308L16.1405 54.1703L37.106 48.7622ZM64.477 32.0727L49.8359 17.3227L45.9716 45.6863L64.477 32.0727ZM42.1434 52.0799L24.0235 56.7818L45.3324 58.1365L42.1434 52.0799ZM61.6158 38.7648L45.7544 50.4956L48.9061 56.6107L61.6158 38.7648ZM54.1133 5.91543L51.0325 12.1944L62.4996 23.7669L54.1133 5.91543ZM50.2748 2.91075L30.1384 2.09926L46.7486 9.31224L50.2748 2.91075ZM17.0164 5.81437L2.91215 23.4961L12.342 25.479L17.0164 5.81437ZM11.7734 28.9476L2.29811 26.9559L12.1848 50.0801L11.7734 28.9476Z" fill="black"/>
</g>
<defs>
<clipPath id="clip0_2171_5957">
<rect width="68" height="60" fill="white"/>
</clipPath>
</defs>
</svg>
