<svg width="182" height="28" viewBox="0 0 182 28" fill="none" xmlns="http://www.w3.org/2000/svg">
<path d="M7.46672 3.42236C8.84465 3.39915 10.2225 3.38229 11.6006 3.37109C12.0686 3.36642 12.5366 3.36007 13.0045 3.35195C13.6803 3.34053 14.3559 3.33531 15.0318 3.33122C15.4375 3.32633 15.8432 3.32144 16.2611 3.31641C18.3937 3.51101 19.9299 4.40932 21.4667 5.91125C22.4897 7.41158 22.6969 8.81365 22.4 10.5779C21.6595 12.7897 20.6663 14.0684 18.6667 15.2446C19.1657 16.988 19.9861 18.5006 20.8445 20.0863C21.1239 20.6048 21.4026 21.1237 21.6806 21.643C21.8037 21.8706 21.9268 22.0983 22.0537 22.3328C22.4195 23.0611 22.7196 23.8212 23.0223 24.5779C21.7903 24.5779 20.5583 24.5779 19.2889 24.5779C17.7287 21.7148 16.2707 18.8424 14.9334 15.8668C12.7556 15.8668 12.4445 15.8668 10.5778 15.8668C10.5778 18.8441 10.5778 21.5104 10.5778 24.5779C9.55116 24.5779 8.52449 24.5779 7.46672 24.5779C7.46672 20.6766 7.46672 16.7753 7.46672 12.7557C12.0167 12.6779 12.0167 12.6779 13.4418 12.663C13.8161 12.6535 14.1904 12.644 14.5761 12.6342C15.148 12.6244 15.148 12.6244 15.7314 12.6144C16.9896 12.4145 17.8889 12.1332 18.6667 11.2001C19.1648 10.2039 19.1301 9.17014 18.9778 8.08903C18.1681 6.90563 17.2228 6.5922 15.8667 6.22236C15.8667 7.24903 15.8667 8.2757 15.8667 9.33347C11.5547 9.33347 7.24272 9.33347 2.80005 9.33347C2.80005 8.20414 2.80005 7.07481 2.80005 5.91125C4.34005 5.91125 5.88005 5.91125 7.46672 5.91125C7.46672 5.08992 7.46672 4.26859 7.46672 3.42236Z" fill="#0A0505"/>
<path d="M139.378 3.42188C142.489 3.42188 142.489 3.42188 143.171 4.01736C143.382 4.43485 143.382 4.43485 143.597 4.86076C143.77 5.17638 143.943 5.492 144.121 5.81719C144.301 6.15607 144.481 6.49495 144.667 6.8441C145.088 7.51576 145.516 8.18318 145.95 8.84688C146.184 9.21137 146.418 9.57596 146.651 9.94063C147.275 10.9082 147.909 11.8687 148.545 12.8281C148.822 13.249 148.822 13.249 149.105 13.6783C149.474 14.2362 149.843 14.793 150.215 15.3485C150.383 15.604 150.552 15.8595 150.725 16.1227C150.876 16.3508 151.028 16.5789 151.184 16.8139C151.511 17.4219 151.511 17.4219 151.511 18.3552C151.716 18.3552 151.922 18.3552 152.133 18.3552C152.133 13.4272 152.133 8.49921 152.133 3.42188C153.16 3.42188 154.187 3.42188 155.244 3.42188C155.244 10.4032 155.244 17.3845 155.244 24.5774C152.133 24.5774 152.133 24.5774 151.473 24.0938C151.338 23.8555 151.203 23.6173 151.064 23.3719C150.893 23.0875 150.721 22.8032 150.545 22.5102C150.35 22.1657 150.156 21.8213 149.956 21.4663C149.56 20.8127 149.159 20.1625 148.758 19.512C148.317 18.7942 147.881 18.0735 147.445 17.3526C146.391 15.6222 145.29 13.9237 144.181 12.2283C143.138 10.6318 143.138 10.6318 142.8 9.95521C142.697 14.7805 142.595 19.6059 142.489 24.5774C141.462 24.5774 140.436 24.5774 139.378 24.5774C139.378 17.5961 139.378 10.6148 139.378 3.42188Z" fill="#0A0605"/>
<path d="M38.5778 3.42188C39.5018 3.42188 40.4258 3.42188 41.3778 3.42188C42.5335 6.5494 43.6828 9.67905 44.8195 12.8135C46.4538 17.3287 46.4538 17.3287 48.1705 21.813C48.8445 23.5444 48.8445 23.5444 48.8445 24.5774C47.7152 24.5774 46.5858 24.5774 45.4223 24.5774C45.2131 23.9752 45.0061 23.3723 44.8 22.7691C44.6845 22.4334 44.569 22.0978 44.45 21.7519C44.3334 20.8441 44.1778 20.6885 44.0223 19.9108C41.2503 19.9108 38.6338 19.9108 35.7778 19.9108C35.4698 20.9374 35.1618 21.9641 34.8445 23.0219C34.6392 23.5352 34.4338 24.0485 34.2223 24.5774C33.0929 24.5774 31.9636 24.5774 30.8 24.5774C31.8961 21.1993 33.0215 17.8477 34.3364 14.548C35.1405 12.5183 35.8618 10.4635 36.5605 8.39532C37.1436 6.68986 37.8264 5.06054 38.5778 3.42188Z" fill="#0A0505"/>
<path d="M114.8 3.42188C115.827 3.42188 116.853 3.42188 117.911 3.42188C117.915 4.09991 117.915 4.09991 117.92 4.79164C117.932 6.47201 117.953 8.15221 117.976 9.83246C117.984 10.5591 117.991 11.2857 117.995 12.0124C118.002 13.0582 118.017 14.1036 118.033 15.1493C118.033 15.4731 118.033 15.7969 118.034 16.1306C118.071 18.0016 118.214 19.1106 119.467 20.533C120.855 21.5574 122.059 21.5983 123.715 21.3788C124.934 21.005 125.329 20.3496 126 19.2885C126.376 18.5359 126.36 18.0374 126.375 17.1963C126.381 16.8911 126.387 16.586 126.394 16.2716C126.399 15.9413 126.404 15.6111 126.41 15.2708C126.416 14.9333 126.422 14.5959 126.429 14.2481C126.45 13.1672 126.468 12.0862 126.486 11.0052C126.5 10.2736 126.513 9.54201 126.527 8.81042C126.56 7.01426 126.592 5.21808 126.622 3.42188C127.649 3.42188 128.676 3.42188 129.733 3.42188C129.772 5.72455 129.8 8.02704 129.819 10.33C129.827 11.1127 129.837 11.8955 129.851 12.6782C129.87 13.8058 129.878 14.9331 129.885 16.0608C129.893 16.4086 129.901 16.7564 129.91 17.1148C129.91 19.6634 129.346 21.2128 127.558 23.0292C125.523 24.4898 123.566 25.1859 121.022 24.8885C119.037 24.4806 117.335 23.6873 116.044 22.0885C114.733 19.9639 114.632 18.2824 114.678 15.8177C114.68 15.4621 114.682 15.1066 114.684 14.7402C114.691 13.6118 114.706 12.4836 114.722 11.3552C114.728 10.5872 114.734 9.8191 114.739 9.05104C114.753 7.17453 114.774 5.29826 114.8 3.42188Z" fill="#0B0706"/>
<path d="M102.927 4.47408C104.387 5.56801 105.296 6.78559 105.739 8.5562C105.752 8.81287 105.765 9.06954 105.778 9.33398C104.533 9.33398 103.6 9.33398 102.356 9.33398C101.733 8.24501 101.733 7.87707 101.111 7.46731C100.166 6.84484 99.5866 6.58252 98.4666 6.5339C98.1819 6.51425 97.6249 6.63079 97.3316 6.61054C96.1738 6.91664 95.7271 7.4109 94.9787 8.32292C94.2049 9.67369 94.3143 11.1179 94.3274 12.6383C94.321 13.1516 94.321 13.1516 94.3145 13.6753C94.3029 14.7626 94.304 15.8494 94.3055 16.9368C94.2999 17.6763 94.2934 18.4158 94.2861 19.1552C94.27 20.963 94.2653 22.7706 94.2666 24.5784C93.1373 24.5784 92.008 24.5784 90.8444 24.5784C90.7981 22.3758 90.7643 20.1734 90.7419 17.9704C90.7325 17.222 90.7198 16.4737 90.7036 15.7254C90.6808 14.6457 90.6703 13.5664 90.6621 12.4864C90.6525 12.1554 90.6429 11.8244 90.6329 11.4834C90.6319 9.09954 91.2107 7.46764 92.7111 5.60065C95.587 2.95049 99.4569 2.47923 102.927 4.47408Z" fill="#100C0B"/>
<path d="M69.6888 3.42188C70.7155 3.42188 71.7422 3.42188 72.8 3.42188C72.8 9.47921 72.8 15.5365 72.8 21.7774C76.188 21.7774 79.576 21.7774 83.0666 21.7774C83.0666 22.7014 83.0666 23.6254 83.0666 24.5774C78.652 24.5774 74.2373 24.5774 69.6888 24.5774C69.6888 17.5961 69.6888 10.6148 69.6888 3.42188Z" fill="#050000"/>
<path d="M56.9333 3.42188C57.96 3.42188 58.9867 3.42188 60.0445 3.42188C60.0445 10.4032 60.0445 17.3845 60.0445 24.5774C59.0178 24.5774 57.9911 24.5774 56.9333 24.5774C56.9333 17.5961 56.9333 10.6148 56.9333 3.42188Z" fill="#050000"/>
<path d="M98.6222 12.7559C101.086 12.7559 103.55 12.7559 106.089 12.7559C106.089 16.5545 106.089 20.3532 106.089 24.267C104.96 24.267 103.83 24.267 102.667 24.267C102.667 21.5976 102.667 18.9283 102.667 16.1781C101.332 16.1781 99.9973 16.1781 98.6222 16.1781C98.6222 15.0487 98.6222 13.9194 98.6222 12.7559Z" fill="#161212"/>
<path d="M160.844 22.4004C166.491 22.4004 172.138 22.4004 177.956 22.4004C177.956 23.1191 177.956 23.8377 177.956 24.5782C172.309 24.5782 166.662 24.5782 160.844 24.5782C160.844 23.8595 160.844 23.1408 160.844 22.4004Z" fill="#040100"/>
<path d="M39.2 8.08984C39.4054 8.08984 39.6107 8.08984 39.8222 8.08984C40.2913 9.41773 40.7571 10.7467 41.2222 12.076C41.4226 12.6429 41.4226 12.6429 41.6269 13.2214C41.8164 13.7643 41.8164 13.7643 42.0097 14.3181C42.1271 14.6521 42.2444 14.9861 42.3652 15.3302C42.6222 16.1787 42.6222 16.1787 42.6222 17.1121C40.5689 17.1121 38.5156 17.1121 36.4 17.1121C37.2914 14.0914 38.2477 11.0917 39.2 8.08984Z" fill="#F2F2F2"/>
</svg>
